<?xml version="1.0" encoding="utf-8"?>
<!-- Generator: Adobe Illustrator 25.2.3, SVG Export Plug-In . SVG Version: 6.00 Build 0)  -->
<svg version="1.1" id="Calque_1" xmlns="http://www.w3.org/2000/svg" xmlns:xlink="http://www.w3.org/1999/xlink" x="0px" y="0px"
	 viewBox="0 0 1275.6 850.4" style="enable-background:new 0 0 1275.6 850.4;" xml:space="preserve">
<style type="text/css">
	.st0{fill:none;stroke:#020203;stroke-width:0.5669;stroke-linecap:round;stroke-linejoin:round;stroke-miterlimit:11.3386;}
</style>
<path class="st0" d="M808.5,554.3c4.5-2,8.7-4.7,12.4-7.9c5.6-4.9,10-11,12.8-18c0.8-1.9,1.4-3.8,1.9-5.7c0.8-2.9,1.3-5.9,1.5-9
	c0.1-1.1,0.1-2.2,0.1-3.4V62.1c0-1.3-0.1-2.7-0.2-4c-0.2-3-0.8-5.9-1.5-8.7c-0.5-2-1.2-3.8-1.9-5.7c-2.9-7.1-7.5-13.3-13.3-18.2
	c-3.4-2.9-7.3-5.4-11.5-7.2c-6-2.7-12.6-4.2-19.6-4.2H477.1c-6.1,0-12,1.2-17.4,3.3c-1.4,0.5-2.8,1.2-4.2,1.8
	c-7.5,3.8-13.8,9.5-18.4,16.4c-3,4.5-5.2,9.4-6.5,14.8c-0.2,1-0.5,2-0.7,3c-0.5,2.5-0.7,5.1-0.8,7.7c0,0.3,0,0.6,0,1v448.3
	c0,0.2,0,0.3,0,0.5c0,2.7,0.3,5.3,0.7,7.8c0.1,0.9,0.3,1.7,0.5,2.5c1.3,5.5,3.5,10.6,6.4,15.1c4.6,7.1,11,12.9,18.5,16.8
	c1.3,0.7,2.7,1.3,4.1,1.9c5.5,2.2,11.4,3.4,17.7,3.4h312.3C796.2,558.3,802.7,556.9,808.5,554.3z M814.2,528.5
	c1.9,1.9,1.9,4.9,0,6.7c-1.9,1.9-4.9,1.9-6.7,0c-1.9-1.9-1.9-4.9,0-6.7C809.3,526.6,812.4,526.6,814.2,528.5z M807.5,512.1
	l-18.1,18.1l-2.6-4.4l-3.6-6.2l3.6-6.2l3.6-6.2h14.2L807.5,512.1z M584.6,513.3l3.6-6.2h14.2l3.6,6.2l3.6,6.2l-3.6,6.2l-3.6,6.2
	h-14.2l-3.6-6.2l-3.6-6.2L584.6,513.3z M555.4,525.7l-3.6,6.2h-14.2l-3.6-6.2l-3.6-6.2l3.6-6.2l3.6-6.2h14.2l3.6,6.2l3.6,6.2
	L555.4,525.7z M635.2,513.3l3.6-6.2H653l3.6,6.2l3.6,6.2l-3.6,6.2l-3.6,6.2h-14.2l-3.6-6.2l-3.6-6.2L635.2,513.3z M685.7,513.3
	l3.6-6.2h14.2l3.6,6.2l3.6,6.2l-3.6,6.2l-3.6,6.2h-14.2l-3.6-6.2l-3.6-6.2L685.7,513.3z M736.3,513.3l3.6-6.2h14.2l3.6,6.2l3.6,6.2
	l-3.6,6.2l-3.6,6.2h-14.2l-3.6-6.2l-3.6-6.2L736.3,513.3z M823.7,492.6v3.3l-12.9,12.9l-2.2-3.8l3.6-6.2l3.6-6.2H823.7z
	 M757.7,496.5l-3.6,6.2h-14.2l-7.1-12.3l3.6-6.2l3.6-6.2H753c0.5,0.2,0.9,0.4,1.4,0.6l3.2,5.5l3.6,6.2L757.7,496.5z M584.6,496.5
	l-3.6-6.2l3.6-6.2l3.6-6.2h14.2l3.6,6.2l3.6,6.2l-7.1,12.3h-14.2L584.6,496.5z M551.8,502.6h-14.2l-7.1-12.3l3.6-6.2l3.6-6.2h14.2
	l3.6,6.2l3.6,6.2l-3.6,6.2L551.8,502.6z M707.1,58.6l-3.6,6.2h-14.2l-3.6-6.2l-3.6-6.2l3.6-6.2l3.6-6.2h14.2l3.6,6.2l3.6,6.2
	L707.1,58.6z M736.3,46.3l3.6-6.2h14.2l3.6,6.2l3.6,6.2l-3.6,6.2l-3.6,6.2h-14.2l-3.6-6.2l-3.6-6.2L736.3,46.3z M656.5,58.6
	l-3.6,6.2h-14.2l-3.6-6.2l-3.6-6.2l3.6-6.2l3.6-6.2H653l3.6,6.2l3.6,6.2L656.5,58.6z M606,58.6l-3.6,6.2h-14.2l-3.6-6.2l-3.6-6.2
	l3.6-6.2l3.6-6.2h14.2l3.6,6.2l3.6,6.2L606,58.6z M555.4,58.6l-3.6,6.2h-14.2l-3.6-6.2l-3.6-6.2l3.6-6.2l3.6-6.2h14.2l3.6,6.2
	l3.6,6.2L555.4,58.6z M526.6,54.7l3.6,6.2l3.6,6.2l-3.6,6.2l-3.6,6.2h-14.2l-3.6-6.2l-3.6-6.2l3.6-6.2l3.6-6.2H526.6z M584.6,75.4
	l3.6-6.2h14.2l3.6,6.2l3.6,6.2L602.4,94h-14.2l-3.6-6.2l-3.6-6.2L584.6,75.4z M656.5,467.3l-3.6,6.2h-14.2l-3.6-6.2l-3.6-6.2
	l7.1-12.3H653l3.6,6.2l3.6,6.2L656.5,467.3z M664,463.4h14.2l3.6,6.2l3.6,6.2l-3.6,6.2l-3.6,6.2H664l-3.6-6.2l-3.6-6.2l3.6-6.2
	L664,463.4z M631.2,352.8l3.6,6.2l-3.6,6.2l-3.6,6.2h-14.2l-3.6-6.2l-3.6-6.2l3.6-6.2l3.6-6.2h14.2L631.2,352.8z M664,346.6h14.2
	l3.6,6.2l3.6,6.2l-3.6,6.2l-3.6,6.2H664l-3.6-6.2l-3.6-6.2l3.6-6.2L664,346.6z M602.4,361.2l3.6,6.2l3.6,6.2l-3.6,6.2l-3.6,6.2
	h-14.2l-3.6-6.2l-3.6-6.2l3.6-6.2l3.6-6.2H602.4z M609.9,382l3.6-6.2h14.2l3.6,6.2l3.6,6.2l-3.6,6.2l-3.6,6.2h-14.2l-3.6-6.2
	l-3.6-6.2L609.9,382z M664,375.8h14.2l3.6,6.2l3.6,6.2l-3.6,6.2l-3.6,6.2H664l-3.6-6.2l-3.6-6.2l3.6-6.2L664,375.8z M602.4,390.4
	l3.6,6.2l3.6,6.2l-3.6,6.2l-3.6,6.2h-14.2l-3.6-6.2l-3.6-6.2l3.6-6.2l3.6-6.2H602.4z M609.9,411.2l3.6-6.2h14.2l3.6,6.2l3.6,6.2
	l-3.6,6.2l-3.6,6.2h-14.2l-3.6-6.2l-3.6-6.2L609.9,411.2z M638.7,415.1l-3.6-6.2l-3.6-6.2l3.6-6.2l3.6-6.2H653l3.6,6.2l3.6,6.2
	l-3.6,6.2l-3.6,6.2H638.7z M685.7,396.6l3.6-6.2h14.2l3.6,6.2l3.6,6.2l-3.6,6.2l-3.6,6.2h-14.2l-3.6-6.2l-3.6-6.2L685.7,396.6z
	 M714.6,400.5l-3.6-6.2l-3.6-6.2l3.6-6.2l3.6-6.2h14.2l3.6,6.2l3.6,6.2l-3.6,6.2l-3.6,6.2H714.6z M707.1,379.7l-3.6,6.2h-14.2
	l-3.6-6.2l-3.6-6.2l3.6-6.2l3.6-6.2h14.2l3.6,6.2l3.6,6.2L707.1,379.7z M714.6,371.3l-3.6-6.2l-3.6-6.2l3.6-6.2l3.6-6.2h14.2
	l3.6,6.2l3.6,6.2l-3.6,6.2l-3.6,6.2H714.6z M707.1,350.5l-3.6,6.2h-14.2l-3.6-6.2l-3.6-6.2l3.6-6.2l3.6-6.2h14.2l3.6,6.2l3.6,6.2
	L707.1,350.5z M678.2,342.1H664l-7.1-12.3l3.6-6.2l3.6-6.2h14.2l3.6,6.2l3.6,6.2L678.2,342.1z M602.4,273.6l3.6,6.2l3.6,6.2
	l-3.6,6.2l-3.6,6.2h-14.2l-3.6-6.2L581,286l3.6-6.2l3.6-6.2H602.4z M606.3,271.4l3.6-6.2l3.6-6.2h14.2l3.6,6.2l3.6,6.2l-3.6,6.2
	l-3.6,6.2h-14.2l-3.6-6.2L606.3,271.4z M609.9,294.4l3.6-6.2h14.2l3.6,6.2l3.6,6.2l-3.6,6.2l-3.6,6.2h-14.2l-3.6-6.2l-3.6-6.2
	L609.9,294.4z M627.7,317.4l3.6,6.2l3.6,6.2l-7.1,12.3h-14.2l-7.1-12.3l3.6-6.2l3.6-6.2H627.7z M664,312.9l-3.6-6.2l-3.6-6.2
	l3.6-6.2l3.6-6.2h14.2l3.6,6.2l3.6,6.2l-3.6,6.2l-3.6,6.2H664z M656.5,292.1l-3.6,6.2h-14.2l-3.6-6.2l-3.6-6.2l3.6-6.2l3.6-6.2H653
	l3.6,6.2l3.6,6.2L656.5,292.1z M664,283.7l-3.6-6.2l-3.6-6.2l3.6-6.2l3.6-6.2h14.2l3.6,6.2l3.6,6.2l-3.6,6.2l-3.6,6.2H664z
	 M656.5,262.9l-3.6,6.2h-14.2l-3.6-6.2l-3.6-6.2l3.6-6.2l3.6-6.2H653l3.6,6.2l3.6,6.2L656.5,262.9z M664,254.5l-3.6-6.2l-3.6-6.2
	l3.6-6.2l3.6-6.2h14.2l3.6,6.2l3.6,6.2l-3.6,6.2l-3.6,6.2H664z M689.3,239.9l-3.6-6.2l-3.6-6.2l3.6-6.2l3.6-6.2h14.2l3.6,6.2
	l3.6,6.2l-3.6,6.2l-3.6,6.2H689.3z M613.4,142.3h14.2l7.1,12.3l-3.6,6.2l-3.6,6.2h-14.2l-3.6-6.2l-3.6-6.2L613.4,142.3z
	 M602.4,152.3h-14.2l-3.6-6.2L581,140l3.6-6.2l3.6-6.2h14.2l3.6,6.2l3.6,6.2L602.4,152.3z M656.5,175.4l-3.6,6.2h-14.2l-3.6-6.2
	l-3.6-6.2l3.6-6.2l3.6-6.2H653l3.6,6.2l3.6,6.2L656.5,175.4z M664,171.5h14.2l3.6,6.2l3.6,6.2l-7.1,12.3H664l-7.1-12.3l3.6-6.2
	L664,171.5z M602.4,156.9l3.6,6.2l3.6,6.2l-3.6,6.2l-3.6,6.2h-14.2l-3.6-6.2l-3.6-6.2l3.6-6.2l3.6-6.2H602.4z M609.9,177.6l3.6-6.2
	h14.2l3.6,6.2l3.6,6.2l-7.1,12.3h-14.2l-7.1-12.3L609.9,177.6z M635.2,192.2l3.6-6.2H653l3.6,6.2l3.6,6.2l-3.6,6.2l-3.6,6.2h-14.2
	l-3.6-6.2l-3.6-6.2L635.2,192.2z M660.4,206.8l3.6-6.2h14.2l3.6,6.2l3.6,6.2l-3.6,6.2l-3.6,6.2H664l-3.6-6.2l-3.6-6.2L660.4,206.8z
	 M714.6,225.3l-3.6-6.2l-3.6-6.2l3.6-6.2l3.6-6.2h14.2l3.6,6.2l3.6,6.2l-3.6,6.2l-3.6,6.2H714.6z M707.1,204.6l-3.6,6.2h-14.2
	l-3.6-6.2l-3.6-6.2l7.1-12.3h14.2l3.6,6.2l3.6,6.2L707.1,204.6z M714.6,196.1L711,190l-3.6-6.2l3.6-6.2l3.6-6.2h14.2l3.6,6.2
	l3.6,6.2l-3.6,6.2l-3.6,6.2H714.6z M707.1,175.4l-3.6,6.2h-14.2l-3.6-6.2l-3.6-6.2l3.6-6.2l3.6-6.2h14.2l3.6,6.2l3.6,6.2
	L707.1,175.4z M681.8,160.8l-3.6,6.2H664l-3.6-6.2l-3.6-6.2l7.1-12.3h14.2l7.1,12.3L681.8,160.8z M656.5,146.2l-3.6,6.2h-14.2
	l-3.6-6.2l-3.6-6.2l3.6-6.2l3.6-6.2H653l3.6,6.2l3.6,6.2L656.5,146.2z M631.2,131.6l-3.6,6.2h-14.2l-3.6-6.2l-3.6-6.2l3.6-6.2
	l3.6-6.2h14.2l3.6,6.2l3.6,6.2L631.2,131.6z M580.7,131.6l-3.6,6.2h-14.2l-3.6-6.2l-3.6-6.2l3.6-6.2l3.6-6.2h14.2l3.6,6.2l3.6,6.2
	L580.7,131.6z M551.8,127.7l3.6,6.2l3.6,6.2l-3.6,6.2l-3.6,6.2h-14.2l-7.1-12.3l3.6-6.2l3.6-6.2H551.8z M559.3,148.4l3.6-6.2h14.2
	l3.6,6.2l3.6,6.2l-3.6,6.2l-3.6,6.2h-14.2l-3.6-6.2l-3.6-6.2L559.3,148.4z M551.8,156.9l3.6,6.2l3.6,6.2l-3.6,6.2l-3.6,6.2h-14.2
	l-3.6-6.2l-3.6-6.2l3.6-6.2l3.6-6.2H551.8z M559.3,177.6l3.6-6.2h14.2l3.6,6.2l3.6,6.2l-3.6,6.2l-3.6,6.2h-14.2l-3.6-6.2l-3.6-6.2
	L559.3,177.6z M551.8,186l3.6,6.2l3.6,6.2l-3.6,6.2l-3.6,6.2h-14.2l-3.6-6.2l-3.6-6.2l7.1-12.3H551.8z M584.6,204.6l-3.6-6.2
	l3.6-6.2l3.6-6.2h14.2l7.1,12.3l-3.6,6.2l-3.6,6.2h-14.2L584.6,204.6z M609.9,206.8l3.6-6.2h14.2l3.6,6.2l3.6,6.2l-3.6,6.2l-3.6,6.2
	h-14.2l-3.6-6.2l-3.6-6.2L609.9,206.8z M635.2,221.4l3.6-6.2H653l3.6,6.2l3.6,6.2l-3.6,6.2l-3.6,6.2h-14.2l-3.6-6.2l-3.6-6.2
	L635.2,221.4z M627.7,229.8l3.6,6.2l3.6,6.2l-3.6,6.2l-3.6,6.2h-14.2l-3.6-6.2l-3.6-6.2l3.6-6.2l3.6-6.2H627.7z M602.4,244.4
	l3.6,6.2l3.6,6.2l-3.6,6.2l-3.6,6.2h-14.2l-3.6-6.2l-3.6-6.2l3.6-6.2l3.6-6.2H602.4z M577.1,259l3.6,6.2l3.6,6.2l-7.1,12.3h-14.2
	l-7.1-12.3l3.6-6.2l3.6-6.2H577.1z M551.8,273.6l3.6,6.2l3.6,6.2l-3.6,6.2l-3.6,6.2h-14.2l-3.6-6.2l-3.6-6.2l3.6-6.2l3.6-6.2H551.8z
	 M559.3,294.4l3.6-6.2h14.2l3.6,6.2l3.6,6.2l-3.6,6.2l-3.6,6.2h-14.2l-3.6-6.2l-3.6-6.2L559.3,294.4z M584.6,309l3.6-6.2h14.2
	l3.6,6.2l3.6,6.2l-3.6,6.2l-3.6,6.2h-14.2l-3.6-6.2l-3.6-6.2L584.6,309z M577.1,317.4l3.6,6.2l3.6,6.2l-3.6,6.2l-3.6,6.2h-14.2
	l-3.6-6.2l-3.6-6.2l3.6-6.2l3.6-6.2H577.1z M584.6,338.2l3.6-6.2h14.2l3.6,6.2l3.6,6.2l-3.6,6.2l-3.6,6.2h-14.2l-3.6-6.2l-3.6-6.2
	L584.6,338.2z M577.1,346.6l3.6,6.2l3.6,6.2l-3.6,6.2l-3.6,6.2h-14.2l-3.6-6.2l-3.6-6.2l3.6-6.2l3.6-6.2H577.1z M551.8,361.2
	l3.6,6.2l3.6,6.2l-3.6,6.2l-3.6,6.2h-14.2l-3.6-6.2l-3.6-6.2l3.6-6.2l3.6-6.2H551.8z M559.3,382l3.6-6.2h14.2l3.6,6.2l3.6,6.2
	l-3.6,6.2l-3.6,6.2h-14.2l-3.6-6.2l-3.6-6.2L559.3,382z M551.8,390.4l3.6,6.2l3.6,6.2l-3.6,6.2l-3.6,6.2h-14.2l-3.6-6.2l-3.6-6.2
	l3.6-6.2l3.6-6.2H551.8z M559.3,411.2l3.6-6.2h14.2l3.6,6.2l3.6,6.2l-3.6,6.2l-3.6,6.2h-14.2l-3.6-6.2l-3.6-6.2L559.3,411.2z
	 M584.6,425.8l3.6-6.2h14.2l3.6,6.2l3.6,6.2l-7.1,12.3h-14.2l-3.6-6.2l-3.6-6.2L584.6,425.8z M609.9,440.4l3.6-6.2h14.2l3.6,6.2
	l3.6,6.2l-3.6,6.2l-3.6,6.2h-14.2l-3.6-6.2l-3.6-6.2L609.9,440.4z M664,458.9l-3.6-6.2l-3.6-6.2l3.6-6.2l3.6-6.2h14.2l3.6,6.2
	l3.6,6.2l-3.6,6.2l-3.6,6.2H664z M656.5,438.1l-3.6,6.2h-14.2l-3.6-6.2l-3.6-6.2l3.6-6.2l3.6-6.2H653l3.6,6.2l3.6,6.2L656.5,438.1z
	 M664,429.7l-3.6-6.2l-3.6-6.2l3.6-6.2l3.6-6.2h14.2l3.6,6.2l3.6,6.2l-3.6,6.2l-3.6,6.2H664z M711,411.2l3.6-6.2h14.2l3.6,6.2
	l3.6,6.2l-3.6,6.2l-3.6,6.2h-14.2l-0.1-0.1l-3.5-6.1l-3.6-6.2L711,411.2z M739.8,415.1l-3.6-6.2l-3.6-6.2l3.6-6.2l3.6-6.2h14.2
	l3.6,6.2l3.6,6.2l-3.6,6.2l-3.6,6.2H739.8z M765.1,400.5l-3.6-6.2l-3.6-6.2l3.6-6.2l3.6-6.2h14.2l3.6,6.2l3.6,6.2l-3.6,6.2l-3.6,6.2
	H765.1z M757.7,379.7l-3.6,6.2h-14.2l-3.6-6.2l-3.6-6.2l3.6-6.2l3.6-6.2h14.2l3.6,6.2l3.6,6.2L757.7,379.7z M765.1,371.3l-3.6-6.2
	l-3.6-6.2l3.6-6.2l3.6-6.2h14.2l3.6,6.2l3.6,6.2l-3.6,6.2l-3.6,6.2H765.1z M757.7,350.5l-3.6,6.2h-14.2l-3.6-6.2l-3.6-6.2l3.6-6.2
	l3.6-6.2h14.2l3.6,6.2l3.6,6.2L757.7,350.5z M765.1,342.1l-7.1-12.3l3.6-6.2l3.6-6.2h14.2l3.6,6.2l3.6,6.2l-7.1,12.3H765.1z
	 M732.4,323.6l3.6,6.2l-3.6,6.2l-3.6,6.2h-14.2l-3.6-6.2l-3.6-6.2l3.6-6.2l3.6-6.2h14.2L732.4,323.6z M707.1,321.3l-3.6,6.2h-14.2
	l-3.6-6.2l-3.6-6.2l3.6-6.2l3.6-6.2h14.2l3.6,6.2l3.6,6.2L707.1,321.3z M765.1,312.9l-3.6-6.2l-3.6-6.2l3.6-6.2l3.6-6.2h14.2
	l3.6,6.2l3.6,6.2l-3.6,6.2l-3.6,6.2H765.1z M757.7,292.1l-3.6,6.2h-14.2l-3.6-6.2l-3.6-6.2l3.6-6.2l3.6-6.2h14.2l3.6,6.2l3.6,6.2
	L757.7,292.1z M765.1,283.7l-7.1-12.3l3.6-6.2l3.6-6.2h14.2l3.6,6.2l3.6,6.2l-7.1,12.3H765.1z M732.4,265.2l3.6,6.2l-3.6,6.2
	l-3.6,6.2h-14.2l-3.6-6.2l-3.6-6.2l3.6-6.2l3.6-6.2h14.2L732.4,265.2z M707.1,262.9l-3.6,6.2h-14.2l-3.6-6.2l-3.6-6.2l3.6-6.2
	l3.6-6.2h14.2l3.6,6.2l3.6,6.2L707.1,262.9z M714.6,254.5l-3.6-6.2l-3.6-6.2l3.6-6.2l3.6-6.2h14.2l3.6,6.2l3.6,6.2l-3.6,6.2
	l-3.6,6.2H714.6z M739.8,239.9l-3.6-6.2l-3.6-6.2l3.6-6.2l3.6-6.2h14.2l3.6,6.2l3.6,6.2l-3.6,6.2l-3.6,6.2H739.8z M765.1,225.3
	l-3.6-6.2L758,213l3.6-6.2l3.6-6.2h14.2l3.6,6.2l3.6,6.2l-3.6,6.2l-3.6,6.2H765.1z M757.7,204.6l-3.6,6.2h-14.2l-3.6-6.2l-3.6-6.2
	l7.1-12.3h14.2l3.6,6.2l3.6,6.2L757.7,204.6z M765.1,196.1l-7.1-12.3l3.6-6.2l3.6-6.2h14.2l3.6,6.2l3.6,6.2l-7.1,12.3H765.1z
	 M757.7,175.4l-3.6,6.2h-14.2l-3.6-6.2l-3.6-6.2l3.6-6.2l3.6-6.2h14.2l3.6,6.2l3.6,6.2L757.7,175.4z M732.4,160.8l-3.6,6.2h-14.2
	l-3.6-6.2l-3.6-6.2l3.6-6.2l3.2-5.6l0.3-0.6h14.2l3.6,6.2l3.6,6.2L732.4,160.8z M739.8,152.3l-7.1-12.3l3.6-6.2l3.6-6.2h2.6
	c3.7,6.8,10.6,11.6,18.7,12.5l-3.5,6l-3.6,6.2H739.8z M709.9,141.3l-2.8,4.9l-3.6,6.2h-14.2l-7.1-12.3l3.6-6.2l3.6-6.2h14.2l3.6,6.2
	l3.6,6.2L709.9,141.3z M681.8,131.6l-3.6,6.2H664l-3.6-6.2l-3.6-6.2l3.6-6.2l3.6-6.2h14.2l3.6,6.2l3.6,6.2L681.8,131.6z M656.5,117
	l-3.6,6.2h-14.2l-7.1-12.3l3.6-6.2l3.6-6.2H653l3.6,6.2l3.6,6.2L656.5,117z M664,108.5l-3.6-6.2l-3.6-6.2l3.6-6.2l3.6-6.2h14.2
	l3.6,6.2l3.6,6.2l-3.6,6.2l-3.6,6.2H664z M711,90l3.6-6.2h14.2l3.6,6.2l3.6,6.2l-3.6,6.2l-2.1,3.6l-1.5,2.5h-14.2l-2.8-4.8l-0.8-1.4
	l-3.6-6.2L711,90z M707.1,87.8l-3.6,6.2h-14.2l-7.1-12.3l3.6-6.2l3.6-6.2h14.2l3.6,6.2l3.6,6.2L707.1,87.8z M656.5,75.4l3.6,6.2
	l-3.6,6.2L653,94h-14.2l-3.6-6.2l-3.6-6.2l3.6-6.2l3.6-6.2H653L656.5,75.4z M609.9,90l3.6-6.2h14.2l3.6,6.2l3.6,6.2l-3.6,6.2
	l-3.6,6.2h-14.2l-3.6-6.2l-3.6-6.2L609.9,90z M602.4,98.5l3.6,6.2l3.6,6.2l-7.1,12.3h-14.2l-3.6-6.2l-3.6-6.2l3.6-6.2l3.6-6.2H602.4
	z M555.4,117l-3.6,6.2h-14.2l-7.1-12.3l3.6-6.2l3.6-6.2h14.2l3.6,6.2l3.6,6.2L555.4,117z M530.1,119.2l3.6,6.2l-3.6,6.2l-3.6,6.2
	h-13.1c8-3.9,13.5-12.1,13.5-21.6c0-0.9-0.1-1.8-0.2-2.7L530.1,119.2z M502.8,140.2c1.8,0,3.6-0.2,5.4-0.6l0.2,0.4l-3.6,6.2
	l-3.6,6.2H487l-7.1-12.3l0.2-0.3c0,0,0,0,0,0l3.4-5.9l1.1-2C489,137,495.5,140.2,502.8,140.2z M512.3,142.3h14.2l7.1,12.3l-3.6,6.2
	l-3.6,6.2h-14.2l-3.6-6.2l-3.6-6.2L512.3,142.3z M501.3,156.9l3.6,6.2l3.6,6.2l-3.6,6.2l-3.6,6.2H487l-3.6-6.2l-3.6-6.2l3.6-6.2
	l3.6-6.2H501.3z M508.8,177.6l3.6-6.2h14.2l3.6,6.2l3.6,6.2l-7.1,12.3h-14.2l-7.1-12.3L508.8,177.6z M501.3,186l3.6,6.2l3.6,6.2
	l-3.6,6.2l-3.6,6.2H487l-3.6-6.2l-3.6-6.2L487,186H501.3z M508.8,206.8l3.6-6.2h14.2l3.6,6.2l3.6,6.2l-3.6,6.2l-3.6,6.2h-14.2
	l-3.6-6.2l-3.6-6.2L508.8,206.8z M584.6,221.4l3.6-6.2h14.2l3.6,6.2l3.6,6.2l-3.6,6.2l-3.6,6.2h-14.2l-3.6-6.2l-3.6-6.2L584.6,221.4
	z M577.1,229.8l3.6,6.2l3.6,6.2l-3.6,6.2l-3.6,6.2h-14.2l-3.6-6.2l-3.6-6.2l3.6-6.2l3.6-6.2H577.1z M551.8,244.4l3.6,6.2l3.6,6.2
	l-3.6,6.2l-3.6,6.2h-14.2l-3.6-6.2l-3.6-6.2l3.6-6.2l3.6-6.2H551.8z M526.6,259l3.6,6.2l3.6,6.2l-3.6,6.2l-3.6,6.2h-14.2l-3.6-6.2
	l-3.6-6.2l3.6-6.2l3.6-6.2H526.6z M501.3,273.6l3.6,6.2l3.6,6.2l-3.6,6.2l-3.6,6.2H487l-3.6-6.2l-3.6-6.2l3.6-6.2l3.6-6.2H501.3z
	 M508.8,294.4l3.6-6.2h14.2l3.6,6.2l3.6,6.2l-3.6,6.2l-3.6,6.2h-14.2l-3.6-6.2l-3.6-6.2L508.8,294.4z M534,309l3.6-6.2h14.2l3.6,6.2
	l3.6,6.2l-3.6,6.2l-3.6,6.2h-14.2l-3.6-6.2l-3.6-6.2L534,309z M526.6,317.4l3.6,6.2l3.6,6.2l-7.1,12.3h-14.2l-7.1-12.3l3.6-6.2
	l3.6-6.2H526.6z M534,338.2l3.6-6.2h14.2l3.6,6.2l3.6,6.2l-3.6,6.2l-3.6,6.2h-14.2l-3.6-6.2l-3.6-6.2L534,338.2z M526.6,346.6
	l3.6,6.2l3.6,6.2l-3.6,6.2l-3.6,6.2h-14.2l-3.6-6.2l-3.6-6.2l3.6-6.2l3.6-6.2H526.6z M501.3,361.2l3.6,6.2l3.6,6.2l-3.6,6.2
	l-3.6,6.2H487l-3.6-6.2l-3.6-6.2l3.6-6.2l3.6-6.2H501.3z M508.8,382l3.6-6.2h14.2l3.6,6.2l3.6,6.2l-3.6,6.2l-3.6,6.2h-14.2l-3.6-6.2
	l-3.6-6.2L508.8,382z M501.3,390.4l3.6,6.2l3.6,6.2l-3.6,6.2l-3.6,6.2H487l-3.6-6.2l-3.6-6.2l3.6-6.2l3.6-6.2H501.3z M508.8,411.2
	l3.6-6.2h14.2l3.6,6.2l3.6,6.2l-3.6,6.2l-3.6,6.2h-14.2l-3.6-6.2l-3.6-6.2L508.8,411.2z M534,425.8l3.6-6.2h14.2l3.6,6.2l3.6,6.2
	l-3.6,6.2l-3.6,6.2h-14.2l-7.1-12.3L534,425.8z M526.6,434.2l3.6,6.2l3.6,6.2l-3.6,6.2l-3.3,5.7c0.1-0.7,0.1-1.4,0.1-2.2
	c0-9.9-6-18.4-14.5-22.1H526.6z M559.3,440.4l3.6-6.2h14.2l3.6,6.2l3.6,6.2l-3.6,6.2l-3.6,6.2h-14.2l-3.6-6.2l-3.6-6.2L559.3,440.4z
	 M584.6,454.9l3.6-6.2h14.2l3.6,6.2l3.6,6.2l-3.6,6.2l-3.6,6.2h-14.2l-3.6-6.2l-3.6-6.2L584.6,454.9z M609.9,469.5l3.6-6.2h14.2
	l3.6,6.2l3.6,6.2l-3.6,6.2l-3.6,6.2h-14.2l-3.6-6.2l-3.6-6.2L609.9,469.5z M635.2,496.5l-3.6-6.2l3.6-6.2l3.6-6.2H653l3.6,6.2
	l3.6,6.2l-3.6,6.2l-3.6,6.2h-14.2L635.2,496.5z M682.2,490.3l3.6-6.2l3.6-6.2h14.2l3.6,6.2l3.6,6.2l-3.6,6.2l-3.6,6.2h-14.2
	L682.2,490.3z M823.7,463.4V488h-8l-3.6-6.2l-3.6-6.2l3.6-6.2l3.6-6.2H823.7z M728.8,463.4l1.7,2.9l1.9,3.3l3.6,6.2l-3.6,6.2
	l-3.6,6.2h-14.2l-3.6-6.2l-3.6-6.2l3.6-6.2l0.6-1l3-5.2H728.8z M707.6,466.5l-0.5,0.8l-3.6,6.2h-14.2l-3.6-6.2l-3.6-6.2l3.6-6.2
	l3.6-6.2h14.2l7.1,12.3L707.6,466.5z M823.7,434.2v24.7h-8l-3.6-6.2l-3.6-6.2l3.6-6.2l3.6-6.2H823.7z M728.8,434.2l3.6,6.2l3.6,6.2
	l-3.6,6.2l-3.6,6.2h-14.2l-3.6-6.2l-3.6-6.2l3.6-6.2l3.6-6.2H728.8z M710.7,431.9l-3.6,6.2l-3.6,6.2h-14.2l-7.1-12.3l3.6-6.2
	l3.6-6.2h14.2l3.6,6.2l3.1,5.3L710.7,431.9z M823.7,405v24.7h-8l-3.6-6.2l-3.6-6.2l3.6-6.2l3.6-6.2H823.7z M808.2,408.9l-3.6,6.2
	h-14.2l-3.6-6.2l-3.6-6.2l3.6-6.2l3.6-6.2h14.2l3.6,6.2l3.6,6.2L808.2,408.9z M823.7,375.8v24.7h-8l-3.6-6.2l-3.6-6.2l3.6-6.2
	l3.6-6.2H823.7z M808.2,379.7l-3.6,6.2h-14.2l-3.6-6.2l-3.6-6.2l3.6-6.2l3.6-6.2h14.2l3.6,6.2l3.6,6.2L808.2,379.7z M823.7,346.6
	v24.7h-8l-3.6-6.2l-3.6-6.2l3.6-6.2l3.6-6.2H823.7z M808.2,350.5l-3.6,6.2h-14.2l-3.6-6.2l-3.6-6.2l3.6-6.2l3.6-6.2h14.2l3.6,6.2
	l3.6,6.2L808.2,350.5z M823.7,317.4v24.7h-8l-7.1-12.3l3.6-6.2l3.6-6.2H823.7z M808.2,321.3l-3.6,6.2h-14.2l-3.6-6.2l-3.6-6.2
	l3.6-6.2l3.6-6.2h14.2l3.6,6.2l3.6,6.2L808.2,321.3z M823.7,288.2v24.7h-8l-3.6-6.2l-3.6-6.2l3.6-6.2l3.6-6.2H823.7z M808.2,292.1
	l-3.6,6.2h-14.2l-3.6-6.2l-3.6-6.2l3.6-6.2l3.6-6.2h14.2l3.6,6.2l3.6,6.2L808.2,292.1z M823.7,259v24.7h-8l-3.6-6.2l-3.6-6.2
	l3.6-6.2l3.6-6.2H823.7z M808.2,262.9l-3.6,6.2h-14.2l-3.6-6.2l-3.6-6.2l3.6-6.2l3.6-6.2h14.2l3.6,6.2l3.6,6.2L808.2,262.9z
	 M823.7,229.8v24.7h-8l-3.6-6.2l-3.6-6.2l3.6-6.2l3.6-6.2H823.7z M808.2,233.7l-3.6,6.2h-14.2l-3.6-6.2l-3.6-6.2l3.6-6.2l3.6-6.2
	h14.2l3.6,6.2l3.6,6.2L808.2,233.7z M823.7,200.6v24.7h-8l-3.6-6.2l-3.6-6.2l3.6-6.2l3.6-6.2H823.7z M808.2,204.6l-3.6,6.2h-14.2
	l-3.6-6.2l-3.6-6.2l3.6-6.2l3.6-6.2h14.2l3.6,6.2l3.6,6.2L808.2,204.6z M823.7,171.5v24.7h-8l-7.1-12.3l3.6-6.2l3.6-6.2H823.7z
	 M808.2,175.4l-3.6,6.2h-14.2l-3.6-6.2l-3.6-6.2l3.6-6.2l3.6-6.2h14.2l3.6,6.2l3.6,6.2L808.2,175.4z M823.7,142.3v24.7h-8l-3.6-6.2
	l-3.6-6.2l7.1-12.3H823.7z M808.2,146.2l-3.6,6.2h-14.2l-3.6-6.2l-3.6-6.2l3.6-6.2l3.6-6.2h14.2l3.6,6.2l3.6,6.2L808.2,146.2z
	 M823.7,113.1v24.7h-8l-3.6-6.2l-3.6-6.2l3.6-6.2l3.6-6.2H823.7z M728.8,113.1l3.6,6.2l3.6,6.2l-3.6,6.2l-3.6,6.2h-14.2l-3.6-6.2
	l-3.6-6.2l3.6-6.2l3.6-6.2H728.8z M703.5,123.1h-14.2l-7.1-12.3l3.6-6.2l3.6-6.2h14.2l3.6,6.2l0.7,1.2l2.9,5L703.5,123.1z
	 M823.7,83.9v24.7h-8l-3.6-6.2l-3.6-6.2l3.6-6.2l3.6-6.2H823.7z M757.7,87.8l-3.6,6.2h-14.2l-7.1-12.3l3.6-6.2l3.6-6.2h14.2l3.6,6.2
	l3.6,6.2L757.7,87.8z M823.7,76.6v2.8h-8l-3.6-6.2l-3.6-6.2l2-3.5L823.7,76.6z M807.3,60.2l-2.6,4.6h-14.2l-3.6-6.2l-3.6-6.2
	l3.6-6.2l2.4-4.2L807.3,60.2z M814.2,37.2c1.9,1.9,1.9,4.9,0,6.7c-1.9,1.9-4.9,1.9-6.7,0c-1.9-1.9-1.9-4.9,0-6.7
	C809.3,35.3,812.4,35.3,814.2,37.2z M774.8,27.7l11.1,11.1l-3,5.2l-3.6,6.2h-14.2l-3.6-6.2l-3.6-6.2l3.6-6.2l2.3-4H774.8z
	 M758.6,27.7l-1,1.7l-3.6,6.2h-14.2l-3.6-6.2l-1-1.7H758.6z M730.1,27.7l2.3,4l3.6,6.2l-3.6,6.2l-3.6,6.2h-14.2L711,44l-3.6-6.2
	l3.6-6.2l2.3-4H730.1z M708.1,27.7l-1,1.7l-3.6,6.2h-14.2l-3.6-6.2l-1-1.7H708.1z M679.5,27.7l2.3,4l3.6,6.2l-3.6,6.2l-3.6,6.2H664
	l-3.6-6.2l-3.6-6.2l3.6-6.2l2.3-4H679.5z M657.5,27.7l-1,1.7l-3.6,6.2h-14.2l-3.6-6.2l-1-1.7H657.5z M629,27.7l2.3,4l3.6,6.2
	l-3.6,6.2l-3.6,6.2h-14.2l-3.6-6.2l-3.6-6.2l3.6-6.2l2.3-4H629z M606.9,27.7l-1,1.7l-3.6,6.2h-14.2l-3.6-6.2l-1-1.7H606.9z
	 M578.4,27.7l2.3,4l3.6,6.2l-3.6,6.2l-3.6,6.2h-14.2l-3.6-6.2l-3.6-6.2l3.6-6.2l2.3-4H578.4z M556.4,27.7l-1,1.7l-3.6,6.2h-14.2
	l-3.6-6.2l-1-1.7H556.4z M527.8,27.7l2.3,4l3.6,6.2l-3.6,6.2l-3.6,6.2h-14.2l-3.6-6.2l-3.6-6.2l3.6-6.2l2.3-4H527.8z M487,35.6
	l-1.2-2.1l5.8-5.8h14.2l-1,1.7l-3.6,6.2H487z M452.2,43.9c-1.9-1.9-1.9-4.9,0-6.7c1.9-1.9,4.9-1.9,6.7,0c1.9,1.9,1.9,4.9,0,6.7
	C457.1,45.8,454.1,45.8,452.2,43.9z M469.1,50.2l13.4-13.4l0.6,1.1l-3.6,6.2l-3.6,6.2H469.1z M479.9,52.4l3.6-6.2l3.6-6.2h14.2
	l3.6,6.2l3.6,6.2l-3.6,6.2l-3.6,6.2H487l-3.6-6.2L479.9,52.4z M457.9,61.4l6.7-6.7H476l3.6,6.2l3.6,6.2l-3.6,6.2l-3.6,6.2h-14.2
	l-3.6-6.2l-3.5-6.2L457.9,61.4z M442.7,94V76.5l7.3-7.3h0.7l3.6,6.2l3.6,6.2l-3.6,6.2l-3.6,6.2H442.7z M559.3,90l3.6-6.2h14.2
	l3.6,6.2l3.6,6.2l-3.6,6.2l-3.6,6.2h-14.2l-3.6-6.2l-3.6-6.2L559.3,90z M442.7,123.1V98.5h8l3.6,6.2l1.4,2.4l2.2,3.8l-3.6,6.2
	l-3.6,6.2H442.7z M442.7,152.3v-24.7h8l3.6,6.2l3.6,6.2l-0.1,0.2l-3.4,6l-3.6,6.2H442.7z M458.2,148.4l3.6-6.2H476l7.1,12.3
	l-3.6,6.2l-3.6,6.2h-14.2l-3.6-6.2l-3.5-6.2L458.2,148.4z M442.7,181.5v-24.7h8l3.6,6.2l3.6,6.2l-3.6,6.2l-3.6,6.2H442.7z
	 M458.2,177.6l3.6-6.2H476l3.6,6.2l3.6,6.2l-7.1,12.3h-14.2l-3.6-6.2l-3.5-6.2L458.2,177.6z M442.7,210.7V186h8l3.6,6.2l3.6,6.2
	l-3.6,6.2l-3.6,6.2H442.7z M458.2,206.8l3.6-6.2H476l3.6,6.2l3.6,6.2l-3.6,6.2l-3.6,6.2h-14.2l-3.6-6.2l-3.5-6.2L458.2,206.8z
	 M442.7,239.9v-24.7h8l3.6,6.2l3.6,6.2l-3.6,6.2l-3.6,6.2H442.7z M458.2,236l3.6-6.2H476l3.6,6.2l3.6,6.2l-3.6,6.2l-3.6,6.2h-14.2
	l-3.6-6.2l-3.5-6.2L458.2,236z M442.7,269.1v-24.7h8l3.6,6.2l3.6,6.2l-3.6,6.2l-3.6,6.2H442.7z M458.2,265.2l3.6-6.2H476l3.6,6.2
	l3.6,6.2l-3.6,6.2l-3.6,6.2h-14.2l-3.6-6.2l-3.5-6.2L458.2,265.2z M442.7,298.3v-24.7h8l3.6,6.2l3.6,6.2l-3.6,6.2l-3.6,6.2H442.7z
	 M458.2,294.4l3.6-6.2H476l3.6,6.2l3.6,6.2l-3.6,6.2l-3.6,6.2h-14.2l-3.6-6.2l-3.5-6.2L458.2,294.4z M442.7,327.5v-24.7h8l3.6,6.2
	l3.6,6.2l-3.6,6.2l-3.6,6.2H442.7z M458.2,323.6l3.6-6.2H476l3.6,6.2l3.6,6.2l-7.1,12.3h-14.2l-3.6-6.2l-3.5-6.2L458.2,323.6z
	 M442.7,356.7V332h8l3.6,6.2l3.6,6.2l-3.6,6.2l-3.6,6.2H442.7z M458.2,352.8l3.6-6.2H476l3.6,6.2l3.6,6.2l-3.6,6.2l-3.6,6.2h-14.2
	l-3.6-6.2l-3.5-6.2L458.2,352.8z M442.7,385.9v-24.7h8l3.6,6.2l3.6,6.2l-3.6,6.2l-3.6,6.2H442.7z M458.2,382l3.6-6.2H476l3.6,6.2
	l3.6,6.2l-3.6,6.2l-3.6,6.2h-14.2l-3.6-6.2l-3.5-6.2L458.2,382z M442.7,415.1v-24.7h8l3.6,6.2l3.6,6.2l-3.6,6.2l-3.6,6.2H442.7z
	 M458.2,411.2l3.6-6.2H476l3.6,6.2l3.6,6.2l-3.6,6.2l-3.6,6.2h-14.2l-3.6-6.2l-3.5-6.2L458.2,411.2z M442.7,444.3v-24.7h8l3.6,6.2
	l3.6,6.2l-0.1,0.2l-3.4,6l-3.6,6.2H442.7z M458.2,440.4l3.6-6.2H476l3.6,6.2l2.3,4c-1.6,2.9-2.7,6.1-3,9.6l-2.8,4.9h-14.2l-3.6-6.2
	l-3.5-6.2L458.2,440.4z M442.7,473.5v-24.7h8l3.6,6.2l3.6,6.2l-2.3,4.1l-1.2,2.1l-3.6,6.2H442.7z M537.6,473.5l-3.6-6.2l-3.6-6.2
	l3.6-6.2l3.6-6.2h14.2l3.6,6.2l3.6,6.2l-3.6,6.2l-3.6,6.2H537.6z M559.3,469.5l3.6-6.2h14.2l3.6,6.2l3.6,6.2l-3.6,6.2l-3.6,6.2
	h-14.2l-3.6-6.2l-3.6-6.2L559.3,469.5z M449.5,502.6l-6.8-6.8V478h8l3.6,6.2l3.6,6.2l-3.6,6.2l-3.6,6.2H449.5z M464.1,517.2
	l-5.5-5.6l-0.4-0.6l-3.5-6.2l3.5-6.2l3.6-6.2H476l3.6,6.2l3.6,6.2l-3.6,6.2l-3.6,6.2H464.1z M479.9,519.5l3.6-6.2l3.6-6.2h14.2
	l3.6,6.2l3.6,6.2l-3.6,6.2l-3.6,6.2H487l-3.6-6.2L479.9,519.5z M476,521.8l3.6,6.2l3.6,6.2l-0.8,1.4l-13.7-13.7H476z M452.2,535.2
	c-1.9-1.9-1.9-4.9,0-6.7c1.9-1.9,4.9-1.9,6.7,0c1.9,1.9,1.9,4.9,0,6.7C457.1,537.1,454.1,537.1,452.2,535.2z M491.6,544.7l-6-6
	l1.4-2.4h14.2l3.6,6.2l1.3,2.2H491.6z M511.3,544.7l-2.6-4.5l-3.6-6.2l3.6-6.2l3.6-6.2h14.2l3.6,6.2l3.6,6.2l-3.6,6.2l-2.6,4.5
	H511.3z M532.8,544.7l1.3-2.2l3.6-6.2h14.2l3.6,6.2l1.3,2.2H532.8z M561.9,544.7l-2.6-4.5l-3.6-6.2l3.6-6.2l3.6-6.2h14.2l3.6,6.2
	l3.6,6.2l-3.6,6.2l-2.6,4.5H561.9z M583.3,544.7l1.3-2.2l3.6-6.2h14.2l3.6,6.2l1.3,2.2H583.3z M612.5,544.7l-2.6-4.5l-3.6-6.2
	l3.6-6.2l3.6-6.2h14.2l3.6,6.2l3.6,6.2l-3.6,6.2l-2.6,4.5H612.5z M633.9,544.7l1.3-2.2l3.6-6.2H653l3.6,6.2l1.3,2.2H633.9z
	 M663,544.7l-2.6-4.5l-3.6-6.2l3.6-6.2l3.6-6.2h14.2l3.6,6.2l3.6,6.2l-3.6,6.2l-2.6,4.5H663z M684.5,544.7l1.3-2.2l3.6-6.2h14.2
	l3.6,6.2l1.3,2.2H684.5z M713.6,544.7l-2.6-4.5l-3.6-6.2l3.6-6.2l3.6-6.2h14.2l3.6,6.2l3.6,6.2l-3.6,6.2l-2.6,4.5H713.6z M735,544.7
	l1.3-2.2l3.6-6.2h14.2l3.6,6.2l1.3,2.2H735z M764.1,544.7l-2.6-4.5l-3.6-6.2l3.6-6.2l3.6-6.2h14.2l3.6,6.2l3.2,5.5l-11.3,11.3H764.1
	z"/>
<path class="st0" d="M391.8,554.3c4.6-2,8.7-4.7,12.4-7.9c5.6-4.9,10-11,12.8-18c0.7-1.9,1.4-3.8,1.9-5.7c0.8-2.9,1.3-5.9,1.5-9
	c0.1-1.1,0.1-2.2,0.1-3.4v-28.1V90.2V62.1c0-1.3-0.1-2.6-0.2-4c-0.2-3-0.8-5.9-1.5-8.7c-0.5-1.9-1.2-3.8-1.9-5.7
	c-2.9-7.1-7.5-13.3-13.3-18.2c-3.4-2.9-7.3-5.4-11.5-7.2c-6-2.7-12.6-4.2-19.6-4.2h-28.1h-256H60.4c-6.1,0-12,1.2-17.4,3.3
	c-1.4,0.5-2.8,1.2-4.1,1.8C31.3,23,25,28.6,20.4,35.6c-3,4.5-5.2,9.4-6.5,14.8c-0.2,1-0.5,2-0.7,3c-0.5,2.5-0.7,5.1-0.8,7.7
	c0,0.3,0,0.7,0,1v28.1v392.1v28.1c0,0.2,0,0.3,0,0.5c0,2.7,0.3,5.3,0.7,7.8c0.1,0.9,0.3,1.7,0.5,2.6c1.3,5.5,3.5,10.6,6.4,15.1
	c4.6,7.1,11,12.9,18.5,16.8c1.3,0.7,2.7,1.3,4.1,1.9c5.5,2.2,11.4,3.4,17.7,3.4h28.1h256h28.1C379.5,558.3,386,556.9,391.8,554.3z
	 M35.5,43.9c-1.9-1.9-1.9-4.9,0-6.7c1.9-1.9,4.9-1.9,6.7,0c1.9,1.9,1.9,4.9,0,6.7C40.4,45.8,37.4,45.8,35.5,43.9z M390.8,43.9
	c-1.9-1.9-1.9-4.9,0-6.7c1.9-1.9,4.9-1.9,6.7,0c1.9,1.9,1.9,4.9,0,6.7C395.6,45.8,392.6,45.8,390.8,43.9z M35.5,535.2
	c-1.9-1.9-1.9-4.9,0-6.7c1.9-1.9,4.9-1.9,6.7,0c1.9,1.9,1.9,4.9,0,6.7C40.4,537.1,37.4,537.1,35.5,535.2z M390.8,535.2
	c-1.9-1.9-1.9-4.9,0-6.7c1.9-1.9,4.9-1.9,6.7,0c1.9,1.9,1.9,4.9,0,6.7C395.6,537.1,392.6,537.1,390.8,535.2z"/>
<path class="st0" d="M1225.2,554.3c4.6-2,8.7-4.7,12.4-7.9c5.6-4.9,10-11,12.8-18c0.8-1.8,1.4-3.8,1.9-5.7c0.8-2.9,1.3-5.9,1.5-9
	c0.1-1.1,0.1-2.2,0.1-3.4V62.1c0-1.3-0.1-2.6-0.2-4c-0.2-3-0.8-5.9-1.5-8.7c-0.5-2-1.2-3.8-2-5.7c-2.9-7.1-7.5-13.3-13.3-18.2
	c-3.4-2.9-7.3-5.4-11.5-7.2c-6-2.7-12.6-4.1-19.6-4.1H893.8c-6.2,0-12,1.1-17.4,3.3c-1.4,0.5-2.8,1.2-4.1,1.8
	c-7.5,3.8-13.8,9.5-18.4,16.4c-3,4.5-5.2,9.5-6.5,14.8c-0.2,1-0.5,2-0.7,3c-0.5,2.5-0.7,5.1-0.8,7.7c0,0.3,0,0.7,0,1v448.3
	c0,0.2,0,0.3,0,0.5c0,2.7,0.3,5.3,0.7,7.8c0.1,0.9,0.3,1.7,0.5,2.6c1.2,5.5,3.4,10.6,6.4,15.1c4.6,7.1,11,12.9,18.5,16.8
	c1.3,0.7,2.7,1.3,4.1,1.9c5.5,2.2,11.4,3.4,17.7,3.4H1206C1212.8,558.3,1219.3,556.9,1225.2,554.3z M1230.9,528.5
	c1.9,1.9,1.9,4.9,0,6.7c-1.9,1.9-4.9,1.9-6.7,0c-1.9-1.9-1.9-4.9,0-6.7S1229,526.6,1230.9,528.5z M1224.2,512.1l-18.1,18.1l-2.6-4.5
	l-3.6-6.2l3.6-6.2l3.6-6.2h14.2L1224.2,512.1z M945.1,145.5l1.7,3l3.6,6.2l-3.6,6.2l-3.6,6.2H929l-3.6-6.2l-3.6-6.2l3-5.2
	c1.9,0.5,3.9,0.7,6,0.7C936.2,150.1,941.1,148.4,945.1,145.5z M925.5,102.5l-0.1-0.2l-3.6-6.2l3.6-6.2l3.6-6.2h14.2l3.6,6.2l3.6,6.2
	l-3.6,6.2l-2.2,3.9c-3.9-2.7-8.6-4.3-13.7-4.3C929,102,927.2,102.2,925.5,102.5z M1123.8,58.6l-3.6,6.2H1106l-3.6-6.2l-3.6-6.2
	l7.1-12.3h14.2l7.1,12.3L1123.8,58.6z M1153,46.3l3.6-6.2h14.2l3.6,6.2l3.6,6.2l-3.6,6.2l-3.6,6.2h-14.2l-3.6-6.2l-3.6-6.2
	L1153,46.3z M1073.2,58.6l-3.6,6.2h-14.2l-3.6-6.2l-3.6-6.2l7.1-12.3h14.2l7.1,12.3L1073.2,58.6z M1022.7,58.6l-3.6,6.2h-14.2
	l-3.6-6.2l-3.6-6.2l7.1-12.3h14.2l3.6,6.2l3.6,6.2L1022.7,58.6z M972.1,58.6l-3.6,6.2h-14.2l-3.6-6.2l-3.6-6.2l3.6-6.2l3.6-6.2h14.2
	l3.6,6.2l3.6,6.2L972.1,58.6z M943.2,54.7l3.6,6.2l3.6,6.2l-3.6,6.2l-3.6,6.2H929l-3.6-6.2l-3.6-6.2l3.6-6.2l3.6-6.2H943.2z
	 M1149.8,111.4l-0.4-0.6l1-1.8l2.5-4.4l3.6-6.2h14.2l2.2,3.8c-1.3-0.2-2.7-0.3-4-0.3C1161.1,102,1154.2,105.7,1149.8,111.4z
	 M1172.7,470.2l-1.9,3.3h-14.2l-3.6-6.2l-2.3-4c0,0,0,0,0,0l-1.2-2.1l0.2-0.4c4.4,5.9,11.4,9.7,19.3,9.7
	C1170.2,470.5,1171.5,470.4,1172.7,470.2z M1047.9,102.4l-3.6,6.2h-14.2l-3.6-6.2l-3.6-6.2l3.6-6.2l3.6-6.2h14.2l3.6,6.2l3.6,6.2
	L1047.9,102.4z M1077.1,90l3.6-6.2h14.2l3.6,6.2l3.6,6.2l-3.6,6.2l-3.6,6.2h-14.2l-3.6-6.2l-3.6-6.2L1077.1,90z M1055.4,98.5h14.2
	l7.1,12.3l-3.6,6.2l-3.6,6.2h-14.2l-7.1-12.3L1055.4,98.5z M1080.7,113.1h14.2l3.6,6.2l3.6,6.2l-3.6,6.2l-3.6,6.2h-14.2l-3.6-6.2
	l-3.6-6.2l3.6-6.2L1080.7,113.1z M1044.4,113.1l3.6,6.2l3.6,6.2l-3.6,6.2l-3.6,6.2h-14.2l-3.6-6.2l-3.6-6.2l3.6-6.2l3.6-6.2H1044.4z
	 M1051.8,133.8l3.6-6.2h14.2l3.6,6.2l3.6,6.2l-3.6,6.2l-3.6,6.2h-14.2l-3.6-6.2l-3.6-6.2L1051.8,133.8z M1073.2,467.3l-3.6,6.2
	h-14.2l-3.6-6.2l-3.6-6.2l7.1-12.3h14.2l3.6,6.2l3.6,6.2L1073.2,467.3z M1080.7,463.4h14.2l3.6,6.2l3.6,6.2l-3.6,6.2l-3.6,6.2h-14.2
	l-3.6-6.2l-3.6-6.2l3.6-6.2L1080.7,463.4z M1080.7,458.9l-3.6-6.2l-3.6-6.2l3.6-6.2l3.6-6.2h14.2l3.6,6.2l3.6,6.2l-3.6,6.2l-3.6,6.2
	H1080.7z M1073.2,438.1l-3.6,6.2h-14.2l-3.6-6.2l-3.6-6.2l3.6-6.2l3.6-6.2h14.2l3.6,6.2l3.6,6.2L1073.2,438.1z M1080.7,429.7
	l-3.6-6.2l-3.6-6.2l3.6-6.2l3.6-6.2h14.2l3.6,6.2l3.6,6.2l-3.6,6.2l-3.6,6.2H1080.7z M1073.2,408.9l-3.6,6.2h-14.2l-3.6-6.2
	l-3.6-6.2l7.1-12.3h14.2l7.1,12.3L1073.2,408.9z M1026.6,294.4l3.6-6.2h14.2l3.6,6.2l3.6,6.2l-3.6,6.2l-3.6,6.2h-14.2l-3.6-6.2
	l-3.6-6.2L1026.6,294.4z M1019.1,298.3h-14.2l-3.6-6.2l-3.6-6.2l3.6-6.2l3.6-6.2h14.2l3.6,6.2l3.6,6.2l-3.6,6.2L1019.1,298.3z
	 M1051.8,309l3.6-6.2h14.2l3.6,6.2l3.6,6.2l-3.6,6.2l-3.6,6.2h-14.2l-3.6-6.2l-3.6-6.2L1051.8,309z M1044.4,317.4l3.6,6.2l3.6,6.2
	l-3.6,6.2l-3.6,6.2h-14.2l-3.6-6.2l-3.6-6.2l3.6-6.2l3.6-6.2H1044.4z M1051.8,338.2l3.6-6.2h14.2l3.6,6.2l3.6,6.2l-7.1,12.3h-14.2
	l-7.1-12.3L1051.8,338.2z M1073.2,379.7l-3.6,6.2h-14.2l-3.6-6.2l-3.6-6.2l3.6-6.2l3.6-6.2h14.2l3.6,6.2l3.6,6.2L1073.2,379.7z
	 M1080.7,375.8h14.2l3.6,6.2l3.6,6.2l-3.6,6.2l-3.6,6.2h-14.2l-3.6-6.2l-3.6-6.2l3.6-6.2L1080.7,375.8z M1080.7,371.3l-3.6-6.2
	l-3.6-6.2l3.6-6.2l3.6-6.2h14.2l3.6,6.2l3.6,6.2l-3.6,6.2l-3.6,6.2H1080.7z M1044.4,346.6l7.1,12.3l-3.6,6.2l-3.6,6.2h-14.2
	l-3.6-6.2l-3.6-6.2l7.1-12.3H1044.4z M1019.1,361.2l3.6,6.2l3.6,6.2l-3.6,6.2l-3.6,6.2h-14.2l-3.6-6.2l-3.6-6.2l3.6-6.2l3.6-6.2
	H1019.1z M1026.6,382l3.6-6.2h14.2l3.6,6.2l3.6,6.2l-3.6,6.2l-3.6,6.2h-14.2l-3.6-6.2l-3.6-6.2L1026.6,382z M1131.3,400.5l-3.6-6.2
	l-3.6-6.2l3.6-6.2l3.6-6.2h14.2l3.6,6.2l3.6,6.2l-3.6,6.2l-3.6,6.2H1131.3z M1123.8,379.7l-3.6,6.2H1106l-3.6-6.2l-3.6-6.2l3.6-6.2
	l3.6-6.2h14.2l3.6,6.2l3.6,6.2L1123.8,379.7z M1131.3,371.3l-3.6-6.2l-3.6-6.2l7.1-12.3h14.2l7.1,12.3l-3.6,6.2l-3.6,6.2H1131.3z
	 M1120.2,356.7H1106l-7.1-12.3l3.6-6.2l3.6-6.2h14.2l3.6,6.2l3.6,6.2L1120.2,356.7z M1098.5,335.9l-3.6,6.2h-14.2l-3.6-6.2l-3.6-6.2
	l3.6-6.2l3.6-6.2h14.2l3.6,6.2l3.6,6.2L1098.5,335.9z M1106,327.5l-3.6-6.2l-3.6-6.2l3.6-6.2l3.6-6.2h14.2l3.6,6.2l3.6,6.2l-3.6,6.2
	l-3.6,6.2H1106z M1098.5,306.7l-3.6,6.2h-14.2l-3.6-6.2l-3.6-6.2l3.6-6.2l3.6-6.2h14.2l3.6,6.2l3.6,6.2L1098.5,306.7z M1073.2,292.1
	l-3.6,6.2h-14.2l-3.6-6.2l-3.6-6.2l3.6-6.2l3.6-6.2h14.2l3.6,6.2l3.6,6.2L1073.2,292.1z M1047.9,277.5l-3.6,6.2h-14.2l-3.6-6.2
	l-3.6-6.2l7.1-12.3h14.2l7.1,12.3L1047.9,277.5z M1001.3,250.6l3.6-6.2h14.2l3.6,6.2l3.6,6.2l-3.6,6.2l-3.6,6.2h-14.2l-3.6-6.2
	l-3.6-6.2L1001.3,250.6z M1026.6,177.6l3.6-6.2h14.2l3.6,6.2l3.6,6.2l-7.1,12.3h-14.2l-7.1-12.3L1026.6,177.6z M1019.1,181.5h-14.2
	l-3.6-6.2l-3.6-6.2l3.6-6.2l3.6-6.2h14.2l3.6,6.2l3.6,6.2l-3.6,6.2L1019.1,181.5z M1019.1,186l3.6,6.2l3.6,6.2l-3.6,6.2l-3.6,6.2
	h-14.2l-3.6-6.2l-3.6-6.2l7.1-12.3H1019.1z M1030.1,200.6h14.2l7.1,12.3l-3.6,6.2l-3.6,6.2h-14.2l-3.6-6.2l-3.6-6.2L1030.1,200.6z
	 M1055.4,215.2h14.2l3.6,6.2l3.6,6.2l-3.6,6.2l-3.6,6.2h-14.2l-3.6-6.2l-3.6-6.2l3.6-6.2L1055.4,215.2z M1019.1,215.2l3.6,6.2
	l3.6,6.2l-3.6,6.2l-3.6,6.2h-14.2l-3.6-6.2l-3.6-6.2l3.6-6.2l3.6-6.2H1019.1z M1030.1,229.8h14.2l7.1,12.3l-3.6,6.2l-3.6,6.2h-14.2
	l-3.6-6.2l-3.6-6.2L1030.1,229.8z M1055.4,269.1l-3.6-6.2l-3.6-6.2l3.6-6.2l3.6-6.2h14.2l3.6,6.2l3.6,6.2l-3.6,6.2l-3.6,6.2H1055.4z
	 M1080.7,254.5l-3.6-6.2l-3.6-6.2l3.6-6.2l3.6-6.2h14.2l3.6,6.2l3.6,6.2l-3.6,6.2l-3.6,6.2H1080.7z M1131.3,229.8h14.2l7.1,12.3
	l-3.6,6.2l-3.6,6.2h-14.2l-3.6-6.2l-3.6-6.2L1131.3,229.8z M1123.8,233.7l-3.6,6.2H1106l-3.6-6.2l-3.6-6.2l3.6-6.2l3.6-6.2h14.2
	l3.6,6.2l3.6,6.2L1123.8,233.7z M1098.5,219.1l-3.6,6.2h-14.2l-3.6-6.2l-3.6-6.2l3.6-6.2l3.6-6.2h14.2l3.6,6.2l3.6,6.2L1098.5,219.1
	z M1073.2,204.6l-3.6,6.2h-14.2l-3.6-6.2l-3.6-6.2l7.1-12.3h14.2l7.1,12.3L1073.2,204.6z M1080.7,196.1l-3.6-6.2l-3.6-6.2l3.6-6.2
	l3.6-6.2h14.2l3.6,6.2l3.6,6.2l-3.6,6.2l-3.6,6.2H1080.7z M1073.2,175.4l-3.6,6.2h-14.2l-3.6-6.2l-3.6-6.2l3.6-6.2l3.6-6.2h14.2
	l3.6,6.2l3.6,6.2L1073.2,175.4z M1080.7,166.9l-3.6-6.2l-3.6-6.2l3.6-6.2l3.6-6.2h14.2l3.6,6.2l3.6,6.2l-3.6,6.2l-3.6,6.2H1080.7z
	 M1044.4,142.3l3.6,6.2l3.6,6.2l-3.6,6.2l-3.6,6.2h-14.2l-3.6-6.2l-3.6-6.2l3.6-6.2l3.6-6.2H1044.4z M968.5,156.9l3.6,6.2l3.6,6.2
	l-3.6,6.2l-3.6,6.2h-14.2l-3.6-6.2l-3.6-6.2l3.6-6.2l3.6-6.2H968.5z M976,177.6l3.6-6.2h14.2l3.6,6.2l3.6,6.2l-7.1,12.3h-14.2
	l-7.1-12.3L976,177.6z M968.5,186l3.6,6.2l3.6,6.2l-3.6,6.2l-3.6,6.2h-14.2l-3.6-6.2l-3.6-6.2l3.6-6.2l3.6-6.2H968.5z M979.6,200.6
	h14.2l7.1,12.3l-3.6,6.2l-3.6,6.2h-14.2l-3.6-6.2l-3.6-6.2L979.6,200.6z M968.5,215.2l3.6,6.2l3.6,6.2l-3.6,6.2l-3.6,6.2h-14.2
	l-3.6-6.2l-3.6-6.2l3.6-6.2l3.6-6.2H968.5z M979.6,229.8h14.2l7.1,12.3l-3.6,6.2l-3.6,6.2h-14.2l-3.6-6.2l-3.6-6.2L979.6,229.8z
	 M979.6,259h14.2l7.1,12.3l-7.1,12.3h-14.2l-7.1-12.3L979.6,259z M976,294.4l3.6-6.2h14.2l3.6,6.2l3.6,6.2l-3.6,6.2l-3.6,6.2h-14.2
	l-3.6-6.2l-3.6-6.2L976,294.4z M1001.3,309l3.6-6.2h14.2l3.6,6.2l3.6,6.2l-3.6,6.2l-3.6,6.2h-14.2l-3.6-6.2l-3.6-6.2L1001.3,309z
	 M993.8,317.4l3.6,6.2l3.6,6.2l-3.6,6.2l-3.6,6.2h-14.2l-3.6-6.2l-3.6-6.2l3.6-6.2l3.6-6.2H993.8z M1001.3,338.2l3.6-6.2h14.2
	l3.6,6.2l3.6,6.2l-3.6,6.2l-3.6,6.2h-14.2l-7.1-12.3L1001.3,338.2z M993.8,346.6l7.1,12.3l-3.6,6.2l-3.6,6.2h-14.2l-3.6-6.2
	l-3.6-6.2l7.1-12.3H993.8z M968.5,361.2l3.6,6.2l3.6,6.2l-3.6,6.2l-3.6,6.2h-14.2l-3.6-6.2l-3.6-6.2l3.6-6.2l3.6-6.2H968.5z
	 M976,382l3.6-6.2h14.2l3.6,6.2l3.6,6.2l-3.6,6.2l-3.6,6.2h-14.2l-3.6-6.2l-3.6-6.2L976,382z M1004.8,390.4h14.2l3.6,6.2l3.6,6.2
	l-3.6,6.2l-3.6,6.2h-14.2l-3.6-6.2l-3.6-6.2L1004.8,390.4z M1026.6,411.2l3.6-6.2h14.2l3.6,6.2l3.6,6.2l-3.6,6.2l-3.6,6.2h-14.2
	l-3.6-6.2l-3.6-6.2L1026.6,411.2z M1019.1,419.6l3.6,6.2l3.6,6.2l-3.6,6.2l-3.6,6.2h-14.2l-3.6-6.2l-3.6-6.2l3.6-6.2l3.6-6.2H1019.1
	z M1026.6,440.4l3.6-6.2h14.2l3.6,6.2l3.6,6.2l-3.6,6.2l-3.6,6.2h-14.2l-3.6-6.2l-3.6-6.2L1026.6,440.4z M1019.1,448.8l3.6,6.2
	l3.6,6.2l-3.6,6.2l-3.6,6.2h-14.2l-3.6-6.2l-3.6-6.2l3.6-6.2l3.6-6.2H1019.1z M1026.6,469.5l3.6-6.2h14.2l3.6,6.2l3.6,6.2l-3.6,6.2
	l-3.6,6.2h-14.2l-3.6-6.2l-3.6-6.2L1026.6,469.5z M1019.1,478l3.6,6.2l3.6,6.2l-3.6,6.2l-3.6,6.2h-14.2l-3.6-6.2l-3.6-6.2l3.6-6.2
	l3.6-6.2H1019.1z M1051.8,484.1l3.6-6.2h14.2l3.6,6.2l3.6,6.2l-3.6,6.2l-3.6,6.2h-14.2l-3.6-6.2l-3.6-6.2L1051.8,484.1z
	 M1102.4,484.1l3.6-6.2h14.2l3.6,6.2l3.6,6.2l-3.6,6.2l-3.6,6.2H1106l-3.6-6.2l-3.6-6.2L1102.4,484.1z M1131.3,488.1l-3.6-6.2
	l-3.6-6.2l3.6-6.2l0.6-1l3-5.2h14.2l1.7,2.9l1.9,3.3l3.6,6.2l-3.6,6.2l-3.6,6.2H1131.3z M1127.3,461.1l-3.1,5.4l-0.5,0.8l-3.6,6.2
	H1106l-3.6-6.2l-3.6-6.2l3.6-6.2l3.6-6.2h14.2L1127.3,461.1z M1131.3,458.9l-3.6-6.2l-3.6-6.2l3.6-6.2l3.6-6.2h14.2l1.4,2.4
	c-1.3,3-2.1,6.3-2.1,9.7c0,3.5,0.8,6.9,2.1,9.9l-1.5,2.6H1131.3z M1123.8,438.1l-3.6,6.2H1106l-3.6-6.2l-3.6-6.2l3.6-6.2l3.6-6.2
	h14.2l3.6,6.2l3.1,5.3l0.5,0.9L1123.8,438.1z M1186.3,429.7c-2.1-2.2-4.7-4-7.5-5.3l-0.5-0.9l-3.6-6.2l3.6-6.2l3.6-6.2h14.2l3.6,6.2
	l3.6,6.2l-3.6,6.2l-3.6,6.2H1186.3z M1174.3,408.9l-3.6,6.2h-14.2l-3.6-6.2l-3.6-6.2l3.6-6.2l3.6-6.2h14.2l3.6,6.2l3.6,6.2
	L1174.3,408.9z M1181.8,400.5l-3.6-6.2l-3.6-6.2l3.6-6.2l3.6-6.2h14.2l3.6,6.2l3.6,6.2l-3.6,6.2l-3.6,6.2H1181.8z M1174.3,379.7
	l-3.6,6.2h-14.2l-3.6-6.2l-3.6-6.2l3.6-6.2l3.6-6.2h14.2l3.6,6.2l3.6,6.2L1174.3,379.7z M1181.8,371.3l-3.6-6.2l-3.6-6.2l7.1-12.3
	h14.2l7.1,12.3l-3.6,6.2l-3.6,6.2H1181.8z M1174.3,350.5l-3.6,6.2h-14.2l-3.6-6.2l-3.6-6.2l3.6-6.2l3.6-6.2h14.2l3.6,6.2l3.6,6.2
	L1174.3,350.5z M1149.1,335.9l-3.6,6.2h-14.2l-3.6-6.2l-3.6-6.2l3.6-6.2l3.6-6.2h14.2l3.6,6.2l3.6,6.2L1149.1,335.9z M1156.5,327.5
	l-3.6-6.2l-3.6-6.2l3.6-6.2l3.6-6.2h14.2l3.6,6.2l3.6,6.2l-3.6,6.2l-3.6,6.2H1156.5z M1149.1,306.7l-3.6,6.2h-14.2l-3.6-6.2
	l-3.6-6.2l3.6-6.2l3.6-6.2h14.2l3.6,6.2l3.6,6.2L1149.1,306.7z M1156.5,298.3l-3.6-6.2l-3.6-6.2l3.6-6.2l3.6-6.2h14.2l3.6,6.2
	l3.6,6.2l-3.6,6.2l-3.6,6.2H1156.5z M1098.5,277.5l-3.6,6.2h-14.2l-3.6-6.2l-3.6-6.2l3.6-6.2l3.6-6.2h14.2l3.6,6.2l3.6,6.2
	L1098.5,277.5z M1106,269.1l-3.6-6.2l-3.6-6.2l3.6-6.2l3.6-6.2h14.2l3.6,6.2l3.6,6.2l-3.6,6.2l-3.6,6.2H1106z M1181.8,254.5
	l-3.6-6.2l-3.6-6.2l7.1-12.3h14.2l7.1,12.3l-3.6,6.2l-3.6,6.2H1181.8z M1174.3,233.7l-3.6,6.2h-14.2l-3.6-6.2l-3.6-6.2l3.6-6.2
	l3.6-6.2h14.2l3.6,6.2l3.6,6.2L1174.3,233.7z M1181.8,225.3l-3.6-6.2l-3.6-6.2l7.1-12.3h14.2l7.1,12.3l-3.6,6.2l-3.6,6.2H1181.8z
	 M1152.6,213l-3.6,6.2l-3.6,6.2h-14.2l-3.6-6.2l-3.6-6.2l7.1-12.3h14.2L1152.6,213z M1123.8,204.6l-3.6,6.2H1106l-3.6-6.2l-3.6-6.2
	l7.1-12.3h14.2l7.1,12.3L1123.8,204.6z M1181.8,196.1l-7.1-12.3l3.6-6.2l3.6-6.2h14.2l3.6,6.2l3.6,6.2l-7.1,12.3H1181.8z
	 M1149.1,177.6l3.6,6.2l-7.1,12.3h-14.2l-7.1-12.3l3.6-6.2l3.6-6.2h14.2L1149.1,177.6z M1123.8,175.4l-3.6,6.2H1106l-3.6-6.2
	l-3.6-6.2l3.6-6.2l3.6-6.2h14.2l3.6,6.2l3.6,6.2L1123.8,175.4z M1181.8,166.9l-3.6-6.2l-3.6-6.2l3.6-6.2l0.1-0.2
	c3.2-1.4,6.1-3.4,8.4-6h9.3l3.6,6.2l3.6,6.2l-3.6,6.2l-3.6,6.2H1181.8z M1149.1,148.4l3.6,6.2l-3.6,6.2l-3.6,6.2h-14.2l-3.6-6.2
	l-3.6-6.2l3.6-6.2l3.2-5.6l0.3-0.5h14.2L1149.1,148.4z M1123.8,146.2l-3.6,6.2H1106l-3.6-6.2l-3.6-6.2l3.6-6.2l3.6-6.2h14.2l3.6,6.2
	l3.6,6.2l-0.7,1.3L1123.8,146.2z M1190,137.7c1.9-3.5,3-7.4,3-11.7c0-4.8-1.4-9.2-3.8-13h6.8l3.6,6.2l3.6,6.2l-3.6,6.2l-3.6,6.2
	H1190z M1147.1,115.9c-1.4,3.1-2.3,6.5-2.3,10.2c0,3.4,0.7,6.6,1.9,9.5l-1.3,2.2h-14.2l-3.6-6.2l-3.6-6.2l3.6-6.2l3.6-6.2h14.2
	L1147.1,115.9z M1120.2,123.1H1106l-3.6-6.2l-3.6-6.2l7.1-12.3h14.2l3.6,6.2l0.7,1.2l2.9,5L1120.2,123.1z M1149.1,102.4l-2.1,3.6
	l-1.5,2.5h-14.2l-2.8-4.8l-0.8-1.4l-3.6-6.2l3.6-6.2l3.6-6.2h14.2l3.6,6.2l3.6,6.2L1149.1,102.4z M1123.8,87.8l-3.6,6.2H1106
	l-3.6-6.2l-3.6-6.2l7.1-12.3h14.2l7.1,12.3L1123.8,87.8z M1076.8,81.6l-3.6,6.2l-3.6,6.2h-14.2l-3.6-6.2l-3.6-6.2l7.1-12.3h14.2
	L1076.8,81.6z M1022.7,75.4l3.6,6.2l-3.6,6.2l-3.6,6.2h-14.2l-3.6-6.2l-3.6-6.2l7.1-12.3h14.2L1022.7,75.4z M918,69.3l7.1,12.3
	l-3.6,6.2L918,94h-14.2l-3.6-6.2l-3.6-6.2l7.1-12.3H918z M1004.8,98.5h14.2l3.6,6.2l3.6,6.2l-3.6,6.2l-3.6,6.2h-14.2l-3.6-6.2
	l-3.6-6.2L1004.8,98.5z M993.8,113.1l3.6,6.2l3.6,6.2l-3.6,6.2l-3.6,6.2h-14.2l-3.6-6.2l-3.6-6.2l3.6-6.2l3.6-6.2H993.8z
	 M1001.3,133.8l3.6-6.2h14.2l3.6,6.2l3.6,6.2l-3.6,6.2l-3.6,6.2h-14.2l-3.6-6.2l-3.6-6.2L1001.3,133.8z M918,156.9l3.6,6.2l3.6,6.2
	l-3.6,6.2l-3.6,6.2h-14.2l-3.6-6.2l-3.6-6.2l3.6-6.2l3.6-6.2H918z M925.4,177.6l3.6-6.2h14.2l3.6,6.2l3.6,6.2l-7.1,12.3H929
	l-3.6-6.2l-3.6-6.2L925.4,177.6z M918,186l7.1,12.3l-3.6,6.2l-3.6,6.2h-14.2l-3.6-6.2l-3.6-6.2l7.1-12.3H918z M925.4,206.8l3.6-6.2
	h14.2l7.1,12.3l-3.6,6.2l-3.6,6.2H929l-3.6-6.2l-3.6-6.2L925.4,206.8z M918,215.2l3.6,6.2l3.6,6.2l-3.6,6.2l-3.6,6.2h-14.2l-3.6-6.2
	l-3.6-6.2l3.6-6.2l3.6-6.2H918z M925.4,236l3.6-6.2h14.2l7.1,12.3l-3.6,6.2l-3.6,6.2H929l-3.6-6.2l-3.6-6.2L925.4,236z M918,244.4
	l3.6,6.2l3.6,6.2l-3.6,6.2l-3.6,6.2h-14.2l-3.6-6.2l-3.6-6.2l3.6-6.2l3.6-6.2H918z M925.4,265.2l3.6-6.2h14.2l7.1,12.3l-3.6,6.2
	l-3.6,6.2H929l-3.6-6.2l-3.6-6.2L925.4,265.2z M950.7,309l3.6-6.2h14.2l3.6,6.2l3.6,6.2l-3.6,6.2l-3.6,6.2h-14.2l-3.6-6.2l-3.6-6.2
	L950.7,309z M943.2,317.4l3.6,6.2l3.6,6.2l-3.6,6.2l-3.6,6.2H929l-3.6-6.2l-3.6-6.2l3.6-6.2l3.6-6.2H943.2z M950.7,338.2l3.6-6.2
	h14.2l3.6,6.2l3.6,6.2l-3.6,6.2l-3.6,6.2h-14.2l-3.6-6.2l-3.6-6.2L950.7,338.2z M943.2,346.6l7.1,12.3l-3.6,6.2l-3.6,6.2H929
	l-3.6-6.2l-3.6-6.2l3.6-6.2l3.6-6.2H943.2z M918,361.2l3.6,6.2l3.6,6.2l-3.6,6.2l-3.6,6.2h-14.2l-3.6-6.2l-3.6-6.2l3.6-6.2l3.6-6.2
	H918z M925.4,382l3.6-6.2h14.2l3.6,6.2l3.6,6.2l-3.6,6.2l-3.6,6.2H929l-3.6-6.2l-3.6-6.2L925.4,382z M950.7,396.6l3.6-6.2h14.2
	l3.6,6.2l3.6,6.2l-3.6,6.2l-3.6,6.2h-14.2l-3.6-6.2l-3.6-6.2L950.7,396.6z M976,411.2l3.6-6.2h14.2l3.6,6.2l3.6,6.2l-3.6,6.2
	l-3.6,6.2h-14.2l-3.6-6.2l-3.6-6.2L976,411.2z M968.5,419.6l3.6,6.2l3.6,6.2l-3.6,6.2l-3.6,6.2h-13.7c-0.5-5.6-2.9-10.6-6.5-14.4
	l2.3-4.1l3.6-6.2H968.5z M976,440.4l3.6-6.2h14.2l3.6,6.2l3.6,6.2l-3.6,6.2l-3.6,6.2h-14.2l-3.6-6.2l-3.6-6.2L976,440.4z
	 M968.5,448.8l3.6,6.2l3.6,6.2l-3.6,6.2l-3.6,6.2h-14.2l-3.6-6.2l-2.5-4.3c3.6-3.8,6-8.7,6.6-14.2H968.5z M976,469.5l3.6-6.2h14.2
	l3.6,6.2l3.6,6.2l-3.6,6.2l-3.6,6.2h-14.2l-3.6-6.2l-3.6-6.2L976,469.5z M918,478l3.6,6.2l3.6,6.2l-3.6,6.2l-3.6,6.2h-14.2l-3.6-6.2
	l-3.6-6.2l3.6-6.2l3.6-6.2H918z M950.7,496.5l-3.6-6.2l3.6-6.2l3.6-6.2h14.2l3.6,6.2l3.6,6.2l-3.6,6.2l-3.6,6.2h-14.2L950.7,496.5z
	 M976,498.7l3.6-6.2h14.2l3.6,6.2l3.6,6.2l-7.1,12.3h-14.2l-7.1-12.3L976,498.7z M1023,504.9l3.6-6.2l3.6-6.2h14.2l3.6,6.2l3.6,6.2
	l-7.1,12.3h-14.2L1023,504.9z M1077.1,511.1l-3.6-6.2l3.6-6.2l3.6-6.2h14.2l3.6,6.2l3.6,6.2l-3.6,6.2l-3.6,6.2h-14.2L1077.1,511.1z
	 M1124.1,504.9l3.6-6.2l3.6-6.2h14.2l3.6,6.2l3.6,6.2l-7.1,12.3h-14.2L1124.1,504.9z M1240.4,492.6v3.3l-12.9,12.9l-2.2-3.8l3.6-6.2
	l3.6-6.2H1240.4z M1224.9,496.5l-3.6,6.2h-14.2l-3.6-6.2l-3.6-6.2l3.6-6.2l3.6-6.2h14.2l3.6,6.2l3.6,6.2L1224.9,496.5z
	 M1240.4,463.4v24.7h-8l-3.6-6.2l-3.6-6.2l3.6-6.2l3.6-6.2H1240.4z M1224.9,467.3l-3.6,6.2h-14.2l-3.6-6.2l-3.6-6.2l3.6-6.2l3.6-6.2
	h14.2l3.6,6.2l3.6,6.2L1224.9,467.3z M1240.4,434.2v24.7h-8l-3.6-6.2l-3.6-6.2l3.6-6.2l3.6-6.2H1240.4z M1224.9,438.1l-3.6,6.2
	h-14.2l-3.6-6.2l-3.6-6.2l3.6-6.2l3.6-6.2h14.2l3.6,6.2l3.6,6.2L1224.9,438.1z M1240.4,405v24.7h-8l-3.6-6.2l-3.6-6.2l3.6-6.2
	l3.6-6.2H1240.4z M1224.9,408.9l-3.6,6.2h-14.2l-3.6-6.2l-3.6-6.2l7.1-12.3h14.2l7.1,12.3L1224.9,408.9z M1240.4,375.8v24.7h-8
	l-3.6-6.2l-3.6-6.2l3.6-6.2l3.6-6.2H1240.4z M1224.9,379.7l-3.6,6.2h-14.2l-3.6-6.2l-3.6-6.2l3.6-6.2l3.6-6.2h14.2l3.6,6.2l3.6,6.2
	L1224.9,379.7z M1240.4,346.6v24.7h-8l-3.6-6.2l-3.6-6.2l3.6-6.2l3.6-6.2H1240.4z M1221.3,356.7h-14.2l-7.1-12.3l3.6-6.2l3.6-6.2
	h14.2l3.6,6.2l3.6,6.2L1221.3,356.7z M1240.4,317.4v24.7h-8l-3.6-6.2l-3.6-6.2l3.6-6.2l3.6-6.2H1240.4z M1224.9,321.3l-3.6,6.2
	h-14.2l-3.6-6.2l-3.6-6.2l3.6-6.2l3.6-6.2h14.2l3.6,6.2l3.6,6.2L1224.9,321.3z M1240.4,288.2v24.7h-8l-3.6-6.2l-3.6-6.2l3.6-6.2
	l3.6-6.2H1240.4z M1224.9,292.1l-3.6,6.2h-14.2l-3.6-6.2l-3.6-6.2l3.6-6.2l3.6-6.2h14.2l3.6,6.2l3.6,6.2L1224.9,292.1z M1240.4,259
	v24.7h-8l-3.6-6.2l-3.6-6.2l3.6-6.2l3.6-6.2H1240.4z M1224.9,262.9l-3.6,6.2h-14.2l-3.6-6.2l-3.6-6.2l3.6-6.2l3.6-6.2h14.2l3.6,6.2
	l3.6,6.2L1224.9,262.9z M1240.4,229.8v24.7h-8l-3.6-6.2l-3.6-6.2l3.6-6.2l3.6-6.2H1240.4z M1224.9,233.7l-3.6,6.2h-14.2l-3.6-6.2
	l-3.6-6.2l3.6-6.2l3.6-6.2h14.2l3.6,6.2l3.6,6.2L1224.9,233.7z M1240.4,200.6v24.7h-8l-3.6-6.2l-3.6-6.2l3.6-6.2l3.6-6.2H1240.4z
	 M1224.9,204.6l-3.6,6.2h-14.2l-3.6-6.2l-3.6-6.2l7.1-12.3h14.2l7.1,12.3L1224.9,204.6z M1240.4,171.5v24.7h-8l-3.6-6.2l-3.6-6.2
	l3.6-6.2l3.6-6.2H1240.4z M1224.9,175.4l-3.6,6.2h-14.2l-3.6-6.2l-3.6-6.2l3.6-6.2l3.6-6.2h14.2l3.6,6.2l3.6,6.2L1224.9,175.4z
	 M1240.4,142.3v24.7h-8l-3.6-6.2l-3.6-6.2l3.6-6.2l3.6-6.2H1240.4z M1224.9,146.2l-3.6,6.2h-14.2l-3.6-6.2l-3.6-6.2l3.6-6.2l3.6-6.2
	h14.2l3.6,6.2l3.6,6.2L1224.9,146.2z M1240.4,113.1v24.7h-8l-3.6-6.2l-3.6-6.2l3.6-6.2l3.6-6.2H1240.4z M1224.9,117l-3.6,6.2h-14.2
	l-3.6-6.2l-3.6-6.2l7.1-12.3h14.2l7.1,12.3L1224.9,117z M1240.4,83.9v24.7h-8l-3.6-6.2l-3.6-6.2l3.6-6.2l3.6-6.2H1240.4z
	 M1224.9,87.8l-3.6,6.2h-14.2l-3.6-6.2l-3.6-6.2l7.1-12.3h14.2l7.1,12.3L1224.9,87.8z M1240.4,76.6v2.8h-8l-3.6-6.2l-3.6-6.2
	l2.1-3.5L1240.4,76.6z M1224,60.2l-2.7,4.6h-14.2l-3.6-6.2l-3.6-6.2l3.6-6.2l2.4-4.1L1224,60.2z M1230.9,37.2c1.9,1.9,1.9,4.9,0,6.7
	s-4.9,1.9-6.7,0s-1.9-4.9,0-6.7C1226,35.3,1229,35.3,1230.9,37.2z M1191.5,27.7l11.1,11.1l-3,5.2l-3.6,6.2h-14.2l-3.6-6.2l-3.6-6.2
	l3.6-6.2l2.3-4H1191.5z M1175.3,27.7l-1,1.7l-3.6,6.2h-14.2l-3.6-6.2l-1-1.7H1175.3z M1146.8,27.7l2.3,4l3.6,6.2l-3.6,6.2l-3.6,6.2
	h-14.2l-3.6-6.2l-3.6-6.2l3.6-6.2l2.3-4H1146.8z M1124.8,27.7l-1,1.7l-3.6,6.2H1106l-3.6-6.2l-1-1.7H1124.8z M1096.2,27.7l2.3,4
	l3.6,6.2l-3.6,6.2l-3.6,6.2h-14.2l-3.6-6.2l-3.6-6.2l3.6-6.2l2.3-4H1096.2z M1074.2,27.7l-1,1.7l-3.6,6.2h-14.2l-3.6-6.2l-1-1.7
	H1074.2z M1045.6,27.7l2.3,4l3.6,6.2l-3.6,6.2l-3.6,6.2h-14.2l-3.6-6.2l-3.6-6.2l3.6-6.2l2.3-4H1045.6z M1023.6,27.7l-1,1.7
	l-3.6,6.2h-14.2l-3.6-6.2l-1-1.7H1023.6z M995.1,27.7l2.3,4l3.6,6.2l-3.6,6.2l-3.6,6.2h-14.2L976,44l-3.6-6.2l3.6-6.2l2.3-4H995.1z
	 M973.1,27.7l-1,1.7l-3.6,6.2h-14.2l-3.6-6.2l-1-1.7H973.1z M944.5,27.7l2.3,4l3.6,6.2l-3.6,6.2l-3.6,6.2H929l-3.6-6.2l-3.6-6.2
	l3.6-6.2l2.3-4H944.5z M903.7,35.6l-1.2-2.1l5.8-5.8h14.2l-1,1.7l-3.6,6.2H903.7z M868.9,43.9c-1.9-1.9-1.9-4.9,0-6.7
	c1.9-1.9,4.9-1.9,6.7,0c1.9,1.9,1.9,4.9,0,6.7S870.7,45.8,868.9,43.9z M885.8,50.2l13.4-13.4l0.6,1.1l-3.6,6.2l-3.6,6.2H885.8z
	 M896.6,52.4l7.1-12.3H918l7.1,12.3l-3.6,6.2l-3.6,6.2h-14.2l-3.6-6.2L896.6,52.4z M874.6,61.4l6.7-6.7h11.4l3.6,6.2l3.6,6.2
	l-3.6,6.2l-3.6,6.2h-14.2l-3.6-6.2l-3.6-6.2L874.6,61.4z M859.4,94V76.5l7.3-7.3h0.7l7.1,12.3l-3.6,6.2l-3.6,6.2H859.4z M874.9,90
	l3.6-6.2h14.2l3.6,6.2l3.6,6.2l-3.6,6.2l-1.4,2.5l-2.1,3.7h-14.2l-2.3-3.9l-1.3-2.2l-3.6-6.2L874.9,90z M859.4,108.7V98.5h8l3.6,6.2
	l1.4,2.4l1.4,2.5c-2.5-1.2-5.2-1.9-8.2-1.9C863.4,107.6,861.4,108,859.4,108.7z M898.5,107.5l1.6-2.8l3.6-6.2H918l3.2,5.5
	c-7.6,3.4-13.2,10.6-14.2,19.2h-3.2l-7.1-12.3L898.5,107.5z M879.9,137.7c2.6-3.2,4.2-7.2,4.2-11.7c0-5.1-2.1-9.7-5.4-13h14l3.6,6.2
	l3.6,6.2l-3.6,6.2l-3.6,6.2H879.9z M896.7,139.7C896.8,139.7,896.8,139.7,896.7,139.7l3.4-5.9l3.6-6.2h3.1c0.6,8.9,6,16.5,13.8,20.2
	l-2.6,4.5h-14.2l-3.6-6.2l-3.6-6.2L896.7,139.7z M859.4,152.3v-9c2,0.7,4,1.1,6.2,1.1c2.5,0,4.9-0.5,7.1-1.4l-1.8,3.1l-3.6,6.2
	H859.4z M874.9,148.4l3.6-6.2h14.2l3.6,6.2l3.6,6.2l-3.6,6.2l-3.6,6.2h-14.2l-3.6-6.2l-3.6-6.2L874.9,148.4z M859.4,181.5v-24.7h8
	l3.6,6.2l3.6,6.2l-3.6,6.2l-3.6,6.2H859.4z M874.9,177.6l3.6-6.2h14.2l3.6,6.2l3.6,6.2l-3.6,6.2l-3.6,6.2h-14.2l-7.1-12.3
	L874.9,177.6z M859.4,210.7V186h8l7.1,12.3l-3.6,6.2l-3.6,6.2H859.4z M878.4,200.6h14.2l3.6,6.2l3.6,6.2l-3.6,6.2l-3.6,6.2h-14.2
	l-3.6-6.2l-3.6-6.2L878.4,200.6z M859.4,239.9v-24.7h8l3.6,6.2l3.6,6.2l-3.6,6.2l-3.6,6.2H859.4z M878.4,229.8h14.2l3.6,6.2l3.6,6.2
	l-3.6,6.2l-3.6,6.2h-14.2l-3.6-6.2l-3.6-6.2L878.4,229.8z M859.4,269.1v-24.7h8l3.6,6.2l3.6,6.2l-3.6,6.2l-3.6,6.2H859.4z
	 M878.4,259h14.2l3.6,6.2l3.6,6.2l-3.6,6.2l-3.6,6.2h-14.2l-3.6-6.2l-3.6-6.2L878.4,259z M859.4,298.3v-24.7h8l3.6,6.2l3.6,6.2
	l-3.6,6.2l-3.6,6.2H859.4z M874.9,294.4l3.6-6.2h14.2l3.6,6.2l3.6,6.2l-3.6,6.2l-3.6,6.2h-14.2l-3.6-6.2l-3.6-6.2L874.9,294.4z
	 M859.4,327.5v-24.7h8l3.6,6.2l3.6,6.2l-3.6,6.2l-3.6,6.2H859.4z M874.9,323.6l3.6-6.2h14.2l3.6,6.2l3.6,6.2l-3.6,6.2l-3.6,6.2
	h-14.2l-3.6-6.2l-3.6-6.2L874.9,323.6z M859.4,356.7V332h8l3.6,6.2l3.6,6.2l-7.1,12.3H859.4z M878.4,346.6h14.2l3.6,6.2l3.6,6.2
	l-3.6,6.2l-3.6,6.2h-14.2l-3.6-6.2l-3.6-6.2L878.4,346.6z M859.4,385.9v-24.7h8l3.6,6.2l3.6,6.2l-3.6,6.2l-3.6,6.2H859.4z
	 M874.9,382l3.6-6.2h14.2l3.6,6.2l3.6,6.2l-3.6,6.2l-3.6,6.2h-14.2l-3.6-6.2l-3.6-6.2L874.9,382z M859.4,415.1v-24.7h8l7.1,12.3
	l-3.6,6.2l-3.6,6.2H859.4z M859.4,429v-9.5h8l3.6,6.2l2.2,3.8c-2.3-1-4.8-1.6-7.5-1.6C863.4,427.9,861.4,428.3,859.4,429z
	 M878.4,429.7l-3.6-6.2l-3.6-6.2l3.6-6.2l3.6-6.2h14.2l3.6,6.2l3.6,6.2l-3.6,6.2l-3.6,6.2H878.4z M896.6,431.9l3.6-6.2l3.6-6.2H918
	l2.8,4.9c-7.7,3.5-13.2,11-14,19.8h-3.1l-3.6-6.2l-3-5.2L896.6,431.9z M879.2,458.9c3-3.3,4.9-7.7,4.9-12.5c0-4.7-1.8-8.9-4.6-12.2
	h13.2l3.6,6.2l3.6,6.2l-3.6,6.2l-3.6,6.2H879.2z M903.7,448.8h3.1c0.9,8.7,6.4,16.1,14.1,19.5l-3,5.1h-14.2l-3.6-6.2l-1.5-2.5
	l-2.1-3.6L903.7,448.8z M859.4,473.5v-9.8c2,0.7,4,1.1,6.2,1.1c2.8,0,5.4-0.6,7.8-1.7l-1.2,2.1l-1.2,2.1l-3.6,6.2H859.4z
	 M874.9,469.5l1.1-1.9l2.5-4.3h14.2l2.3,4l1.2,2.2l3.6,6.2l-3.6,6.2l-3.6,6.2h-14.2l-3.6-6.2l-3.6-6.2L874.9,469.5z M866.2,502.6
	l-6.8-6.8V478h8l3.6,6.2l3.6,6.2l-3.6,6.2l-3.6,6.2H866.2z M880.8,517.2l-5.6-5.6l-0.4-0.6l-3.5-6.2l3.5-6.2l3.6-6.2h14.2l3.6,6.2
	l3.6,6.2l-3.6,6.2l-3.6,6.2H880.8z M896.6,519.5l3.6-6.2l3.6-6.2H918l3.6,6.2l3.6,6.2l-3.6,6.2l-3.6,6.2h-14.2l-3.6-6.2L896.6,519.5
	z M892.7,521.8l3.6,6.2l3.6,6.2l-0.8,1.4l-13.7-13.7H892.7z M868.9,535.2c-1.9-1.9-1.9-4.9,0-6.7s4.9-1.9,6.7,0s1.9,4.9,0,6.7
	C873.8,537.1,870.7,537.1,868.9,535.2z M908.3,544.7l-5.9-6l1.4-2.4H918l3.6,6.2l1.3,2.2H908.3z M928,544.7l-2.6-4.5l-3.6-6.2
	l3.6-6.2l3.6-6.2h14.2l3.6,6.2l3.6,6.2l-3.6,6.2l-2.6,4.5H928z M949.5,544.7l1.3-2.2l3.6-6.2h14.2l3.6,6.2l1.3,2.2H949.5z
	 M978.6,544.7l-2.6-4.5l-3.6-6.2l3.6-6.2l3.6-6.2h14.2l3.6,6.2l3.6,6.2l-3.6,6.2l-2.6,4.5H978.6z M1000,544.7l1.3-2.2l3.6-6.2h14.2
	l3.6,6.2l1.3,2.2H1000z M1029.1,544.7l-2.6-4.5l-3.6-6.2l3.6-6.2l3.6-6.2h14.2l3.6,6.2l3.6,6.2l-3.6,6.2l-2.6,4.5H1029.1z
	 M1050.6,544.7l1.3-2.2l3.6-6.2h14.2l3.6,6.2l1.3,2.2H1050.6z M1079.7,544.7l-2.6-4.5l-3.6-6.2l3.6-6.2l3.6-6.2h14.2l3.6,6.2
	l3.6,6.2l-3.6,6.2l-2.6,4.5H1079.7z M1101.1,544.7l1.3-2.2l3.6-6.2h14.2l3.6,6.2l1.3,2.2H1101.1z M1130.3,544.7l-2.6-4.5l-3.6-6.2
	l3.6-6.2l3.6-6.2h14.2l3.6,6.2l3.6,6.2l-3.6,6.2l-2.6,4.5H1130.3z M1151.7,544.7l1.3-2.2l3.6-6.2h14.2l3.6,6.2l1.3,2.2H1151.7z
	 M1180.8,544.7l-2.6-4.5l-3.6-6.2l3.6-6.2l3.6-6.2h14.2l3.6,6.2l3.2,5.5l-11.3,11.3H1180.8z"/>
</svg>
