<?xml version="1.0" encoding="utf-8"?>
<!-- Generator: Adobe Illustrator 25.2.3, SVG Export Plug-In . SVG Version: 6.00 Build 0)  -->
<svg version="1.1" id="Calque_1" xmlns="http://www.w3.org/2000/svg" xmlns:xlink="http://www.w3.org/1999/xlink" x="0px" y="0px"
	 viewBox="0 0 1275.6 850.4" style="enable-background:new 0 0 1275.6 850.4;" xml:space="preserve">
<style type="text/css">
	.st0{fill:none;stroke:#020203;stroke-width:0.5669;stroke-linecap:round;stroke-linejoin:round;stroke-miterlimit:11.3386;}
</style>
<g>
	<path class="st0" d="M1056.7,241.9h93.8 M1159,241.9h93.8 M1210.2,237.7h51.2 M1107.9,237.7h93.8 M1048.2,237.7h51.2 M1056.7,233.4
		h93.8 M1159,233.4h93.8 M1210.2,229.2h51.2 M1107.9,229.2h93.8 M1048.2,229.2h51.2 M1056.7,224.9h93.8 M1159,224.9h93.8
		 M1210.2,220.7h51.2 M1107.9,220.7h93.8 M1048.2,220.7h51.2 M1056.7,216.4h93.8 M1159,216.4h93.8 M1210.2,212.2h51.2 M1107.9,212.2
		h93.8 M1048.2,212.2h51.2 M1056.7,207.9h93.8 M1159,207.9h93.8 M1210.2,203.7h51.2 M1107.9,203.7h93.8 M1048.2,203.7h51.2
		 M1056.7,199.4h93.8 M1159,199.4h93.8 M1210.2,195.2h51.2 M1107.9,195.2h93.8 M1048.2,195.2h51.2 M1056.7,190.9h93.8 M1159,190.9
		h93.8 M1210.2,186.7h51.2 M1107.9,186.7h93.8 M1048.2,186.7h51.2 M1056.7,182.4h93.8 M1159,182.4h93.8 M1210.2,178.2h51.2
		 M1107.9,178.2h93.8 M1048.2,178.2h51.2"/>
	<path class="st0" d="M1260.8,36.2c0.2,0,0.3-0.1,0.3-0.3V18.2c0-0.1-0.1-0.3-0.3-0.3h-45.4c-0.4,0-0.8,0.1-1.1,0.4
		c-0.3,0.2-0.6,0.6-0.7,0.9c-0.1,0.4-0.2,0.8-0.1,1.2c0.1,0.4,0.3,0.7,0.6,1l8,6.8c0.2,0.2,0.4,0.4,0.5,0.7s0.1,0.6,0,0.9
		s-0.3,0.5-0.5,0.7c-0.2,0.2-0.5,0.3-0.8,0.3h-31.4c-0.3,0-0.6-0.1-0.8-0.3c-0.2-0.2-0.4-0.4-0.5-0.7s-0.1-0.6,0-0.9
		s0.2-0.5,0.5-0.7l8-6.8c0.3-0.3,0.5-0.6,0.6-1c0.1-0.4,0.1-0.8-0.1-1.2c-0.1-0.4-0.4-0.7-0.7-0.9c-0.3-0.2-0.7-0.4-1.1-0.4h-31.4
		c-0.4,0-0.8,0.1-1.1,0.4c-0.3,0.2-0.6,0.6-0.7,0.9c-0.1,0.4-0.2,0.8-0.1,1.2c0.1,0.4,0.3,0.7,0.6,1l8.1,6.8
		c0.2,0.2,0.4,0.4,0.4,0.7c0.1,0.3,0.1,0.6,0,0.9s-0.3,0.5-0.5,0.7c-0.2,0.2-0.5,0.3-0.8,0.3h-31.4c-0.3,0-0.6-0.1-0.8-0.3
		c-0.2-0.2-0.4-0.4-0.5-0.7s-0.1-0.6,0-0.9s0.2-0.5,0.5-0.7l8-6.8c0.3-0.3,0.5-0.6,0.6-1c0.1-0.4,0.1-0.8-0.1-1.2
		c-0.1-0.4-0.4-0.7-0.7-0.9c-0.3-0.2-0.7-0.4-1.1-0.4h-31.4c-0.4,0-0.8,0.1-1.1,0.4c-0.3,0.2-0.6,0.6-0.7,0.9
		c-0.1,0.4-0.2,0.8-0.1,1.2c0.1,0.4,0.3,0.7,0.6,1l8,6.8c0.2,0.2,0.4,0.4,0.5,0.7s0.1,0.6,0,0.9s-0.3,0.5-0.5,0.7
		c-0.2,0.2-0.5,0.3-0.8,0.3h-31.4c-0.3,0-0.6-0.1-0.8-0.3c-0.2-0.2-0.4-0.4-0.5-0.7s-0.1-0.6,0-0.9s0.2-0.5,0.5-0.7l8.1-6.8
		c0.3-0.3,0.5-0.6,0.6-1c0.1-0.4,0.1-0.8,0-1.2c-0.1-0.4-0.4-0.7-0.7-0.9c-0.3-0.2-0.7-0.4-1.1-0.4h-45.4c-0.2,0-0.3,0.1-0.3,0.3
		v801.2c0,0.2,0.1,0.3,0.3,0.3h45.4c0.3,0,0.6,0.1,0.8,0.3c0.2,0.2,0.4,0.4,0.5,0.7c0.1,0.3,0.1,0.6,0,0.9c-0.1,0.3-0.2,0.5-0.5,0.7
		l-8,6.7c-0.3,0.3-0.5,0.6-0.6,1c-0.1,0.4-0.1,0.8,0.1,1.2c0.1,0.4,0.4,0.7,0.7,1c0.3,0.2,0.7,0.4,1.1,0.4h31.4
		c0.4,0,0.8-0.1,1.1-0.4c0.3-0.2,0.6-0.6,0.7-1c0.1-0.4,0.2-0.8,0.1-1.2c-0.1-0.4-0.3-0.7-0.6-1l-8-6.7c-0.2-0.2-0.4-0.4-0.5-0.7
		c-0.1-0.3-0.1-0.6,0-0.9c0.1-0.3,0.3-0.5,0.5-0.7c0.2-0.2,0.5-0.3,0.8-0.3h31.4c0.3,0,0.6,0.1,0.8,0.3c0.2,0.2,0.4,0.4,0.5,0.7
		c0.1,0.3,0.1,0.6,0,0.9c-0.1,0.3-0.2,0.5-0.5,0.7l-8,6.7c-0.3,0.3-0.5,0.6-0.6,1c-0.1,0.4-0.1,0.8,0.1,1.2c0.1,0.4,0.4,0.7,0.7,1
		c0.3,0.2,0.7,0.4,1.1,0.4h31.4c0.4,0,0.8-0.1,1.1-0.4c0.3-0.2,0.6-0.6,0.7-1c0.1-0.4,0.2-0.8,0.1-1.2c-0.1-0.4-0.3-0.7-0.6-1
		l-8-6.7c-0.2-0.2-0.4-0.4-0.5-0.7c-0.1-0.3-0.1-0.6,0-0.9c0.1-0.3,0.3-0.5,0.5-0.7c0.2-0.2,0.5-0.3,0.8-0.3h31.4
		c0.3,0.1,0.5,0.2,0.8,0.3c0.2,0.2,0.4,0.4,0.5,0.7c0.1,0.3,0.1,0.6,0,0.9c-0.1,0.3-0.2,0.5-0.5,0.7l-8,6.7c-0.3,0.3-0.5,0.6-0.7,1
		c-0.1,0.4-0.1,0.8,0.1,1.2c0.1,0.4,0.4,0.7,0.7,1c0.3,0.2,0.7,0.4,1.1,0.4h31.4c0.4,0,0.8-0.1,1.1-0.4c0.3-0.2,0.6-0.6,0.7-1
		c0.1-0.4,0.2-0.8,0.1-1.2c-0.1-0.4-0.3-0.7-0.7-1l-8-6.7c-0.2-0.2-0.4-0.4-0.5-0.7s-0.1-0.6,0-0.9c0.1-0.3,0.3-0.5,0.5-0.7
		c0.2-0.2,0.5-0.3,0.8-0.3h45.4c0.2,0,0.3-0.1,0.3-0.3v-17.7c0-0.2-0.1-0.3-0.3-0.3h-8.2V785h8.2c0.2,0,0.3-0.1,0.3-0.3V665.5
		c0-0.2-0.1-0.3-0.3-0.3h-8.2v-16.4h8.2c0.2,0,0.3-0.1,0.3-0.3v-17c0-0.2-0.1-0.3-0.3-0.3h-8.2v-16.4h8.2c0.2,0,0.3-0.1,0.3-0.3v-17
		c0-0.2-0.1-0.3-0.3-0.3h-8.2v-16.4h8.2c0.2,0,0.3-0.1,0.3-0.3v-17c0-0.2-0.1-0.3-0.3-0.3h-8.2v-16.4h8.2c0.2,0,0.3-0.1,0.3-0.3v-17
		c0-0.2-0.1-0.3-0.3-0.3h-8.2v-16.4h8.2c0.2,0,0.3-0.1,0.3-0.3v-17c0-0.2-0.1-0.3-0.3-0.3h-8.2v-16.4h8.2c0.2,0,0.3-0.1,0.3-0.3v-17
		c0-0.2-0.1-0.3-0.3-0.3h-8.2v-16.4h8.2c0.2,0,0.3-0.1,0.3-0.3v-17c0-0.2-0.1-0.3-0.3-0.3h-8.2v-16.4h8.2c0.2,0,0.3-0.1,0.3-0.3v-17
		c0-0.2-0.1-0.3-0.3-0.3h-8.2v-16.4h8.2c0.2,0,0.3-0.1,0.3-0.3v-17c0-0.2-0.1-0.3-0.3-0.3h-8.2v-16.4h8.2c0.2,0,0.3-0.1,0.3-0.3v-17
		c0-0.2-0.1-0.3-0.3-0.3h-8.2v-16.4h8.2c0.2,0,0.3-0.1,0.3-0.3v-17c0-0.2-0.1-0.3-0.3-0.3h-8.2v-16.4h8.2c0.2,0,0.3-0.1,0.3-0.3V155
		c0-0.2-0.1-0.3-0.3-0.3h-8.2v-16.4h8.2c0.2,0,0.3-0.1,0.3-0.3v-17c0-0.2-0.1-0.3-0.3-0.3h-8.2v-16.4h8.2c0.2,0,0.3-0.1,0.3-0.3V87
		c0-0.1-0.1-0.3-0.3-0.3h-8.2V70.3h8.2c0.2,0,0.3-0.1,0.3-0.3V53c0-0.2-0.1-0.3-0.3-0.3h-8.2V36.2H1260.8z M1090.7,371.5
		c0,3.2-2.6,5.8-5.8,5.8h-11.1c-3.2,0-5.8-2.6-5.8-5.8v-25.3c0-3.2,2.6-5.8,5.8-5.8h11.1c3.2,0,5.8,2.6,5.8,5.8V371.5z
		 M1201.1,486.2C1201.1,486.2,1201,486.2,1201.1,486.2c-0.8,0.6-1.7,1-2.7,1c-0.2-0.1-0.5-0.1-0.8-0.1c-0.1,0-0.2,0-0.2-0.1l-34-8.4
		c-1.9-0.5-3.2-2.2-3.2-4.1c0-2.4,2-4.2,4.2-4.2c0.3,0,0.7,0.1,1,0.1l34,8.4c1.9,0.5,3.2,2.2,3.2,4.1
		C1202.6,484.2,1202,485.4,1201.1,486.2z M1198.4,644.8c-0.3,0-0.6,0-1-0.1l-34-8.4c-1.9-0.5-3.2-2.2-3.2-4.1c0-2.4,1.9-4.2,4.2-4.2
		c0.4,0,0.7,0,1.1,0.1l34,8.4c1.9,0.5,3.2,2.2,3.2,4.1C1202.7,643,1200.7,644.8,1198.4,644.8z M1198.5,627.2c-0.4,0-0.7,0-1.1-0.1
		l-34-8.4c-1.9-0.5-3.2-2.2-3.2-4.1c0-2.4,1.9-4.2,4.2-4.2c0.4,0,0.7,0,1.1,0.1l34,8.4c1.9,0.5,3.2,2.2,3.2,4.1
		C1202.7,625.4,1200.8,627.2,1198.5,627.2z M1198.5,609.7c-0.3,0-0.7,0-1.1-0.1l-34-8.4c-1.9-0.5-3.2-2.2-3.2-4.1
		c0-2.4,1.9-4.2,4.2-4.2c0.4,0,0.7,0,1.1,0.1l34,8.4c1.9,0.5,3.2,2.2,3.2,4.1C1202.7,607.8,1200.7,609.7,1198.5,609.7z
		 M1198.5,592.2c-0.3,0-0.7,0-1.1-0.1l-34-8.4c-1.9-0.5-3.2-2.2-3.2-4.1c0-2.4,1.9-4.2,4.2-4.2c0.4,0,0.7,0,1.1,0.1l34,8.4
		c1.9,0.5,3.2,2.2,3.2,4.1C1202.7,590.3,1200.7,592.2,1198.5,592.2z M1198.4,574.7c-0.3,0-0.6,0-1-0.1l-34-8.4
		c-1.9-0.5-3.2-2.2-3.2-4.1c0-2.4,1.9-4.2,4.2-4.2c0.4,0,0.7,0,1.1,0.1l34,8.4c1.9,0.5,3.2,2.2,3.2,4.1
		C1202.7,572.9,1200.7,574.7,1198.4,574.7z M1198.4,557.2c-0.3,0-0.6,0-1-0.1l-34-8.4c-1.9-0.5-3.2-2.2-3.2-4.1
		c0-2.4,1.9-4.2,4.2-4.2c0.4,0,0.7,0,1.1,0.1l34,8.4c1.9,0.5,3.2,2.2,3.2,4.1C1202.7,555.4,1200.7,557.2,1198.4,557.2z
		 M1198.5,539.6c-0.4,0-0.7,0-1.1-0.1l-34-8.4c-1.9-0.5-3.2-2.2-3.2-4.1c0-2.4,1.9-4.2,4.2-4.2c0.4,0,0.7,0,1.1,0.1l34,8.4
		c1.9,0.5,3.2,2.2,3.2,4.1C1202.7,537.8,1200.8,539.6,1198.5,539.6z M1160.2,509.5c0-2.4,2-4.2,4.2-4.2c0.3,0,0.7,0.1,1,0.1l34,8.4
		c1.9,0.5,3.2,2.2,3.2,4.1c0,2.4-2,4.3-4.2,4.3c-0.3,0-0.7-0.1-1-0.2l-34-8.4C1161.5,513.1,1160.2,511.4,1160.2,509.5z
		 M1198.5,504.6c-0.3,0-0.7,0-1.1-0.1l-34-8.4c-1.9-0.5-3.2-2.2-3.2-4.1c0-2.4,1.9-4.2,4.2-4.2c0.4,0,0.7,0,1.1,0.1l34,8.4
		c1.9,0.5,3.2,2.2,3.2,4.1C1202.7,502.7,1200.7,504.6,1198.5,504.6z M1198.4,469.6c-0.3,0-0.6,0-1-0.1l-34-8.4
		c-1.9-0.5-3.2-2.2-3.2-4.1c0-2.4,1.9-4.2,4.2-4.2c0.4,0,0.7,0,1.1,0.1l34,8.4c1.9,0.5,3.2,2.2,3.2,4.1
		C1202.7,467.8,1200.7,469.6,1198.4,469.6z M1198.5,452c-0.4,0-0.7,0-1.1-0.1l-34-8.4c-1.9-0.5-3.2-2.2-3.2-4.1
		c0-2.4,1.9-4.2,4.2-4.2c0.4,0,0.7,0,1.1,0.1l34,8.4c1.9,0.5,3.2,2.2,3.2,4.1C1202.7,450.2,1200.8,452,1198.5,452z M1198.5,434.5
		c-0.4,0-0.7,0-1.1-0.1l-34-8.4c-1.9-0.5-3.2-2.2-3.2-4.1c0-2.4,1.9-4.2,4.2-4.2c0.4,0,0.7,0,1.1,0.1l34,8.4
		c1.9,0.5,3.2,2.2,3.2,4.1C1202.7,432.7,1200.8,434.5,1198.5,434.5z M1198.5,417c-0.3,0-0.7,0-1.1-0.1l-34-8.4
		c-1.9-0.5-3.2-2.2-3.2-4.1c0-2.4,1.9-4.2,4.2-4.2c0.4,0,0.7,0,1.1,0.1l34,8.4c1.9,0.5,3.2,2.2,3.2,4.1
		C1202.7,415.1,1200.7,417,1198.5,417z M1198.4,399.5c-0.3,0-0.6,0-1-0.1l-34-8.4c-1.9-0.5-3.2-2.2-3.2-4.1c0-2.4,1.9-4.2,4.2-4.2
		c0.4,0,0.7,0,1.1,0.1l34,8.4c1.9,0.5,3.2,2.2,3.2,4.1C1202.7,397.7,1200.7,399.5,1198.4,399.5z M1198.4,382c-0.3,0-0.6,0-1-0.1
		l-34-8.4c-1.9-0.5-3.2-2.2-3.2-4.1v-35.1c0-2.4,2-4.2,4.2-4.2c0.3,0,0.7,0.1,1,0.1l34,8.4c1.9,0.5,3.2,2.2,3.2,4.1l0.1,17v1.2
		l0,16.9C1202.7,380.2,1200.7,382,1198.4,382z M1198.5,329.4c-0.3,0-0.7-0.1-1.1-0.1l-34-8.4c-1.9-0.5-3.2-2.2-3.2-4.1
		c0-2.4,1.9-4.2,4.2-4.2c0.4,0,0.7,0,1.1,0.1l34,8.4c1.9,0.5,3.2,2.2,3.2,4.1C1202.7,327.5,1200.7,329.4,1198.5,329.4z"/>
	<path class="st0" d="M1056.7,761.6h93.8 M1159,761.6h93.8 M1210.2,757.4h51.2 M1107.9,757.4h93.8 M1048.2,757.4h51.2 M1056.7,753.1
		h93.8 M1159,753.1h93.8 M1210.2,748.9h51.2 M1107.9,748.9h93.8 M1048.2,748.9h51.2 M1056.7,744.6h93.8 M1159,744.6h93.8
		 M1210.2,740.4h51.2 M1107.9,740.4h93.8 M1048.2,740.4h51.2 M1056.7,736.1h93.8 M1159,736.1h93.8 M1210.2,731.9h51.2 M1107.9,731.9
		h93.8 M1048.2,731.9h51.2 M1056.7,727.6h93.8 M1159,727.6h93.8 M1210.2,723.3h51.2 M1107.9,723.3h93.8 M1048.2,723.3h51.2
		 M1056.7,719.1h93.8 M1159,719.1h93.8 M1210.2,714.8h51.2 M1107.9,714.8h93.8 M1048.2,714.8h51.2 M1056.7,710.6h93.8 M1159,710.6
		h93.8 M1210.2,706.3h51.2 M1107.9,706.3h93.8 M1048.2,706.3h51.2 M1056.7,702.1h93.8 M1159,702.1h93.8 M1210.2,697.8h51.2
		 M1107.9,697.8h93.8 M1048.2,697.8h51.2"/>
	<path class="st0" d="M1197.4,311.8l-34-8.4c-1.9-0.5-3.2-2.2-3.2-4.1l0,0c0-2.8,2.6-4.8,5.3-4.1l34,8.4c1.9,0.5,3.2,2.2,3.2,4.1
		l0,0C1202.7,310.4,1200.1,312.5,1197.4,311.8z"/>
</g>
<g>
	<rect x="711.4" y="359.7" class="st0" width="215.4" height="343"/>
	<circle class="st0" cx="653.5" cy="430.6" r="17"/>
	<circle class="st0" cx="653.5" cy="631.8" r="17"/>
	<circle class="st0" cx="653.5" cy="581.5" r="17"/>
	<circle class="st0" cx="653.5" cy="531.2" r="17"/>
	<circle class="st0" cx="653.5" cy="480.9" r="17"/>
	<path class="st0" d="M938.5,803.6h-16.4c0-0.3-0.3,0,0,0v8.2c0,0.2-0.1,0.3-0.3,0.3h-17c-0.2,0-0.3-0.1-0.3-0.3v-8.2
		c0.3,0,0-0.3,0,0h-16.4c0-0.3-0.3,0,0,0v8.2c0,0.2-0.1,0.3-0.3,0.3h-17c-0.2,0-0.3-0.1-0.3-0.3v-8.2c0.3,0,0-0.3,0,0h-16.4
		c0-0.3-0.3,0,0,0v8.2c0,0.2-0.1,0.3-0.3,0.3h-17c-0.2,0-0.3-0.1-0.3-0.3v-8.2c0.3,0,0-0.3,0,0H820c0-0.3-0.3,0,0,0v8.2
		c0,0.2-0.1,0.3-0.3,0.3h-17c-0.2,0-0.3-0.1-0.3-0.3v-8.2c0.3,0,0-0.3,0,0H786c0-0.3-0.3,0,0,0v8.2c0,0.2-0.1,0.3-0.3,0.3h-17
		c-0.2,0-0.3-0.1-0.3-0.3v-8.2c0.3,0,0-0.3,0,0H752c0-0.3-0.3,0,0,0v8.2c0,0.2-0.1,0.3-0.3,0.3h-17c-0.2,0-0.3-0.1-0.3-0.3v-8.2
		c0.3,0,0-0.3,0,0h-34.9c0-0.3-0.3,0,0,0v8.2c0,0.2-0.1,0.3-0.3,0.3h-17c-0.2,0-0.3-0.1-0.3-0.3v-8.2c0.3,0,0-0.3,0,0h-17.4
		c-8.8,0-17.4-2.3-25-6.7s-13.9-10.7-18.3-18.3c-4.4-7.6-6.7-16.2-6.7-24.9v-26.6c0.3,0,0-0.3,0,0h-8.2c-0.2,0-0.3-0.1-0.3-0.3v-17
		c0-0.2,0.1-0.3,0.3-0.3h8.2c0,0.3,0.3,0,0,0v-16.4c0.3,0,0-0.3,0,0h-8.2c-0.2,0-0.3-0.1-0.3-0.3v-17c0-0.2,0.1-0.3,0.3-0.3h8.2
		c0,0.3,0.3,0,0,0V659c0.3,0,0-0.3,0,0h-8.2c-0.2,0-0.3-0.1-0.3-0.3v-17c0-0.2,0.1-0.3,0.3-0.3h8.2c0,0.3,0.3,0,0,0V625
		c0.3,0,0-0.3,0,0h-8.2c-0.2,0-0.3-0.1-0.3-0.3v-17c0-0.2,0.1-0.3,0.3-0.3h8.2c0,0.3,0.3,0,0,0V591c0.3,0,0-0.3,0,0h-8.2
		c-0.2,0-0.3-0.1-0.3-0.3v-17c0-0.2,0.1-0.3,0.3-0.3h8.2c0,0.3,0.3,0,0,0V557c0.3,0,0-0.3,0,0h-8.2c-0.2,0-0.3-0.1-0.3-0.3v-17
		c0-0.2,0.1-0.3,0.3-0.3h8.2c0,0.3,0.3,0,0,0V523c0.3,0,0-0.3,0,0h-8.2c-0.2,0-0.3-0.1-0.3-0.3v-17c0-0.2,0.1-0.3,0.3-0.3h8.2
		c0,0.3,0.3,0,0,0V489c0.3,0,0-0.3,0,0h-8.2c-0.2,0-0.3-0.1-0.3-0.3v-17c0-0.2,0.1-0.3,0.3-0.3h8.2c0,0.3,0.3,0,0,0V455
		c0.3,0,0-0.3,0,0h-8.2c-0.2,0-0.3-0.1-0.3-0.3v-17c0-0.2,0.1-0.3,0.3-0.3h8.2c0,0.3,0.3,0,0,0V421c0.3,0,0-0.3,0,0h-8.2
		c-0.2,0-0.3-0.1-0.3-0.3v-17c0-0.1,0.1-0.3,0.3-0.3h8.2c0,0.3,0.3,0,0,0V387c0.3,0,0-0.3,0,0h-8.2c-0.2,0-0.3-0.1-0.3-0.3v-17
		c0-0.2,0.1-0.3,0.3-0.3h8.2c0,0.3,0.3,0,0,0V353c0.3,0,0-0.3,0,0h-8.2c-0.2,0-0.3-0.1-0.3-0.3v-17c0-0.1,0.1-0.3,0.3-0.3h8.2
		c0,0.3,0.3,0,0,0v-26.6c0-8.8,2.3-17.4,6.7-24.9c4.4-7.6,10.7-13.9,18.3-18.3s16.2-6.7,25-6.7H682c0,0.3,0.3,0,0,0v-8.2
		c0-0.1,0.1-0.3,0.3-0.3h17c0.2,0,0.3,0.1,0.3,0.3v8.2c-0.3,0,0,0.3,0,0H716c0,0.3,0.3,0,0,0v-8.2c0-0.1,0.1-0.3,0.3-0.3h17
		c0.2,0,0.3,0.1,0.3,0.3v8.2c-0.3,0,0,0.3,0,0H750c0,0.3,0.3,0,0,0v-8.2c0-0.1,0.1-0.3,0.3-0.3h17c0.2,0,0.3,0.1,0.3,0.3v8.2
		c-0.3,0,0,0.3,0,0H784c0,0.3,0.3,0,0,0v-8.2c0-0.1,0.1-0.3,0.3-0.3h17c0.2,0,0.3,0.1,0.3,0.3v8.2c-0.3,0,0,0.3,0,0h34.9
		c0,0.3,0.3,0,0,0v-8.2c0-0.1,0.1-0.3,0.3-0.3h17c0.1,0,0.3,0.1,0.3,0.3v8.2c-0.3,0,0,0.3,0,0h16.4c0,0.3,0.3,0,0,0v-8.2
		c0-0.1,0.1-0.3,0.3-0.3h17c0.2,0,0.3,0.1,0.3,0.3v8.2c-0.3,0,0,0.3,0,0h16.4c0,0.3,0.3,0,0,0v-8.2c0-0.1,0.1-0.3,0.3-0.3h17
		c0.2,0,0.3,0.1,0.3,0.3v8.2c-0.3,0,0,0.3,0,0h16.4c0,0.3,0.3,0,0,0v-8.2c0-0.1,0.1-0.3,0.3-0.3h17c0.2,0,0.3,0.1,0.3,0.3v8.2
		c-0.3,0,0,0.3,0,0h17.4c8.8,0,17.4,2.3,24.9,6.7c7.6,4.4,13.9,10.7,18.3,18.3c4.4,7.6,6.7,16.2,6.7,24.9v26.6c-0.3,0,0,0.3,0,0h8.2
		c0.2,0,0.3,0.1,0.3,0.3v17c0,0.2-0.1,0.3-0.3,0.3h-8.2c0-0.3-0.3,0,0,0v16.4c-0.3,0,0,0.3,0,0h8.2c0.2,0,0.3,0.1,0.3,0.3v17
		c0,0.2-0.1,0.3-0.3,0.3h-8.2c0-0.3-0.3,0,0,0v16.4c-0.3,0,0,0.3,0,0h8.2c0.2,0,0.3,0.1,0.3,0.3v17c0,0.2-0.1,0.3-0.3,0.3h-8.2
		c0-0.3-0.3,0,0,0v16.4c-0.3,0,0,0.3,0,0h8.2c0.2,0,0.3,0.1,0.3,0.3v17c0,0.2-0.1,0.3-0.3,0.3h-8.2c0-0.3-0.3,0,0,0v16.4
		c-0.3,0,0,0.3,0,0h8.2c0.2,0,0.3,0.1,0.3,0.3v17c0,0.2-0.1,0.3-0.3,0.3h-8.2c0-0.3-0.3,0,0,0v16.4c-0.3,0,0,0.3,0,0h8.2
		c0.2,0,0.3,0.1,0.3,0.3v17c0,0.1-0.1,0.3-0.3,0.3h-8.2c0-0.3-0.3,0,0,0v16.4c-0.3,0,0,0.3,0,0h8.2c0.2,0,0.3,0.1,0.3,0.3v17
		c0,0.2-0.1,0.3-0.3,0.3h-8.2c0-0.3-0.3,0,0,0v16.4c-0.3,0,0,0.3,0,0h8.2c0.2,0,0.3,0.1,0.3,0.3v17c0,0.2-0.1,0.3-0.3,0.3h-8.2
		c0-0.3-0.3,0,0,0v16.4c-0.3,0,0,0.3,0,0h8.2c0.2,0,0.3,0.1,0.3,0.3v17c0,0.1-0.1,0.3-0.3,0.3h-8.2c0-0.3-0.3,0,0,0v16.4
		c-0.3,0,0,0.3,0,0h8.2c0.2,0,0.3,0.1,0.3,0.3v17c0,0.2-0.1,0.3-0.3,0.3h-8.2c0-0.3-0.3,0,0,0v16.5c-0.3,0,0,0.3,0,0h8.2
		c0.2,0,0.3,0.1,0.3,0.3v17c0,0.2-0.1,0.3-0.3,0.3h-8.2c0-0.3-0.3,0,0,0v16.4c-0.3,0,0,0.3,0,0h8.2c0.2,0,0.3,0.1,0.3,0.3v17
		c0,0.2-0.1,0.3-0.3,0.3h-8.2c0-0.3-0.3,0,0,0v26.6c0,8.8-2.3,17.4-6.7,24.9c-4.4,7.6-10.7,13.9-18.3,18.3
		c-7.6,4.4-16.2,6.7-24.9,6.7h-17.4c0-0.3-0.3,0,0,0v8.2c0,0.2-0.1,0.3-0.3,0.3h-17c-0.2,0-0.3-0.1-0.3-0.3L938.5,803.6
		C938.8,803.6,938.5,803.3,938.5,803.6z"/>
	<circle class="st0" cx="700" cy="688.5" r="5.7"/>
	<circle class="st0" cx="700" cy="373.9" r="5.7"/>
	<circle class="st0" cx="938.1" cy="688.5" r="5.7"/>
	<circle class="st0" cx="938.1" cy="373.9" r="5.7"/>
	<g>
		<g>
			<path d="M794.9,740.8c1.2,0,2.4,0,3.6,0c0.2,0,0.3-0.1,0.3-0.3c0-2,0-4.1,0-6.1c0-1.9,1.3-3.5,3.1-4c0.3-0.1,0.6-0.1,0.8-0.1
				c2,0,4.1,0,6.1,0c0.2,0,0.3,0,0.3-0.3c0-2.4,0-4.8,0-7.2c0-0.2,0.1-0.3,0.3-0.3c0.9,0,1.7,0,2.6,0c0.2,0,0.2,0.1,0.2,0.2
				c0,2.4,0,4.8,0,7.3c0,0.2,0.1,0.3,0.3,0.3c1.1,0,2.3,0,3.4,0c0.2,0,0.3-0.1,0.3-0.3c0-2.4,0-4.8,0-7.3c0-0.2,0.1-0.3,0.3-0.3
				c0.9,0,1.7,0,2.6,0c0.2,0,0.3,0.1,0.3,0.3c0,2.4,0,4.8,0,7.2c0,0.3,0.1,0.3,0.3,0.3c1.1,0,2.2,0,3.3,0c0.3,0,0.3,0,0.3-0.3
				c0-2.4,0-4.8,0-7.2c0-0.2,0-0.3,0.3-0.3c0.9,0,1.7,0,2.6,0c0.2,0,0.3,0.1,0.3,0.3c0,2.4,0,4.8,0,7.3c0,0.2,0,0.3,0.3,0.3
				c1.1,0,2.3,0,3.4,0c0.2,0,0.3-0.1,0.3-0.3c0-2.4,0-4.8,0-7.2c0-0.2,0.1-0.3,0.3-0.3c0.9,0,1.7,0,2.6,0c0.2,0,0.3,0,0.3,0.3
				c0,2.4,0,4.8,0,7.2c0,0.3,0.1,0.3,0.3,0.3c2,0,4,0,6,0c1.7,0,3.3,1.1,3.9,2.8c0.1,0.4,0.2,0.7,0.2,1.1c0,2.1,0,4.1,0,6.2
				c0,0.2,0.1,0.3,0.3,0.3c2.4,0,4.8,0,7.1,0c0.2,0,0.3,0,0.3,0.3c0,0.9,0,1.7,0,2.6c0,0.2-0.1,0.3-0.3,0.3c-2.4,0-4.7,0-7.1,0
				c-0.2,0-0.3,0.1-0.3,0.3c0,1.1,0,2.3,0,3.4c0,0.2,0,0.3,0.3,0.3c2.4,0,4.7,0,7.1,0c0.3,0,0.3,0.1,0.3,0.3c0,0.8,0,1.7,0,2.5
				c0,0.3,0,0.3-0.3,0.3c-2.4,0-4.7,0-7.1,0c-0.2,0-0.3,0.1-0.3,0.3c0,1.2,0,2.3,0,3.5c0,0.2,0.1,0.3,0.3,0.3c2.4,0,4.8,0,7.1,0
				c0.2,0,0.3,0.1,0.3,0.3c0,0.9,0,1.7,0,2.6c0,0.2-0.1,0.3-0.3,0.3c-2.4,0-4.8,0-7.1,0c-0.2,0-0.3,0.1-0.3,0.3c0,1.2,0,2.3,0,3.5
				c0,0.2,0.1,0.3,0.3,0.3c2.4,0,4.7,0,7.1,0c0.2,0,0.3,0.1,0.3,0.3c0,0.9,0,1.8,0,2.6c0,0.2-0.1,0.2-0.2,0.2c-2.4,0-4.8,0-7.2,0
				c-0.2,0-0.3,0.1-0.3,0.3c0,2,0,4.1,0,6.1c0,1.9-1.3,3.5-3.1,4c-0.4,0.1-0.7,0.1-1.1,0.1c-1.9,0-3.9,0-5.8,0
				c-0.3,0-0.3,0.1-0.3,0.3c0,2.4,0,4.8,0,7.2c0,0.2-0.1,0.3-0.3,0.3c-0.9,0-1.7,0-2.6,0c-0.2,0-0.3-0.1-0.3-0.3c0-2.4,0-4.8,0-7.3
				c0-0.2,0-0.3-0.3-0.3c-1.2,0-2.3,0-3.5,0c-0.2,0-0.2,0.1-0.2,0.2c0,2.4,0,4.8,0,7.3c0,0.2-0.1,0.3-0.3,0.3c-0.9,0-1.7,0-2.6,0
				c-0.2,0-0.3-0.1-0.3-0.3c0-2.4,0-4.8,0-7.2c0-0.2-0.1-0.3-0.3-0.3c-1.1,0-2.2,0-3.4,0c-0.3,0-0.3,0.1-0.3,0.3c0,2.4,0,4.8,0,7.2
				c0,0.2-0.1,0.3-0.3,0.3c-0.9,0-1.7,0-2.6,0c-0.2,0-0.3-0.1-0.3-0.3c0-2.4,0-4.8,0-7.2c0-0.2,0-0.3-0.3-0.3c-1.1,0-2.3,0-3.4,0
				c-0.2,0-0.3,0.1-0.3,0.3c0,2.4,0,4.8,0,7.3c0,0.2-0.1,0.3-0.3,0.3c-0.9,0-1.7,0-2.6,0c-0.2,0-0.3,0-0.3-0.3c0-2.4,0-4.8,0-7.2
				c0-0.2-0.1-0.3-0.3-0.3c-2,0-4,0-6,0c-1.9,0-3.5-1.4-3.9-3.2c-0.1-0.4-0.1-0.7-0.1-1.1c0-2,0-3.9,0-5.9c0-0.2-0.1-0.3-0.3-0.3
				c-2.4,0-4.8,0-7.2,0c-0.2,0-0.3,0-0.3-0.3c0-0.9,0-1.7,0-2.6c0-0.3,0-0.3,0.3-0.3c2.3,0,4.7,0,7,0c0.4,0,0.3,0,0.3-0.4
				c0-1.1,0-2.3,0-3.4c0-0.2,0-0.3-0.3-0.3c-2.4,0-4.8,0-7.1,0c-0.2,0-0.3,0-0.3-0.3c0-0.9,0-1.7,0-2.6c0-0.2,0.1-0.3,0.3-0.3
				c2.4,0,4.7,0,7.1,0c0.2,0,0.3-0.1,0.3-0.3c0-1.1,0-2.3,0-3.4c0-0.2-0.1-0.3-0.3-0.3c-2.4,0-4.7,0-7.1,0c-0.3,0-0.3,0-0.3-0.3
				c0-0.8,0-1.7,0-2.5c0-0.4-0.1-0.4,0.3-0.4c2.4,0,4.7,0,7.1,0c0.2,0,0.3-0.1,0.3-0.3c0-1.1,0-2.3,0-3.4c0-0.2,0-0.3-0.3-0.3
				c-2.4,0-4.7,0-7.1,0c-0.4,0-0.3,0-0.3-0.4c0-0.9,0-1.7,0-2.6c0-0.2,0.1-0.3,0.3-0.3C792.5,740.8,793.7,740.8,794.9,740.8z
				 M840.6,753.2c0-3.7,0-7.5,0-11.2c0-2.5,0-5,0-7.4c0-0.5-0.2-0.8-0.6-1c-0.2-0.1-0.3,0-0.5,0c-12.2,0-24.3,0-36.5,0
				c-0.1,0-0.2,0-0.3,0c-0.4,0-0.6,0.2-0.8,0.5c-0.1,0.2-0.1,0.4-0.1,0.5c0,12.4,0,24.8,0,37.1c0,0.1,0,0.1,0,0.2
				c0,0.1,0,0.2,0.1,0.4c0.2,0.4,0.5,0.5,1,0.5c12.2,0,24.5,0,36.7,0c0.1,0,0.1,0,0.2,0c0.1,0,0.2,0,0.3-0.1c0.4-0.2,0.5-0.5,0.5-1
				C840.6,765.6,840.6,759.4,840.6,753.2z"/>
			<path d="M827.3,771c-0.8,0-1.4-0.1-2.1-0.4c-0.1-0.1-0.2-0.1-0.4-0.1c-0.7,0-1.4,0.1-2.1-0.3c-1-0.5-1.6-1.2-1.9-2.3
				c-0.1-0.4-0.2-0.8-0.2-1.2c0-0.1-0.1-0.1-0.1-0.2c-0.6-0.6-1-1.4-1.1-2.2c-0.1-0.4-0.1-0.8,0.1-1.3c0-0.1,0-0.2-0.1-0.3
				c-0.4-0.3-0.6-0.7-0.7-1.1c-0.2-0.8-0.2-1.7,0.1-2.5c0.1-0.4,0-0.6-0.2-0.9c-0.4-0.9-0.8-1.8-1-2.8c-0.1-0.4-0.1-0.8-0.1-1.3
				c0-0.2,0-0.3-0.2-0.3c-0.7-0.2-1.4-0.3-2.1-0.6c-1.2-0.4-1.9-1.3-2.3-2.5c-0.2-0.5-0.3-1-0.5-1.5c-0.4-0.9-1.1-1.5-2-1.8
				c-0.3-0.1-0.5-0.1-0.8-0.2c-0.7-0.3-1-0.8-0.9-1.6s0.3-1.5,0.8-2.1c0.4-0.5,1.1-0.8,1.9-0.4c0.6,0.4,1.4,0.6,2.1,0.6
				c0.1,0,0.1,0,0.1-0.1c0.1-0.5,0.3-0.9,0.7-1.3c0.2-0.3,0.5-0.5,0.7-0.7c0.3-0.3,0.4-0.7,0.5-1.1c0.1-0.8,0.5-1.5,1-2.1
				c0.8-0.9,1.8-1.5,2.9-1.9c0.8-0.3,1.6-0.5,2.4-0.6c0.4-0.1,0.8-0.2,1.2-0.2c0.2,0,0.3-0.2,0.5-0.4c0.3-0.2,0.6-0.3,0.9-0.3
				c0.8-0.1,1.6,0.1,2.3,0.4c0.5,0.2,1,0.1,1.5,0c1.3-0.4,2.5-0.2,3.4,0.9c0.1,0.2,0.3,0.2,0.5,0.2c0.9,0,1.7,0.3,2.5,0.8
				c0.9,0.5,1.7,1.2,2.2,2.1c0.3,0.6,0.5,1.2,0.5,1.9c0,0.2,0,0.4,0.2,0.5c0.8,0.6,1.3,1.5,1.6,2.4c0.2,0.6,0.3,1.2,0.4,1.8
				c0.1,0.7,0.1,1.5-0.1,2.2c-0.1,0.4-0.2,0.9-0.3,1.3c0,0.1,0,0.2,0,0.3c0.5,0.9,0.6,1.8,0.4,2.8c0,0.2-0.1,0.5-0.3,0.6
				c-0.2,0.3-0.2,0.6-0.1,0.9c0.2,0.7,0.2,1.3,0.2,2c-0.1,1.4-0.6,2.6-1.5,3.7c-0.2,0.3-0.5,0.6-0.8,0.8c-0.1,0.1-0.1,0.1-0.1,0.2
				c0.1,0.7,0.1,1.4,0,2.1c-0.2,0.9-0.8,1.6-1.6,2.1c-0.2,0.1-0.2,0.2-0.3,0.4c-0.3,0.6-0.6,1.1-1,1.5c-0.7,0.7-1.6,1.2-2.5,1.5
				c-0.2,0.1-0.4,0.2-0.6,0.3c-0.7,0.7-1.5,1.3-2.4,1.7C828.3,771,827.8,771.1,827.3,771z M820.5,763.9c0.1,0.9,0.3,1.6,1,2.1
				c0.1,0.1,0.2,0.2,0.2,0.4c0,0.5,0,0.9,0.2,1.4s0.4,1,0.9,1.3c0.6,0.4,1.2,0.4,1.8,0.4c0.4,0,0.8,0,1.1,0.2
				c0.1,0.1,0.2,0.1,0.4,0.1c0.5,0.1,1,0.3,1.5,0.2c0.2,0,0.3-0.2,0.5-0.2c0.5-0.1,0.9-0.3,1.3-0.5c0.4-0.2,0.8-0.5,1-0.9
				c0.3-0.4,0.7-0.5,1.1-0.7c0.7-0.2,1.4-0.6,1.9-1.1s0.8-1.1,1-1.7c0.1-0.2,0.2-0.3,0.4-0.4c0.7-0.4,1.1-0.9,1.3-1.7
				c0.1-0.6,0-1.1,0.1-1.7c0.1-0.5,0.3-1,0.6-1.3c1-1.1,1.5-2.3,1.5-3.8c0-0.6-0.1-1.3-0.3-1.9c-0.1-0.3,0-0.5,0.1-0.7
				c0.3-0.5,0.5-1,0.4-1.6c0-0.3-0.1-0.7-0.3-1c-0.2-0.4-0.2-0.9-0.1-1.4c0.1-0.2,0.1-0.5,0.2-0.7c0.2-0.7,0.2-1.3,0.2-2
				c-0.1-0.9-0.3-1.7-0.7-2.5c-0.2-0.5-0.5-0.9-1-1.2c-0.4-0.3-0.8-1-0.7-1.5c0-0.1,0-0.2,0-0.4c-0.1-0.7-0.5-1.3-0.9-1.7
				c-1-1-2.2-1.6-3.7-1.6c-0.3,0-0.5-0.1-0.6-0.4c-0.3-0.5-0.8-0.9-1.4-1c-0.6-0.1-1.2,0.1-1.7,0.4c-0.2,0.1-0.5,0.1-0.7,0
				c-0.6-0.2-1.3-0.4-2-0.6c-0.5-0.1-0.9,0-1.1,0.3c-0.2,0.4-0.6,0.4-0.9,0.4c-0.3,0-0.7,0-1,0.1c-0.9,0.3-1.4,1-1.7,1.9
				s-0.5,1.8-0.4,2.7c0,0.4,0.1,0.8,0.3,1.2c0.2,0.3,0,0.7-0.4,0.8c-0.2,0-0.4,0.2-0.6,0.3c-0.5,0.5-0.7,1.1-0.9,1.8
				s-0.1,1.3,0.3,1.9c0.2,0.3,0,0.6-0.2,0.7c-1.1,0.6-1.3,1.6-1.2,2.7c0.1,0.8,0.5,1.5,1.1,2.1c0.2,0.2,0.2,0.4,0.1,0.6
				c-0.2,0.5-0.2,1-0.1,1.5c0.2,0.8,0.5,1.6,0.8,2.4c0,0.1,0.1,0.1,0.1,0.2c0.3,0.2,0.4,0.6,0.4,0.9c0,0.1,0,0.2-0.1,0.3
				s-0.2,0.2-0.2,0.4c-0.1,0.5-0.2,1-0.1,1.4c0.1,0.5,0.1,1,0.7,1.2c0.1,0,0.3,0.1,0.2,0.2c0,0.2,0,0.5-0.1,0.7
				C820.5,763.3,820.5,763.6,820.5,763.9z M817.5,748.2c-0.4-0.1-0.7-0.3-1.1-0.4c-1.1-0.5-1.9-1.3-2.3-2.4
				c-0.1-0.2-0.2-0.3-0.4-0.4c-0.9-0.1-1.7-0.3-2.5-0.7c-0.2-0.1-0.4-0.1-0.6,0.1c-0.5,0.5-0.6,1.1-0.7,1.7c0,0.2,0.1,0.4,0.3,0.4
				c0.2,0.1,0.4,0.1,0.6,0.2c1.2,0.3,2.1,1,2.6,2.1c0.3,0.6,0.5,1.3,0.7,1.9c0.3,0.7,0.6,1.3,1.3,1.6c0.4,0.2,0.7,0.3,1.1,0.4
				c0.2,0,0.3,0.1,0.5,0.1C816.4,751.2,816.3,749.6,817.5,748.2z M817.8,747.2c0-0.6,0-1.1,0.1-1.6c0.3-1,0.7-2,1.6-2.6
				c0.1,0,0.1-0.1,0.1-0.2c-0.2-0.8-0.3-1.6-0.2-2.4c0.1-0.6,0.2-1.2,0.4-1.8c0.1-0.3,0.3-0.6,0.4-0.9l0,0h-0.1
				c-0.8,0.3-1.5,0.6-2.1,1.2c-0.6,0.6-1,1.3-1.1,2.1c-0.1,0.4-0.2,0.8-0.4,1.1c-0.3,0.4-0.7,0.7-1,1.1c-0.3,0.3-0.5,0.7-0.4,1.2
				c0.1,0.7,0.4,1.3,1,1.8C816.5,746.7,817.1,746.9,817.8,747.2z"/>
			<path d="M805.4,748.1C805.4,748.1,805.3,748.2,805.4,748.1c-0.3,0.7-0.8,1-1.4,1c-0.3,0-0.7,0-1,0.1s-0.5,0.3-0.5,0.6
				s0.2,0.5,0.5,0.5h0.1c0.1,0,0.2,0.1,0.1,0.2c0,0.1-0.1,0.2-0.2,0.2c-0.4,0-0.9-0.4-0.9-0.8c0-0.5,0-0.9,0.2-1.4s0.5-0.7,1-0.7
				c0.3,0,0.7,0,1,0c0.4-0.1,0.7-0.4,0.8-0.8c0.1-0.4,0-0.8,0-1.3c0-0.1-0.1-0.1-0.1-0.1c-0.8,0-1.5,0-2.3,0c-0.1,0-0.1,0.1-0.1,0.1
				c0,0.2,0,0.4,0,0.7c0,0.2-0.1,0.1-0.2,0.1c-0.1,0-0.2,0-0.2-0.2c0-0.9,0-1.9,0-2.8c0-0.2,0.1-0.2,0.2-0.2c0.1,0,0.2,0,0.2,0.2
				s0,0.4,0,0.6c0,0.2,0,0.2,0.2,0.2c1.6,0,3.2,0,4.8,0c0.1,0,0.2,0,0.2,0c0.2,0,0.2,0,0.2-0.2s0-0.4,0-0.6c0-0.1,0.1-0.2,0.2-0.1
				c0.1,0,0.2,0,0.2,0.1c0,1.4,0.1,2.7-0.1,4.1c-0.1,0.5-0.2,0.9-0.6,1.3c-0.6,0.7-1.6,0.7-2.1-0.1
				C805.6,748.7,805.5,748.4,805.4,748.1z M806.9,745.7c-0.4,0-0.7,0-1.1,0c-0.1,0-0.2,0-0.2,0.2c0,0.3,0,0.7,0,1
				c0,1.1,0.5,1.5,1.5,1.4c0.6-0.1,0.8-0.3,0.9-0.9c0.1-0.5,0-1.1,0.1-1.6c0-0.1-0.1-0.1-0.2-0.1
				C807.6,745.7,807.2,745.7,806.9,745.7z"/>
			<path d="M805.6,740.9c0,0.3-0.1,0.6-0.3,0.9c-0.5,1.1-1.9,1.2-2.5,0.2c-0.3-0.4-0.4-0.9-0.4-1.4c0-1.4,0-2.8,0-4.1
				c0-0.2,0.1-0.2,0.2-0.2c0.1,0,0.2,0,0.2,0.2s0,0.4,0,0.6c0,0.1,0,0.2,0.1,0.2c1.7,0,3.4,0,5.1,0c0.1,0,0.2-0.1,0.2-0.2
				c0-0.2,0-0.4,0-0.6c0-0.2,0.1-0.1,0.2-0.1c0.1,0,0.2-0.1,0.2,0.1c0,1.4,0,2.8,0,4.2c0,0.4-0.2,0.9-0.5,1.2
				c-0.6,0.8-1.6,0.7-2.1-0.1C805.7,741.4,805.7,741.2,805.6,740.9z M804.1,738.4c-0.4,0-0.8,0-1.2,0c-0.2,0-0.2,0-0.2,0.2
				c0,0.5,0,1,0,1.5c0,0.9,0.6,1.4,1.5,1.4c0.7-0.1,1.2-0.5,1.2-1.1s0-1.2,0-1.8c0-0.1,0-0.2-0.2-0.2
				C804.8,738.4,804.5,738.4,804.1,738.4z M806.9,738.4c-0.3,0-0.7,0-1,0c-0.1,0-0.2,0-0.2,0.2c0,0.5,0,1,0,1.5
				c0.1,0.6,0.5,1,1.1,1.1c0.8,0.1,1.3-0.3,1.3-1.1c0-0.5,0-1,0-1.5c0-0.2-0.1-0.2-0.2-0.2C807.6,738.4,807.2,738.4,806.9,738.4z"/>
			<path d="M807.8,764.1c-0.2,0-0.4,0-0.5,0c-1.4,0-2.8,0-4.2,0c-0.3,0-0.4,0.1-0.4,0.3s0,0.3,0,0.5s-0.1,0.2-0.2,0.2
				c-0.1,0-0.2,0-0.2-0.2c0-0.7,0-1.4,0-2.1c0-0.2,0.1-0.1,0.2-0.1c0.1,0,0.2,0,0.2,0.1c0,0.2,0,0.3,0,0.5c0,0.3,0.1,0.3,0.4,0.3
				c1.6,0,3.2,0,4.7,0h0.1c0.1,0,0.2,0,0.2-0.2s0-0.4,0-0.6c0-0.2,0.1-0.2,0.2-0.2c0.1,0,0.2,0,0.2,0.2c0,0.6,0,1.2,0,1.9
				c0,0.2-0.1,0.3-0.2,0.3c-1.3,1.1-2.7,2.3-4,3.4l-0.1,0.1c0,0.1,0.1,0,0.2,0c1.2,0,2.3,0,3.5,0c0.2,0,0.3-0.1,0.3-0.3
				c0-0.1,0-0.3,0-0.4c0-0.2,0.1-0.3,0.3-0.2c0.1,0,0.1,0,0.1,0.1c0,0.7,0,1.4,0,2.1c0,0.1-0.1,0.1-0.2,0.1c-0.1,0-0.2,0.1-0.2-0.1
				c0-0.2,0-0.3,0-0.5c0-0.4,0-0.4-0.4-0.4c-1.7,0-3.4,0-5.1,0c-0.1,0-0.3,0-0.3-0.1s0-0.3,0.1-0.4l0,0c1.7-1.4,3.4-2.9,5.1-4.3
				C807.7,764.2,807.7,764.2,807.8,764.1z"/>
			<path d="M802.7,756.1c0.5-0.2,0.9-0.4,1.3-0.5c0.1,0,0.1-0.1,0.1-0.2c0-0.7,0-1.5,0-2.2c0-0.1,0-0.1-0.1-0.2
				c-0.3-0.1-0.7-0.3-1-0.4c-0.1-0.1-0.2,0-0.2,0.1s-0.1,0.3,0,0.4c0,0.2-0.1,0.2-0.2,0.2c-0.2,0-0.2-0.1-0.2-0.2c0-0.6,0-1.2,0-1.8
				c0-0.2,0-0.2,0.2-0.2c0.1,0,0.2,0,0.2,0.2c-0.1,0.5,0.1,0.8,0.6,0.9c1.7,0.7,3.4,1.4,5,2.1c0.1,0.1,0.2,0.1,0.2,0.3
				s-0.1,0.3-0.3,0.3c-1.5,0.6-3,1.2-4.4,1.8c-0.3,0.1-0.7,0.3-1,0.4c-0.1,0-0.2,0.1-0.2,0.3c0,0.1,0,0.3,0,0.4c0,0.2,0,0.3-0.2,0.3
				c-0.1,0-0.1,0-0.1-0.2c0-0.9,0-1.8,0-2.7c0-0.2,0.1-0.2,0.2-0.2c0.1,0,0.2,0,0.2,0.2C802.7,755.6,802.7,755.9,802.7,756.1z
				 M804.5,753.3c0,0.7,0,1.3,0,1.9c0,0.2,0.1,0.2,0.2,0.1c0.6-0.2,1.2-0.5,1.8-0.7c0.2-0.1,0.4-0.2,0.6-0.3
				C806.2,754,805.4,753.6,804.5,753.3z"/>
			<path d="M805.4,761.1c-0.8,0-1.6,0-2.4,0c-0.2,0-0.3,0.1-0.3,0.3s0,0.4,0,0.5s0,0.2-0.2,0.2s-0.2-0.1-0.2-0.2c0-0.9,0-1.9,0-2.8
				c0-0.1,0-0.2,0.2-0.2s0.2,0.1,0.2,0.2c0,0.2,0,0.4,0,0.6c0,0.1,0,0.2,0.2,0.2c1.7,0,3.4,0,5.1,0c0.1,0,0.2-0.1,0.2-0.2
				c0-0.2,0-0.5,0-0.7s0.1-0.2,0.2-0.2c0.1,0,0.2,0,0.2,0.2c0,1,0,1.9,0,2.9c0,0.1,0,0.2-0.2,0.2c-0.1,0-0.2,0-0.2-0.2s0-0.4,0-0.6
				c0-0.2,0-0.2-0.2-0.2C807.1,761.1,806.2,761.1,805.4,761.1z"/>
			<path d="M825.6,740.5c0-0.5,0.2-0.9,0.7-1.1c0.4-0.2,0.9-0.2,1.2,0.1c0.4,0.3,0.5,0.7,0.4,1.2c0,0.2,0,0.2,0.1,0.3
				c2,1.3,4,2.6,6.1,3.9c0.1,0.1,0.2,0.1,0.3,0c0.6-0.4,1.3-0.3,1.7,0.3s0.2,1.3-0.4,1.7c-0.1,0.1-0.1,0.1-0.1,0.2
				c0.4,2.1,0.8,4.2,1.2,6.3c0,0.2,0.1,0.3,0.3,0.3c0.6,0.1,1.1,0.8,0.9,1.4c-0.1,0.6-0.8,1.1-1.4,0.9c-0.2,0-0.3,0-0.4,0.1
				c-1.8,2.8-3.7,5.6-5.6,8.4c-0.1,0.1-0.1,0.2,0,0.4c0.3,0.5,0.3,1.1-0.1,1.5c-0.3,0.4-1,0.5-1.4,0.2c-0.5-0.3-0.7-0.8-0.6-1.4
				c0-0.2,0-0.3-0.1-0.4c-1.6-1.2-3.3-2.5-4.9-3.7c-0.1-0.1-0.2-0.1-0.3,0c-0.6,0.4-1.3,0.2-1.6-0.4c-0.3-0.6-0.2-1.3,0.4-1.7
				c0.2-0.1,0.2-0.2,0.1-0.4c-0.2-1.1-0.3-2.2-0.5-3.2c-0.1-1-0.3-1.9-0.4-2.9c-0.2-1.1-0.3-2.2-0.5-3.2c0-0.1,0-0.2,0-0.3
				c0-0.2-0.1-0.3-0.3-0.3c-0.5-0.1-0.8-0.5-0.9-1c-0.1-0.9,0.7-1.6,1.5-1.3c0.2,0.1,0.3,0,0.4-0.1c1.3-1.6,2.7-3.3,4-4.9
				c0.1-0.2,0.2-0.3,0.1-0.5C825.6,740.9,825.6,740.7,825.6,740.5z M825.5,756.6c0.1-0.1,0.1-0.1,0.2-0.2c0.7-0.8,1.5-1.7,2.2-2.5
				c0.1-0.1,0.1-0.2,0.1-0.4c-0.1-0.7-0.2-1.5-0.3-2.2c0-0.1-0.1-0.2-0.2-0.3c-0.8-0.3-1.5-0.7-2.3-1c-0.2-0.1-0.2-0.1-0.3,0.1
				c-0.2,1.2-0.5,2.3-0.7,3.5c0,0.1-0.1,0.3,0,0.5C824.7,754.9,825.1,755.8,825.5,756.6z M828.6,754c0.1,0.4,0.1,0.8,0.2,1.2
				c0.1,0.8,0.2,1.5,0.3,2.3c0,0.2,0.1,0.2,0.2,0.1c0.9-0.3,1.7-0.7,2.6-1c0.1,0,0.2-0.1,0.2-0.2c0.2-0.9,0.5-1.9,0.8-2.8
				c0-0.1,0-0.2-0.1-0.3c-0.8-0.4-1.6-0.7-2.4-1.1c-0.1-0.1-0.2,0-0.3,0.1c-0.4,0.5-0.8,0.9-1.2,1.4
				C828.7,753.8,828.6,753.9,828.6,754z M827.8,747.3c0,0.3,0.1,0.6,0.1,1c0.1,0.8,0.2,1.5,0.3,2.3c0,0.1,0.1,0.2,0.2,0.2
				c0.5,0.2,0.9,0.4,1.4,0.6c0.1,0.1,0.2,0,0.3-0.1c0.7-0.8,1.4-1.6,2.1-2.4c0.1-0.1,0.1-0.2,0-0.3c-0.4-0.6-0.9-1.2-1.3-1.8
				c-0.1-0.1-0.1-0.1-0.2-0.1c-0.5,0.1-0.9,0.1-1.4,0.2c-0.4,0.1-0.9,0.1-1.3,0.2C827.9,747.1,827.8,747.1,827.8,747.3z
				 M830.5,764.1L830.5,764.1C830.6,764.1,830.6,764,830.5,764.1c1.9-2.8,3.6-5.4,5.4-8.1c0.1-0.1,0.1-0.2,0-0.3s-0.2,0-0.3,0
				c-1,0.4-2,0.8-3,1.1c-0.2,0.1-0.3,0.2-0.3,0.4c-0.5,1.8-0.9,3.5-1.4,5.3C830.8,763,830.6,763.5,830.5,764.1z M829,764.8
				L829,764.8c-0.9-1.8-1.8-3.6-2.6-5.4c-0.1-0.1-0.2-0.1-0.2-0.1c-0.6,0.2-1.1,0.5-1.7,0.6c-0.4,0.1-0.6,0.3-0.6,0.7
				c0,0.2,0,0.2,0.1,0.3c0.5,0.4,1,0.8,1.5,1.1C826.6,763,827.8,763.9,829,764.8z M826.3,741.7C826.2,741.7,826.2,741.7,826.3,741.7
				c-0.2,0.1-0.3,0.3-0.5,0.5c-1.3,1.6-2.6,3.1-3.9,4.7c-0.1,0.2,0,0.3,0,0.4c0.1,0.1,0.1,0.1,0.3,0.1c0.1,0,0.1,0,0.2,0
				c0.8-0.1,1.7-0.2,2.5-0.3c0.2,0,0.3-0.1,0.3-0.3c0.2-1.1,0.5-2.3,0.7-3.4C826,742.7,826.2,742.2,826.3,741.7z M829.9,764.2
				L829.9,764.2c0.7-2.3,1.3-4.7,2-7.1c-0.9,0.3-1.7,0.6-2.5,1c-0.1,0.1-0.2,0.1-0.2,0.3c0.1,0.5,0.1,1,0.2,1.5
				c0.1,0.9,0.2,1.8,0.3,2.6C829.7,763.1,829.8,763.7,829.9,764.2z M827.9,741.6L827.9,741.6C827.9,741.7,827.9,741.7,827.9,741.6
				c1,1.6,2.1,3,3.1,4.5c0.1,0.1,0.1,0.1,0.2,0.1c0.8-0.1,1.6-0.2,2.5-0.3c0.1,0,0.2,0,0.3-0.2c0-0.2-0.1-0.2-0.2-0.3
				c-1.7-1.1-3.4-2.2-5.1-3.3C828.5,742,828.2,741.8,827.9,741.6z M822.7,758.7C822.8,758.7,822.8,758.6,822.7,758.7
				c0.4-1.5,0.7-2.9,1-4.3c0-0.2,0-0.4-0.1-0.6c-0.7-1.4-1.3-2.7-2-4.1c0-0.1-0.1-0.2-0.2-0.2C821.8,752.6,822.3,755.6,822.7,758.7z
				 M827.2,741.7L827.2,741.7c-0.1,0.1-0.1,0.2-0.1,0.3c0.2,1.5,0.4,2.9,0.5,4.4c0,0.2,0.1,0.2,0.3,0.2c0.7-0.1,1.5-0.2,2.2-0.3
				c0.1,0,0.2,0,0.2-0.1c0.1-0.1,0-0.1-0.1-0.2c-0.8-1.1-1.5-2.2-2.3-3.2C827.8,742.4,827.5,742.1,827.2,741.7z M828.2,754.4
				C828.1,754.4,828.1,754.5,828.2,754.4c-0.8,0.9-1.5,1.8-2.3,2.6c-0.1,0.1-0.1,0.2,0,0.3c0.2,0.4,0.4,0.7,0.5,1.1
				c0.1,0.2,0.1,0.2,0.3,0.1c0.5-0.2,1.1-0.4,1.6-0.6c0.2-0.1,0.2-0.1,0.2-0.3c-0.1-0.8-0.2-1.5-0.3-2.3
				C828.2,755,828.2,754.8,828.2,754.4z M823.9,753.2C823.9,753.1,823.9,753.1,823.9,753.2c0.2-1.2,0.4-2.3,0.7-3.3
				c0-0.1,0-0.2-0.1-0.2c-0.8-0.4-1.6-0.7-2.4-1.1c-0.1-0.1-0.2,0-0.3,0.1s-0.1,0.2,0,0.3c0.3,0.5,0.5,1.1,0.8,1.6
				C823,751.4,823.4,752.3,823.9,753.2z M833.6,750.7c0-0.1,0-0.1-0.1-0.2c-0.2-0.3-0.4-0.5-0.6-0.8c-0.3-0.5-0.3-0.5-0.7,0
				l-0.1,0.1c-0.5,0.6-1,1.2-1.6,1.8c-0.1,0.1-0.1,0.2,0,0.2c0.7,0.3,1.5,0.7,2.2,1c0.1,0.1,0.2,0,0.2-0.1c0.1-0.3,0.2-0.7,0.3-1
				C833.4,751.4,833.5,751.1,833.6,750.7z M829.3,764.1c-0.2-1.9-0.5-3.8-0.7-5.8c-0.6,0.2-1.1,0.4-1.7,0.6
				c-0.2,0.1-0.2,0.1-0.1,0.3c0.8,1.6,1.5,3.1,2.3,4.7C829.2,764,829.2,764.1,829.3,764.1z M825.2,749.3c-0.1,0.1,0.1,0.1,0.1,0.2
				c0.7,0.3,1.4,0.6,2.1,0.9c0.3,0.1,0.3,0.1,0.3-0.2c-0.1-0.9-0.2-1.9-0.3-2.8c0-0.1,0-0.2-0.2-0.2c-0.5,0.1-0.9,0.1-1.4,0.2
				c-0.1,0-0.2,0-0.2,0.1C825.5,748.1,825.3,748.7,825.2,749.3z M836.4,753.7c-0.4-2.2-0.9-4.3-1.3-6.5c-0.3,1.1-0.6,2.2-0.9,3.2
				c0,0.1,0,0.2,0.1,0.3c0.7,0.9,1.3,1.9,2,2.8C836.3,753.6,836.3,753.7,836.4,753.7z M832.6,756.3c1-0.4,2-0.8,3-1.1
				c0.2-0.1,0.1-0.2,0.1-0.3s0-0.2-0.1-0.2c-0.7-0.3-1.4-0.6-2.1-1c-0.1,0-0.2,0-0.2,0.1C833.1,754.6,832.8,755.4,832.6,756.3z
				 M824.1,754.8C824.1,754.9,824,754.9,824.1,754.8c-0.4,1.5-0.7,2.9-0.9,4.2c0,0-0.1,0.1,0,0.1s0.1,0,0.1-0.1
				c0.6-0.7,1.2-1.3,1.7-2c0.1-0.1,0.1-0.2,0.1-0.3C824.8,756.2,824.4,755.6,824.1,754.8z M826.7,742.3L826.7,742.3
				c-0.4,1.4-0.6,2.9-1,4.4c0,0.1,0,0.2,0.1,0.2c0.4-0.1,0.8-0.1,1.2-0.2c0.1,0,0.1-0.1,0.1-0.2c0-0.2,0-0.3-0.1-0.5
				c-0.1-0.9-0.2-1.8-0.3-2.7C826.8,743.1,826.7,742.7,826.7,742.3z M832.6,748.4c0.1-0.1,0.2-0.2,0.2-0.2c0.4-0.5,0.8-0.9,1.2-1.4
				c0.1-0.1,0.1-0.2,0-0.3s-0.1-0.2-0.3-0.1c-0.1,0-0.1,0-0.2,0c-0.7,0.1-1.4,0.2-2.1,0.2c-0.1,0-0.2,0.1-0.1,0.2
				C831.9,747.4,832.2,747.9,832.6,748.4z M834,751.2c-0.2,0.6-0.3,1.2-0.5,1.8c0,0.1,0,0.1,0.1,0.2c0.7,0.3,1.5,0.7,2.2,1
				c0.1,0,0.1,0.1,0.2,0c0-0.1,0-0.1,0-0.1C835.3,753.1,834.6,752.2,834,751.2z M824.9,747.5c-0.2,0-0.5,0.1-0.7,0.1
				c-0.7,0.1-1.3,0.2-2,0.2c-0.1,0-0.1,0-0.2,0.1c0,0.1,0.1,0.1,0.1,0.1c0.1,0.1,0.3,0.1,0.4,0.2c0.6,0.3,1.3,0.6,1.9,0.9
				c0.1,0,0.2,0.1,0.2-0.1C824.7,748.5,824.8,748.1,824.9,747.5C825.1,747.5,825,747.5,824.9,747.5z M823.6,759.7
				C823.7,759.7,823.7,759.7,823.6,759.7c0.8-0.3,1.5-0.5,2.3-0.8c0.1,0,0.1-0.1,0.1-0.2c-0.2-0.3-0.3-0.6-0.5-0.9
				c-0.1-0.2-0.1-0.1-0.2,0c-0.4,0.5-0.8,0.9-1.2,1.4C824,759.3,823.8,759.4,823.6,759.7z M834.5,747.1L834.5,747.1
				c-0.5,0.6-1.1,1.2-1.6,1.7c0,0-0.1,0.1,0,0.2c0.3,0.4,0.5,0.7,0.8,1.1C834,749,834.3,748.1,834.5,747.1z M835.1,745.3
				c-0.4,0-0.7,0.3-0.7,0.7s0.3,0.7,0.7,0.7s0.7-0.3,0.7-0.7S835.5,745.3,835.1,745.3z M822.7,761c0.4,0,0.7-0.3,0.7-0.7
				s-0.3-0.7-0.7-0.7s-0.7,0.3-0.7,0.7C822,760.8,822.3,761,822.7,761z M820.9,748.4c0.4,0,0.7-0.3,0.7-0.6c0-0.4-0.3-0.7-0.7-0.7
				s-0.7,0.3-0.7,0.7C820.2,748.1,820.5,748.4,820.9,748.4z M836.2,754.9c0,0.4,0.3,0.7,0.6,0.7c0.4,0,0.7-0.3,0.7-0.7
				s-0.3-0.7-0.7-0.7C836.5,754.3,836.2,754.6,836.2,754.9z M829.1,765.8c0,0.4,0.3,0.7,0.7,0.7s0.7-0.3,0.7-0.7s-0.3-0.7-0.7-0.7
				C829.4,765.1,829.1,765.4,829.1,765.8z M826.8,739.9c-0.4,0-0.7,0.3-0.7,0.7s0.3,0.7,0.7,0.7s0.7-0.3,0.7-0.7
				C827.4,740.2,827.2,739.9,826.8,739.9z M828.5,753.2c0.4-0.4,0.7-0.8,1-1.1c0,0,0.1-0.1,0-0.2c-0.4-0.2-0.7-0.3-1.2-0.5
				C828.4,752,828.5,752.6,828.5,753.2z"/>
		</g>
	</g>
	<g>
		<g>
			<path d="M896.8,711.9c6.1,12.9,12.2,25.7,18.2,38.5c-0.2,0-0.3,0-0.4,0c-5.6,0-11.1,0-16.7,0c-0.3,0-0.4-0.1-0.4-0.4
				c0-0.3,0-0.7,0-1c0-0.2-0.1-0.3-0.3-0.3c-0.9-0.1-0.9-0.1-0.9,0.8c0,0.8,0,0.8-0.8,0.8c-5.5,0-11,0-16.5,0c-0.2,0-0.3,0-0.6,0
				C884.7,737.6,890.7,724.8,896.8,711.9z M898.4,743.2c0.1,0,0.2,0,0.3,0c0.9,0,1.8,0,2.7,0c0.4,0,0.6-0.2,0.6-0.6
				c0-0.3,0-0.5,0-0.8c0-0.5-0.2-0.7-0.7-0.7c-1.4,0-2.7,0-4.1,0c-1.4,0-2.8,0-4.2,0c-0.3,0-0.5,0.1-0.6,0.3c-0.1,0.4-0.1,0.9,0,1.3
				c0,0.2,0.2,0.4,0.3,0.5c-0.1,0.4-0.4,0.8-0.4,1.2c-0.2,1.3,0.3,2.5,1.6,3c1.1,0.4,2.2,0.4,3.2,0.1c1.4-0.4,1.9-1.2,1.7-2.6
				C898.7,744.2,898.5,743.7,898.4,743.2z M897.8,728.7L897.8,728.7c1.2,0,2.3,0,3.5,0c0.5,0,0.7-0.2,0.7-0.7c0-0.3,0-0.6,0-0.9
				c0-0.5-0.2-0.6-0.6-0.6c-2.8,0-5.6,0-8.4,0c-0.5,0-0.6,0.2-0.6,0.6c0,1.6,0,3.1,0,4.7c0,0.6,0.2,0.8,0.8,0.8c0.1,0,0.1,0,0.2,0
				c0.5,0,0.7-0.1,0.7-0.7c0-0.9,0-1.9,0-2.8c0-0.3,0.1-0.4,0.4-0.4C895.5,728.7,896.7,728.7,897.8,728.7z M893,737.5
				c-0.6,0.2-0.7,0.2-0.7,0.7c0,0.3,0,0.6,0,0.9c0,0.4,0.2,0.6,0.6,0.6c1.4,0,2.7,0,4.1,0c0.7,0,1.3-0.4,1.6-1
				c0.6-1.4,0.5-2.7-0.1-4.1c-0.1-0.4-0.3-0.5-0.7-0.4c-0.2,0-0.4,0-0.6,0.1c-0.1,0-0.3,0.1-0.4,0.2c0.1,0.1,0.1,0.3,0.2,0.4
				c0.4,0.5,0.7,1,0.8,1.6c0.1,0.9-0.2,1.2-1.1,1.2c-0.2,0-0.3-0.1-0.3-0.3c-0.1-0.8-0.2-1.6-0.4-2.3c-0.3-1-1.1-1.5-2-1.3
				c-1.5,0.3-2.2,1.6-1.5,3C892.6,736.9,892.8,737.2,893,737.5z"/>
			<path d="M891.9,757c0-1.2,0.3-2.2,0.8-3.2c0.1-0.2,0.2-0.3,0.5-0.2c0.4,0.1,0.9,0.1,1.3,0.2c0.1,0,0.3,0.1,0.3,0.1
				c0,0.1-0.1,0.2-0.1,0.3c-0.8,0.8-1.1,1.8-1.1,3c0,0.7,0.3,1.1,1,1.2c0.6,0.1,1.2-0.3,1.4-0.9c0.1-0.5,0.2-1.1,0.4-1.6
				c0.6-2.1,2.8-2.8,4.4-1.8c0.7,0.4,1,1,1.2,1.8c0.2,1.3,0.1,2.5-0.5,3.7c-0.1,0.2-0.2,0.3-0.5,0.2c-0.4-0.1-0.8-0.1-1.2-0.2
				c-0.1,0-0.2-0.1-0.4-0.1c0.1-0.1,0.1-0.2,0.2-0.3c0.8-0.7,1-1.6,0.8-2.7c-0.1-0.6-0.4-0.9-0.9-0.9s-0.9,0.3-1.1,0.9
				c-0.2,0.6-0.3,1.2-0.5,1.8c-0.7,2-3,2.6-4.7,1.6c-0.9-0.5-1.2-1.3-1.3-2.3C891.9,757.4,891.9,757.2,891.9,757z"/>
			<path d="M896.7,786.4c1.1,0,2,0.1,2.8,0.5c1.3,0.6,2,1.6,2.2,3s0.2,2.7-0.2,4c-0.1,0.3-0.2,0.4-0.6,0.3c-0.4-0.1-0.8-0.1-1.2-0.2
				c-0.4-0.1-0.4-0.1-0.1-0.5c0.8-0.9,0.9-1.9,0.7-2.9s-0.8-1.6-1.8-1.8s-2-0.3-2.9,0c-1.2,0.3-1.9,1.1-2,2.4
				c-0.1,1,0.1,1.9,0.8,2.8c0.2,0.3,0.1,0.4-0.2,0.4s-0.7,0.1-1,0.1c-0.2,0-0.3,0-0.4-0.2c-0.4-0.7-0.7-1.5-0.7-2.3
				c0-1.1,0-2.2,0.5-3.3c0.6-1.2,1.6-1.9,2.9-2.1C895.9,786.4,896.4,786.4,896.7,786.4z"/>
			<path d="M897,776.7c0.9,0,1.7,0.1,2.5,0.5c1.3,0.6,2,1.6,2.2,3s0.2,2.7-0.2,4c-0.1,0.3-0.2,0.4-0.5,0.3c-0.4-0.1-0.8-0.1-1.2-0.2
				c-0.4-0.1-0.5-0.2-0.2-0.5c0.8-0.9,0.9-1.9,0.6-3c-0.2-0.8-0.7-1.4-1.5-1.6c-1.1-0.3-2.2-0.3-3.3,0s-1.7,1.1-1.7,2.3
				c-0.1,1,0.1,2,0.8,2.8c0.1,0.1,0.1,0.2,0.1,0.3c-0.1,0-0.2,0.1-0.3,0.1c-0.3,0-0.7,0.1-1,0.1c-0.2,0-0.3,0-0.5-0.2
				c-0.4-0.7-0.6-1.4-0.7-2.2c0-1,0-2,0.4-3c0.6-1.4,1.6-2.2,3.1-2.4C896,776.7,896.5,776.7,897,776.7z"/>
			<path d="M901.7,766.2c0,1.3,0,2.5,0,3.8c0,0.6-0.1,0.7-0.7,0.7c-0.8,0-0.9-0.1-0.9-0.9c0-0.7,0-1.3,0-2c0-0.5,0-0.5-0.5-0.5
				c-2.2,0-4.3,0-6.5,0c-0.9,0-0.9,0-0.9-0.9c0-0.2,0-0.4,0-0.7c0-0.4,0.2-0.6,0.6-0.6c1.1,0,2.1,0,3.2,0c1.3,0,2.5,0,3.8,0
				c0.2,0,0.3-0.1,0.3-0.3c0-0.8,0-1.6,0-2.4c0-0.5,0.1-0.6,0.6-0.6c0.2,0,0.3,0,0.5,0c0.4,0,0.5,0.2,0.5,0.6
				C901.7,763.6,901.6,764.9,901.7,766.2C901.6,766.2,901.7,766.2,901.7,766.2z"/>
			<path d="M896.9,772.5c1.4,0,2.8,0,4.2,0c0.4,0,0.6,0.2,0.6,0.6c0,0.3,0,0.6,0,1s-0.2,0.6-0.6,0.6c-2.8,0-5.6,0-8.4,0
				c-0.4,0-0.6-0.2-0.6-0.6c0-0.3,0-0.7,0-1c0-0.4,0.2-0.6,0.6-0.6C894.2,772.5,895.6,772.5,896.9,772.5z"/>
			<path d="M897.6,751.4L897.6,751.4c0,0.9,0.2,0.8-0.8,0.8c-0.1,0-0.2-0.1-0.2-0.2c0-0.4,0-0.8,0-1.1c0-0.1,0.1-0.2,0.2-0.2l0,0
				C897.7,750.5,897.6,750.4,897.6,751.4z"/>
			<path d="M895.6,743.2c0.5,0,1,0,1.4,0c0.1,0,0.3,0.1,0.4,0.2c0.2,0.4,0.3,0.7,0.2,1.2c-0.1,0.4-0.3,0.7-0.8,0.7
				c-0.8,0-1.6,0.1-2.4,0c-1.1-0.1-1.2-1.4-0.7-2c0.1-0.1,0.2-0.1,0.4-0.1C894.6,743.2,895.1,743.2,895.6,743.2z"/>
			<path d="M895.5,737.5c-0.4,0-0.8,0-1.1-0.1c-0.2-0.1-0.5-0.2-0.7-0.4c-0.4-0.4-0.4-1,0-1.2c0.4-0.3,1.1-0.3,1.4,0.2
				C895.4,736.4,895.5,736.9,895.5,737.5z"/>
		</g>
	</g>
	<g>
		<g>
			<path d="M744.2,768c0.1,0,0.1,0,0.2,0c3.1,0,6.3,0,9.4,0c0.2,0,0.2,0,0.2-0.2c0-3.1,0-6.3,0-9.4c0-0.2,0-0.2-0.2-0.2
				c-3.2,0-6.3,0-9.5,0c-0.2,0-0.2,0-0.2-0.2c0-6.5,0-12.9,0-19.4c0-0.2,0-0.2,0.2-0.2c6.4,0,12.8,0,19.2,0c0.1,0,0.1,0,0.2,0
				c-6.6-6.6-13.1-13.1-19.7-19.7c0.1-0.1,0.2,0,0.2,0c6.5,0,12.9,0,19.4,0c0.2,0,0.2,0,0.2,0.2c0,6.5,0,12.9,0,19.4
				c0,0.1,0,0.2-0.1,0.3c-3.2,3.2-6.4,6.4-9.6,9.6c-0.1,0.1-0.1,0.2,0,0.3c3.2,3.2,6.4,6.4,9.6,9.6c0,0,0.1,0.1,0.1,0.2
				c-3.3,0-6.5,0-9.8,0c0,0.1,0.1,0.1,0.1,0.2c3.2,3.2,6.3,6.3,9.5,9.5c0.1,0.1,0.2,0.2,0.2,0.4c0,6.4,0,12.9,0,19.3
				c0,0.1,0,0.1,0,0.2C757.3,781.2,750.8,774.6,744.2,768z"/>
			<path d="M739.1,724.9c-0.9-0.3-1.7-0.6-2.6-0.9c-0.3-0.1-0.5-0.2-0.8-0.3c-0.1,0-0.1-0.1-0.1-0.2c0-0.2,0-0.4,0-0.6
				c0-0.1,0-0.2,0.2-0.2c1-0.4,2.1-0.7,3.1-1.1c0,0,0.1,0,0.1-0.1c-0.2,0-0.3,0-0.5,0c-0.9,0-1.9,0-2.8,0c-0.1,0-0.2,0-0.2-0.2
				s0-0.5,0-0.7c0-0.1,0-0.1,0.1-0.1c1.6,0,3.2,0,4.7,0c0.1,0,0.1,0,0.1,0.1c0,0.4,0,0.8,0,1.2c0,0.1,0,0.2-0.2,0.2
				c-1,0.3-2.1,0.7-3.1,1.1c0,0-0.1,0-0.1,0.1c0.5,0.2,1,0.3,1.5,0.5c0.6,0.2,1.1,0.4,1.7,0.5c0.1,0,0.1,0.1,0.1,0.2
				c0,0.4,0,0.8,0,1.3c0,0.1,0,0.2-0.2,0.2c-1.6,0-3.1,0-4.7,0c-0.1,0-0.2,0-0.2-0.2s0-0.5,0-0.7c0-0.1,0-0.2,0.2-0.2c1,0,2,0,3.1,0
				C738.9,724.9,739,724.9,739.1,724.9L739.1,724.9z"/>
			<path d="M735.6,737.4c0-0.4,0-0.7,0-1c0-0.1,0.1-0.1,0.1-0.1c0.3-0.1,0.6-0.2,0.9-0.3c0.1,0,0.1-0.1,0.1-0.2c0-0.5,0-1.1,0-1.6
				c0-0.1,0-0.1-0.1-0.2c-0.3-0.1-0.6-0.2-0.9-0.3c-0.1,0-0.1,0-0.1-0.1c0-0.3,0-0.7,0-1c0.2,0,0.4,0.1,0.6,0.2
				c1.4,0.5,2.8,1.1,4.3,1.6c0.1,0,0.2,0.1,0.2,0.2c0,0.3,0,0.6,0,0.8c0,0.1,0,0.1-0.1,0.1C738.9,736.2,737.3,736.8,735.6,737.4
				C735.7,737.4,735.7,737.4,735.6,737.4z M739.4,735c-0.6-0.2-1.2-0.4-1.8-0.6c0,0.4,0,0.8,0,1.3
				C738.2,735.4,738.8,735.2,739.4,735z"/>
			<path d="M738.9,756.7c0.1,0,0.2,0,0.2,0c0.1,0,0.2,0,0.2,0.2s0,0.4,0,0.6c0,0.1,0,0.2-0.2,0.2c-1.4,0-2.7,0-4.1,0
				c-0.2,0-0.5,0.1-0.6,0s0-0.4,0-0.6c0-0.4,0-0.4,0.4-0.4s0.8,0,1.3,0c-0.4-0.3-0.5-0.6-0.5-1c0-0.7,0.3-1.2,0.9-1.5
				c0.8-0.3,1.6-0.3,2.3,0.2c0.6,0.4,0.7,1.3,0.4,1.9c0,0.1-0.1,0.1-0.1,0.2C739,756.6,738.9,756.7,738.9,756.7z M737.4,755
				c-0.2,0-0.4,0-0.7,0.1s-0.5,0.4-0.5,0.7s0.1,0.6,0.4,0.7c0.5,0.3,1.1,0.3,1.6,0s0.5-1,0-1.3C738,755.1,737.7,755,737.4,755z"/>
			<path d="M735.6,745.2c0-0.3,0-0.6,0-0.9c0-0.1,0-0.1,0.1-0.1s0.1,0,0.2,0c-0.4-0.5-0.5-1.1-0.3-1.7c0.1-0.5,0.5-0.7,1-0.7
				s0.8,0.2,1,0.7c0.1,0.4,0.2,0.8,0.2,1.2c0,0.1,0,0.2,0.1,0.2c0,0.1,0.1,0.3,0.3,0.3s0.4,0,0.4-0.2c0.1-0.3,0.1-0.6,0-0.8
				c-0.1-0.1-0.2-0.2-0.3-0.2s-0.1-0.1-0.1-0.2c0-0.2,0-0.5,0-0.8c0-0.1,0-0.1,0.1-0.1c0.4,0.1,0.7,0.3,0.9,0.7c0.3,0.7,0.3,1.3,0,2
				c-0.1,0.4-0.4,0.6-0.9,0.6c-0.6,0-1.2,0-1.8,0C736.2,745.1,735.9,745.1,735.6,745.2z M737.4,744.1c-0.1-0.2-0.1-0.4-0.1-0.5
				c0-0.2,0-0.4-0.1-0.6c-0.1-0.2-0.3-0.3-0.5-0.3s-0.3,0.1-0.4,0.4c0,0.1,0,0.2,0,0.4c0,0.4,0.3,0.6,0.7,0.7
				C737,744.1,737.2,744.1,737.4,744.1z"/>
			<path d="M736.8,765.9c-0.7-0.2-1.1-0.7-1.2-1.4c-0.1-0.6,0-1.2,0.5-1.7c0.8-0.8,2.8-0.7,3.2,0.9c0.3,1.1-0.4,2-1.5,2.2
				c-0.2,0-0.3,0-0.5,0c-0.1,0-0.2,0-0.1-0.2c0-0.8,0-1.5,0-2.3c0-0.1,0-0.2-0.2-0.1c-0.4,0.1-0.6,0.3-0.7,0.6c-0.1,0.4,0,0.8,0.3,1
				c0.1,0,0.1,0.1,0.1,0.2C736.8,765.4,736.8,765.7,736.8,765.9z M737.9,764.2c0,0.2,0,0.4,0,0.7c0,0.1,0,0.1,0.1,0.1
				c0.4-0.1,0.6-0.3,0.6-0.7c0-0.5-0.2-0.8-0.6-0.8c-0.1,0-0.1,0-0.1,0.1C737.9,763.7,737.9,764,737.9,764.2z"/>
			<path d="M740.6,728.5c0,0.6,0,1.3,0,1.9c0,0.1,0,0.2-0.2,0.2s-0.4,0-0.6,0c-0.1,0-0.2,0-0.2-0.2c0-0.4,0-0.8,0-1.2
				c0-0.1,0-0.1-0.2-0.1c-1.2,0-2.5,0-3.7,0c-0.2,0-0.2,0-0.2-0.2s0-0.5,0-0.7c0-0.1,0-0.2,0.2-0.2c1.2,0,2.5,0,3.7,0
				c0.2,0,0.2,0,0.2-0.2c0-0.4,0-0.8,0-1.1c0-0.1,0-0.2,0.1-0.2c0.2,0,0.4,0,0.7,0c0.1,0,0.1,0,0.1,0.2
				C740.6,727.2,740.6,727.9,740.6,728.5z"/>
			<path d="M738.8,746.8c0.1,0.1,0.2,0.2,0.3,0.3c0.4,0.4,0.4,1.2,0.1,1.7c-0.2,0.3-0.5,0.4-0.8,0.4c-0.2,0-0.4,0-0.6,0
				c-0.7,0-1.4,0-2,0c-0.1,0-0.2,0-0.2-0.2s0-0.4,0-0.7c0-0.1,0-0.2,0.2-0.2c0.6,0,1.2,0,1.8,0c0.2,0,0.3,0,0.5-0.1
				c0.3-0.1,0.4-0.2,0.5-0.5c0-0.4-0.1-0.6-0.4-0.8c-0.2-0.1-0.4-0.1-0.6-0.1c-0.6,0-1.2,0-1.8,0c-0.1,0-0.2,0-0.2-0.2s0-0.5,0-0.7
				c0-0.1,0-0.1,0.1-0.1c1.1,0,2.3,0,3.4,0c0.1,0,0.1,0,0.1,0.1c0,0.2,0,0.5,0,0.7c0,0.1,0,0.1-0.1,0.1
				C739,746.8,738.9,746.8,738.8,746.8z"/>
			<path d="M736.1,760.9c-0.6-0.4-0.7-1-0.5-1.6c0.1-0.5,0.5-0.7,1-0.8c0.8-0.1,1.7,0,2.5,0c0.1,0,0.1,0,0.1,0.1c0,0.3,0,0.5,0,0.8
				c0,0.1,0,0.1-0.1,0.1c-0.6,0-1.3,0-1.9,0c-0.1,0-0.3,0-0.4,0c-0.3,0.1-0.5,0.2-0.5,0.5s0.1,0.6,0.4,0.7c0.2,0.1,0.4,0.1,0.6,0.1
				c0.6,0,1.2,0,1.8,0c0.2,0,0.2,0,0.2,0.2s0,0.5,0,0.7c0,0.1,0,0.1-0.1,0.1c-1.1,0-2.3,0-3.4,0c-0.1,0-0.1,0-0.1-0.1
				c0-0.2,0-0.5,0-0.7c0-0.1,0-0.1,0.1-0.1C735.9,760.9,736,760.9,736.1,760.9z"/>
			<path d="M726.2,736.3c-0.8-0.3-1.6-0.5-2.4-0.8c-0.1,0-0.2-0.1-0.3-0.1c-0.4-0.1-0.4-0.2-0.4-0.6c0-0.1,0.1-0.1,0.1-0.1
				c0.9-0.3,1.8-0.6,2.7-0.9c0.1,0,0.2-0.1,0.3-0.1c-0.4,0-0.7,0-1,0c-0.7,0-1.3,0-2,0c-0.2,0-0.2,0-0.2-0.2c0-0.3,0-0.3,0.3-0.3
				c1.1,0,2.2,0,3.3,0c0.2,0,0.2,0,0.2,0.2c0,0.1,0,0.2,0,0.4s-0.1,0.2-0.2,0.3c-1,0.3-1.9,0.6-2.8,1c0,0-0.1,0-0.2,0.1
				c0.3,0.1,0.7,0.2,1,0.3c0.7,0.2,1.4,0.5,2.1,0.7c0.1,0,0.2,0.1,0.2,0.2c0,0.2,0.1,0.5,0,0.6s-0.4,0-0.5,0c-1,0-2.1,0-3.1,0
				c-0.1,0-0.2,0-0.2-0.2c0-0.3,0-0.3,0.3-0.3c0.8,0,1.7,0,2.5,0C726,736.3,726.1,736.3,726.2,736.3L726.2,736.3z"/>
			<path d="M731.5,720.9c-0.1,0.4-0.3,0.6-0.7,0.7c-0.7,0.1-1.3-0.3-1.3-1c-0.1-0.6,0-1.2,0-1.8c0-0.1,0.1-0.1,0.2-0.1
				c0.8,0,1.6,0,2.5,0c0.4,0,0.7,0,1.1,0c0.1,0,0.1,0,0.1,0.1c0,0.6,0,1.2,0,1.8c0,0.7-0.6,1.1-1.3,0.9
				C731.7,721.3,731.6,721.1,731.5,720.9z M731.2,719.8L731.2,719.8c0-0.2,0-0.4,0-0.6c0-0.1,0-0.1-0.1-0.1c-0.4,0-0.8,0-1.2,0
				c-0.1,0-0.1,0-0.1,0.1c0,0.4,0,0.8,0,1.2s0.3,0.7,0.7,0.7s0.6-0.3,0.6-0.7C731.2,720.2,731.2,720,731.2,719.8z M732.8,719.8
				c0-0.2,0-0.4,0-0.5s0-0.1-0.1-0.1c-0.3,0-0.6,0-0.9,0c-0.2,0-0.2,0-0.2,0.2s0,0.3,0,0.5s0,0.5,0.1,0.7s0.3,0.4,0.6,0.4
				s0.4-0.2,0.5-0.4C732.8,720.2,732.8,720,732.8,719.8z"/>
			<path d="M737.5,737.8c0.3,0,0.7,0,1,0c0.1,0,0.2,0,0.1-0.1c0-0.1-0.1-0.3,0-0.4c0.1-0.1,0.3,0,0.4,0c0.2,0,0.2,0,0.2,0.2
				c0,0.4,0,0.4,0.4,0.4c0.2,0,0.4,0,0.6,0c0.1,0,0.1,0,0.1,0.1c0,0.3,0,0.5,0,0.8c0,0.1,0,0.1-0.1,0.1c-0.3,0-0.6,0-0.8,0
				c-0.1,0-0.1,0-0.1,0.1v0.1c0,0.2,0.1,0.4,0,0.4c-0.1,0.1-0.4,0-0.6,0c-0.1,0-0.1,0-0.1-0.1c0-0.2,0-0.3,0-0.5
				c0-0.1,0-0.1-0.1-0.1c-0.6,0-1.2,0-1.8,0c-0.2,0-0.3,0.1-0.3,0.3v0.1c0,0.3,0,0.3-0.3,0.3c-0.1,0-0.1,0-0.2,0
				c-0.3,0-0.3,0-0.3-0.3c0-0.2,0-0.5,0-0.7c0-0.5,0.3-0.7,0.8-0.7C736.7,737.8,737.1,737.8,737.5,737.8L737.5,737.8z"/>
			<path d="M737.5,750.2c0.3,0,0.7,0,1,0c0.1,0,0.1,0,0.1-0.1s0-0.3,0-0.4c0.1-0.1,0.3,0,0.4,0c0.2,0,0.2,0,0.2,0.2
				c0,0.4,0,0.4,0.4,0.4c0.2,0,0.4,0,0.6,0c0.1,0,0.2,0,0.1,0.1c0,0.2,0,0.5,0,0.7c0,0.1,0,0.1-0.1,0.1c-0.3,0-0.5,0-0.8,0
				c-0.1,0-0.2,0-0.1,0.1c0,0.2,0,0.3,0,0.5c0,0.1,0,0.1-0.1,0.1c-0.2,0-0.4,0.1-0.5,0s0-0.3,0-0.5s0-0.2-0.2-0.2c-0.5,0-1,0-1.6,0
				c-0.3,0-0.4,0.1-0.4,0.4c0,0.3,0,0.3-0.3,0.3h-0.1c-0.3,0-0.3,0-0.4-0.4c0-0.3,0-0.5,0.1-0.8s0.3-0.5,0.6-0.5h0.1
				C736.8,750.2,737.1,750.2,737.5,750.2L737.5,750.2z"/>
			<path d="M738.1,719.7c-0.8,0-1.5,0-2.3,0c-0.2,0-0.2-0.1-0.2-0.2c0-0.3,0-0.5,0-0.8c0-0.1,0-0.1,0.1-0.1c1.6,0,3.2,0,4.8,0
				c0.1,0,0.1,0,0.1,0.1c0,0.3,0,0.5,0,0.8c0,0.1-0.1,0.2-0.2,0.2C739.7,719.7,738.9,719.7,738.1,719.7z"/>
			<path d="M725.1,718.6c0.6,0,1.2,0,1.8,0c0.1,0,0.2,0,0.2,0.2c0,0.8,0,1.6,0,2.5c0,0.1,0,0.2-0.2,0.2c-0.3,0-0.3,0-0.3-0.3
				c0-0.6,0-1.2,0-1.8c0-0.1,0-0.2-0.1-0.2c-0.3,0-0.6,0-0.9,0c-0.1,0-0.1,0-0.1,0.2c0,0.6,0,1.2,0,1.8c0,0.2,0,0.2-0.2,0.2h-0.1
				c-0.1,0-0.2,0-0.2-0.1c0-0.6,0-1.2,0-1.8c0-0.1,0-0.2-0.2-0.2c-0.3,0-0.6,0-1,0c-0.1,0-0.2,0-0.2,0.2c0,0.7,0,1.3,0,2
				c0,0.1,0,0.2-0.2,0.2c-0.3,0-0.3,0-0.3-0.3c0-0.8,0-1.6,0-2.4c0-0.2,0-0.2,0.2-0.2C723.9,718.6,724.5,718.6,725.1,718.6z"/>
			<path d="M725.6,763.9c0.6,0.5,0.5,1.3,0,1.6c0.4,0.3,0.5,0.6,0.4,1.1c-0.1,0.4-0.3,0.6-0.7,0.6c-0.5,0.1-1,0-1.5,0
				c-0.1,0-0.3,0-0.4,0c-0.3,0-0.3,0-0.3-0.3c0-0.2,0-0.2,0.2-0.2c0.5,0,1.1,0,1.6,0c0.3,0,0.5-0.1,0.5-0.3c0.1-0.3-0.1-0.6-0.3-0.7
				c-0.1-0.1-0.3-0.1-0.4-0.1c-0.5,0-1,0-1.5,0c-0.1,0-0.1,0-0.1-0.1c0-0.4,0-0.4,0.3-0.4c0.5,0,1.1,0,1.6,0c0.4,0,0.5-0.3,0.4-0.6
				s-0.4-0.5-0.8-0.5c-0.5,0-1,0-1.5,0c-0.1,0-0.2,0-0.2-0.2c0-0.3,0-0.3,0.3-0.3c0.8,0,1.6,0,2.3,0c0.1,0,0.2,0,0.2,0.2
				C725.9,763.9,725.9,763.9,725.6,763.9z"/>
			<path d="M738.1,741.1c-0.8,0-1.5,0-2.3,0c-0.1,0-0.2,0-0.2-0.2s0-0.4,0-0.7c0-0.2,0-0.2,0.2-0.2c1.4,0,2.9,0,4.3,0
				c0.2,0,0.4-0.1,0.5,0s0,0.3,0,0.5c0,0.1,0,0.2,0,0.3s0,0.2-0.2,0.2C739.7,741.1,738.9,741.1,738.1,741.1z"/>
			<path d="M731.9,732.8c0.1,0,0.2,0,0.3,0c0,0.1,0,0.2,0,0.3s-0.1,0.1-0.1,0.1c-0.9,0-1.8,0-2.7,0c-0.4,0-0.8-0.2-1-0.6
				c-0.2-0.5-0.2-1,0.1-1.4c0.1-0.2,0.3-0.3,0.5-0.3c0.1,0,0.1,0,0.1,0.1v0.1c0,0.1,0,0.3-0.2,0.3c-0.1,0-0.1,0.1-0.2,0.1
				c-0.3,0.4,0,1.1,0.5,1.2c0.2,0,0.3,0,0.5,0c-0.4-0.5-0.5-1.1-0.1-1.6c0.2-0.2,0.4-0.3,0.6-0.3c0.4-0.1,0.8-0.1,1.2,0.1
				C732.4,731.2,732.5,732.3,731.9,732.8z M730.7,731.3c-0.1,0-0.2,0-0.3,0c-0.4,0-0.7,0.3-0.7,0.6c0,0.4,0.2,0.7,0.6,0.8
				c0.3,0.1,0.7,0.1,1,0s0.5-0.4,0.5-0.7s-0.2-0.6-0.5-0.7C731.1,731.3,730.9,731.3,730.7,731.3z"/>
			<path d="M731.3,742.4c0.6,0,1.2,0,1.8,0c0.1,0,0.1,0,0.1,0.1c0,0.6,0,1.1,0,1.7c0,0.6-0.4,1-1,1c-0.7,0-1.1-0.4-1.2-1
				c0-0.4,0-0.8,0-1.2c0-0.1,0-0.1-0.1-0.1c-0.4,0-0.9,0-1.3,0c-0.1,0-0.2,0-0.2-0.1c0-0.4,0-0.4,0.4-0.4
				C730.3,742.4,730.8,742.4,731.3,742.4z M732.8,743.6c0-0.2,0-0.4,0-0.5s0-0.1-0.1-0.1c-0.4,0-0.7,0-1.1,0c-0.1,0-0.1,0-0.1,0.1
				c0,0.3,0,0.6,0,0.9c0,0.1,0,0.3,0.1,0.4c0.1,0.3,0.3,0.4,0.7,0.3c0.3,0,0.5-0.2,0.5-0.5C732.8,744,732.8,743.8,732.8,743.6z"/>
			<path d="M729.7,756.8c-0.4-0.3-0.5-0.7-0.4-1.2c0.2-0.5,0.5-0.7,1-0.8c0.4-0.1,0.8,0,1.2,0.2c0.7,0.3,0.8,1.4,0.3,1.8
				c0,0.1,0.1,0,0.1,0c0.4,0,0.7,0,1.1,0c0.1,0,0.1,0,0.1,0.1c0,0.3,0,0.3-0.3,0.3c-1.1,0-2.2,0-3.3,0c-0.1,0-0.2,0-0.2-0.2
				c0-0.1,0-0.3,0.2-0.3C729.6,756.8,729.7,756.8,729.7,756.8z M730.8,756.8c0.1,0,0.2,0,0.4,0c0.4-0.1,0.6-0.3,0.6-0.6
				s-0.1-0.6-0.4-0.7c-0.4-0.2-0.9-0.2-1.3,0c-0.5,0.2-0.5,0.9-0.1,1.2C730.3,756.8,730.5,756.8,730.8,756.8z"/>
			<path d="M729.7,765.2c-0.3-0.4-0.5-0.8-0.4-1.2c0.1-0.3,0.4-0.6,0.7-0.6c0.4,0,0.7,0.1,0.9,0.5c0.1,0.3,0.1,0.6,0.2,0.8
				c0,0.1,0,0.2,0,0.3s0.1,0.3,0.2,0.3c0.2,0,0.3,0,0.4-0.1c0.2-0.2,0.2-0.7,0-0.9c-0.1-0.1-0.2-0.2-0.3-0.2s-0.1-0.1-0.1-0.2
				c0-0.3,0-0.4,0.4-0.3c0.3,0.1,0.4,0.3,0.5,0.5c0.1,0.4,0.1,0.8,0,1.1s-0.3,0.5-0.7,0.5c-0.5,0-1,0-1.5,0c-0.2,0-0.3,0-0.2,0.2
				c0,0.1,0,0.1-0.1,0.1s-0.2,0.1-0.3-0.1C729.3,765.7,729.4,765.4,729.7,765.2C729.6,765.3,729.6,765.3,729.7,765.2z M730.8,765.2
				c-0.1-0.2-0.1-0.5-0.1-0.7c0-0.1,0-0.3-0.1-0.4c-0.1-0.2-0.3-0.3-0.4-0.3c-0.2,0-0.3,0.1-0.4,0.3c-0.1,0.5,0.2,1,0.8,1
				C730.6,765.2,730.7,765.2,730.8,765.2z"/>
			<path d="M729.7,747.2c-0.3-0.3-0.4-0.6-0.4-1c0-0.5,0.3-0.9,0.8-0.9c0.4,0,0.8,0.3,0.9,0.8c0,0.3,0.1,0.5,0.1,0.8
				c0,0.1,0,0.3,0.2,0.3s0.3,0,0.4-0.1c0.2-0.2,0.2-0.8,0-1c-0.1-0.1-0.1-0.1-0.2-0.1c-0.1,0-0.2-0.1-0.2-0.2c0-0.3,0-0.3,0.3-0.2
				c0.4,0.1,0.5,0.5,0.6,0.8c0,0.3,0,0.6-0.1,0.9c-0.1,0.3-0.3,0.5-0.7,0.5c-0.5,0-1,0-1.5,0c-0.2,0-0.3,0-0.2,0.2
				c0,0.1,0,0.1-0.1,0.1s-0.2,0.1-0.3-0.1c-0.1-0.3,0-0.5,0.2-0.6C729.6,747.3,729.7,747.2,729.7,747.2z M730.8,747.2
				c-0.1-0.2-0.1-0.4-0.1-0.6c0-0.2,0-0.3-0.1-0.5s-0.2-0.2-0.4-0.2s-0.3,0.1-0.4,0.2c-0.2,0.4,0.1,1,0.5,1.1
				C730.4,747.2,730.6,747.2,730.8,747.2z"/>
			<path d="M729.7,729.8c-0.3-0.4-0.5-0.8-0.4-1.2s0.4-0.6,0.7-0.6c0.4,0,0.7,0.1,0.9,0.5c0.1,0.3,0.1,0.5,0.1,0.8
				c0,0.1,0,0.2,0,0.3c0,0.2,0.1,0.3,0.2,0.3c0.2,0,0.4,0,0.4-0.2c0.1-0.3,0.2-0.6,0-0.8c-0.1-0.1-0.2-0.2-0.3-0.2
				c-0.2,0-0.2-0.1-0.2-0.2c0-0.3,0-0.3,0.3-0.2c0.4,0.1,0.5,0.4,0.6,0.7s0.1,0.7,0,1c-0.1,0.4-0.3,0.5-0.7,0.5c-0.5,0-1,0-1.5,0
				c-0.2,0-0.3,0-0.2,0.2c0,0.1,0,0.1-0.1,0.1s-0.2,0.1-0.3-0.1c-0.1-0.3,0-0.5,0.2-0.6C729.6,729.9,729.6,729.9,729.7,729.8z
				 M730.5,729.8C730.5,729.8,730.6,729.8,730.5,729.8c0.2,0,0.3,0,0.2-0.2c0-0.1-0.1-0.2-0.1-0.3c0-0.2,0-0.4-0.1-0.6
				c-0.1-0.2-0.2-0.3-0.4-0.3s-0.3,0.1-0.4,0.3C729.6,729.3,730,729.8,730.5,729.8z"/>
			<path d="M730.3,739.1c-0.6-0.1-1-0.6-1-1.3s0.5-1.1,1.2-1.2c0.6-0.1,1.1,0,1.5,0.5c0.3,0.4,0.3,0.8,0.1,1.3
				c-0.2,0.4-0.5,0.6-1,0.7c-0.1,0-0.2,0-0.4,0c-0.1,0-0.2,0-0.2-0.2c0-0.5,0-1.1,0-1.6c0-0.2,0-0.2-0.2-0.2
				c-0.6,0.1-0.9,0.7-0.6,1.2c0.1,0.1,0.2,0.2,0.3,0.3c0.1,0,0.1,0.1,0.1,0.2C730.3,738.9,730.3,739,730.3,739.1z M731,737.9
				c0,0.2,0,0.4,0,0.7c0,0.1,0,0.1,0.1,0.1c0.4,0,0.7-0.3,0.7-0.7s-0.3-0.8-0.7-0.8c-0.1,0-0.1,0-0.1,0.1
				C731,737.5,731,737.7,731,737.9z"/>
			<path d="M730.6,759.3c0-0.3,0-0.6,0-0.9c0-0.1,0-0.1-0.1-0.1c-0.6,0.1-0.9,0.4-0.8,1c0,0.2,0.2,0.4,0.4,0.4
				c0.2,0.1,0.2,0.2,0.2,0.3c0,0.2,0,0.2-0.2,0.2c-0.6-0.2-0.8-0.7-0.8-1.4c0.1-0.5,0.5-0.9,1-1s1-0.1,1.4,0.2s0.6,0.8,0.5,1.4
				c-0.1,0.5-0.5,0.8-1.1,0.9c-0.1,0-0.1,0-0.2,0c-0.3,0-0.3,0-0.3-0.3C730.6,759.8,730.6,759.5,730.6,759.3z M731,758.3
				c0,0.5,0,1,0,1.4c0,0,0,0.1,0.1,0.1c0.3,0,0.7-0.3,0.7-0.6c0.1-0.4-0.1-0.7-0.4-0.9C731.3,758.3,731.2,758.3,731,758.3z"/>
			<path d="M724,730.9c-0.5-0.1-0.9-0.5-1-1.1c-0.1-0.8,0.5-1.4,1.3-1.4c0.4,0,0.7,0,1.1,0.2c0.5,0.3,0.7,0.8,0.5,1.4
				c-0.1,0.5-0.5,0.9-1.1,0.9c-0.5,0-0.5,0-0.5-0.4c0-0.5,0-1,0-1.4c0-0.1,0-0.2-0.2-0.1c-0.1,0-0.2,0-0.3,0.1
				c-0.3,0.1-0.4,0.3-0.5,0.6c0,0.3,0.1,0.6,0.4,0.8C723.9,730.6,723.9,730.7,724,730.9C724,730.8,724,730.9,724,730.9z
				 M724.8,729.7c0,0.2,0,0.4,0,0.7c0,0.1,0,0.1,0.1,0.1c0.4-0.1,0.7-0.3,0.7-0.7s-0.3-0.7-0.7-0.8c-0.1,0-0.1,0-0.1,0.1
				C724.8,729.3,724.8,729.5,724.8,729.7z"/>
			<path d="M724.4,756.3c0-0.3,0-0.6,0-0.9c0-0.1,0-0.2-0.1-0.1c-0.1,0-0.2,0-0.2,0c-0.4,0.1-0.5,0.3-0.5,0.6c0,0.4,0.1,0.6,0.4,0.8
				c0.1,0,0.2,0.4,0.1,0.5c0,0-0.1,0-0.2,0c-0.5-0.2-0.8-0.6-0.8-1.1c0-0.8,0.5-1.3,1.3-1.4c0.6,0,1.1,0.1,1.5,0.6
				c0.4,0.6,0.2,1.8-0.9,1.9c-0.1,0-0.2,0-0.3,0c-0.2,0-0.2,0-0.2-0.2C724.4,756.9,724.4,756.6,724.4,756.3z M724.8,756.1
				c0,0.2,0,0.4,0,0.7c0,0.1,0,0.1,0.1,0.1c0.4-0.1,0.7-0.2,0.7-0.7c0-0.4-0.3-0.7-0.7-0.8c-0.1,0-0.1,0-0.1,0.1
				C724.8,755.7,724.8,755.9,724.8,756.1z"/>
			<path d="M730.6,777.8c0-0.3,0-0.6,0-0.9c0-0.1,0-0.1-0.1-0.1c-0.5,0.1-1,0.3-0.8,1c0,0.2,0.2,0.4,0.4,0.4
				c0.2,0.1,0.2,0.2,0.2,0.3c0,0.2,0,0.3-0.3,0.2c-0.5-0.2-0.8-0.7-0.7-1.3c0-0.5,0.4-0.9,0.9-1c0.6-0.1,1.1-0.1,1.6,0.3
				c0.4,0.3,0.5,0.9,0.4,1.4c-0.2,0.5-0.6,0.8-1.1,0.8s-0.5,0-0.5-0.4C730.6,778.2,730.6,778,730.6,777.8z M731,777.6
				c0,0.2,0,0.4,0,0.7c0,0,0,0.1,0.1,0.1c0.2,0,0.6-0.2,0.7-0.5c0.2-0.5-0.2-1-0.7-1.1c-0.1,0-0.1,0-0.1,0.1
				C731,777.1,731,777.3,731,777.6z"/>
			<path d="M730.6,725.1c0-0.3,0-0.6,0-0.9c0-0.1,0-0.1-0.1-0.1c-0.6,0.1-1,0.4-0.8,1c0.1,0.2,0.2,0.3,0.4,0.4
				c0.1,0.1,0.2,0.1,0.2,0.3c0,0.3,0,0.3-0.3,0.2c-0.5-0.2-0.7-0.7-0.7-1.4c0.1-0.5,0.5-0.9,1-1s1-0.1,1.4,0.2
				c0.5,0.3,0.7,0.8,0.5,1.4c-0.1,0.5-0.6,0.8-1.1,0.9c-0.5,0-0.5,0-0.5-0.4C730.6,725.5,730.6,725.3,730.6,725.1z M731,724.9
				c0,0.2,0,0.4,0,0.7c0,0,0,0.1,0.1,0.1c0.3,0,0.6-0.2,0.7-0.5c0.2-0.5-0.1-0.9-0.6-1c-0.1,0-0.1,0-0.1,0.1
				C731,724.5,731,724.7,731,724.9z"/>
			<path d="M724,753.3c-0.6-0.1-0.9-0.5-1-1s0.1-1,0.6-1.3s1.4-0.2,1.9,0.1c0.4,0.3,0.6,0.8,0.4,1.3c-0.1,0.5-0.5,0.8-1,0.9
				c-0.2,0-0.4,0.1-0.5,0s0-0.3,0-0.5c0-0.5,0-0.9,0-1.4c0-0.1,0-0.1-0.1-0.1c-0.6,0-0.9,0.4-0.8,0.9c0,0.2,0.2,0.4,0.4,0.5
				c0.1,0.1,0.2,0.1,0.1,0.2C724,753.1,724,753.2,724,753.3z M724.8,752c0,0.2,0,0.4,0,0.6c0,0.1,0,0.1,0.1,0.1
				c0.4-0.1,0.7-0.3,0.7-0.7s-0.3-0.7-0.7-0.8c-0.1,0-0.1,0-0.1,0.1C724.8,751.6,724.8,751.8,724.8,752z"/>
			<path d="M724.4,742.9c0-0.3,0-0.6,0-0.9c0-0.1,0-0.1-0.1-0.1c-0.6,0.1-1,0.4-0.8,1.1c0.1,0.2,0.2,0.3,0.4,0.4
				c0.1,0,0.2,0.1,0.2,0.3c0,0.3,0,0.3-0.3,0.2c-0.5-0.2-0.7-0.7-0.7-1.3c0.1-0.5,0.4-0.9,0.9-1c0.6-0.2,1.3-0.1,1.8,0.4
				c0.3,0.4,0.4,0.8,0.2,1.2c-0.1,0.4-0.4,0.7-0.9,0.8c-0.2,0-0.4,0-0.5,0s-0.1,0-0.1-0.1C724.4,743.5,724.4,743.2,724.4,742.9z
				 M724.8,742.6c0,0.2,0,0.4,0,0.7c0,0,0,0.1,0.1,0.1c0.2,0,0.6-0.2,0.7-0.4c0.2-0.5-0.1-1-0.7-1.1c-0.1,0-0.1,0-0.1,0.1
				C724.8,742.2,724.8,742.4,724.8,742.6z"/>
			<path d="M737.5,752.4c0.5,0,1.1,0,1.6,0c0.1,0,0.2,0,0.2,0.2s0,0.5,0,0.7c0,0.1,0,0.1-0.1,0.1c-1.1,0-2.3,0-3.4,0
				c-0.1,0-0.1,0-0.1-0.1c0-0.2,0-0.5,0-0.7c0-0.1,0-0.1,0.1-0.1C736.3,752.4,736.9,752.4,737.5,752.4z"/>
			<path d="M724.6,763c-0.4,0-0.7-0.1-1-0.2c-0.5-0.3-0.6-0.7-0.6-1.2s0.3-0.8,0.7-1c0.6-0.3,1.5-0.1,1.9,0.3
				c0.4,0.4,0.4,0.8,0.3,1.3c-0.1,0.4-0.5,0.7-0.9,0.8C724.9,762.9,724.7,763,724.6,763z M724.6,762.5c0.2,0,0.4,0,0.5-0.1
				c0.3-0.1,0.4-0.3,0.5-0.6c0-0.3,0-0.6-0.3-0.7c-0.5-0.3-1-0.3-1.5,0c-0.3,0.1-0.3,0.4-0.3,0.7s0.1,0.5,0.4,0.6
				C724.1,762.4,724.3,762.5,724.6,762.5z"/>
			<path d="M724.4,724.4c0.4,0,0.8,0.1,1.1,0.3c0.4,0.3,0.5,0.8,0.4,1.3s-0.5,0.8-1,0.9c-0.4,0.1-0.8,0.1-1.2-0.1
				c-0.6-0.2-0.8-0.7-0.8-1.4c0.1-0.5,0.4-1,1-1.1C724.2,724.4,724.3,724.4,724.4,724.4z M724.6,726.5c0.1,0,0.3,0,0.4,0
				c0.3-0.1,0.5-0.3,0.6-0.6c0-0.3,0-0.5-0.2-0.7c-0.4-0.3-1.2-0.3-1.6,0c-0.3,0.2-0.3,0.4-0.3,0.7s0.1,0.5,0.4,0.6
				C724.1,726.4,724.3,726.5,724.6,726.5z"/>
			<path d="M730.7,770.5c0.4,0,0.8,0.1,1.1,0.3c0.4,0.3,0.6,0.8,0.5,1.3s-0.5,0.9-1,1c-0.4,0.1-0.9,0.1-1.3-0.1
				c-0.5-0.3-0.8-0.7-0.7-1.4c0.1-0.5,0.5-0.9,1-1C730.4,770.5,730.6,770.5,730.7,770.5z M730.9,772.6c0.2,0,0.3,0,0.5-0.1
				c0.3-0.1,0.4-0.3,0.5-0.6c0-0.3,0-0.5-0.3-0.7c-0.5-0.3-1-0.3-1.5,0c-0.3,0.1-0.3,0.4-0.3,0.7s0.1,0.5,0.4,0.6
				C730.3,772.6,730.6,772.6,730.9,772.6z"/>
			<path d="M729.3,751.8c0-0.2,0-0.3,0-0.5c0.1-0.4,0.4-0.6,0.8-0.7c0.1,0,0.1,0,0.1,0.1v0.1c0,0.1,0,0.2-0.2,0.3
				c-0.1,0-0.1,0-0.2,0.1c-0.3,0.2-0.3,1,0,1.2c0.2,0.2,0.5,0.1,0.5-0.1c0.1-0.2,0.1-0.5,0.2-0.8c0-0.1,0-0.2,0.1-0.3
				c0.1-0.3,0.2-0.5,0.5-0.5s0.6,0.1,0.8,0.4c0.2,0.4,0.2,1.1,0,1.4c-0.1,0.2-0.3,0.3-0.6,0.4c-0.1,0-0.1,0-0.1-0.1v-0.1
				c0-0.1,0-0.2,0.2-0.2c0.1,0,0.2-0.1,0.2-0.2c0.1-0.2,0.1-0.4,0-0.7c0-0.1-0.1-0.3-0.3-0.3s-0.3,0.1-0.3,0.2
				c-0.1,0.2-0.1,0.4-0.2,0.5c0,0.2-0.1,0.3-0.1,0.5c-0.2,0.5-0.8,0.7-1.2,0.3c-0.2-0.2-0.4-0.4-0.4-0.7
				C729.3,752,729.3,751.9,729.3,751.8z"/>
			<path d="M732.2,748L732.2,748c0,0.5,0,0.5-0.4,0.7c-0.6,0.2-1.2,0.4-1.8,0.6c0.5,0.2,1,0.3,1.5,0.5c0.2,0.1,0.4,0.1,0.6,0.2
				c0.1,0,0.1,0.1,0.1,0.2c0,0.1,0,0.3,0,0.4c-0.7-0.2-1.3-0.5-1.9-0.7c-0.5-0.2-1.1-0.4-1.6-0.6c-0.4-0.2-0.5-0.5-0.4-0.8
				c0-0.1,0.1-0.2,0.2-0.1h0.1c0.1,0,0.2,0,0.2,0.2c-0.1,0.2,0,0.3,0.2,0.4c0.3,0.1,0.5,0.1,0.8,0c0.8-0.3,1.6-0.6,2.4-0.9
				C732.1,748,732.1,748,732.2,748z"/>
			<path d="M723,745.4c0-0.4,0-0.7,0.4-1c0.1,0,0.1-0.1,0.2-0.1c0.1,0,0.3-0.1,0.4-0.1c0.1,0.1,0,0.2,0,0.4c0,0.1,0,0.1-0.1,0.1
				c-0.3,0-0.4,0.2-0.5,0.5s-0.1,0.6,0.2,0.8c0.2,0.2,0.5,0.1,0.6-0.1c0.1-0.3,0.2-0.5,0.2-0.8c0-0.1,0-0.2,0.1-0.3
				c0.2-0.5,0.9-0.6,1.2-0.2c0.3,0.4,0.4,1.2,0,1.6c-0.1,0.2-0.3,0.3-0.6,0.3c-0.1,0-0.1,0-0.1-0.1s0-0.1,0-0.2c0-0.1,0-0.2,0.1-0.2
				s0.2-0.1,0.3-0.3s0.1-0.4,0-0.7c0-0.1-0.1-0.2-0.3-0.3c-0.2,0-0.3,0.1-0.3,0.2c-0.1,0.2-0.1,0.4-0.2,0.6c0,0.2-0.1,0.3-0.1,0.5
				c-0.1,0.4-0.5,0.6-0.9,0.4c-0.4-0.1-0.6-0.5-0.7-0.9C723,745.5,723,745.4,723,745.4z"/>
			<path d="M731.8,734.3c0.3,0.3,0.5,0.7,0.4,1.1c-0.1,0.4-0.3,0.6-0.7,0.7c-0.4,0.1-0.8,0-1.1,0s-0.6,0-0.9,0c-0.1,0-0.1,0-0.1-0.1
				c0-0.4,0-0.4,0.4-0.4c0.5,0,1,0,1.5,0s0.7-0.4,0.5-0.9c-0.1-0.2-0.3-0.4-0.6-0.4c-0.5,0-1.1,0-1.6,0c-0.2,0-0.2,0-0.2-0.2
				c0-0.3,0-0.3,0.3-0.3c0.8,0,1.6,0,2.3,0c0.1,0,0.2,0,0.2,0.2C732.2,734.3,732.2,734.3,731.8,734.3z"/>
			<path d="M724.8,750c-0.5,0-1,0-1.5,0c-0.1,0-0.2,0-0.2-0.2c0-0.4,0-0.4,0.4-0.4c0.9,0,1.9,0,2.8,0c0.1,0,0.2,0,0.2-0.2
				c0-0.3,0-0.7,0-1c0-0.1,0-0.1,0.1-0.1c0.3,0,0.3,0,0.3,0.3c0,0.9,0,1.7,0,2.6c0,0.2,0,0.2-0.2,0.2h-0.1c-0.1,0-0.1,0-0.1-0.1
				c0-0.3,0-0.7,0-1c0-0.1,0-0.1-0.1-0.1C725.9,750,725.3,750,724.8,750z"/>
			<path d="M725.6,739c0.2,0.2,0.4,0.4,0.4,0.7c0.1,0.6-0.1,1.1-0.9,1.1c-0.6,0-1.2,0-1.8,0c-0.1,0-0.2,0-0.2-0.2
				c0-0.3,0-0.3,0.3-0.3c0.5,0,1,0,1.4,0c0.3,0,0.5-0.1,0.6-0.3c0.1-0.3,0-0.6-0.2-0.8c-0.1-0.1-0.3-0.2-0.5-0.2c-0.5,0-1,0-1.5,0
				c-0.1,0-0.2,0-0.2-0.2c0-0.3,0-0.3,0.3-0.3c0.8,0,1.6,0,2.3,0c0.1,0,0.2,0,0.2,0.2c0,0,0,0,0,0.1C725.8,739,725.8,739,725.6,739
				C725.7,739,725.6,739,725.6,739z"/>
			<path d="M731.3,768c0.6,0,1.2,0,1.8,0c0.1,0,0.1,0,0.1,0.1c0,0.4,0,0.4-0.4,0.4c-0.9,0-1.9,0-2.8,0c-0.1,0-0.2,0-0.2,0.2
				c0,0.5,0,1.1,0,1.6c0,0.1,0,0.1-0.1,0.1c-0.3,0-0.3,0-0.3-0.3c0-0.6,0-1.3,0-1.9c0-0.2,0.1-0.2,0.2-0.2
				C730.2,768,730.7,768,731.3,768z"/>
			<path d="M724.1,760.1c-0.5-0.1-0.9-0.3-1-0.8c-0.2-0.9,0.3-1.6,1.2-1.6c0.5,0,1,0.1,1.4,0.4c0.4,0.4,0.4,1.1,0.1,1.6
				c-0.2,0.3-0.5,0.3-0.7,0.4c0,0,0,0-0.1,0c0-0.1,0-0.3,0-0.4c0-0.1,0.1-0.1,0.1-0.1c0.3-0.1,0.5-0.3,0.5-0.6s-0.1-0.5-0.4-0.7
				c-0.4-0.2-0.8-0.2-1.3-0.1c-0.3,0.1-0.5,0.3-0.5,0.6s0.1,0.5,0.4,0.6c0.2,0.1,0.2,0.2,0.2,0.4C724.1,760,724.1,760,724.1,760.1z"
				/>
			<path d="M724.5,721.7c0.4,0,0.8,0.1,1.2,0.4c0.4,0.4,0.5,1.1,0.2,1.6c-0.2,0.3-0.4,0.3-0.7,0.4h-0.1c-0.1-0.1,0-0.2,0-0.4
				c0-0.1,0-0.1,0.1-0.1c0.4-0.1,0.5-0.4,0.5-0.7s-0.2-0.6-0.5-0.7c-0.4-0.1-0.7-0.1-1.1,0c-0.3,0.1-0.5,0.3-0.5,0.6
				s0.1,0.5,0.5,0.7c0.1,0,0.2,0,0.2,0.1s0,0.3,0,0.4h-0.1c-0.5,0-0.9-0.4-1-0.9C723,722.2,723.5,721.7,724.5,721.7z"/>
			<path d="M730.8,726.7c0.3,0,0.6,0,0.8,0c0.1,0,0.2,0,0.1-0.1c0-0.1,0-0.2,0-0.2c0.1,0,0.2,0,0.3,0s0.1,0.1,0,0.1
				c0,0.2,0,0.3,0.2,0.2c0.1,0,0.3,0,0.4,0c0.1,0,0.1,0,0.1,0.1c0,0.4,0,0.4-0.4,0.4c0,0,0,0-0.1,0c-0.3,0-0.3,0-0.4,0.3
				c0,0.1,0,0.1-0.1,0.1s-0.1,0-0.2,0c-0.1,0-0.1,0-0.1-0.1c0-0.3,0-0.3-0.3-0.3c-0.5,0-0.9,0-1.4,0c-0.2,0-0.3,0-0.3,0.3
				c0,0.1,0.1,0.2-0.1,0.2c-0.1,0-0.3,0.1-0.3-0.1c0-0.1,0-0.1,0-0.2c0-0.4,0.1-0.6,0.5-0.6h0.1
				C730.2,726.7,730.5,726.7,730.8,726.7z"/>
			<path d="M731.8,722.5c0.2,0.2,0.4,0.4,0.5,0.6c0,0.2,0,0.3-0.2,0.3c-0.1,0-0.1,0-0.2,0c-0.1,0-0.1,0-0.1-0.1
				c0-0.5-0.3-0.8-0.8-0.8s-0.9,0-1.4,0c-0.1,0-0.2,0-0.2-0.2c0-0.3,0-0.3,0.3-0.3c0.8,0,1.5,0,2.3,0c0.1,0,0.2,0,0.2,0.2
				C732.2,722.5,732.2,722.5,731.8,722.5z"/>
			<path d="M731.8,775.2c0.2,0.2,0.4,0.4,0.5,0.6c0,0.2,0,0.3-0.2,0.3c0,0,0,0-0.1,0c-0.2,0-0.2,0-0.2-0.2c0-0.4-0.3-0.7-0.8-0.7
				s-1,0-1.4,0c-0.1,0-0.2,0-0.2-0.2c0-0.3,0-0.3,0.3-0.3c0.8,0,1.5,0,2.3,0c0.2,0,0.2,0,0.2,0.2
				C732.2,775.2,732.2,775.2,731.8,775.2C731.9,775.2,731.8,775.2,731.8,775.2z"/>
			<path d="M731.3,762.4c0.6,0,1.2,0,1.7,0c0.1,0,0.2,0,0.2,0.2c0,0.3,0,0.3-0.3,0.3c-1.1,0-2.2,0-3.3,0c-0.1,0-0.2,0-0.2-0.2
				c0-0.3,0-0.3,0.3-0.3C730.2,762.4,730.8,762.4,731.3,762.4z"/>
			<path d="M725,728c-0.6,0-1.2,0-1.7,0c-0.1,0-0.2,0-0.2-0.2c0-0.3,0-0.3,0.3-0.3c1.1,0,2.2,0,3.3,0c0.1,0,0.2,0,0.2,0.2
				c0,0.3,0,0.3-0.3,0.3C726.1,728,725.6,728,725,728z"/>
			<path d="M725,754.3c-0.6,0-1.2,0-1.8,0c-0.1,0-0.2,0-0.2-0.2c0-0.3,0-0.3,0.3-0.3c1.1,0,2.2,0,3.3,0c0.1,0,0.2,0,0.2,0.2
				c0,0.3,0,0.3-0.3,0.3C726.1,754.3,725.6,754.3,725,754.3z"/>
			<path d="M724.5,738c-0.4,0-0.8,0-1.2,0c-0.1,0-0.2,0-0.2-0.1c0-0.4,0-0.4,0.4-0.4c0.8,0,1.5,0,2.3,0c0.1,0,0.2,0,0.2,0.2
				c0,0.3,0,0.3-0.3,0.3C725.2,738,724.9,738,724.5,738z"/>
			<path d="M730.8,774.1c-0.4,0-0.8,0-1.3,0c-0.1,0-0.1,0-0.1-0.1c0-0.4,0-0.4,0.4-0.4c0.8,0,1.5,0,2.3,0c0.1,0,0.2,0,0.2,0.2
				c0,0.3,0,0.3-0.3,0.3C731.5,774.1,731.1,774.1,730.8,774.1z"/>
			<path d="M739.8,752.9c0-0.1-0.1-0.4,0-0.5s0.3,0,0.5,0c0.3,0,0.3,0,0.3,0.3c0,0.2,0,0.4,0,0.5s0,0.1-0.1,0.1c-0.2,0-0.4,0-0.6,0
				c-0.1,0-0.1,0-0.1-0.1C739.8,753.2,739.8,753.1,739.8,752.9z"/>
			<path d="M730.6,740.7c0-0.2,0-0.4,0-0.5s0-0.1,0.1-0.1c0.4,0,0.4,0,0.4,0.4c0,0.3,0,0.6,0,0.8c0,0.1,0,0.1-0.1,0.1
				c-0.4,0-0.4,0-0.4-0.4C730.6,740.9,730.6,740.8,730.6,740.7z"/>
			<path d="M724.4,747.8c0-0.2,0-0.4,0-0.5s0-0.1,0.1-0.1c0.4,0,0.4,0,0.4,0.4c0,0.3,0,0.6,0,0.8c0,0.1,0,0.1-0.1,0.1
				c-0.4,0-0.4,0-0.4-0.4C724.4,748,724.4,747.9,724.4,747.8z"/>
			<path d="M727.3,719.5c0.3,0.2,0.5,0.3,0.7,0.5c0.1,0,0.1,0.1,0.1,0.1c0,0.2,0,0.3,0,0.5c-0.3-0.2-0.5-0.5-0.7-0.7
				C727.2,719.8,727.3,719.7,727.3,719.5z"/>
			<path d="M727.1,752.7c-0.3-0.2-0.5-0.4-0.7-0.7c-0.1-0.1,0-0.3-0.1-0.4c0.3,0.2,0.5,0.3,0.8,0.5v0.1
				C727.1,752.3,727.1,752.5,727.1,752.7z"/>
			<path d="M727.1,756.7c-0.3-0.2-0.5-0.4-0.7-0.7c-0.1-0.1,0-0.3,0-0.4c0.3,0.2,0.5,0.3,0.7,0.4c0.1,0,0.1,0.1,0.1,0.1
				C727.1,756.3,727.1,756.5,727.1,756.7z"/>
			<path d="M726.7,737.5c0.1,0,0.2,0,0.2,0c0,0.1,0,0.3,0,0.4c0,0,0,0-0.1,0h-0.1c-0.3,0-0.3,0-0.3-0.3c0-0.1,0-0.2,0.1-0.2
				C726.6,737.5,726.7,737.5,726.7,737.5z"/>
			<path d="M733,773.6c0.3,0,0.2,0,0.3,0.3c0,0.2,0,0.2-0.2,0.2c-0.3,0-0.3,0-0.3-0.4c0-0.1,0-0.2,0.1-0.1
				C732.9,773.6,732.9,773.6,733,773.6z"/>
		</g>
	</g>
	<g>
		<g>
			<path d="M964.6,437v-6.3h35V445c0,4.1-1,7.1-3.1,9.1s-4.5,3-7.3,3c-3.2,0-5.8-1.1-7.8-3.2s-3-4.8-3-8.1V437H964.6z M983.9,437
				v7.5c0,2,0.5,3.4,1.4,4.5c1,1,2.2,1.5,3.8,1.5c1.4,0,2.7-0.5,3.7-1.4s1.5-2.7,1.5-5.1v-7H983.9z"/>
			<path d="M964.6,500.7v-22.8h35v22.5h-5.2v-16.2h-9.5v13h-5.1v-13H970v16.4h-5.4V500.7z"/>
			<path d="M964.6,528.4v-6.5h35V544h-5.4v-15.7h-9.6v12.3h-5.3v-12.3h-14.7V528.4z"/>
			<path d="M973,560.7l1.3,6.1c-3.5,0.7-5.2,3.6-5.2,8.5c0,2.2,0.4,4,1.3,5.2s2,1.8,3.3,1.8c1,0,1.8-0.3,2.7-0.8
				c0.8-0.5,1.5-1.7,1.9-3.5l1.7-6.7c0.6-2.3,1.3-4,2-5.1c0.8-1.1,1.8-2,3.2-2.6c1.4-0.7,2.9-1,4.4-1c3.1,0,5.6,1.2,7.5,3.5
				s2.8,5.3,2.8,8.9c0,3-0.7,5.7-2,8.1c-1.3,2.4-3.2,3.9-5.6,4.5l-1.5-6c2.7-0.9,4-3.1,4-6.5c0-2-0.4-3.5-1.2-4.5s-1.9-1.6-3.1-1.6
				c-2,0-3.4,1.6-4.2,4.9l-1.5,6c-0.9,3.6-2.2,6-4,7.3c-1.8,1.2-3.7,1.8-5.9,1.8c-3.4,0-6.1-1.3-8.1-3.9s-3-5.9-3-10.1
				c0-3.5,0.7-6.5,2.2-9.1C967.7,563.3,970,561.6,973,560.7z"/>
			<path d="M964.6,631.7v-21.6h35v6.6h-29.3v14.9L964.6,631.7L964.6,631.7z"/>
		</g>
		<g>
			<path d="M949.6,432.3v-1.6h8.7v3.6c0,1-0.3,1.8-0.8,2.3s-1.1,0.7-1.8,0.7c-0.8,0-1.4-0.3-1.9-0.8s-0.7-1.2-0.7-2v-2.2H949.6z
				 M954.4,432.3v1.9c0,0.5,0.1,0.9,0.4,1.1c0.2,0.3,0.6,0.4,1,0.4s0.7-0.1,0.9-0.4c0.3-0.2,0.4-0.7,0.4-1.3v-1.7H954.4z"/>
			<path d="M949.6,442v-1.7h3.7l5-3v1.9l-3.6,2.1l3.6,2v1.5l-5-2.8H949.6z"/>
			<path d="M949.6,452.2v-1.5l5.6-3.3c0.1-0.1,0.2-0.1,0.4-0.2c0.1-0.1,0.2-0.1,0.4-0.2h-6.4v-1.3h8.7v1.7l-5.1,3.1
				c0,0-0.4,0.2-0.9,0.6h6.1v1.2h-8.8V452.2z"/>
			<path d="M949.1,460.8h-1.3c0-0.5-0.1-0.8-0.1-0.9c0-1.3,0.6-1.9,1.7-1.9c0-0.3,0-0.5,0-0.6c0-1.2,0.4-2.1,1.3-2.7
				c0.9-0.6,1.9-0.9,3.2-0.9s2.4,0.3,3.2,1c0.9,0.6,1.3,1.6,1.3,2.7c0,0.9-0.2,1.5-0.6,2s-0.9,0.9-1.6,1.2s-1.4,0.5-2.3,0.5
				c-1.9,0-3.2-0.6-4-1.9c-0.1-0.2-0.2-0.3-0.3-0.3s-0.3,0.1-0.4,0.2c-0.1,0.1-0.2,0.3-0.2,0.5s0,0.4,0,0.7
				C949.1,460.5,949.1,460.6,949.1,460.8z M950.7,457.4c0,1.4,1.1,2,3.2,2c1.1,0,2-0.2,2.5-0.5c0.5-0.4,0.8-0.8,0.8-1.4
				c0-1.4-1.1-2-3.3-2C951.8,455.4,950.7,456,950.7,457.4z"/>
			<path d="M953.5,464.8h-1.2v-3.2h1.2V464.8z"/>
			<path d="M949.6,471.4v-5.7h8.7v5.6H957v-4h-2.4v3.2h-1.3v-3.2h-2.4v4.1H949.6z"/>
			<path d="M949.6,482.3v-1.5h4c0.8,0,1.3-0.4,1.3-1.1c0-0.4-0.2-0.8-0.5-1c-0.3-0.3-0.8-0.4-1.4-0.4h-3.4v-1.5h4
				c0.8,0,1.3-0.3,1.3-1c0-0.4-0.2-0.8-0.5-1.1c-0.3-0.3-0.8-0.4-1.4-0.4h-3.4v-1.5h6.5v1.4h-1.4c1,0.5,1.5,1.2,1.5,2.2
				c0,0.9-0.5,1.6-1.5,1.9c1,0.5,1.5,1.2,1.5,2.2c0,0.6-0.2,1.1-0.6,1.5c-0.4,0.4-0.9,0.6-1.4,0.6h-4.6V482.3z"/>
			<path d="M949.6,484.7V484h8.7v1.5h-3.1c0.5,0.3,0.8,0.6,1,0.8c0.2,0.3,0.2,0.6,0.2,1c0,0.7-0.3,1.3-0.9,1.8
				c-0.6,0.5-1.4,0.7-2.5,0.7c-1,0-1.8-0.2-2.5-0.7s-1-1.1-1-2s0.4-1.5,1.2-2L949.6,484.7z M952.3,485.5c-0.6,0-1,0.1-1.3,0.4
				c-0.3,0.2-0.4,0.6-0.4,1s0.2,0.7,0.5,1s0.9,0.4,1.9,0.4c0.7,0,1.2-0.1,1.6-0.4c0.4-0.2,0.5-0.6,0.5-1s-0.2-0.7-0.5-1
				s-0.7-0.4-1.3-0.4H952.3z"/>
			<path d="M951.6,495.2l-0.2,1.3c-0.6-0.2-1.1-0.5-1.4-1c-0.4-0.5-0.6-1.1-0.6-1.9c0-0.9,0.3-1.6,0.9-2.2c0.6-0.5,1.4-0.8,2.4-0.8
				s1.8,0.3,2.4,0.8c0.6,0.5,1,1.3,1,2.2c0,0.9-0.3,1.6-0.9,2.1c-0.6,0.5-1.4,0.8-2.4,0.8h-0.2v-4.4c-0.4,0-0.8,0-1.1,0.1
				s-0.5,0.2-0.7,0.5c-0.2,0.2-0.3,0.6-0.3,0.9C950.6,494.5,950.9,494.9,951.6,495.2z M953.6,495.1c0.5,0,0.8-0.1,1.1-0.4
				s0.4-0.6,0.4-1s-0.1-0.7-0.4-1c-0.3-0.3-0.7-0.4-1.2-0.5v2.9H953.6z"/>
			<path d="M949.6,503.3v-1.4h1.3c-1-0.4-1.4-1-1.4-1.9c0-0.8,0.3-1.4,1-1.8s1.5-0.6,2.5-0.6c0.9,0,1.7,0.2,2.4,0.7
				c0.7,0.4,1,1.1,1,1.9s-0.4,1.4-1.1,1.7h3.1v1.5h-8.8V503.3z M953.4,501.8c0.5,0,0.9-0.1,1.2-0.4c0.3-0.2,0.4-0.6,0.4-1
				s-0.2-0.8-0.6-1c-0.4-0.2-0.9-0.4-1.7-0.4c-1.4,0-2.2,0.5-2.2,1.4c0,0.4,0.2,0.7,0.5,0.9c0.3,0.3,0.7,0.4,1.2,0.4h1.2V501.8z"/>
			<path d="M949.6,510.3v-1.4h1.3c-1-0.4-1.4-1-1.4-1.9c0-0.8,0.3-1.4,1-1.8s1.5-0.6,2.5-0.6c0.9,0,1.7,0.2,2.4,0.7
				c0.7,0.4,1,1.1,1,1.9s-0.4,1.4-1.1,1.7h3.1v1.5h-8.8V510.3z M953.4,508.8c0.5,0,0.9-0.1,1.2-0.4c0.3-0.2,0.4-0.6,0.4-1
				s-0.2-0.8-0.6-1c-0.4-0.2-0.9-0.4-1.7-0.4c-1.4,0-2.2,0.5-2.2,1.4c0,0.4,0.2,0.7,0.5,0.9c0.3,0.3,0.7,0.4,1.2,0.4h1.2V508.8z"/>
			<path d="M951.6,516.1l-0.2,1.3c-0.6-0.2-1.1-0.5-1.4-1c-0.4-0.5-0.6-1.1-0.6-1.9c0-0.9,0.3-1.6,0.9-2.2c0.6-0.5,1.4-0.8,2.4-0.8
				s1.8,0.3,2.4,0.8c0.6,0.5,1,1.3,1,2.2s-0.3,1.6-0.9,2.1c-0.6,0.5-1.4,0.8-2.4,0.8h-0.2V513c-0.4,0-0.8,0-1.1,0.1
				s-0.5,0.2-0.7,0.5c-0.2,0.2-0.3,0.6-0.3,0.9C950.6,515.4,950.9,515.9,951.6,516.1z M953.6,516.1c0.5,0,0.8-0.1,1.1-0.4
				c0.3-0.3,0.4-0.6,0.4-1s-0.1-0.7-0.4-1c-0.3-0.3-0.7-0.4-1.2-0.5v2.9H953.6z"/>
			<path d="M949.6,524.2v-1.4h1.3c-1-0.4-1.4-1-1.4-1.9c0-0.8,0.3-1.4,1-1.8c0.7-0.4,1.5-0.6,2.5-0.6c0.9,0,1.7,0.2,2.4,0.7
				c0.7,0.4,1,1.1,1,1.9c0,0.8-0.4,1.4-1.1,1.7h3.1v1.5h-8.8V524.2z M953.4,522.8c0.5,0,0.9-0.1,1.2-0.4c0.3-0.2,0.4-0.6,0.4-1
				s-0.2-0.8-0.6-1c-0.4-0.2-0.9-0.4-1.7-0.4c-1.4,0-2.2,0.5-2.2,1.4c0,0.4,0.2,0.7,0.5,0.9c0.3,0.3,0.7,0.4,1.2,0.4L953.4,522.8
				L953.4,522.8z"/>
			<path d="M949.6,530.9v-1.6h8.7v5.5H957v-3.9h-2.4v3.1h-1.3v-3.1H949.6z"/>
			<path d="M951.6,539.7l-0.2,1.3c-0.6-0.2-1.1-0.5-1.4-1c-0.4-0.5-0.6-1.1-0.6-1.9c0-0.9,0.3-1.6,0.9-2.2c0.6-0.5,1.4-0.8,2.4-0.8
				s1.8,0.3,2.4,0.8c0.6,0.5,1,1.3,1,2.2s-0.3,1.6-0.9,2.1c-0.6,0.5-1.4,0.8-2.4,0.8h-0.2v-4.4c-0.4,0-0.8,0-1.1,0.1
				s-0.5,0.2-0.7,0.5c-0.2,0.2-0.3,0.6-0.3,0.9C950.6,539,950.9,539.5,951.6,539.7z M953.6,539.6c0.5,0,0.8-0.1,1.1-0.4
				c0.3-0.3,0.4-0.6,0.4-1s-0.1-0.7-0.4-1c-0.3-0.3-0.7-0.4-1.2-0.5v2.9H953.6z"/>
			<path d="M956,550.5l-6.5-1.9v-1.3l4.5-1.2l-4.5-1.2v-1.3l6.5-2v1.5l-4.3,1.3l4.3,1.1v1.3l-4.3,1.1l4.3,1.2V550.5z"/>
			<path d="M951.7,553.9l0.3,1.5c-0.9,0.2-1.3,0.9-1.3,2.1c0,0.6,0.1,1,0.3,1.3s0.5,0.5,0.8,0.5c0.2,0,0.5-0.1,0.7-0.2
				c0.2-0.1,0.4-0.4,0.5-0.9l0.4-1.7c0.1-0.6,0.3-1,0.5-1.3s0.5-0.5,0.8-0.7s0.7-0.2,1.1-0.2c0.8,0,1.4,0.3,1.9,0.9
				c0.5,0.6,0.7,1.3,0.7,2.2c0,0.7-0.2,1.4-0.5,2s-0.8,1-1.4,1.1l-0.4-1.5c0.7-0.2,1-0.8,1-1.6c0-0.5-0.1-0.9-0.3-1.1
				c-0.2-0.3-0.5-0.4-0.8-0.4c-0.5,0-0.8,0.4-1,1.2l-0.4,1.5c-0.2,0.9-0.6,1.5-1,1.8s-0.9,0.5-1.5,0.5c-0.9,0-1.5-0.3-2-1
				c-0.5-0.6-0.7-1.5-0.7-2.5c0-0.9,0.2-1.6,0.5-2.3C950.3,554.6,950.9,554.1,951.7,553.9z"/>
			<path d="M949.6,567.6v-1.5h4.2c0.5,0,0.8-0.1,1-0.3s0.3-0.4,0.3-0.7c0-0.4-0.2-0.8-0.5-1c-0.3-0.3-0.9-0.4-1.6-0.4h-3.3v-1.5h8.7
				v1.5H955c0.9,0.4,1.4,1,1.4,1.9c0,1.3-0.8,2-2.3,2H949.6z"/>
			<path d="M949.4,571.8c0-1,0.3-1.7,1-2.2s1.5-0.8,2.4-0.8c1,0,1.7,0.3,2.4,0.8c0.6,0.6,1,1.3,1,2.2s-0.3,1.6-0.9,2.1
				c-0.6,0.6-1.4,0.8-2.4,0.8s-1.8-0.3-2.5-0.9C949.7,573.5,949.4,572.7,949.4,571.8z M950.6,571.9c0,1,0.7,1.5,2.2,1.5
				c0.7,0,1.2-0.1,1.6-0.4c0.4-0.2,0.6-0.6,0.6-1.1s-0.2-0.9-0.6-1.1c-0.4-0.2-0.9-0.4-1.6-0.4c-0.7,0-1.2,0.1-1.6,0.4
				C950.8,571.1,950.6,571.4,950.6,571.9z"/>
			<path d="M950.7,579.2h-1.1c-0.1-0.4-0.1-0.8-0.1-1c0-0.4,0.1-0.7,0.2-1c0.2-0.3,0.4-0.5,0.6-0.6c0.3-0.1,0.7-0.2,1.2-0.2h3.3
				v-0.8h1.1v0.9l1.7,0.1l0.1,1.2H956v1.3h-1.1v-1.3h-3.1c-0.4,0-0.7,0.1-0.8,0.2c-0.1,0.1-0.2,0.4-0.2,0.8
				C950.7,578.9,950.7,579,950.7,579.2z"/>
			<path d="M949.6,589.1v-5.4h8.7v1.7H951v3.7H949.6z"/>
			<path d="M951.6,594.3l-0.2,1.3c-0.6-0.2-1.1-0.5-1.4-1c-0.4-0.5-0.6-1.1-0.6-1.9c0-0.9,0.3-1.6,0.9-2.2c0.6-0.5,1.4-0.8,2.4-0.8
				s1.8,0.3,2.4,0.8c0.6,0.5,1,1.3,1,2.2s-0.3,1.6-0.9,2.1c-0.6,0.5-1.4,0.8-2.4,0.8h-0.2v-4.4c-0.4,0-0.8,0-1.1,0.1
				s-0.5,0.2-0.7,0.5c-0.2,0.2-0.3,0.6-0.3,0.9C950.6,593.5,950.9,594,951.6,594.3z M953.6,594.2c0.5,0,0.8-0.1,1.1-0.4
				c0.3-0.3,0.4-0.6,0.4-1s-0.1-0.7-0.4-1c-0.3-0.3-0.7-0.4-1.2-0.5v2.9H953.6z"/>
			<path d="M949.6,602.6v-1.4c0.4-0.1,0.8-0.2,1.3-0.2c-1-0.4-1.4-1.1-1.4-2.2c0-0.6,0.2-1.2,0.6-1.5c0.4-0.4,0.8-0.6,1.4-0.6
				c1.5,0,2.2,1.3,2.2,3.9c0,0.1,0,0.2,0,0.4h0.5c0.7,0,1-0.5,1-1.4s-0.3-1.4-1-1.5l0.2-1.2c0.5,0.1,1,0.3,1.3,0.8s0.5,1.2,0.5,2.1
				c0,0.5,0,0.9-0.1,1.2s-0.2,0.6-0.4,0.8s-0.4,0.4-0.6,0.5c-0.2,0.1-0.6,0.1-1.2,0.1H951C950.5,602.4,950,602.4,949.6,602.6z
				 M952.9,600.9c0-1.9-0.4-2.8-1.3-2.8c-0.3,0-0.5,0.1-0.7,0.3s-0.3,0.5-0.3,0.9c0,0.6,0.2,1,0.5,1.3c0.4,0.3,0.8,0.4,1.2,0.4h0.6
				V600.9z"/>
			<path d="M949.6,605.6v-1.5h6.5v1.3h-1.5c0.6,0.2,1,0.4,1.3,0.8c0.3,0.3,0.4,0.7,0.4,1c0,0,0,0.1,0,0.2h-1.6
				c0-0.7-0.2-1.2-0.7-1.5c-0.5-0.2-0.9-0.4-1.4-0.4h-3V605.6z"/>
			<path d="M949.6,613.8v-1.5h4c0.4,0,0.7-0.1,1-0.3c0.2-0.2,0.3-0.4,0.3-0.7c0-0.4-0.2-0.7-0.5-1s-0.8-0.4-1.5-0.4h-3.3v-1.5h6.5
				v1.3h-1.5c1.1,0.5,1.6,1.1,1.6,2c0,0.6-0.2,1.1-0.5,1.5c-0.4,0.4-1,0.6-1.9,0.6L949.6,613.8L949.6,613.8z"/>
			<path d="M956.8,617v-1.5h1.5v1.5H956.8z M949.6,617v-1.5h6.5v1.5H949.6z"/>
			<path d="M949.6,624.1v-1.5h4c0.4,0,0.7-0.1,1-0.3c0.2-0.2,0.3-0.4,0.3-0.7c0-0.4-0.2-0.7-0.5-1s-0.8-0.4-1.5-0.4h-3.3v-1.5h6.5
				v1.3h-1.5c1.1,0.5,1.6,1.1,1.6,2c0,0.6-0.2,1.1-0.5,1.5c-0.4,0.4-1,0.6-1.9,0.6L949.6,624.1L949.6,624.1z"/>
			<path d="M957.3,631.7h-1.1v-0.4c0-0.2,0-0.4-0.1-0.5c0-0.1-0.2-0.3-0.5-0.4c-0.4,0.5-0.9,0.8-1.4,0.8c-0.6,0-1-0.2-1.4-0.7
				s-0.6-1.1-0.6-1.9c0-0.3,0.1-0.7,0.2-1.2c-0.1-0.3-0.3-0.4-0.6-0.4c-0.2,0-0.3,0.1-0.4,0.2c-0.1,0.1-0.2,0.4-0.2,0.7v1.9
				c0,0.7-0.2,1.2-0.5,1.5c-0.3,0.4-0.8,0.6-1.3,0.6c-0.6,0-1.1-0.3-1.5-0.8c-0.4-0.6-0.6-1.4-0.6-2.5c0-2.1,0.6-3.1,1.7-3.1
				c0.6,0,1,0.3,1.3,0.9c0.3-0.4,0.7-0.6,1.1-0.6c0.6,0,1,0.3,1.3,1c0.4-0.6,0.9-0.9,1.5-0.9c0.5,0,1,0.2,1.4,0.7
				c0.4,0.4,0.6,1.1,0.6,2c0,0.4,0,0.8-0.1,1.2c0.8,0.2,1.2,0.7,1.2,1.6L957.3,631.7L957.3,631.7z M949.9,626.8
				c-0.2-0.2-0.4-0.3-0.6-0.3c-0.3,0-0.6,0.2-0.8,0.5s-0.3,0.9-0.3,1.7c0,1.1,0.3,1.7,0.9,1.7c0.2,0,0.4-0.1,0.5-0.3
				s0.2-0.4,0.2-0.7v-1.5C949.8,627.6,949.8,627.2,949.9,626.8z M953.1,628.4c0,0.8,0.4,1.2,1.1,1.2c0.3,0,0.5-0.1,0.7-0.3
				s0.3-0.5,0.3-0.9s-0.1-0.7-0.3-0.9s-0.5-0.3-0.8-0.3s-0.6,0.1-0.8,0.3C953.2,627.7,953.1,628,953.1,628.4z"/>
		</g>
	</g>
	<g>
		<path d="M687.9,638.1v-5.2h5.2c0.6,0,1.1-0.5,1.1-1.1s-0.5-1.1-1.1-1.1h-5.2v-5.2c0-0.6-0.5-1.1-1.1-1.1s-1.1,0.5-1.1,1.1v5.2
			h-5.2c-0.6,0-1.1,0.5-1.1,1.1s0.5,1.1,1.1,1.1h5.2v5.2c0,0.6,0.5,1.1,1.1,1.1S687.9,638.7,687.9,638.1z"/>
		<path d="M688.1,594.6v-5.1h5.1c0.6,0,1.1-0.5,1.1-1.1s-0.5-1.1-1.1-1.1h-5.1v-5.1c0-0.6-0.5-1.1-1.1-1.1s-1.1,0.5-1.1,1.1v5.1
			h-5.1c-0.6,0-1.1,0.5-1.1,1.1s0.5,1.1,1.1,1.1h5.1v5.1c0,0.6,0.5,1.1,1.1,1.1S688.1,595.2,688.1,594.6z"/>
		<path d="M693.6,573.3L693.6,573.3L693.6,573.3L693.6,573.3c0.1-0.1,0.2-0.2,0.2-0.3s0-0.2,0.1-0.3v-0.1v-0.1c0-0.1,0-0.2-0.1-0.3
			s-0.1-0.2-0.2-0.3l0,0l0,0l0,0l-4.1-4.1c-0.4-0.4-1.1-0.4-1.5,0c-0.2,0.2-0.3,0.5-0.3,0.8s0.1,0.5,0.3,0.8l2.3,2.3h-9.8
			c-0.6,0-1.1,0.5-1.1,1.1s0.5,1.1,1.1,1.1h9.8L688,576c-0.2,0.2-0.3,0.5-0.3,0.8s0.1,0.5,0.3,0.8c0.4,0.4,1.1,0.4,1.5,0
			L693.6,573.3z"/>
		<path d="M690.7,489.3c0.3-0.5,0.1-1.2-0.4-1.4l-0.9-0.5c2.9-1,4.9-3.7,4.9-6.9c0-4.1-3.3-7.4-7.4-7.4c-4.1,0-7.4,3.3-7.4,7.4
			c0,2.6,1.3,4.9,3.5,6.3c0.5,0.3,1.2,0.1,1.5-0.4s0.1-1.2-0.4-1.5c-1.6-1-2.5-2.6-2.5-4.5c0-2.9,2.4-5.2,5.2-5.2s5.2,2.4,5.2,5.2
			c0,2.3-1.5,4.2-3.5,4.9l0.5-1c0.3-0.5,0.1-1.2-0.4-1.4c-0.5-0.3-1.2-0.1-1.4,0.4l-1.7,3.2c-0.1,0.2-0.1,0.3-0.1,0.5
			c0,0.1,0,0.2,0,0.3c0.1,0.3,0.3,0.5,0.5,0.7l0,0l3.2,1.7C689.8,490,690.4,489.8,690.7,489.3z"/>
		<path d="M693.1,434.5c0.3-0.5,0.2-1.2-0.3-1.5s-1.2-0.2-1.5,0.3c-1,1.5-2.6,2.4-4.4,2.4c-2.9,0-5.2-2.4-5.2-5.2s2.4-5.2,5.2-5.2
			c1.8,0,3.5,0.9,4.4,2.4c0.3,0.5,1,0.6,1.5,0.3c0.5-0.3,0.6-1,0.3-1.5c-1.4-2.1-3.7-3.4-6.2-3.4c-4.1,0-7.4,3.3-7.4,7.4
			s3.3,7.4,7.4,7.4C689.4,437.9,691.7,436.7,693.1,434.5z"/>
		<path d="M685.8,430.6c0,0.6,0.5,1.1,1.1,1.1h8.1c0.6,0,1.1-0.5,1.1-1.1s-0.5-1.1-1.1-1.1h-8.1C686.3,429.5,685.8,430,685.8,430.6z
			"/>
		<path d="M687.8,536.8l6.3-10.2c0.2-0.3,0.2-0.7,0-1.1c-0.2-0.3-0.5-0.5-0.9-0.5h-12.6c-0.4,0-0.7,0.2-0.9,0.5
			c-0.1,0.2-0.1,0.3-0.1,0.5s0.1,0.4,0.2,0.6l6.3,10.2c0.2,0.3,0.5,0.5,0.9,0.5S687.6,537.2,687.8,536.8z M682.5,527.2h8.8l-4.4,7.1
			L682.5,527.2z"/>
	</g>
</g>
<g>
	<g>
		<path class="st0" d="M1019.7,76.6c0.2-0.2,0.4-0.4,0.7-0.5s0.6-0.1,0.9,0c0.3,0.1,0.5,0.2,0.7,0.5l6.7,8c0.3,0.3,0.6,0.5,1,0.7
			c0.4,0.1,0.8,0.1,1.2-0.1c0.4-0.1,0.7-0.4,0.9-0.7c0.2-0.3,0.4-0.7,0.4-1.1V51.9c0-0.4-0.1-0.8-0.4-1.1c-0.2-0.3-0.6-0.6-0.9-0.7
			c-0.4-0.1-0.8-0.2-1.2-0.1c-0.4,0.1-0.7,0.3-1,0.7l-6.7,8c-0.2,0.2-0.4,0.4-0.7,0.5s-0.6,0.1-0.9,0c-0.3-0.1-0.5-0.3-0.7-0.5
			s-0.3-0.5-0.3-0.8V12.3c0-0.2-0.1-0.3-0.3-0.3h-17.7c-0.2,0-0.3,0.1-0.3,0.3v8.2h-16.4v-8.2c0-0.2-0.1-0.3-0.3-0.3h-17
			c-0.2,0-0.3,0.1-0.3,0.3v8.2h-16.4v-8.2c0-0.2-0.1-0.3-0.3-0.3h-17c-0.2,0-0.3,0.1-0.3,0.3v8.2h-16.4v-8.2c0-0.2-0.1-0.3-0.3-0.3
			h-17c-0.2,0-0.3,0.1-0.3,0.3v8.2h-16.4v-8.2c0-0.2-0.1-0.3-0.3-0.3H763.1c-0.2,0-0.3,0.1-0.3,0.3v8.2h-16.4v-8.2
			c0-0.2-0.1-0.3-0.3-0.3h-17c-0.2,0-0.3,0.1-0.3,0.3v8.2h-16.4v-8.2c0-0.2-0.1-0.3-0.3-0.3h-17c-0.2,0-0.3,0.1-0.3,0.3v8.2h-16.4
			v-8.2c0-0.2-0.1-0.3-0.3-0.3h-17c-0.2,0-0.3,0.1-0.3,0.3v8.2h-16.4v-8.2c0-0.2-0.1-0.3-0.3-0.3h-17c-0.2,0-0.3,0.1-0.3,0.3v8.2
			h-16.4v-8.2c0-0.2-0.1-0.3-0.3-0.3h-17c-0.2,0-0.3,0.1-0.3,0.3v8.2h-16.4v-8.2c0-0.2-0.1-0.3-0.3-0.3h-17c-0.2,0-0.3,0.1-0.3,0.3
			v8.2h-16.4v-8.2c0-0.2-0.1-0.3-0.3-0.3h-17c-0.2,0-0.3,0.1-0.3,0.3v8.2h-16.4v-8.2c0-0.2-0.1-0.3-0.3-0.3h-17
			c-0.2,0-0.3,0.1-0.3,0.3v8.2h-16.4v-8.2c0-0.2-0.1-0.3-0.3-0.3h-17c-0.2,0-0.3,0.1-0.3,0.3v8.2h-16.4v-8.2c0-0.2-0.1-0.3-0.3-0.3
			h-17c-0.2,0-0.3,0.1-0.3,0.3v8.2h-16.4v-8.2c0-0.2-0.1-0.3-0.3-0.3h-17c-0.2,0-0.3,0.1-0.3,0.3v8.2h-16.4v-8.2
			c0-0.2-0.1-0.3-0.3-0.3H252.6c-0.2,0-0.3,0.1-0.3,0.3v8.2h-16.4v-8.2c0-0.2-0.1-0.3-0.3-0.3h-17c-0.2,0-0.3,0.1-0.3,0.3v8.2h-16.4
			v-8.2c0-0.2-0.1-0.3-0.3-0.3h-17c-0.1,0-0.3,0.1-0.3,0.3v8.2h-16.4v-8.2c0-0.2-0.1-0.3-0.3-0.3h-17c-0.2,0-0.3,0.1-0.3,0.3v8.2
			h-16.4v-8.2c0-0.2-0.1-0.3-0.3-0.3h-18v8.5H99.1v-8.2c0-0.2-0.1-0.3-0.3-0.3h-17c-0.2,0-0.3,0.1-0.3,0.3v8.2H65.1v-8.2
			c0-0.2-0.1-0.3-0.3-0.3h-17c-0.1,0-0.3,0.1-0.3,0.3v8.2H31.1v-8.2c0-0.2-0.1-0.3-0.3-0.3h-17c-0.1,0-0.1,0-0.2,0.1l-0.1,0.1v0.1
			v45.5c0,0.4,0.1,0.8,0.4,1.1c0.2,0.3,0.6,0.6,0.9,0.7c0.4,0.1,0.8,0.2,1.2,0c0.4-0.1,0.7-0.3,1-0.6l6.8-8c0.2-0.2,0.4-0.4,0.7-0.5
			c0.3-0.1,0.6-0.1,0.9,0s0.5,0.3,0.7,0.5s0.3,0.5,0.3,0.8v31.4c0,0.3-0.1,0.6-0.3,0.8c-0.2,0.2-0.4,0.4-0.7,0.5
			c-0.3,0.1-0.6,0.1-0.9,0S24,84.3,23.8,84L17,76c-0.3-0.3-0.6-0.5-1-0.6s-0.8-0.1-1.2,0s-0.7,0.4-0.9,0.7c-0.2,0.3-0.4,0.7-0.4,1.1
			v31.4c0,0.4,0.1,0.8,0.4,1.1c0.2,0.3,0.6,0.6,0.9,0.7c0.4,0.1,0.8,0.1,1.2,0s0.7-0.3,1-0.6l6.8-8c0.2-0.2,0.4-0.4,0.7-0.5
			c0.3-0.1,0.6-0.1,0.9,0s0.5,0.3,0.7,0.5s0.3,0.5,0.3,0.8V134c0,0.3-0.1,0.6-0.3,0.8c-0.2,0.2-0.4,0.4-0.7,0.5
			c-0.3,0.1-0.6,0.1-0.9,0s-0.5-0.2-0.7-0.5l-6.8-8c-0.3-0.3-0.6-0.5-1-0.6s-0.8-0.1-1.2,0s-0.7,0.4-0.9,0.7
			c-0.2,0.3-0.4,0.7-0.4,1.1v31.4c0,0.4,0.1,0.8,0.4,1.1c0.2,0.3,0.6,0.6,0.9,0.7c0.4,0.1,0.8,0.2,1.2,0.1c0.4-0.1,0.7-0.3,1-0.6
			l6.8-8c0.2-0.2,0.4-0.4,0.7-0.5c0.3-0.1,0.6-0.1,0.9,0s0.5,0.3,0.7,0.5s0.3,0.5,0.3,0.8v31.4c0,0.3-0.1,0.6-0.3,0.8
			c-0.2,0.2-0.4,0.4-0.7,0.5c-0.3,0.1-0.6,0.1-0.9,0s-0.5-0.2-0.7-0.5l-6.8-8c-0.3-0.3-0.6-0.5-1-0.6s-0.8-0.1-1.2,0.1
			c-0.4,0.1-0.7,0.4-0.9,0.7s-0.4,0.7-0.4,1.1v45.5c0,0.1,0.1,0.3,0.3,0.3h1005.3c0.1,0,0.3-0.1,0.3-0.3V179c0-0.3,0.1-0.6,0.3-0.8
			s0.4-0.4,0.7-0.5s0.6-0.1,0.9,0c0.3,0.1,0.5,0.2,0.7,0.5l6.7,8c0.3,0.3,0.6,0.5,1,0.6s0.8,0.1,1.2,0c0.4-0.1,0.7-0.4,0.9-0.7
			c0.2-0.3,0.4-0.7,0.4-1.1v-31c0-0.4-0.1-0.8-0.4-1.1s-0.6-0.6-0.9-0.7c-0.4-0.1-0.8-0.2-1.2,0c-0.4,0.1-0.7,0.3-1,0.6l-6.7,8
			c-0.2,0.2-0.4,0.4-0.7,0.5s-0.6,0.1-0.9,0c-0.3-0.1-0.5-0.3-0.7-0.5s-0.3-0.5-0.3-0.8v-31.4c0-0.3,0.1-0.6,0.3-0.8
			c0.2-0.2,0.4-0.4,0.7-0.5s0.6-0.1,0.9,0c0.3,0.1,0.5,0.2,0.7,0.5l6.7,8c0.3,0.3,0.6,0.5,1,0.6s0.8,0.1,1.2,0
			c0.4-0.1,0.7-0.4,0.9-0.7c0.2-0.3,0.4-0.7,0.4-1.1v-31.4c0-0.4-0.1-0.8-0.4-1.1c-0.2-0.3-0.6-0.6-0.9-0.7c-0.4-0.1-0.8-0.2-1.2,0
			c-0.4,0.1-0.7,0.3-1,0.6l-6.7,8c-0.2,0.2-0.4,0.4-0.7,0.5s-0.6,0.1-0.9,0c-0.3-0.1-0.5-0.3-0.7-0.5s-0.3-0.5-0.3-0.8V77.4
			C1019.4,77.1,1019.5,76.9,1019.7,76.6z M410.1,108l8.4-34c0.5-1.9,2.2-3.2,4.1-3.2l0,0c2.8,0,4.8,2.6,4.1,5.3l-8.4,34
			c-0.5,1.9-2.2,3.2-4.1,3.2l0,0C411.5,113.2,409.4,110.6,410.1,108z M396.7,113.2c-2.8,0-4.8-2.6-4.1-5.3l8.4-34
			c0.5-1.9,2.2-3.2,4.1-3.2l0,0c2.8,0,4.8,2.6,4.1,5.3l-8.4,34C400.4,111.9,398.7,113.2,396.7,113.2L396.7,113.2z M439.6,166.5
			c0,1.1-0.9,2-2,2H399c-1.1,0-2-0.9-2-2v-15.9c0-1.1,0.9-2,2-2h38.6c1.1,0,2,0.9,2,2V166.5z M461.8,76l-8.4,34
			c-0.5,1.9-2.2,3.2-4.1,3.2l0,0c-2.8,0-4.8-2.6-4.1-5.3l8.4-34c0.5-1.9,2.2-3.2,4.1-3.2l0,0C460.4,70.7,462.5,73.3,461.8,76z
			 M479.3,76l-8.4,34c-0.5,1.9-2.2,3.2-4.1,3.2l0,0c-2.8,0-4.8-2.6-4.1-5.3l8.4-34c0.5-1.9,2.2-3.2,4.1-3.2l0,0
			C478,70.7,480,73.3,479.3,76z M496.8,76l-8.4,34c-0.5,1.9-2.2,3.2-4.1,3.2l0,0c-2.8,0-4.8-2.6-4.1-5.3l8.4-34
			c0.5-1.9,2.2-3.2,4.1-3.2l0,0C495.5,70.7,497.5,73.3,496.8,76z M514.4,76l-8.4,34c-0.5,1.9-2.2,3.2-4.1,3.2l0,0
			c-2.8,0-4.8-2.6-4.1-5.3l8.4-34c0.5-1.9,2.2-3.2,4.1-3.2l0,0C513,70.7,515,73.3,514.4,76z M531.9,76l-8.4,34
			c-0.5,1.9-2.2,3.2-4.1,3.2l0,0c-2.8,0-4.8-2.6-4.1-5.3l8.4-34c0.5-1.9,2.2-3.2,4.1-3.2c2.4,0,4.3,2,4.3,4.2
			C532,75.3,532,75.6,531.9,76z M549.4,76l-8.4,34c-0.5,1.9-2.2,3.2-4.1,3.2l0,0c-2.8,0-4.8-2.6-4.1-5.3l8.4-34
			c0.5-1.9,2.2-3.2,4.1-3.2l0,0C548,70.7,550.1,73.3,549.4,76z M566.9,76l-8.4,34c-0.5,1.9-2.2,3.2-4.1,3.2l0,0
			c-2.8,0-4.8-2.6-4.1-5.3l8.4-34c0.5-1.9,2.2-3.2,4.1-3.2l0,0C565.5,70.7,567.6,73.3,566.9,76z"/>
		<path class="st0" d="M444.4,75c0,0.3-0.1,0.7-0.1,1l-8.4,34c-0.5,1.9-2.2,3.2-4.1,3.2c-2.4,0-4.2-2-4.2-4.2c0-0.3,0-0.7,0.1-1
			l8.4-34c0.5-1.9,2.2-3.2,4.1-3.2C442.5,70.7,444.4,72.7,444.4,75z"/>
		<path class="st0" d="M275.8,225.2L275.8,225.2V174 M275.8,165.5V71.7 M275.8,63.2V12 M280,114.4V20.5 M280,216.7v-93.8
			 M284.3,225.2L284.3,225.2V174 M284.3,165.5V71.7 M284.3,63.2V12 M288.5,114.4V20.5 M288.5,216.7v-93.8 M292.8,225.2L292.8,225.2
			V174 M292.8,165.5V71.7 M292.8,63.2V12 M297,114.4V20.5 M297,216.7v-93.8 M301.3,225.2L301.3,225.2V174 M301.3,165.5V71.7
			 M301.3,63.2V12 M305.5,114.4V20.5 M305.5,216.7v-93.8 M309.8,225.2L309.8,225.2V174 M309.8,165.5V71.7 M309.8,63.2V12 M314,114.4
			V20.5 M314,216.7v-93.8 M318.3,225.2L318.3,225.2V174 M318.3,165.5V71.7 M318.3,63.2V12 M322.5,114.4V20.5 M322.5,216.7v-93.8
			 M326.8,225.2L326.8,225.2V174 M326.8,165.5V71.7 M326.8,63.2V12 M331,114.4V20.5 M331,216.7v-93.8 M335.3,225.2L335.3,225.2V174
			 M335.3,165.5V71.7 M335.3,63.2V12 M339.5,114.4V20.5 M339.5,216.7v-93.8"/>
		<path class="st0" d="M795.4,225.2L795.4,225.2V174 M795.4,165.5V71.7 M795.4,63.2V12 M799.7,114.4V20.5 M799.7,216.7v-93.8
			 M803.9,225.2L803.9,225.2V174 M803.9,165.5V71.7 M803.9,63.2V12 M808.2,114.4V20.5 M808.2,216.7v-93.8 M812.4,225.2L812.4,225.2
			V174 M812.4,165.5V71.7 M812.4,63.2V12 M816.7,114.4V20.5 M816.7,216.7v-93.8 M820.9,225.2L820.9,225.2V174 M820.9,165.5V71.7
			 M820.9,63.2V12 M825.2,114.4V20.5 M825.2,216.7v-93.8 M829.4,225.2L829.4,225.2V174 M829.4,165.5V71.7 M829.4,63.2V12
			 M833.7,114.4V20.5 M833.7,216.7v-93.8 M837.9,225.2L837.9,225.2V174 M837.9,165.5V71.7 M837.9,63.2V12 M842.2,114.4V20.5
			 M842.2,216.7v-93.8 M846.4,225.2L846.4,225.2V174 M846.4,165.5V71.7 M846.4,63.2V12 M850.7,114.4V20.5 M850.7,216.7v-93.8
			 M855,225.2L855,225.2V174 M855,165.5V71.7 M855,63.2V12 M859.2,114.4V20.5 M859.2,216.7v-93.8"/>
	</g>
</g>
</svg>
