<?xml version="1.0" encoding="utf-8"?>
<!-- Generator: Adobe Illustrator 25.2.3, SVG Export Plug-In . SVG Version: 6.00 Build 0)  -->
<svg version="1.1" id="Calque_1" xmlns="http://www.w3.org/2000/svg" xmlns:xlink="http://www.w3.org/1999/xlink" x="0px" y="0px"
	 viewBox="0 0 1275.6 850.4" style="enable-background:new 0 0 1275.6 850.4;" xml:space="preserve">
<style type="text/css">
	.st0{fill:none;stroke:#020203;stroke-width:0.5669;stroke-linecap:round;stroke-linejoin:round;stroke-miterlimit:11.3386;}
</style>
<g>
	<rect x="811" y="515.2" class="st0" width="343" height="215.4"/>
	<circle class="st0" cx="881.9" cy="788.4" r="17"/>
	<circle class="st0" cx="1083.1" cy="788.4" r="17"/>
	<circle class="st0" cx="1032.8" cy="788.4" r="17"/>
	<circle class="st0" cx="982.5" cy="788.4" r="17"/>
	<circle class="st0" cx="932.2" cy="788.4" r="17"/>
	<path class="st0" d="M1263.4,486.1c0-0.1,0-0.2-0.1-0.2"/>
	<path class="st0" d="M1254.8,485.9L1254.8,485.9C1254.8,485.8,1254.8,485.8,1254.8,485.9"/>
	<path class="st0" d="M1254.8,759.9C1254.8,759.9,1254.8,759.8,1254.8,759.9"/>
	<path class="st0" d="M1263.4,759.6c0,0.1,0,0.2-0.1,0.2"/>
	<circle class="st0" cx="1139.8" cy="741.9" r="5.7"/>
	<circle class="st0" cx="825.2" cy="741.9" r="5.7"/>
	<circle class="st0" cx="1139.8" cy="503.8" r="5.7"/>
	<circle class="st0" cx="825.2" cy="503.8" r="5.7"/>
	<g>
		<g>
			<path d="M1192.1,647c0-1.2,0-2.4,0-3.6c0-0.2-0.1-0.3-0.3-0.3c-2,0-4.1,0-6.1,0c-1.9,0-3.5-1.3-4-3.1c-0.1-0.3-0.1-0.6-0.1-0.8
				c0-2,0-4.1,0-6.1c0-0.2,0-0.3-0.3-0.3c-2.4,0-4.8,0-7.2,0c-0.2,0-0.3-0.1-0.3-0.3c0-0.9,0-1.7,0-2.6c0-0.2,0.1-0.2,0.2-0.2
				c2.4,0,4.8,0,7.3,0c0.2,0,0.3-0.1,0.3-0.3c0-1.1,0-2.3,0-3.4c0-0.2-0.1-0.3-0.3-0.3c-2.4,0-4.8,0-7.3,0c-0.2,0-0.3-0.1-0.3-0.3
				c0-0.9,0-1.7,0-2.6c0-0.2,0.1-0.3,0.3-0.3c2.4,0,4.8,0,7.2,0c0.3,0,0.3-0.1,0.3-0.3c0-1.1,0-2.2,0-3.3c0-0.3,0-0.3-0.3-0.3
				c-2.4,0-4.8,0-7.2,0c-0.2,0-0.3,0-0.3-0.3c0-0.9,0-1.7,0-2.6c0-0.2,0.1-0.3,0.3-0.3c2.4,0,4.8,0,7.3,0c0.2,0,0.3,0,0.3-0.3
				c0-1.1,0-2.3,0-3.4c0-0.2-0.1-0.3-0.3-0.3c-2.4,0-4.8,0-7.2,0c-0.2,0-0.3-0.1-0.3-0.3c0-0.9,0-1.7,0-2.6c0-0.2,0-0.3,0.3-0.3
				c2.4,0,4.8,0,7.2,0c0.3,0,0.3-0.1,0.3-0.3c0-2,0-4,0-6c0-1.7,1.1-3.3,2.8-3.9c0.4-0.1,0.7-0.2,1.1-0.2c2.1,0,4.1,0,6.2,0
				c0.2,0,0.3-0.1,0.3-0.3c0-2.4,0-4.8,0-7.1c0-0.2,0-0.3,0.3-0.3c0.9,0,1.7,0,2.6,0c0.2,0,0.3,0.1,0.3,0.3c0,2.4,0,4.7,0,7.1
				c0,0.2,0.1,0.3,0.3,0.3c1.1,0,2.3,0,3.4,0c0.2,0,0.3,0,0.3-0.3c0-2.4,0-4.7,0-7.1c0-0.3,0.1-0.3,0.3-0.3c0.8,0,1.7,0,2.5,0
				c0.3,0,0.3,0,0.3,0.3c0,2.4,0,4.7,0,7.1c0,0.2,0.1,0.3,0.3,0.3c1.2,0,2.3,0,3.5,0c0.2,0,0.3-0.1,0.3-0.3c0-2.4,0-4.8,0-7.1
				c0-0.2,0.1-0.3,0.3-0.3c0.9,0,1.7,0,2.6,0c0.2,0,0.3,0.1,0.3,0.3c0,2.4,0,4.8,0,7.1c0,0.2,0.1,0.3,0.3,0.3c1.2,0,2.3,0,3.5,0
				c0.2,0,0.3-0.1,0.3-0.3c0-2.4,0-4.7,0-7.1c0-0.2,0.1-0.3,0.3-0.3c0.9,0,1.8,0,2.6,0c0.2,0,0.2,0.1,0.2,0.2c0,2.4,0,4.8,0,7.2
				c0,0.2,0.1,0.3,0.3,0.3c2,0,4.1,0,6.1,0c1.9,0,3.5,1.3,4,3.1c0.1,0.4,0.1,0.7,0.1,1.1c0,1.9,0,3.9,0,5.8c0,0.3,0.1,0.3,0.3,0.3
				c2.4,0,4.8,0,7.2,0c0.2,0,0.3,0.1,0.3,0.3c0,0.9,0,1.7,0,2.6c0,0.2-0.1,0.3-0.3,0.3c-2.4,0-4.8,0-7.3,0c-0.2,0-0.3,0-0.3,0.3
				c0,1.2,0,2.3,0,3.5c0,0.2,0.1,0.2,0.2,0.2c2.4,0,4.8,0,7.3,0c0.2,0,0.3,0.1,0.3,0.3c0,0.9,0,1.7,0,2.6c0,0.2-0.1,0.3-0.3,0.3
				c-2.4,0-4.8,0-7.2,0c-0.2,0-0.3,0.1-0.3,0.3c0,1.1,0,2.2,0,3.4c0,0.3,0.1,0.3,0.3,0.3c2.4,0,4.8,0,7.2,0c0.2,0,0.3,0.1,0.3,0.3
				c0,0.9,0,1.7,0,2.6c0,0.2-0.1,0.3-0.3,0.3c-2.4,0-4.8,0-7.2,0c-0.2,0-0.3,0-0.3,0.3c0,1.1,0,2.3,0,3.4c0,0.2,0.1,0.3,0.3,0.3
				c2.4,0,4.8,0,7.3,0c0.2,0,0.3,0.1,0.3,0.3c0,0.9,0,1.7,0,2.6c0,0.2,0,0.3-0.3,0.3c-2.4,0-4.8,0-7.2,0c-0.2,0-0.3,0.1-0.3,0.3
				c0,2,0,4,0,6c0,1.9-1.4,3.5-3.2,3.9c-0.4,0.1-0.7,0.1-1.1,0.1c-2,0-3.9,0-5.9,0c-0.2,0-0.3,0.1-0.3,0.3c0,2.4,0,4.8,0,7.2
				c0,0.2,0,0.3-0.3,0.3c-0.9,0-1.7,0-2.6,0c-0.3,0-0.3,0-0.3-0.3c0-2.3,0-4.7,0-7c0-0.4,0-0.3-0.4-0.3c-1.1,0-2.3,0-3.4,0
				c-0.2,0-0.3,0-0.3,0.3c0,2.4,0,4.8,0,7.1c0,0.2,0,0.3-0.3,0.3c-0.9,0-1.7,0-2.6,0c-0.2,0-0.3-0.1-0.3-0.3c0-2.4,0-4.7,0-7.1
				c0-0.2-0.1-0.3-0.3-0.3c-1.1,0-2.3,0-3.4,0c-0.2,0-0.3,0.1-0.3,0.3c0,2.4,0,4.7,0,7.1c0,0.3,0,0.3-0.3,0.3c-0.8,0-1.7,0-2.5,0
				c-0.4,0-0.4,0.1-0.4-0.3c0-2.4,0-4.7,0-7.1c0-0.2-0.1-0.3-0.3-0.3c-1.1,0-2.3,0-3.4,0c-0.2,0-0.3,0-0.3,0.3c0,2.4,0,4.7,0,7.1
				c0,0.4,0,0.3-0.4,0.3c-0.9,0-1.7,0-2.6,0c-0.2,0-0.3-0.1-0.3-0.3C1192.1,649.4,1192.1,648.2,1192.1,647z M1204.5,601.3
				c-3.7,0-7.5,0-11.2,0c-2.5,0-5,0-7.4,0c-0.5,0-0.8,0.2-1,0.6c-0.1,0.2,0,0.3,0,0.5c0,12.2,0,24.3,0,36.5c0,0.1,0,0.2,0,0.3
				c0,0.4,0.2,0.6,0.5,0.8c0.2,0.1,0.4,0.1,0.5,0.1c12.4,0,24.8,0,37.1,0c0.1,0,0.1,0,0.2,0s0.2,0,0.4-0.1c0.4-0.2,0.5-0.5,0.5-1
				c0-12.2,0-24.5,0-36.7c0-0.1,0-0.1,0-0.2c0-0.1,0-0.2-0.1-0.3c-0.2-0.4-0.5-0.5-1-0.5C1216.9,601.3,1210.7,601.3,1204.5,601.3z"
				/>
			<path d="M1222.3,614.6c0,0.8-0.1,1.4-0.4,2.1c-0.1,0.1-0.1,0.2-0.1,0.4c0,0.7,0.1,1.4-0.3,2.1c-0.5,1-1.2,1.6-2.3,1.9
				c-0.4,0.1-0.8,0.2-1.2,0.2c-0.1,0-0.1,0.1-0.2,0.1c-0.6,0.6-1.4,1-2.2,1.1c-0.4,0.1-0.8,0.1-1.3-0.1c-0.1,0-0.2,0-0.3,0.1
				c-0.3,0.4-0.7,0.6-1.1,0.7c-0.8,0.2-1.7,0.2-2.5-0.1c-0.4-0.1-0.6,0-0.9,0.2c-0.9,0.4-1.8,0.8-2.8,1c-0.4,0.1-0.8,0.1-1.3,0.1
				c-0.2,0-0.3,0-0.3,0.2c-0.2,0.7-0.3,1.4-0.6,2.1c-0.4,1.2-1.3,1.9-2.5,2.3c-0.5,0.2-1,0.3-1.5,0.5c-0.9,0.4-1.5,1.1-1.8,2
				c-0.1,0.3-0.1,0.5-0.2,0.8c-0.3,0.7-0.8,1-1.6,0.9c-0.8-0.1-1.5-0.3-2.1-0.8c-0.5-0.4-0.8-1.1-0.4-1.9c0.4-0.6,0.6-1.4,0.6-2.1
				c0-0.1,0-0.1-0.1-0.1c-0.5-0.1-0.9-0.3-1.3-0.7c-0.3-0.2-0.5-0.5-0.7-0.7c-0.3-0.3-0.7-0.4-1.1-0.5c-0.8-0.1-1.5-0.5-2.1-1
				c-0.9-0.8-1.5-1.8-1.9-2.9c-0.3-0.8-0.5-1.6-0.6-2.4c-0.1-0.4-0.2-0.8-0.2-1.2c0-0.2-0.2-0.3-0.4-0.5c-0.2-0.3-0.3-0.6-0.3-0.9
				c-0.1-0.8,0.1-1.6,0.4-2.3c0.2-0.5,0.1-1,0-1.5c-0.4-1.3-0.2-2.5,0.9-3.4c0.2-0.1,0.2-0.3,0.2-0.5c0-0.9,0.3-1.7,0.8-2.5
				c0.5-0.9,1.2-1.7,2.1-2.2c0.6-0.3,1.2-0.5,1.9-0.5c0.2,0,0.4,0,0.5-0.2c0.6-0.8,1.5-1.3,2.4-1.6c0.6-0.2,1.2-0.3,1.8-0.4
				c0.7-0.1,1.5-0.1,2.2,0.1c0.4,0.1,0.9,0.2,1.3,0.3c0.1,0,0.2,0,0.3,0c0.9-0.5,1.8-0.6,2.8-0.4c0.2,0,0.5,0.1,0.6,0.3
				c0.3,0.2,0.6,0.2,0.9,0.1c0.7-0.2,1.3-0.2,2-0.2c1.4,0.1,2.6,0.6,3.7,1.5c0.3,0.2,0.6,0.5,0.8,0.8c0.1,0.1,0.1,0.1,0.2,0.1
				c0.7-0.1,1.4-0.1,2.1,0c0.9,0.2,1.6,0.8,2.1,1.6c0.1,0.2,0.2,0.2,0.4,0.3c0.6,0.3,1.1,0.6,1.5,1c0.7,0.7,1.2,1.6,1.5,2.5
				c0.1,0.2,0.2,0.4,0.3,0.6c0.7,0.7,1.3,1.5,1.7,2.4C1222.3,613.6,1222.4,614.1,1222.3,614.6z M1215.2,621.4c0.9-0.1,1.6-0.3,2.1-1
				c0.1-0.1,0.2-0.2,0.4-0.2c0.5,0,0.9,0,1.4-0.2s1-0.4,1.3-0.9c0.4-0.6,0.4-1.2,0.4-1.8c0-0.4,0-0.8,0.2-1.1
				c0.1-0.1,0.1-0.2,0.1-0.4c0.1-0.5,0.3-1,0.2-1.5c0-0.2-0.2-0.3-0.2-0.5c-0.1-0.5-0.3-0.9-0.5-1.3c-0.2-0.4-0.5-0.8-0.9-1
				c-0.4-0.3-0.5-0.7-0.7-1.1c-0.2-0.7-0.6-1.4-1.1-1.9s-1.1-0.8-1.7-1c-0.2-0.1-0.3-0.2-0.4-0.4c-0.4-0.7-0.9-1.1-1.7-1.3
				c-0.6-0.1-1.1,0-1.7-0.1c-0.5-0.1-1-0.3-1.3-0.6c-1.1-1-2.3-1.5-3.8-1.5c-0.6,0-1.3,0.1-1.9,0.3c-0.3,0.1-0.5,0-0.7-0.1
				c-0.5-0.3-1-0.5-1.6-0.4c-0.3,0-0.7,0.1-1,0.3c-0.4,0.2-0.9,0.2-1.4,0.1c-0.2-0.1-0.5-0.1-0.7-0.2c-0.7-0.2-1.3-0.2-2-0.2
				c-0.9,0.1-1.7,0.3-2.5,0.7c-0.5,0.2-0.9,0.5-1.2,1c-0.3,0.4-1,0.8-1.5,0.7c-0.1,0-0.2,0-0.4,0c-0.7,0.1-1.3,0.5-1.7,0.9
				c-1,1-1.6,2.2-1.6,3.7c0,0.3-0.1,0.5-0.4,0.6c-0.5,0.3-0.9,0.8-1,1.4c-0.1,0.6,0.1,1.2,0.4,1.7c0.1,0.2,0.1,0.5,0,0.7
				c-0.2,0.6-0.4,1.3-0.6,2c-0.1,0.5,0,0.9,0.3,1.1c0.4,0.2,0.4,0.6,0.4,0.9c0,0.3,0,0.7,0.1,1c0.3,0.9,1,1.4,1.9,1.7
				s1.8,0.5,2.7,0.4c0.4,0,0.8-0.1,1.2-0.3c0.3-0.2,0.7,0,0.8,0.4c0,0.2,0.2,0.4,0.3,0.6c0.5,0.5,1.1,0.7,1.8,0.9
				c0.7,0.2,1.3,0.1,1.9-0.3c0.3-0.2,0.6,0,0.7,0.2c0.6,1.1,1.6,1.3,2.7,1.2c0.8-0.1,1.5-0.5,2.1-1.1c0.2-0.2,0.4-0.2,0.6-0.1
				c0.5,0.2,1,0.2,1.5,0.1c0.8-0.2,1.6-0.5,2.4-0.8c0.1,0,0.1-0.1,0.2-0.1c0.2-0.3,0.6-0.4,0.9-0.4c0.1,0,0.2,0,0.3,0.1
				c0.1,0.1,0.2,0.2,0.4,0.2c0.5,0.1,1,0.2,1.4,0.1c0.5-0.1,1-0.1,1.2-0.7c0-0.1,0.1-0.3,0.2-0.2c0.2,0,0.5,0,0.7,0.1
				C1214.6,621.4,1214.9,621.4,1215.2,621.4z M1199.5,624.4c-0.1,0.4-0.3,0.7-0.4,1.1c-0.5,1.1-1.3,1.9-2.4,2.3
				c-0.2,0.1-0.3,0.2-0.4,0.4c-0.1,0.9-0.3,1.7-0.7,2.5c-0.1,0.2-0.1,0.4,0.1,0.6c0.5,0.5,1.1,0.6,1.7,0.7c0.2,0,0.4-0.1,0.4-0.3
				c0.1-0.2,0.1-0.4,0.2-0.6c0.3-1.2,1-2.1,2.1-2.6c0.6-0.3,1.3-0.5,1.9-0.7c0.7-0.3,1.3-0.6,1.6-1.3c0.2-0.4,0.3-0.7,0.4-1.1
				c0-0.2,0.1-0.3,0.1-0.5C1202.5,625.5,1200.9,625.6,1199.5,624.4z M1198.5,624.1c-0.6,0-1.1,0-1.6-0.1c-1-0.3-2-0.7-2.6-1.6
				c0-0.1-0.1-0.1-0.2-0.1c-0.8,0.2-1.6,0.3-2.4,0.2c-0.6-0.1-1.2-0.2-1.8-0.4c-0.3-0.1-0.6-0.3-0.9-0.4l0,0v0.1
				c0.3,0.8,0.6,1.5,1.2,2.1s1.3,1,2.1,1.1c0.4,0.1,0.8,0.2,1.1,0.4c0.4,0.3,0.7,0.7,1.1,1c0.3,0.3,0.7,0.5,1.2,0.4
				c0.7-0.1,1.3-0.4,1.8-1C1198,625.4,1198.2,624.8,1198.5,624.1z"/>
			<path d="M1199.4,636.5C1199.4,636.5,1199.5,636.6,1199.4,636.5c0.7,0.3,1,0.8,1,1.4c0,0.3,0,0.7,0.1,1s0.3,0.5,0.6,0.5
				c0.3,0,0.5-0.2,0.5-0.5v-0.1c0-0.1,0.1-0.2,0.2-0.1c0.1,0,0.2,0.1,0.2,0.2c0,0.4-0.4,0.9-0.8,0.9c-0.5,0-0.9,0-1.4-0.2
				s-0.7-0.5-0.7-1c0-0.3,0-0.7,0-1c-0.1-0.4-0.4-0.7-0.8-0.8s-0.8,0-1.3,0c-0.1,0-0.1,0.1-0.1,0.1c0,0.8,0,1.5,0,2.3
				c0,0.1,0.1,0.1,0.1,0.1c0.2,0,0.4,0,0.7,0c0.2,0,0.1,0.1,0.1,0.2c0,0.1,0,0.2-0.2,0.2c-0.9,0-1.9,0-2.8,0c-0.2,0-0.2-0.1-0.2-0.2
				c0-0.1,0-0.2,0.2-0.2s0.4,0,0.6,0s0.2,0,0.2-0.2c0-1.6,0-3.2,0-4.8c0-0.1,0-0.2,0-0.2c0-0.2,0-0.2-0.2-0.2s-0.4,0-0.6,0
				c-0.1,0-0.2-0.1-0.1-0.2c0-0.1,0-0.2,0.1-0.2c1.4,0,2.7-0.1,4.1,0.1c0.5,0.1,0.9,0.2,1.3,0.6c0.7,0.6,0.7,1.6-0.1,2.1
				C1200,636.3,1199.7,636.4,1199.4,636.5z M1197,635c0,0.4,0,0.7,0,1.1c0,0.1,0,0.2,0.2,0.2c0.3,0,0.7,0,1,0c1.1,0,1.5-0.5,1.4-1.5
				c-0.1-0.6-0.3-0.8-0.9-0.9c-0.5-0.1-1.1,0-1.6-0.1c-0.1,0-0.1,0.1-0.1,0.2C1197,634.3,1197,634.7,1197,635z"/>
			<path d="M1192.2,636.4c0.3,0,0.6,0.1,0.9,0.3c1.1,0.5,1.2,1.9,0.2,2.5c-0.4,0.3-0.9,0.4-1.4,0.4c-1.4,0-2.8,0-4.1,0
				c-0.2,0-0.2-0.1-0.2-0.2c0-0.1,0-0.2,0.2-0.2s0.4,0,0.6,0c0.1,0,0.2,0,0.2-0.1c0-1.7,0-3.4,0-5.1c0-0.1-0.1-0.2-0.2-0.2
				c-0.2,0-0.4,0-0.6,0s-0.1-0.1-0.1-0.2c0-0.1-0.1-0.2,0.1-0.2c1.4,0,2.8,0,4.2,0c0.4,0,0.9,0.2,1.2,0.5c0.8,0.6,0.7,1.6-0.1,2.1
				C1192.7,636.2,1192.5,636.3,1192.2,636.4z M1189.7,637.8c0,0.4,0,0.8,0,1.2c0,0.2,0,0.2,0.2,0.2c0.5,0,1,0,1.5,0
				c0.9,0,1.4-0.6,1.4-1.5c-0.1-0.7-0.5-1.2-1.1-1.2s-1.2,0-1.8,0c-0.1,0-0.2,0-0.2,0.2C1189.7,637.1,1189.7,637.5,1189.7,637.8z
				 M1189.7,635c0,0.3,0,0.7,0,1c0,0.1,0,0.2,0.2,0.2c0.5,0,1,0,1.5,0c0.6-0.1,1-0.5,1.1-1.1c0.1-0.8-0.3-1.3-1.1-1.3
				c-0.5,0-1,0-1.5,0c-0.2,0-0.2,0.1-0.2,0.2C1189.7,634.3,1189.7,634.7,1189.7,635z"/>
			<path d="M1215.4,634.1c0,0.2,0,0.4,0,0.5c0,1.4,0,2.8,0,4.2c0,0.3,0.1,0.4,0.3,0.4c0.2,0,0.3,0,0.5,0s0.2,0.1,0.2,0.2
				c0,0.1,0,0.2-0.2,0.2c-0.7,0-1.4,0-2.1,0c-0.2,0-0.1-0.1-0.1-0.2c0-0.1,0-0.2,0.1-0.2c0.2,0,0.3,0,0.5,0c0.3,0,0.3-0.1,0.3-0.4
				c0-1.6,0-3.2,0-4.7V634c0-0.1,0-0.2-0.2-0.2s-0.4,0-0.6,0s-0.2-0.1-0.2-0.2c0-0.1,0-0.2,0.2-0.2c0.6,0,1.2,0,1.9,0
				c0.2,0,0.3,0.1,0.3,0.2c1.1,1.3,2.3,2.7,3.4,4l0.1,0.1c0.1,0,0-0.1,0-0.2c0-1.2,0-2.3,0-3.5c0-0.2-0.1-0.3-0.3-0.3
				c-0.1,0-0.3,0-0.4,0c-0.2,0-0.3-0.1-0.2-0.3c0-0.1,0-0.1,0.1-0.1c0.7,0,1.4,0,2.1,0c0.1,0,0.1,0.1,0.1,0.2c0,0.1,0.1,0.2-0.1,0.2
				s-0.3,0-0.5,0c-0.4,0-0.4,0-0.4,0.4c0,1.7,0,3.4,0,5.1c0,0.1,0,0.3-0.1,0.3s-0.3,0-0.4-0.1l0,0c-1.4-1.7-2.9-3.4-4.3-5.1
				C1215.5,634.2,1215.5,634.2,1215.4,634.1z"/>
			<path d="M1207.4,639.2c-0.2-0.5-0.4-0.9-0.5-1.3c0-0.1-0.1-0.1-0.2-0.1c-0.7,0-1.5,0-2.2,0c-0.1,0-0.1,0-0.2,0.1
				c-0.1,0.3-0.3,0.7-0.4,1c-0.1,0.1,0,0.2,0.1,0.2s0.3,0.1,0.4,0c0.2,0,0.2,0.1,0.2,0.2c0,0.2-0.1,0.2-0.2,0.2c-0.6,0-1.2,0-1.8,0
				c-0.2,0-0.2,0-0.2-0.2c0-0.1,0-0.2,0.2-0.2c0.5,0.1,0.8-0.1,0.9-0.6c0.7-1.7,1.4-3.4,2.1-5c0.1-0.1,0.1-0.2,0.3-0.2
				c0.2,0,0.3,0.1,0.3,0.3c0.6,1.5,1.2,3,1.8,4.4c0.1,0.3,0.3,0.7,0.4,1c0,0.1,0.1,0.2,0.3,0.2c0.1,0,0.3,0,0.4,0
				c0.2,0,0.3,0,0.3,0.2c0,0.1,0,0.1-0.2,0.1c-0.9,0-1.8,0-2.7,0c-0.2,0-0.2-0.1-0.2-0.2c0-0.1,0-0.2,0.2-0.2
				C1206.9,639.2,1207.2,639.2,1207.4,639.2z M1204.6,637.4c0.7,0,1.3,0,1.9,0c0.2,0,0.2-0.1,0.1-0.2c-0.2-0.6-0.5-1.2-0.7-1.8
				c-0.1-0.2-0.2-0.4-0.3-0.6C1205.3,635.7,1204.9,636.5,1204.6,637.4z"/>
			<path d="M1212.4,636.5c0,0.8,0,1.6,0,2.4c0,0.2,0.1,0.3,0.3,0.3c0.2,0,0.4,0,0.5,0s0.2,0,0.2,0.2s-0.1,0.2-0.2,0.2
				c-0.9,0-1.9,0-2.8,0c-0.1,0-0.2,0-0.2-0.2s0.1-0.2,0.2-0.2c0.2,0,0.4,0,0.6,0c0.1,0,0.2,0,0.2-0.2c0-1.7,0-3.4,0-5.1
				c0-0.1-0.1-0.2-0.2-0.2c-0.2,0-0.5,0-0.7,0s-0.2-0.1-0.2-0.2c0-0.1,0-0.2,0.2-0.2c1,0,1.9,0,2.9,0c0.1,0,0.2,0,0.2,0.2
				c0,0.1,0,0.2-0.2,0.2s-0.4,0-0.6,0s-0.2,0-0.2,0.2C1212.4,634.8,1212.4,635.7,1212.4,636.5z"/>
			<path d="M1191.8,616.3c-0.5,0-0.9-0.2-1.1-0.7c-0.2-0.4-0.2-0.9,0.1-1.2c0.3-0.4,0.7-0.5,1.2-0.4c0.2,0,0.2,0,0.3-0.1
				c1.3-2,2.6-4,3.9-6.1c0.1-0.1,0.1-0.2,0-0.3c-0.4-0.6-0.3-1.3,0.3-1.7c0.6-0.4,1.3-0.2,1.7,0.4c0.1,0.1,0.1,0.1,0.2,0.1
				c2.1-0.4,4.2-0.8,6.3-1.2c0.2,0,0.3-0.1,0.3-0.3c0.1-0.6,0.8-1.1,1.4-0.9c0.6,0.1,1.1,0.8,0.9,1.4c0,0.2,0,0.3,0.1,0.4
				c2.8,1.8,5.6,3.7,8.4,5.6c0.1,0.1,0.2,0.1,0.4,0c0.5-0.3,1.1-0.3,1.5,0.1c0.4,0.3,0.5,1,0.2,1.4c-0.3,0.5-0.8,0.7-1.4,0.6
				c-0.2,0-0.3,0-0.4,0.1c-1.2,1.6-2.5,3.3-3.7,4.9c-0.1,0.1-0.1,0.2,0,0.3c0.4,0.6,0.2,1.3-0.4,1.6s-1.3,0.2-1.7-0.4
				c-0.1-0.2-0.2-0.2-0.4-0.1c-1.1,0.2-2.2,0.3-3.2,0.5c-1,0.1-1.9,0.3-2.9,0.4c-1.1,0.2-2.2,0.3-3.2,0.5c-0.1,0-0.2,0-0.3,0
				c-0.2,0-0.3,0.1-0.3,0.3c-0.1,0.5-0.5,0.8-1,0.9c-0.9,0.1-1.6-0.7-1.3-1.5c0.1-0.2,0-0.3-0.1-0.4c-1.6-1.3-3.3-2.7-4.9-4
				c-0.2-0.1-0.3-0.2-0.5-0.1C1192.2,616.3,1192,616.3,1191.8,616.3z M1207.9,616.4c-0.1-0.1-0.1-0.1-0.2-0.2
				c-0.8-0.7-1.7-1.5-2.5-2.2c-0.1-0.1-0.2-0.1-0.4-0.1c-0.7,0.1-1.5,0.2-2.2,0.3c-0.1,0-0.2,0.1-0.3,0.2c-0.3,0.8-0.7,1.5-1,2.3
				c-0.1,0.2-0.1,0.2,0.1,0.3c1.2,0.2,2.3,0.5,3.5,0.7c0.1,0,0.3,0.1,0.5,0C1206.2,617.2,1207.1,616.8,1207.9,616.4z M1205.3,613.3
				c0.4-0.1,0.8-0.1,1.2-0.2c0.8-0.1,1.5-0.2,2.3-0.3c0.2,0,0.2-0.1,0.1-0.2c-0.3-0.9-0.7-1.7-1-2.6c0-0.1-0.1-0.2-0.2-0.2
				c-0.9-0.2-1.9-0.5-2.8-0.8c-0.1,0-0.2,0-0.3,0.1c-0.4,0.8-0.7,1.6-1.1,2.4c-0.1,0.1,0,0.2,0.1,0.3c0.5,0.4,0.9,0.8,1.4,1.2
				C1205.1,613.2,1205.2,613.3,1205.3,613.3z M1198.6,614.1c0.3,0,0.6-0.1,1-0.1c0.8-0.1,1.5-0.2,2.3-0.3c0.1,0,0.2-0.1,0.2-0.2
				c0.2-0.5,0.4-0.9,0.6-1.4c0.1-0.1,0-0.2-0.1-0.3c-0.8-0.7-1.6-1.4-2.4-2.1c-0.1-0.1-0.2-0.1-0.3,0c-0.6,0.4-1.2,0.9-1.8,1.3
				c-0.1,0.1-0.1,0.1-0.1,0.2c0.1,0.5,0.1,0.9,0.2,1.4c0.1,0.4,0.1,0.9,0.2,1.3C1198.4,614,1198.4,614.1,1198.6,614.1z
				 M1215.4,611.4L1215.4,611.4C1215.4,611.3,1215.3,611.3,1215.4,611.4c-2.8-1.9-5.4-3.6-8.1-5.4c-0.1-0.1-0.2-0.1-0.3,0
				c-0.1,0.1,0,0.2,0,0.3c0.4,1,0.8,2,1.1,3c0.1,0.2,0.2,0.3,0.4,0.3c1.8,0.5,3.5,0.9,5.3,1.4
				C1214.3,611.1,1214.8,611.3,1215.4,611.4z M1216.1,612.9L1216.1,612.9c-1.8,0.9-3.6,1.8-5.4,2.6c-0.1,0.1-0.1,0.2-0.1,0.2
				c0.2,0.6,0.5,1.1,0.6,1.7c0.1,0.4,0.3,0.6,0.7,0.6c0.2,0,0.2,0,0.3-0.1c0.4-0.5,0.8-1,1.1-1.5
				C1214.3,615.3,1215.2,614.1,1216.1,612.9z M1193,615.6C1193,615.7,1193,615.7,1193,615.6c0.1,0.2,0.3,0.3,0.5,0.5
				c1.6,1.3,3.1,2.6,4.7,3.9c0.2,0.1,0.3,0,0.4,0c0.1-0.1,0.1-0.1,0.1-0.3c0-0.1,0-0.1,0-0.2c-0.1-0.8-0.2-1.7-0.3-2.5
				c0-0.2-0.1-0.3-0.3-0.3c-1.1-0.2-2.3-0.5-3.4-0.7C1194,615.9,1193.5,615.8,1193,615.6z M1215.5,612L1215.5,612
				c-2.3-0.7-4.7-1.3-7.1-2c0.3,0.9,0.6,1.7,1,2.5c0.1,0.1,0.1,0.2,0.3,0.2c0.5-0.1,1-0.1,1.5-0.2c0.9-0.1,1.8-0.2,2.6-0.3
				C1214.4,612.2,1215,612.1,1215.5,612z M1192.9,614L1192.9,614C1193,614,1193,614,1192.9,614c1.6-1,3-2.1,4.5-3.1
				c0.1-0.1,0.1-0.1,0.1-0.2c-0.1-0.8-0.2-1.6-0.3-2.5c0-0.1,0-0.2-0.2-0.3c-0.2,0-0.2,0.1-0.3,0.2c-1.1,1.7-2.2,3.4-3.3,5.1
				C1193.3,613.4,1193.1,613.7,1192.9,614z M1210,619.2C1210,619.1,1209.9,619.1,1210,619.2c-1.5-0.4-2.9-0.7-4.3-1
				c-0.2,0-0.4,0-0.6,0.1c-1.4,0.7-2.7,1.3-4.1,2c-0.1,0-0.2,0.1-0.2,0.2C1203.9,620.1,1206.9,619.7,1210,619.2z M1193,614.7
				L1193,614.7c0.1,0.1,0.2,0.1,0.3,0.1c1.5-0.2,2.9-0.4,4.4-0.5c0.2,0,0.2-0.1,0.2-0.3c-0.1-0.7-0.2-1.5-0.3-2.2
				c0-0.1,0-0.2-0.1-0.2c-0.1-0.1-0.1,0-0.2,0.1c-1.1,0.8-2.2,1.5-3.2,2.3C1193.7,614.1,1193.4,614.4,1193,614.7z M1205.7,613.7
				C1205.7,613.8,1205.8,613.8,1205.7,613.7c0.9,0.8,1.8,1.5,2.6,2.3c0.1,0.1,0.2,0.1,0.3,0c0.4-0.2,0.7-0.4,1.1-0.5
				c0.2-0.1,0.2-0.1,0.1-0.3c-0.2-0.5-0.4-1.1-0.6-1.6c-0.1-0.2-0.1-0.2-0.3-0.2c-0.8,0.1-1.5,0.2-2.3,0.3
				C1206.3,613.7,1206.1,613.7,1205.7,613.7z M1204.5,618C1204.4,618,1204.4,618,1204.5,618c-1.2-0.2-2.3-0.4-3.3-0.7
				c-0.1,0-0.2,0-0.2,0.1c-0.4,0.8-0.7,1.6-1.1,2.4c-0.1,0.1,0,0.2,0.1,0.3s0.2,0.1,0.3,0c0.5-0.3,1.1-0.5,1.6-0.8
				C1202.7,618.9,1203.6,618.5,1204.5,618z M1202,608.3c-0.1,0-0.1,0-0.2,0.1c-0.3,0.2-0.5,0.4-0.8,0.6c-0.5,0.3-0.5,0.3,0,0.7
				l0.1,0.1c0.6,0.5,1.2,1,1.8,1.6c0.1,0.1,0.2,0.1,0.2,0c0.3-0.7,0.7-1.5,1-2.2c0.1-0.1,0-0.2-0.1-0.2c-0.3-0.1-0.7-0.2-1-0.3
				C1202.7,608.5,1202.4,608.4,1202,608.3z M1215.4,612.6c-1.9,0.2-3.8,0.5-5.8,0.7c0.2,0.6,0.4,1.1,0.6,1.7
				c0.1,0.2,0.1,0.2,0.3,0.1c1.6-0.8,3.1-1.5,4.7-2.3C1215.3,612.7,1215.4,612.7,1215.4,612.6z M1200.6,616.7
				c0.1,0.1,0.1-0.1,0.2-0.1c0.3-0.7,0.6-1.4,0.9-2.1c0.1-0.3,0.1-0.3-0.2-0.3c-0.9,0.1-1.9,0.2-2.8,0.3c-0.1,0-0.2,0-0.2,0.2
				c0.1,0.5,0.1,0.9,0.2,1.4c0,0.1,0,0.2,0.1,0.2C1199.4,616.4,1200,616.6,1200.6,616.7z M1205,605.5c-2.2,0.4-4.3,0.9-6.5,1.3
				c1.1,0.3,2.2,0.6,3.2,0.9c0.1,0,0.2,0,0.3-0.1c0.9-0.7,1.9-1.3,2.8-2C1204.9,605.6,1205,605.6,1205,605.5z M1207.6,609.3
				c-0.4-1-0.8-2-1.1-3c-0.1-0.2-0.2-0.1-0.3-0.1c-0.1,0-0.2,0-0.2,0.1c-0.3,0.7-0.6,1.4-1,2.1c0,0.1,0,0.2,0.1,0.2
				C1205.9,608.8,1206.7,609.1,1207.6,609.3z M1206.1,617.8C1206.2,617.8,1206.2,617.9,1206.1,617.8c1.5,0.4,2.9,0.7,4.2,0.9
				c0,0,0.1,0.1,0.1,0s0-0.1-0.1-0.1c-0.7-0.6-1.3-1.2-2-1.7c-0.1-0.1-0.2-0.1-0.3-0.1C1207.5,617.1,1206.9,617.5,1206.1,617.8z
				 M1193.6,615.2L1193.6,615.2c1.4,0.4,2.9,0.6,4.4,1c0.1,0,0.2,0,0.2-0.1c-0.1-0.4-0.1-0.8-0.2-1.2c0-0.1-0.1-0.1-0.2-0.1
				c-0.2,0-0.3,0-0.5,0.1c-0.9,0.1-1.8,0.2-2.7,0.3C1194.4,615.1,1194,615.2,1193.6,615.2z M1199.7,609.3c-0.1-0.1-0.2-0.2-0.2-0.2
				c-0.5-0.4-0.9-0.8-1.4-1.2c-0.1-0.1-0.2-0.1-0.3,0c-0.1,0.1-0.2,0.1-0.1,0.3c0,0.1,0,0.1,0,0.2c0.1,0.7,0.2,1.4,0.2,2.1
				c0,0.1,0.1,0.2,0.2,0.1C1198.7,610,1199.2,609.7,1199.7,609.3z M1202.5,607.9c0.6,0.2,1.2,0.3,1.8,0.5c0.1,0,0.1,0,0.2-0.1
				c0.3-0.7,0.7-1.5,1-2.2c0-0.1,0.1-0.1,0-0.2c-0.1,0-0.1,0-0.1,0C1204.4,606.6,1203.5,607.3,1202.5,607.9z M1198.8,617
				c0,0.2,0.1,0.5,0.1,0.7c0.1,0.7,0.2,1.3,0.2,2c0,0.1,0,0.1,0.1,0.2c0.1,0,0.1-0.1,0.1-0.1c0.1-0.1,0.1-0.3,0.2-0.4
				c0.3-0.6,0.6-1.3,0.9-1.9c0-0.1,0.1-0.2-0.1-0.2C1199.8,617.2,1199.4,617.1,1198.8,617C1198.8,616.8,1198.8,616.9,1198.8,617z
				 M1211,618.3C1211,618.2,1211,618.2,1211,618.3c-0.3-0.8-0.5-1.5-0.8-2.3c0-0.1-0.1-0.1-0.2-0.1c-0.3,0.2-0.6,0.3-0.9,0.5
				c-0.2,0.1-0.1,0.1,0,0.2c0.5,0.4,0.9,0.8,1.4,1.2C1210.6,618,1210.7,618.1,1211,618.3z M1198.4,607.4L1198.4,607.4
				c0.6,0.5,1.2,1.1,1.7,1.6c0,0,0.1,0.1,0.2,0c0.4-0.3,0.7-0.5,1.1-0.8C1200.3,607.9,1199.4,607.6,1198.4,607.4z M1196.6,606.8
				c0,0.4,0.3,0.7,0.7,0.7c0.4,0,0.7-0.3,0.7-0.7s-0.3-0.7-0.7-0.7S1196.6,606.4,1196.6,606.8z M1212.3,619.2c0-0.4-0.3-0.7-0.7-0.7
				c-0.4,0-0.7,0.3-0.7,0.7s0.3,0.7,0.7,0.7C1212.1,619.9,1212.3,619.6,1212.3,619.2z M1199.7,621c0-0.4-0.3-0.7-0.6-0.7
				c-0.4,0-0.7,0.3-0.7,0.7s0.3,0.7,0.7,0.7C1199.4,621.7,1199.7,621.4,1199.7,621z M1206.2,605.7c0.4,0,0.7-0.3,0.7-0.6
				c0-0.4-0.3-0.7-0.7-0.7c-0.4,0-0.7,0.3-0.7,0.7C1205.6,605.4,1205.9,605.7,1206.2,605.7z M1217.1,612.8c0.4,0,0.7-0.3,0.7-0.7
				s-0.3-0.7-0.7-0.7c-0.4,0-0.7,0.3-0.7,0.7S1216.7,612.8,1217.1,612.8z M1191.2,615.1c0,0.4,0.3,0.7,0.7,0.7
				c0.4,0,0.7-0.3,0.7-0.7s-0.3-0.7-0.7-0.7C1191.5,614.5,1191.2,614.7,1191.2,615.1z M1204.5,613.4c-0.4-0.4-0.8-0.7-1.1-1
				c0,0-0.1-0.1-0.2,0c-0.2,0.4-0.3,0.7-0.5,1.2C1203.3,613.5,1203.9,613.5,1204.5,613.4z"/>
		</g>
	</g>
	<g>
		<g>
			<path d="M1163.2,545.1c12.9-6.1,25.7-12.2,38.5-18.2c0,0.2,0,0.3,0,0.4c0,5.6,0,11.1,0,16.7c0,0.3-0.1,0.4-0.4,0.4s-0.7,0-1,0
				c-0.2,0-0.3,0.1-0.3,0.3c-0.1,0.9-0.1,0.9,0.8,0.9c0.8,0,0.8,0,0.8,0.8c0,5.5,0,11,0,16.5c0,0.2,0,0.3,0,0.6
				C1188.9,557.2,1176.1,551.2,1163.2,545.1z M1194.5,543.6c0-0.1,0-0.2,0-0.3c0-0.9,0-1.8,0-2.7c0-0.4-0.2-0.6-0.6-0.6
				c-0.3,0-0.5,0-0.8,0c-0.5,0-0.7,0.2-0.7,0.7c0,1.4,0,2.7,0,4.1c0,1.4,0,2.8,0,4.2c0,0.3,0.1,0.5,0.3,0.6c0.4,0.1,0.9,0.1,1.3,0
				c0.2,0,0.4-0.2,0.5-0.3c0.4,0.1,0.8,0.4,1.2,0.4c1.3,0.2,2.5-0.3,3-1.6c0.4-1.1,0.4-2.2,0.1-3.2c-0.4-1.4-1.2-1.9-2.6-1.7
				C1195.5,543.2,1195,543.4,1194.5,543.6z M1180,544.1L1180,544.1c0-1.2,0-2.3,0-3.5c0-0.5-0.2-0.7-0.7-0.7c-0.3,0-0.6,0-0.9,0
				c-0.5,0-0.6,0.2-0.6,0.6c0,2.8,0,5.6,0,8.4c0,0.5,0.2,0.6,0.6,0.6c1.6,0,3.1,0,4.7,0c0.6,0,0.8-0.2,0.8-0.8c0-0.1,0-0.1,0-0.2
				c0-0.5-0.1-0.7-0.7-0.7c-0.9,0-1.9,0-2.8,0c-0.3,0-0.4-0.1-0.4-0.4C1180,546.4,1180,545.3,1180,544.1z M1188.8,548.9
				c0.2,0.6,0.2,0.7,0.7,0.7c0.3,0,0.6,0,0.9,0c0.4,0,0.6-0.2,0.6-0.6c0-1.4,0-2.7,0-4.1c0-0.7-0.4-1.3-1-1.6
				c-1.4-0.6-2.7-0.5-4.1,0.1c-0.4,0.1-0.5,0.3-0.4,0.7c0,0.2,0,0.4,0.1,0.6c0,0.1,0.1,0.3,0.2,0.4c0.1-0.1,0.3-0.1,0.4-0.2
				c0.5-0.4,1-0.7,1.6-0.8c0.9-0.1,1.2,0.2,1.2,1.1c0,0.2-0.1,0.3-0.3,0.3c-0.8,0.1-1.6,0.2-2.3,0.4c-1,0.3-1.5,1.1-1.3,2
				c0.3,1.5,1.6,2.2,3,1.5C1188.2,549.3,1188.5,549.1,1188.8,548.9z"/>
			<path d="M1208.3,550c-1.2,0-2.2-0.3-3.2-0.8c-0.2-0.1-0.3-0.2-0.2-0.5c0.1-0.4,0.1-0.9,0.2-1.3c0-0.1,0.1-0.3,0.1-0.3
				c0.1,0,0.2,0.1,0.3,0.1c0.8,0.8,1.8,1.1,3,1.1c0.7,0,1.1-0.3,1.2-1c0.1-0.6-0.3-1.2-0.9-1.4c-0.5-0.1-1.1-0.2-1.6-0.4
				c-2.1-0.6-2.8-2.8-1.8-4.4c0.4-0.7,1-1,1.8-1.2c1.3-0.2,2.5-0.1,3.7,0.5c0.2,0.1,0.3,0.2,0.2,0.5c-0.1,0.4-0.1,0.8-0.2,1.2
				c0,0.1-0.1,0.2-0.1,0.4c-0.1-0.1-0.2-0.1-0.3-0.2c-0.7-0.8-1.6-1-2.7-0.8c-0.6,0.1-0.9,0.4-0.9,0.9s0.3,0.9,0.9,1.1
				c0.6,0.2,1.2,0.3,1.8,0.5c2,0.7,2.6,3,1.6,4.7c-0.5,0.9-1.3,1.2-2.3,1.3C1208.7,550,1208.5,550,1208.3,550z"/>
			<path d="M1237.7,545.2c0-1.1,0.1-2,0.5-2.8c0.6-1.3,1.6-2,3-2.2s2.7-0.2,4,0.2c0.3,0.1,0.4,0.2,0.3,0.6c-0.1,0.4-0.1,0.8-0.2,1.2
				s-0.1,0.4-0.5,0.1c-0.9-0.8-1.9-0.9-2.9-0.7s-1.6,0.8-1.8,1.8c-0.2,1-0.3,2,0,2.9c0.3,1.2,1.1,1.9,2.4,2c1,0.1,1.9-0.1,2.8-0.8
				c0.3-0.2,0.4-0.1,0.4,0.2s0.1,0.7,0.1,1c0,0.2,0,0.3-0.2,0.4c-0.7,0.4-1.5,0.7-2.3,0.7c-1.1,0-2.2,0-3.3-0.5
				c-1.2-0.6-1.9-1.6-2.1-2.9C1237.7,546,1237.7,545.5,1237.7,545.2z"/>
			<path d="M1228,544.9c0-0.9,0.1-1.7,0.5-2.5c0.6-1.3,1.6-2,3-2.2s2.7-0.2,4,0.2c0.3,0.1,0.4,0.2,0.3,0.5c-0.1,0.4-0.1,0.8-0.2,1.2
				s-0.2,0.5-0.5,0.2c-0.9-0.8-1.9-0.9-3-0.6c-0.8,0.2-1.4,0.7-1.6,1.5c-0.3,1.1-0.3,2.2,0,3.3s1.1,1.7,2.3,1.7c1,0.1,2-0.1,2.8-0.8
				c0.1-0.1,0.2-0.1,0.3-0.1c0,0.1,0.1,0.2,0.1,0.3c0,0.3,0.1,0.7,0.1,1c0,0.2,0,0.3-0.2,0.5c-0.7,0.4-1.4,0.6-2.2,0.7
				c-1,0-2,0-3-0.4c-1.4-0.6-2.2-1.6-2.4-3.1C1228,545.9,1228,545.4,1228,544.9z"/>
			<path d="M1217.5,540.3c1.3,0,2.5,0,3.8,0c0.6,0,0.7,0.1,0.7,0.7c0,0.8-0.1,0.9-0.9,0.9c-0.7,0-1.3,0-2,0c-0.5,0-0.5,0-0.5,0.5
				c0,2.2,0,4.3,0,6.5c0,0.9,0,0.9-0.9,0.9c-0.2,0-0.4,0-0.7,0c-0.4,0-0.6-0.2-0.6-0.6c0-1.1,0-2.1,0-3.2c0-1.3,0-2.5,0-3.8
				c0-0.2-0.1-0.3-0.3-0.3c-0.8,0-1.6,0-2.4,0c-0.5,0-0.6-0.1-0.6-0.6c0-0.2,0-0.3,0-0.5c0-0.4,0.2-0.5,0.6-0.5
				C1214.9,540.3,1216.2,540.3,1217.5,540.3L1217.5,540.3z"/>
			<path d="M1223.8,545c0-1.4,0-2.8,0-4.2c0-0.4,0.2-0.6,0.6-0.6c0.3,0,0.6,0,1,0s0.6,0.2,0.6,0.6c0,2.8,0,5.6,0,8.4
				c0,0.4-0.2,0.6-0.6,0.6c-0.3,0-0.7,0-1,0c-0.4,0-0.6-0.2-0.6-0.6C1223.8,547.7,1223.8,546.4,1223.8,545z"/>
			<path d="M1202.7,544.3L1202.7,544.3c0.9,0,0.8-0.2,0.8,0.8c0,0.1-0.1,0.2-0.2,0.2c-0.4,0-0.8,0-1.1,0c-0.1,0-0.2-0.1-0.2-0.2l0,0
				C1201.8,544.2,1201.7,544.4,1202.7,544.3z"/>
			<path d="M1194.5,546.3c0-0.5,0-1,0-1.4c0-0.1,0.1-0.3,0.2-0.4c0.4-0.2,0.7-0.3,1.2-0.2c0.4,0.1,0.7,0.3,0.7,0.8
				c0,0.8,0.1,1.6,0,2.4c-0.1,1.1-1.4,1.2-2,0.7c-0.1-0.1-0.1-0.2-0.1-0.4C1194.5,547.3,1194.5,546.8,1194.5,546.3z"/>
			<path d="M1188.8,546.4c0,0.4,0,0.8-0.1,1.1c-0.1,0.2-0.2,0.5-0.4,0.7c-0.4,0.4-1,0.4-1.2,0c-0.3-0.4-0.3-1.1,0.2-1.4
				C1187.7,546.5,1188.2,546.4,1188.8,546.4z"/>
		</g>
	</g>
	<g>
		<g>
			<path d="M1219.3,697.7c0-0.1,0-0.1,0-0.2c0-3.1,0-6.3,0-9.4c0-0.2,0-0.2-0.2-0.2c-3.1,0-6.3,0-9.4,0c-0.2,0-0.2,0-0.2,0.2
				c0,3.2,0,6.3,0,9.5c0,0.2,0,0.2-0.2,0.2c-6.5,0-12.9,0-19.4,0c-0.2,0-0.2,0-0.2-0.2c0-6.4,0-12.8,0-19.2c0-0.1,0-0.1,0-0.2
				c-6.6,6.6-13.1,13.1-19.7,19.7c-0.1-0.1,0-0.2,0-0.2c0-6.5,0-12.9,0-19.4c0-0.2,0-0.2,0.2-0.2c6.5,0,12.9,0,19.4,0
				c0.1,0,0.2,0,0.3,0.1c3.2,3.2,6.4,6.4,9.6,9.6c0.1,0.1,0.2,0.1,0.3,0c3.2-3.2,6.4-6.4,9.6-9.6c0,0,0.1-0.1,0.2-0.1
				c0,3.3,0,6.5,0,9.8c0.1,0,0.1-0.1,0.2-0.1c3.2-3.2,6.3-6.3,9.5-9.5c0.1-0.1,0.2-0.2,0.4-0.2c6.4,0,12.9,0,19.3,0
				c0.1,0,0.1,0,0.2,0C1232.5,684.6,1225.9,691.1,1219.3,697.7z"/>
			<path d="M1176.2,702.8c-0.3,0.9-0.6,1.7-0.9,2.6c-0.1,0.3-0.2,0.5-0.3,0.8c0,0.1-0.1,0.1-0.2,0.1c-0.2,0-0.4,0-0.6,0
				c-0.1,0-0.2,0-0.2-0.2c-0.4-1-0.7-2.1-1.1-3.1c0,0,0-0.1-0.1-0.1c0,0.2,0,0.3,0,0.5c0,0.9,0,1.9,0,2.8c0,0.1,0,0.2-0.2,0.2
				s-0.5,0-0.7,0c-0.1,0-0.1,0-0.1-0.1c0-1.6,0-3.2,0-4.7c0-0.1,0-0.1,0.1-0.1c0.4,0,0.8,0,1.2,0c0.1,0,0.2,0,0.2,0.2
				c0.3,1,0.7,2.1,1.1,3.1c0,0,0,0.1,0.1,0.1c0.2-0.5,0.3-1,0.5-1.5c0.2-0.6,0.4-1.1,0.5-1.7c0-0.1,0.1-0.1,0.2-0.1
				c0.4,0,0.8,0,1.3,0c0.1,0,0.2,0,0.2,0.2c0,1.6,0,3.1,0,4.7c0,0.1,0,0.2-0.2,0.2s-0.5,0-0.7,0c-0.1,0-0.2,0-0.2-0.2c0-1,0-2,0-3.1
				C1176.2,703,1176.2,702.9,1176.2,702.8L1176.2,702.8z"/>
			<path d="M1188.7,706.3c-0.4,0-0.7,0-1,0c-0.1,0-0.1-0.1-0.1-0.1c-0.1-0.3-0.2-0.6-0.3-0.9c0-0.1-0.1-0.1-0.2-0.1
				c-0.5,0-1.1,0-1.6,0c-0.1,0-0.1,0-0.2,0.1c-0.1,0.3-0.2,0.6-0.3,0.9c0,0.1,0,0.1-0.1,0.1c-0.3,0-0.7,0-1,0c0-0.2,0.1-0.4,0.2-0.6
				c0.5-1.4,1.1-2.8,1.6-4.3c0-0.1,0.1-0.2,0.2-0.2c0.3,0,0.6,0,0.8,0c0.1,0,0.1,0,0.1,0.1C1187.5,703,1188.1,704.6,1188.7,706.3
				C1188.7,706.2,1188.7,706.2,1188.7,706.3z M1186.3,702.5c-0.2,0.6-0.4,1.2-0.6,1.8c0.4,0,0.8,0,1.3,0
				C1186.7,703.7,1186.5,703.1,1186.3,702.5z"/>
			<path d="M1208,703c0-0.1,0-0.2,0-0.2c0-0.1,0-0.2,0.2-0.2s0.4,0,0.6,0c0.1,0,0.2,0,0.2,0.2c0,1.4,0,2.7,0,4.1
				c0,0.2,0.1,0.5,0,0.6s-0.4,0-0.6,0c-0.4,0-0.4,0-0.4-0.4s0-0.8,0-1.3c-0.3,0.4-0.6,0.5-1,0.5c-0.7,0-1.2-0.3-1.5-0.9
				c-0.3-0.8-0.3-1.6,0.2-2.3c0.4-0.6,1.3-0.7,1.9-0.4c0.1,0,0.1,0.1,0.2,0.1C1207.9,702.9,1208,703,1208,703z M1206.3,704.5
				c0,0.2,0,0.4,0.1,0.7s0.4,0.5,0.7,0.5c0.3,0,0.6-0.1,0.7-0.4c0.3-0.5,0.3-1.1,0-1.6s-1-0.5-1.3,0
				C1206.4,703.9,1206.3,704.2,1206.3,704.5z"/>
			<path d="M1196.5,706.3c-0.3,0-0.6,0-0.9,0c-0.1,0-0.1,0-0.1-0.1s0-0.1,0-0.2c-0.5,0.4-1.1,0.5-1.7,0.3c-0.5-0.1-0.7-0.5-0.7-1
				s0.2-0.8,0.7-1c0.4-0.1,0.8-0.2,1.2-0.2c0.1,0,0.2,0,0.2-0.1c0.1,0,0.3-0.1,0.3-0.3s0-0.4-0.2-0.4c-0.3-0.1-0.6-0.1-0.8,0
				c-0.1,0.1-0.2,0.2-0.2,0.3s-0.1,0.1-0.2,0.1c-0.2,0-0.5,0-0.8,0c-0.1,0-0.1,0-0.1-0.1c0.1-0.4,0.3-0.7,0.7-0.9
				c0.7-0.3,1.3-0.3,2,0c0.4,0.1,0.6,0.4,0.6,0.9c0,0.6,0,1.2,0,1.8C1196.4,705.7,1196.4,706,1196.5,706.3z M1195.4,704.5
				c-0.2,0.1-0.4,0.1-0.5,0.1c-0.2,0-0.4,0-0.6,0.1s-0.3,0.3-0.3,0.5s0.1,0.3,0.4,0.4c0.1,0,0.2,0,0.4,0c0.4,0,0.6-0.3,0.7-0.7
				C1195.4,704.9,1195.4,704.7,1195.4,704.5z"/>
			<path d="M1217.2,705.1c-0.2,0.7-0.7,1.1-1.4,1.2c-0.6,0.1-1.2,0-1.7-0.5c-0.8-0.8-0.7-2.8,0.9-3.2c1.1-0.3,2,0.4,2.2,1.5
				c0,0.2,0,0.3,0,0.5c0,0.1,0,0.2-0.2,0.1c-0.8,0-1.5,0-2.3,0c-0.1,0-0.2,0-0.1,0.2c0.1,0.4,0.3,0.6,0.6,0.7c0.4,0.1,0.8,0,1-0.3
				c0-0.1,0.1-0.1,0.2-0.1C1216.7,705.1,1217,705.1,1217.2,705.1z M1215.5,704.1c0.2,0,0.4,0,0.7,0c0.1,0,0.1,0,0.1-0.1
				c-0.1-0.4-0.3-0.6-0.7-0.6c-0.5,0-0.8,0.2-0.8,0.6c0,0.1,0,0.1,0.1,0.1C1215,704,1215.3,704.1,1215.5,704.1z"/>
			<path d="M1179.8,701.3c0.6,0,1.3,0,1.9,0c0.1,0,0.2,0,0.2,0.2s0,0.4,0,0.6c0,0.1,0,0.2-0.2,0.2c-0.4,0-0.8,0-1.2,0
				c-0.1,0-0.1,0-0.1,0.2c0,1.2,0,2.5,0,3.7c0,0.2,0,0.2-0.2,0.2s-0.5,0-0.7,0c-0.1,0-0.2,0-0.2-0.2c0-1.2,0-2.5,0-3.7
				c0-0.2,0-0.2-0.2-0.2c-0.4,0-0.8,0-1.1,0c-0.1,0-0.2,0-0.2-0.1c0-0.2,0-0.4,0-0.7c0-0.1,0-0.1,0.2-0.1
				C1178.5,701.3,1179.2,701.3,1179.8,701.3z"/>
			<path d="M1198.1,703.1c0.1-0.1,0.2-0.2,0.3-0.3c0.4-0.4,1.2-0.4,1.7-0.1c0.3,0.2,0.4,0.5,0.4,0.8c0,0.2,0,0.4,0,0.6
				c0,0.7,0,1.4,0,2c0,0.1,0,0.2-0.2,0.2s-0.4,0-0.7,0c-0.1,0-0.2,0-0.2-0.2c0-0.6,0-1.2,0-1.8c0-0.2,0-0.3-0.1-0.5
				c-0.1-0.3-0.2-0.4-0.5-0.5c-0.4,0-0.6,0.1-0.8,0.4c-0.1,0.2-0.1,0.4-0.1,0.6c0,0.6,0,1.2,0,1.8c0,0.1,0,0.2-0.2,0.2s-0.5,0-0.7,0
				c-0.1,0-0.1,0-0.1-0.1c0-1.1,0-2.3,0-3.4c0-0.1,0-0.1,0.1-0.1c0.2,0,0.5,0,0.7,0c0.1,0,0.1,0,0.1,0.1
				C1198.1,702.9,1198.1,703,1198.1,703.1z"/>
			<path d="M1212.2,705.8c-0.4,0.6-1,0.7-1.6,0.5c-0.5-0.1-0.7-0.5-0.8-1c-0.1-0.8,0-1.7,0-2.5c0-0.1,0-0.1,0.1-0.1
				c0.3,0,0.5,0,0.8,0c0.1,0,0.1,0,0.1,0.1c0,0.6,0,1.3,0,1.9c0,0.1,0,0.3,0,0.4c0.1,0.3,0.2,0.5,0.5,0.5s0.6-0.1,0.7-0.4
				c0.1-0.2,0.1-0.4,0.1-0.6c0-0.6,0-1.2,0-1.8c0-0.2,0-0.2,0.2-0.2s0.5,0,0.7,0c0.1,0,0.1,0,0.1,0.1c0,1.1,0,2.3,0,3.4
				c0,0.1,0,0.1-0.1,0.1c-0.2,0-0.5,0-0.7,0c-0.1,0-0.1,0-0.1-0.1C1212.2,706,1212.2,705.9,1212.2,705.8z"/>
			<path d="M1187.6,715.7c-0.3,0.8-0.5,1.6-0.8,2.4c0,0.1-0.1,0.2-0.1,0.3c-0.1,0.4-0.2,0.4-0.6,0.4c-0.1,0-0.1-0.1-0.1-0.1
				c-0.3-0.9-0.6-1.8-0.9-2.7c0-0.1-0.1-0.2-0.1-0.3c0,0.4,0,0.7,0,1c0,0.7,0,1.3,0,2c0,0.2,0,0.2-0.2,0.2c-0.3,0-0.3,0-0.3-0.3
				c0-1.1,0-2.2,0-3.3c0-0.2,0-0.2,0.2-0.2c0.1,0,0.2,0,0.4,0c0.2,0,0.2,0.1,0.3,0.2c0.3,1,0.6,1.9,1,2.8c0,0,0,0.1,0.1,0.2
				c0.1-0.3,0.2-0.7,0.3-1c0.2-0.7,0.5-1.4,0.7-2.1c0-0.1,0.1-0.2,0.2-0.2c0.2,0,0.5-0.1,0.6,0s0,0.4,0,0.5c0,1,0,2.1,0,3.1
				c0,0.1,0,0.2-0.2,0.2c-0.3,0-0.3,0-0.3-0.3c0-0.8,0-1.7,0-2.5C1187.6,715.9,1187.6,715.8,1187.6,715.7L1187.6,715.7z"/>
			<path d="M1172.2,710.5c0.4,0.1,0.6,0.3,0.7,0.7c0.1,0.7-0.3,1.3-1,1.3c-0.6,0.1-1.2,0-1.8,0c-0.1,0-0.1-0.1-0.1-0.2
				c0-0.8,0-1.6,0-2.5c0-0.4,0-0.7,0-1.1c0-0.1,0-0.1,0.1-0.1c0.6,0,1.2,0,1.8,0c0.7,0,1.1,0.6,0.9,1.3
				C1172.6,710.2,1172.4,710.3,1172.2,710.5z M1171.1,710.7L1171.1,710.7c-0.2,0-0.4,0-0.6,0c-0.1,0-0.1,0-0.1,0.1
				c0,0.4,0,0.8,0,1.2c0,0.1,0,0.1,0.1,0.1c0.4,0,0.8,0,1.2,0c0.4,0,0.7-0.3,0.7-0.7s-0.3-0.6-0.7-0.6
				C1171.5,710.7,1171.3,710.7,1171.1,710.7z M1171.1,709.1c-0.2,0-0.4,0-0.5,0s-0.1,0-0.1,0.1c0,0.3,0,0.6,0,0.9
				c0,0.2,0,0.2,0.2,0.2s0.3,0,0.5,0s0.5,0,0.7-0.1s0.4-0.3,0.4-0.6s-0.2-0.4-0.4-0.5C1171.5,709.1,1171.3,709.1,1171.1,709.1z"/>
			<path d="M1189.1,704.4c0-0.3,0-0.7,0-1c0-0.1,0-0.2-0.1-0.1c-0.1,0-0.3,0.1-0.4,0s0-0.3,0-0.4c0-0.2,0-0.2,0.2-0.2
				c0.4,0,0.4,0,0.4-0.4c0-0.2,0-0.4,0-0.6c0-0.1,0-0.1,0.1-0.1c0.3,0,0.5,0,0.8,0c0.1,0,0.1,0,0.1,0.1c0,0.3,0,0.6,0,0.8
				c0,0.1,0,0.1,0.1,0.1h0.1c0.2,0,0.4-0.1,0.4,0c0.1,0.1,0,0.4,0,0.6c0,0.1,0,0.1-0.1,0.1c-0.2,0-0.3,0-0.5,0c-0.1,0-0.1,0-0.1,0.1
				c0,0.6,0,1.2,0,1.8c0,0.2,0.1,0.3,0.3,0.3h0.1c0.3,0,0.3,0,0.3,0.3c0,0.1,0,0.1,0,0.2c0,0.3,0,0.3-0.3,0.3c-0.2,0-0.5,0-0.7,0
				c-0.5,0-0.7-0.3-0.7-0.8C1189.1,705.2,1189.1,704.8,1189.1,704.4L1189.1,704.4z"/>
			<path d="M1201.5,704.4c0-0.3,0-0.7,0-1c0-0.1,0-0.1-0.1-0.1s-0.3,0-0.4,0c-0.1-0.1,0-0.3,0-0.4c0-0.2,0-0.2,0.2-0.2
				c0.4,0,0.4,0,0.4-0.4c0-0.2,0-0.4,0-0.6c0-0.1,0-0.2,0.1-0.1c0.2,0,0.5,0,0.7,0c0.1,0,0.1,0,0.1,0.1c0,0.3,0,0.5,0,0.8
				c0,0.1,0,0.2,0.1,0.1c0.2,0,0.3,0,0.5,0c0.1,0,0.1,0,0.1,0.1c0,0.2,0.1,0.4,0,0.5s-0.3,0-0.5,0s-0.2,0-0.2,0.2c0,0.5,0,1,0,1.6
				c0,0.3,0.1,0.4,0.4,0.4s0.3,0,0.3,0.3v0.1c0,0.3,0,0.3-0.4,0.4c-0.3,0-0.5,0-0.8-0.1s-0.5-0.3-0.5-0.6v-0.1
				C1201.5,705.1,1201.5,704.8,1201.5,704.4L1201.5,704.4z"/>
			<path d="M1171,703.8c0,0.8,0,1.5,0,2.3c0,0.2-0.1,0.2-0.2,0.2c-0.3,0-0.5,0-0.8,0c-0.1,0-0.1,0-0.1-0.1c0-1.6,0-3.2,0-4.8
				c0-0.1,0-0.1,0.1-0.1c0.3,0,0.5,0,0.8,0c0.1,0,0.2,0.1,0.2,0.2C1171,702.2,1171,703,1171,703.8z"/>
			<path d="M1169.9,716.8c0-0.6,0-1.2,0-1.8c0-0.1,0-0.2,0.2-0.2c0.8,0,1.6,0,2.5,0c0.1,0,0.2,0,0.2,0.2c0,0.3,0,0.3-0.3,0.3
				c-0.6,0-1.2,0-1.8,0c-0.1,0-0.2,0-0.2,0.1c0,0.3,0,0.6,0,0.9c0,0.1,0,0.1,0.2,0.1c0.6,0,1.2,0,1.8,0c0.2,0,0.2,0,0.2,0.2v0.1
				c0,0.1,0,0.2-0.1,0.2c-0.6,0-1.2,0-1.8,0c-0.1,0-0.2,0-0.2,0.2c0,0.3,0,0.6,0,1c0,0.1,0,0.2,0.2,0.2c0.7,0,1.3,0,2,0
				c0.1,0,0.2,0,0.2,0.2c0,0.3,0,0.3-0.3,0.3c-0.8,0-1.6,0-2.4,0c-0.2,0-0.2,0-0.2-0.2C1169.9,718,1169.9,717.4,1169.9,716.8z"/>
			<path d="M1215.2,716.3c0.5-0.6,1.3-0.5,1.6,0c0.3-0.4,0.6-0.5,1.1-0.4c0.4,0.1,0.6,0.3,0.6,0.7c0.1,0.5,0,1,0,1.5
				c0,0.1,0,0.3,0,0.4c0,0.3,0,0.3-0.3,0.3c-0.2,0-0.2,0-0.2-0.2c0-0.5,0-1.1,0-1.6c0-0.3-0.1-0.5-0.3-0.5c-0.3-0.1-0.6,0.1-0.7,0.3
				c-0.1,0.1-0.1,0.3-0.1,0.4c0,0.5,0,1,0,1.5c0,0.1,0,0.1-0.1,0.1c-0.4,0-0.4,0-0.4-0.3c0-0.5,0-1.1,0-1.6c0-0.4-0.3-0.5-0.6-0.4
				c-0.3,0.1-0.5,0.4-0.5,0.8c0,0.5,0,1,0,1.5c0,0.1,0,0.2-0.2,0.2c-0.3,0-0.3,0-0.3-0.3c0-0.8,0-1.6,0-2.3c0-0.1,0-0.2,0.2-0.2
				C1215.2,716,1215.2,716,1215.2,716.3z"/>
			<path d="M1192.4,703.8c0,0.8,0,1.5,0,2.3c0,0.1,0,0.2-0.2,0.2s-0.4,0-0.7,0c-0.2,0-0.2,0-0.2-0.2c0-1.4,0-2.9,0-4.3
				c0-0.2-0.1-0.4,0-0.5s0.3,0,0.5,0c0.1,0,0.2,0,0.3,0c0.1,0,0.2,0,0.2,0.2C1192.4,702.2,1192.4,703,1192.4,703.8z"/>
			<path d="M1184.1,710c0-0.1,0-0.2,0-0.3c0.1,0,0.2,0,0.3,0c0.1,0,0.1,0.1,0.1,0.1c0,0.9,0,1.8,0,2.7c0,0.4-0.2,0.8-0.6,1
				c-0.5,0.2-1,0.2-1.4-0.1c-0.2-0.1-0.3-0.3-0.3-0.5c0-0.1,0-0.1,0.1-0.1h0.1c0.1,0,0.3,0,0.3,0.2c0,0.1,0.1,0.1,0.1,0.2
				c0.4,0.3,1.1,0,1.2-0.5c0-0.2,0-0.3,0-0.5c-0.5,0.4-1.1,0.5-1.6,0.1c-0.2-0.2-0.3-0.4-0.3-0.6c-0.1-0.4-0.1-0.8,0.1-1.2
				C1182.5,709.6,1183.6,709.4,1184.1,710z M1182.6,711.2c0,0.1,0,0.2,0,0.3c0,0.4,0.3,0.7,0.6,0.7c0.4,0,0.7-0.2,0.8-0.6
				c0.1-0.3,0.1-0.7,0-1s-0.4-0.5-0.7-0.5c-0.3,0-0.6,0.2-0.7,0.5C1182.6,710.8,1182.6,711,1182.6,711.2z"/>
			<path d="M1193.7,710.6c0-0.6,0-1.2,0-1.8c0-0.1,0-0.1,0.1-0.1c0.6,0,1.1,0,1.7,0s1,0.4,1,1c0,0.7-0.4,1.1-1,1.2
				c-0.4,0-0.8,0-1.2,0c-0.1,0-0.1,0-0.1,0.1c0,0.4,0,0.9,0,1.3c0,0.1,0,0.2-0.1,0.2c-0.4,0-0.4,0-0.4-0.4
				C1193.7,711.6,1193.7,711.1,1193.7,710.6z M1194.9,709.1c-0.2,0-0.4,0-0.5,0s-0.1,0-0.1,0.1c0,0.4,0,0.7,0,1.1
				c0,0.1,0,0.1,0.1,0.1c0.3,0,0.6,0,0.9,0c0.1,0,0.3,0,0.4-0.1c0.3-0.1,0.4-0.3,0.3-0.7c0-0.3-0.2-0.5-0.5-0.5
				C1195.3,709.1,1195.1,709.1,1194.9,709.1z"/>
			<path d="M1208.1,712.2c-0.3,0.4-0.7,0.5-1.2,0.4c-0.5-0.2-0.7-0.5-0.8-1c-0.1-0.4,0-0.8,0.2-1.2c0.3-0.7,1.4-0.8,1.8-0.3
				c0.1,0,0-0.1,0-0.1c0-0.4,0-0.7,0-1.1c0-0.1,0-0.1,0.1-0.1c0.3,0,0.3,0,0.3,0.3c0,1.1,0,2.2,0,3.3c0,0.1,0,0.2-0.2,0.2
				c-0.1,0-0.3,0-0.3-0.2C1208.1,712.3,1208.1,712.2,1208.1,712.2z M1208.1,711.1c0-0.1,0-0.2,0-0.4c-0.1-0.4-0.3-0.6-0.6-0.6
				c-0.3,0-0.6,0.1-0.7,0.4c-0.2,0.4-0.2,0.9,0,1.3c0.2,0.5,0.9,0.5,1.2,0.1C1208.1,711.7,1208.1,711.4,1208.1,711.1z"/>
			<path d="M1216.5,712.2c-0.4,0.3-0.8,0.5-1.2,0.4c-0.3-0.1-0.6-0.4-0.6-0.7c0-0.4,0.1-0.7,0.5-0.9c0.3-0.1,0.6-0.1,0.8-0.2
				c0.1,0,0.2,0,0.3,0c0.1,0,0.3-0.1,0.3-0.2c0-0.2,0-0.3-0.1-0.4c-0.2-0.2-0.7-0.2-0.9,0c-0.1,0.1-0.2,0.2-0.2,0.3
				s-0.1,0.1-0.2,0.1c-0.3,0-0.4,0-0.3-0.4c0.1-0.3,0.3-0.4,0.5-0.5c0.4-0.1,0.8-0.1,1.1,0c0.3,0.1,0.5,0.3,0.5,0.7c0,0.5,0,1,0,1.5
				c0,0.2,0,0.3,0.2,0.2c0.1,0,0.1,0,0.1,0.1s0.1,0.2-0.1,0.3s-0.5,0-0.6-0.2C1216.6,712.3,1216.6,712.3,1216.5,712.2z
				 M1216.5,711.1c-0.2,0.1-0.5,0.1-0.7,0.1c-0.1,0-0.3,0-0.4,0.1c-0.2,0.1-0.3,0.3-0.3,0.4c0,0.2,0.1,0.3,0.3,0.4
				c0.5,0.1,1-0.2,1-0.8C1216.5,711.3,1216.5,711.2,1216.5,711.1z"/>
			<path d="M1198.5,712.2c-0.3,0.3-0.6,0.4-1,0.4c-0.5,0-0.9-0.3-0.9-0.8c0-0.4,0.3-0.8,0.8-0.9c0.3,0,0.5-0.1,0.8-0.1
				c0.1,0,0.3,0,0.3-0.2s0-0.3-0.1-0.4c-0.2-0.2-0.8-0.2-1,0c-0.1,0.1-0.1,0.1-0.1,0.2c0,0.1-0.1,0.2-0.2,0.2c-0.3,0-0.3,0-0.2-0.3
				c0.1-0.4,0.5-0.5,0.8-0.6c0.3,0,0.6,0,0.9,0.1s0.5,0.3,0.5,0.7c0,0.5,0,1,0,1.5c0,0.2,0,0.3,0.2,0.2c0.1,0,0.1,0,0.1,0.1
				s0.1,0.2-0.1,0.3c-0.3,0.1-0.5,0-0.6-0.2C1198.6,712.3,1198.5,712.2,1198.5,712.2z M1198.5,711.1c-0.2,0.1-0.4,0.1-0.6,0.1
				s-0.3,0-0.5,0.1s-0.2,0.2-0.2,0.4s0.1,0.3,0.2,0.4c0.4,0.2,1-0.1,1.1-0.5C1198.5,711.5,1198.5,711.3,1198.5,711.1z"/>
			<path d="M1181.1,712.2c-0.4,0.3-0.8,0.5-1.2,0.4c-0.4-0.1-0.6-0.4-0.6-0.7c0-0.4,0.1-0.7,0.5-0.9c0.3-0.1,0.5-0.1,0.8-0.1
				c0.1,0,0.2,0,0.3,0c0.2,0,0.3-0.1,0.3-0.2c0-0.2,0-0.4-0.2-0.4c-0.3-0.1-0.6-0.2-0.8,0c-0.1,0.1-0.2,0.2-0.2,0.3
				c0,0.2-0.1,0.2-0.2,0.2c-0.3,0-0.3,0-0.2-0.3c0.1-0.4,0.4-0.5,0.7-0.6c0.3-0.1,0.7-0.1,1,0c0.4,0.1,0.5,0.3,0.5,0.7
				c0,0.5,0,1,0,1.5c0,0.2,0,0.3,0.2,0.2c0.1,0,0.1,0,0.1,0.1s0.1,0.2-0.1,0.3c-0.3,0.1-0.5,0-0.6-0.2
				C1181.2,712.3,1181.2,712.3,1181.1,712.2z M1181.1,711.4L1181.1,711.4c0-0.2,0-0.3-0.2-0.2c-0.1,0-0.2,0.1-0.3,0.1
				c-0.2,0-0.4,0-0.6,0.1s-0.3,0.2-0.3,0.4s0.1,0.3,0.3,0.4C1180.6,712.3,1181.1,711.9,1181.1,711.4z"/>
			<path d="M1190.4,711.6c-0.1,0.6-0.6,1-1.3,1c-0.7,0-1.1-0.5-1.2-1.2c-0.1-0.6,0-1.1,0.5-1.5c0.4-0.3,0.8-0.3,1.3-0.1
				c0.4,0.2,0.6,0.5,0.7,1c0,0.1,0,0.2,0,0.4c0,0.1,0,0.2-0.2,0.2c-0.5,0-1.1,0-1.6,0c-0.2,0-0.2,0-0.2,0.2c0.1,0.6,0.7,0.9,1.2,0.6
				c0.1-0.1,0.2-0.2,0.3-0.3c0-0.1,0.1-0.1,0.2-0.1S1190.3,711.6,1190.4,711.6z M1189.2,710.9c0.2,0,0.4,0,0.7,0
				c0.1,0,0.1,0,0.1-0.1c0-0.4-0.3-0.7-0.7-0.7c-0.4,0-0.8,0.3-0.8,0.7c0,0.1,0,0.1,0.1,0.1C1188.8,710.9,1189,710.9,1189.2,710.9z"
				/>
			<path d="M1210.6,711.3c-0.3,0-0.6,0-0.9,0c-0.1,0-0.1,0-0.1,0.1c0.1,0.6,0.4,0.9,1,0.8c0.2,0,0.4-0.2,0.4-0.4
				c0.1-0.2,0.2-0.2,0.3-0.2c0.2,0,0.2,0,0.2,0.2c-0.2,0.6-0.7,0.8-1.4,0.8c-0.5-0.1-0.9-0.5-1-1s-0.1-1,0.2-1.4
				c0.3-0.4,0.8-0.6,1.4-0.5c0.5,0.1,0.8,0.5,0.9,1.1c0,0.1,0,0.1,0,0.2c0,0.3,0,0.3-0.3,0.3
				C1211.1,711.3,1210.8,711.3,1210.6,711.3z M1209.6,710.9c0.5,0,1,0,1.4,0c0,0,0.1,0,0.1-0.1c0-0.3-0.3-0.7-0.6-0.7
				c-0.4-0.1-0.7,0.1-0.9,0.4C1209.6,710.6,1209.6,710.7,1209.6,710.9z"/>
			<path d="M1182.2,717.9c-0.1,0.5-0.5,0.9-1.1,1c-0.8,0.1-1.4-0.5-1.4-1.3c0-0.4,0-0.7,0.2-1.1c0.3-0.5,0.8-0.7,1.4-0.5
				c0.5,0.1,0.9,0.5,0.9,1.1c0,0.5,0,0.5-0.4,0.5c-0.5,0-1,0-1.4,0c-0.1,0-0.2,0-0.1,0.2c0,0.1,0,0.2,0.1,0.3
				c0.1,0.3,0.3,0.4,0.6,0.5c0.3,0,0.6-0.1,0.8-0.4C1181.9,718,1182,718,1182.2,717.9C1182.1,717.9,1182.2,717.9,1182.2,717.9z
				 M1181,717.1c0.2,0,0.4,0,0.7,0c0.1,0,0.1,0,0.1-0.1c-0.1-0.4-0.3-0.7-0.7-0.7c-0.4,0-0.7,0.3-0.8,0.7c0,0.1,0,0.1,0.1,0.1
				C1180.6,717.1,1180.8,717.1,1181,717.1z"/>
			<path d="M1207.6,717.5c-0.3,0-0.6,0-0.9,0c-0.1,0-0.2,0-0.1,0.1c0,0.1,0,0.2,0,0.2c0.1,0.4,0.3,0.5,0.6,0.5
				c0.4,0,0.6-0.1,0.8-0.4c0-0.1,0.4-0.2,0.5-0.1c0,0,0,0.1,0,0.2c-0.2,0.5-0.6,0.8-1.1,0.8c-0.8,0-1.3-0.5-1.4-1.3
				c0-0.6,0.1-1.1,0.6-1.5c0.6-0.4,1.8-0.2,1.9,0.9c0,0.1,0,0.2,0,0.3c0,0.2,0,0.2-0.2,0.2C1208.2,717.5,1207.9,717.5,1207.6,717.5z
				 M1207.4,717.1c0.2,0,0.4,0,0.7,0c0.1,0,0.1,0,0.1-0.1c-0.1-0.4-0.2-0.7-0.7-0.7c-0.4,0-0.7,0.3-0.8,0.7c0,0.1,0,0.1,0.1,0.1
				C1207,717.1,1207.2,717.1,1207.4,717.1z"/>
			<path d="M1229.1,711.3c-0.3,0-0.6,0-0.9,0c-0.1,0-0.1,0-0.1,0.1c0.1,0.5,0.3,1,1,0.8c0.2,0,0.4-0.2,0.4-0.4
				c0.1-0.2,0.2-0.2,0.3-0.2c0.2,0,0.3,0,0.2,0.3c-0.2,0.5-0.7,0.8-1.3,0.7c-0.5,0-0.9-0.4-1-0.9c-0.1-0.6-0.1-1.1,0.3-1.6
				c0.3-0.4,0.9-0.5,1.4-0.4c0.5,0.2,0.8,0.6,0.8,1.1s0,0.5-0.4,0.5C1229.5,711.3,1229.3,711.3,1229.1,711.3z M1228.9,710.9
				c0.2,0,0.4,0,0.7,0c0,0,0.1,0,0.1-0.1c0-0.2-0.2-0.6-0.5-0.7c-0.5-0.2-1,0.2-1.1,0.7c0,0.1,0,0.1,0.1,0.1
				C1228.4,710.9,1228.6,710.9,1228.9,710.9z"/>
			<path d="M1176.4,711.3c-0.3,0-0.6,0-0.9,0c-0.1,0-0.1,0-0.1,0.1c0.1,0.6,0.4,1,1,0.8c0.2-0.1,0.3-0.2,0.4-0.4
				c0.1-0.1,0.1-0.2,0.3-0.2c0.3,0,0.3,0,0.2,0.3c-0.2,0.5-0.7,0.7-1.4,0.7c-0.5-0.1-0.9-0.5-1-1s-0.1-1,0.2-1.4
				c0.3-0.5,0.8-0.7,1.4-0.5c0.5,0.1,0.8,0.6,0.9,1.1c0,0.5,0,0.5-0.4,0.5C1176.8,711.3,1176.6,711.3,1176.4,711.3z M1176.2,710.9
				c0.2,0,0.4,0,0.7,0c0,0,0.1,0,0.1-0.1c0-0.3-0.2-0.6-0.5-0.7c-0.5-0.2-0.9,0.1-1,0.6c0,0.1,0,0.1,0.1,0.1
				C1175.8,710.9,1176,710.9,1176.2,710.9z"/>
			<path d="M1204.6,717.9c-0.1,0.6-0.5,0.9-1,1s-1-0.1-1.3-0.6s-0.2-1.4,0.1-1.9c0.3-0.4,0.8-0.6,1.3-0.4c0.5,0.1,0.8,0.5,0.9,1
				c0,0.2,0.1,0.4,0,0.5s-0.3,0-0.5,0c-0.5,0-0.9,0-1.4,0c-0.1,0-0.1,0-0.1,0.1c0,0.6,0.4,0.9,0.9,0.8c0.2,0,0.4-0.2,0.5-0.4
				c0.1-0.1,0.1-0.2,0.2-0.1C1204.4,717.9,1204.5,717.9,1204.6,717.9z M1203.3,717.1c0.2,0,0.4,0,0.6,0c0.1,0,0.1,0,0.1-0.1
				c-0.1-0.4-0.3-0.7-0.7-0.7c-0.4,0-0.7,0.3-0.8,0.7c0,0.1,0,0.1,0.1,0.1C1202.9,717.1,1203.1,717.1,1203.3,717.1z"/>
			<path d="M1194.2,717.5c-0.3,0-0.6,0-0.9,0c-0.1,0-0.1,0-0.1,0.1c0.1,0.6,0.4,1,1.1,0.8c0.2-0.1,0.3-0.2,0.4-0.4
				c0-0.1,0.1-0.2,0.3-0.2c0.3,0,0.3,0,0.2,0.3c-0.2,0.5-0.7,0.7-1.3,0.7c-0.5-0.1-0.9-0.4-1-0.9c-0.2-0.6-0.1-1.3,0.4-1.8
				c0.4-0.3,0.8-0.4,1.2-0.2c0.4,0.1,0.7,0.4,0.8,0.9c0,0.2,0,0.4,0,0.5s0,0.1-0.1,0.1C1194.8,717.5,1194.5,717.5,1194.2,717.5z
				 M1193.9,717.1c0.2,0,0.4,0,0.7,0c0,0,0.1,0,0.1-0.1c0-0.2-0.2-0.6-0.4-0.7c-0.5-0.2-1,0.1-1.1,0.7c0,0.1,0,0.1,0.1,0.1
				C1193.5,717.1,1193.7,717.1,1193.9,717.1z"/>
			<path d="M1203.7,704.4c0-0.5,0-1.1,0-1.6c0-0.1,0-0.2,0.2-0.2s0.5,0,0.7,0c0.1,0,0.1,0,0.1,0.1c0,1.1,0,2.3,0,3.4
				c0,0.1,0,0.1-0.1,0.1c-0.2,0-0.5,0-0.7,0c-0.1,0-0.1,0-0.1-0.1C1203.7,705.6,1203.7,705,1203.7,704.4z"/>
			<path d="M1214.3,717.3c0,0.4-0.1,0.7-0.2,1c-0.3,0.5-0.7,0.6-1.2,0.6s-0.8-0.3-1-0.7c-0.3-0.6-0.1-1.5,0.3-1.9s0.8-0.4,1.3-0.3
				c0.4,0.1,0.7,0.5,0.8,0.9C1214.2,717,1214.3,717.2,1214.3,717.3z M1213.8,717.3c0-0.2,0-0.4-0.1-0.5c-0.1-0.3-0.3-0.4-0.6-0.5
				c-0.3,0-0.6,0-0.7,0.3c-0.3,0.5-0.3,1,0,1.5c0.1,0.3,0.4,0.3,0.7,0.3c0.3,0,0.5-0.1,0.6-0.4
				C1213.7,717.8,1213.8,717.6,1213.8,717.3z"/>
			<path d="M1175.7,717.5c0-0.4,0.1-0.8,0.3-1.1c0.3-0.4,0.8-0.5,1.3-0.4s0.8,0.5,0.9,1c0.1,0.4,0.1,0.8-0.1,1.2
				c-0.2,0.6-0.7,0.8-1.4,0.8c-0.5-0.1-1-0.4-1.1-1C1175.7,717.7,1175.7,717.6,1175.7,717.5z M1177.8,717.3c0-0.1,0-0.3,0-0.4
				c-0.1-0.3-0.3-0.5-0.6-0.6c-0.3,0-0.5,0-0.7,0.2c-0.3,0.4-0.3,1.2,0,1.6c0.2,0.3,0.4,0.3,0.7,0.3c0.3,0,0.5-0.1,0.6-0.4
				C1177.7,717.8,1177.8,717.6,1177.8,717.3z"/>
			<path d="M1221.8,711.2c0-0.4,0.1-0.8,0.3-1.1c0.3-0.4,0.8-0.6,1.3-0.5s0.9,0.5,1,1c0.1,0.4,0.1,0.9-0.1,1.3
				c-0.3,0.5-0.7,0.8-1.4,0.7c-0.5-0.1-0.9-0.5-1-1C1221.8,711.5,1221.8,711.3,1221.8,711.2z M1223.9,711c0-0.2,0-0.3-0.1-0.5
				c-0.1-0.3-0.3-0.4-0.6-0.5c-0.3,0-0.5,0-0.7,0.3c-0.3,0.5-0.3,1,0,1.5c0.1,0.3,0.4,0.3,0.7,0.3c0.3,0,0.5-0.1,0.6-0.4
				C1223.9,711.6,1223.9,711.3,1223.9,711z"/>
			<path d="M1203.1,712.6c-0.2,0-0.3,0-0.5,0c-0.4-0.1-0.6-0.4-0.7-0.8c0-0.1,0-0.1,0.1-0.1h0.1c0.1,0,0.2,0,0.3,0.2
				c0,0.1,0,0.1,0.1,0.2c0.2,0.3,1,0.3,1.2,0c0.2-0.2,0.1-0.5-0.1-0.5c-0.2-0.1-0.5-0.1-0.8-0.2c-0.1,0-0.2,0-0.3-0.1
				c-0.3-0.1-0.5-0.2-0.5-0.5s0.1-0.6,0.4-0.8c0.4-0.2,1.1-0.2,1.4,0c0.2,0.1,0.3,0.3,0.4,0.6c0,0.1,0,0.1-0.1,0.1h-0.1
				c-0.1,0-0.2,0-0.2-0.2c0-0.1-0.1-0.2-0.2-0.2c-0.2-0.1-0.4-0.1-0.7,0c-0.1,0-0.3,0.1-0.3,0.3s0.1,0.3,0.2,0.3
				c0.2,0.1,0.4,0.1,0.5,0.2c0.2,0,0.3,0.1,0.5,0.1c0.5,0.2,0.7,0.8,0.3,1.2c-0.2,0.2-0.4,0.4-0.7,0.4
				C1203.3,712.6,1203.2,712.6,1203.1,712.6z"/>
			<path d="M1199.3,709.7L1199.3,709.7c0.5,0,0.5,0,0.7,0.4c0.2,0.6,0.4,1.2,0.6,1.8c0.2-0.5,0.3-1,0.5-1.5c0.1-0.2,0.1-0.4,0.2-0.6
				c0-0.1,0.1-0.1,0.2-0.1s0.3,0,0.4,0c-0.2,0.7-0.5,1.3-0.7,1.9c-0.2,0.5-0.4,1.1-0.6,1.6c-0.2,0.4-0.5,0.5-0.8,0.4
				c-0.1,0-0.2-0.1-0.1-0.2v-0.1c0-0.1,0-0.2,0.2-0.2c0.2,0.1,0.3,0,0.4-0.2c0.1-0.3,0.1-0.5,0-0.8
				C1200,711.3,1199.7,710.5,1199.3,709.7C1199.3,709.8,1199.3,709.8,1199.3,709.7z"/>
			<path d="M1196.7,718.9c-0.4,0-0.7,0-1-0.4c0-0.1-0.1-0.1-0.1-0.2c0-0.1-0.1-0.3-0.1-0.4c0.1-0.1,0.2,0,0.4,0c0.1,0,0.1,0,0.1,0.1
				c0,0.3,0.2,0.4,0.5,0.5s0.6,0.1,0.8-0.2c0.2-0.2,0.1-0.5-0.1-0.6c-0.3-0.1-0.6-0.2-0.8-0.2c-0.1,0-0.2,0-0.3-0.1
				c-0.5-0.2-0.6-0.9-0.2-1.2s1.2-0.4,1.6,0c0.2,0.1,0.3,0.3,0.3,0.6c0,0.1,0,0.1-0.1,0.1s-0.1,0-0.2,0s-0.2,0-0.2-0.1
				s-0.1-0.2-0.3-0.3c-0.2-0.1-0.4-0.1-0.7,0c-0.1,0-0.2,0.1-0.3,0.3c0,0.2,0.1,0.3,0.2,0.3c0.2,0.1,0.4,0.1,0.6,0.2
				c0.2,0,0.3,0.1,0.5,0.1c0.4,0.1,0.6,0.5,0.4,0.9c-0.1,0.4-0.5,0.6-0.9,0.7C1196.8,718.9,1196.7,718.9,1196.7,718.9z"/>
			<path d="M1185.6,710.1c0.3-0.3,0.7-0.5,1.1-0.4s0.6,0.3,0.7,0.7s0,0.8,0,1.1s0,0.6,0,0.9c0,0.1,0,0.1-0.1,0.1
				c-0.4,0-0.4,0-0.4-0.4c0-0.5,0-1,0-1.5s-0.4-0.7-0.9-0.5c-0.2,0.1-0.4,0.3-0.4,0.6c0,0.5,0,1.1,0,1.6c0,0.2,0,0.2-0.2,0.2
				c-0.3,0-0.3,0-0.3-0.3c0-0.8,0-1.6,0-2.3c0-0.1,0-0.2,0.2-0.2C1185.6,709.7,1185.6,709.7,1185.6,710.1z"/>
			<path d="M1201.3,717.1c0,0.5,0,1,0,1.5c0,0.1,0,0.2-0.2,0.2c-0.4,0-0.4,0-0.4-0.4c0-0.9,0-1.9,0-2.8c0-0.1,0-0.2-0.2-0.2
				c-0.3,0-0.7,0-1,0c-0.1,0-0.1,0-0.1-0.1c0-0.3,0-0.3,0.3-0.3c0.9,0,1.7,0,2.6,0c0.2,0,0.2,0,0.2,0.2v0.1c0,0.1,0,0.1-0.1,0.1
				c-0.3,0-0.7,0-1,0c-0.1,0-0.1,0-0.1,0.1C1201.3,716,1201.3,716.6,1201.3,717.1z"/>
			<path d="M1190.3,716.3c0.2-0.2,0.4-0.4,0.7-0.4c0.6-0.1,1.1,0.1,1.1,0.9c0,0.6,0,1.2,0,1.8c0,0.1,0,0.2-0.2,0.2
				c-0.3,0-0.3,0-0.3-0.3c0-0.5,0-1,0-1.4c0-0.3-0.1-0.5-0.3-0.6c-0.3-0.1-0.6,0-0.8,0.2c-0.1,0.1-0.2,0.3-0.2,0.5c0,0.5,0,1,0,1.5
				c0,0.1,0,0.2-0.2,0.2c-0.3,0-0.3,0-0.3-0.3c0-0.8,0-1.6,0-2.3c0-0.1,0-0.2,0.2-0.2c0,0,0,0,0.1,0
				C1190.3,716.1,1190.3,716.1,1190.3,716.3C1190.3,716.2,1190.3,716.3,1190.3,716.3z"/>
			<path d="M1219.3,710.6c0-0.6,0-1.2,0-1.8c0-0.1,0-0.1,0.1-0.1c0.4,0,0.4,0,0.4,0.4c0,0.9,0,1.9,0,2.8c0,0.1,0,0.2,0.2,0.2
				c0.5,0,1.1,0,1.6,0c0.1,0,0.1,0,0.1,0.1c0,0.3,0,0.3-0.3,0.3c-0.6,0-1.3,0-1.9,0c-0.2,0-0.2-0.1-0.2-0.2
				C1219.3,711.7,1219.3,711.2,1219.3,710.6z"/>
			<path d="M1211.4,717.8c-0.1,0.5-0.3,0.9-0.8,1c-0.9,0.2-1.6-0.3-1.6-1.2c0-0.5,0.1-1,0.4-1.4c0.4-0.4,1.1-0.4,1.6-0.1
				c0.3,0.2,0.3,0.5,0.4,0.7c0,0,0,0,0,0.1c-0.1,0-0.3,0-0.4,0s-0.1-0.1-0.1-0.1c-0.1-0.3-0.3-0.5-0.6-0.5c-0.3,0-0.5,0.1-0.7,0.4
				c-0.2,0.4-0.2,0.8-0.1,1.3c0.1,0.3,0.3,0.5,0.6,0.5c0.3,0,0.5-0.1,0.6-0.4c0.1-0.2,0.2-0.2,0.4-0.2
				C1211.3,717.8,1211.3,717.8,1211.4,717.8z"/>
			<path d="M1173,717.4c0-0.4,0.1-0.8,0.4-1.2c0.4-0.4,1.1-0.5,1.6-0.2c0.3,0.2,0.3,0.4,0.4,0.7v0.1c-0.1,0.1-0.2,0-0.4,0
				c-0.1,0-0.1,0-0.1-0.1c-0.1-0.4-0.4-0.5-0.7-0.5c-0.3,0-0.6,0.2-0.7,0.5c-0.1,0.4-0.1,0.7,0,1.1c0.1,0.3,0.3,0.5,0.6,0.5
				c0.3,0,0.5-0.1,0.7-0.5c0-0.1,0-0.2,0.1-0.2s0.3,0,0.4,0v0.1c0,0.5-0.4,0.9-0.9,1C1173.5,718.9,1173,718.4,1173,717.4z"/>
			<path d="M1178,711.1c0-0.3,0-0.6,0-0.8c0-0.1,0-0.2-0.1-0.1c-0.1,0-0.2,0-0.2,0c0-0.1,0-0.2,0-0.3s0.1-0.1,0.1,0
				c0.2,0,0.3,0,0.2-0.2c0-0.1,0-0.3,0-0.4c0-0.1,0-0.1,0.1-0.1c0.4,0,0.4,0,0.4,0.4c0,0,0,0,0,0.1c0,0.3,0,0.3,0.3,0.4
				c0.1,0,0.1,0,0.1,0.1s0,0.1,0,0.2c0,0.1,0,0.1-0.1,0.1c-0.3,0-0.3,0-0.3,0.3c0,0.5,0,0.9,0,1.4c0,0.2,0,0.3,0.3,0.3
				c0.1,0,0.2-0.1,0.2,0.1c0,0.1,0.1,0.3-0.1,0.3c-0.1,0-0.1,0-0.2,0c-0.4,0-0.6-0.1-0.6-0.5v-0.1C1178,711.7,1178,711.4,1178,711.1
				z"/>
			<path d="M1173.8,710.1c0.2-0.2,0.4-0.4,0.6-0.5c0.2,0,0.3,0,0.3,0.2c0,0.1,0,0.1,0,0.2c0,0.1,0,0.1-0.1,0.1
				c-0.5,0-0.8,0.3-0.8,0.8s0,0.9,0,1.4c0,0.1,0,0.2-0.2,0.2c-0.3,0-0.3,0-0.3-0.3c0-0.8,0-1.5,0-2.3c0-0.1,0-0.2,0.2-0.2
				C1173.8,709.7,1173.8,709.7,1173.8,710.1z"/>
			<path d="M1226.5,710.1c0.2-0.2,0.4-0.4,0.6-0.5c0.2,0,0.3,0,0.3,0.2c0,0,0,0,0,0.1c0,0.2,0,0.2-0.2,0.2c-0.4,0-0.7,0.3-0.7,0.8
				s0,1,0,1.4c0,0.1,0,0.2-0.2,0.2c-0.3,0-0.3,0-0.3-0.3c0-0.8,0-1.5,0-2.3c0-0.2,0-0.2,0.2-0.2
				C1226.5,709.7,1226.5,709.7,1226.5,710.1C1226.5,710,1226.5,710.1,1226.5,710.1z"/>
			<path d="M1213.7,710.6c0-0.6,0-1.2,0-1.7c0-0.1,0-0.2,0.2-0.2c0.3,0,0.3,0,0.3,0.3c0,1.1,0,2.2,0,3.3c0,0.1,0,0.2-0.2,0.2
				c-0.3,0-0.3,0-0.3-0.3C1213.7,711.7,1213.7,711.1,1213.7,710.6z"/>
			<path d="M1179.3,716.9c0,0.6,0,1.2,0,1.7c0,0.1,0,0.2-0.2,0.2c-0.3,0-0.3,0-0.3-0.3c0-1.1,0-2.2,0-3.3c0-0.1,0-0.2,0.2-0.2
				c0.3,0,0.3,0,0.3,0.3C1179.3,715.8,1179.3,716.3,1179.3,716.9z"/>
			<path d="M1205.6,716.9c0,0.6,0,1.2,0,1.8c0,0.1,0,0.2-0.2,0.2c-0.3,0-0.3,0-0.3-0.3c0-1.1,0-2.2,0-3.3c0-0.1,0-0.2,0.2-0.2
				c0.3,0,0.3,0,0.3,0.3C1205.6,715.8,1205.6,716.3,1205.6,716.9z"/>
			<path d="M1189.3,717.4c0,0.4,0,0.8,0,1.2c0,0.1,0,0.2-0.1,0.2c-0.4,0-0.4,0-0.4-0.4c0-0.8,0-1.5,0-2.3c0-0.1,0-0.2,0.2-0.2
				c0.3,0,0.3,0,0.3,0.3C1189.3,716.7,1189.3,717,1189.3,717.4z"/>
			<path d="M1225.4,711.1c0,0.4,0,0.8,0,1.3c0,0.1,0,0.1-0.1,0.1c-0.4,0-0.4,0-0.4-0.4c0-0.8,0-1.5,0-2.3c0-0.1,0-0.2,0.2-0.2
				c0.3,0,0.3,0,0.3,0.3C1225.4,710.4,1225.4,710.8,1225.4,711.1z"/>
			<path d="M1204.2,702.1c-0.1,0-0.4,0.1-0.5,0s0-0.3,0-0.5c0-0.3,0-0.3,0.3-0.3c0.2,0,0.4,0,0.5,0s0.1,0,0.1,0.1c0,0.2,0,0.4,0,0.6
				c0,0.1,0,0.1-0.1,0.1C1204.5,702.1,1204.4,702.1,1204.2,702.1z"/>
			<path d="M1192,711.3c-0.2,0-0.4,0-0.5,0s-0.1,0-0.1-0.1c0-0.4,0-0.4,0.4-0.4c0.3,0,0.6,0,0.8,0c0.1,0,0.1,0,0.1,0.1
				c0,0.4,0,0.4-0.4,0.4C1192.2,711.3,1192.1,711.3,1192,711.3z"/>
			<path d="M1199.1,717.5c-0.2,0-0.4,0-0.5,0s-0.1,0-0.1-0.1c0-0.4,0-0.4,0.4-0.4c0.3,0,0.6,0,0.8,0c0.1,0,0.1,0,0.1,0.1
				c0,0.4,0,0.4-0.4,0.4C1199.3,717.5,1199.2,717.5,1199.1,717.5z"/>
			<path d="M1170.8,714.7c0.2-0.3,0.3-0.5,0.5-0.7c0-0.1,0.1-0.1,0.1-0.1c0.2,0,0.3,0,0.5,0c-0.2,0.3-0.5,0.5-0.7,0.7
				C1171.1,714.7,1171,714.6,1170.8,714.7z"/>
			<path d="M1204,714.8c-0.2,0.3-0.4,0.5-0.7,0.7c-0.1,0.1-0.3,0-0.4,0.1c0.2-0.3,0.3-0.5,0.5-0.8h0.1
				C1203.6,714.8,1203.8,714.8,1204,714.8z"/>
			<path d="M1208,714.8c-0.2,0.3-0.4,0.5-0.7,0.7c-0.1,0.1-0.3,0-0.4,0c0.2-0.3,0.3-0.5,0.4-0.7c0-0.1,0.1-0.1,0.1-0.1
				C1207.6,714.8,1207.8,714.8,1208,714.8z"/>
			<path d="M1188.8,715.2c0-0.1,0-0.2,0-0.2c0.1,0,0.3,0,0.4,0c0,0,0,0,0,0.1v0.1c0,0.3,0,0.3-0.3,0.3c-0.1,0-0.2,0-0.2-0.1
				C1188.8,715.3,1188.8,715.2,1188.8,715.2z"/>
			<path d="M1224.9,708.9c0-0.3,0-0.2,0.3-0.3c0.2,0,0.2,0,0.2,0.2c0,0.3,0,0.3-0.4,0.3c-0.1,0-0.2,0-0.1-0.1
				C1224.9,709,1224.9,709,1224.9,708.9z"/>
		</g>
	</g>
	<g>
		<g>
			<path d="M888.3,477.3H882v-35h14.3c4.1,0,7.1,1,9.1,3.1s3,4.5,3,7.3c0,3.2-1.1,5.8-3.2,7.8c-2.1,2-4.8,3-8.1,3h-8.8V477.3z
				 M888.3,458h7.5c2,0,3.4-0.5,4.5-1.4c1-1,1.5-2.2,1.5-3.8c0-1.4-0.5-2.7-1.4-3.7s-2.7-1.5-5.1-1.5h-6.9L888.3,458L888.3,458z"/>
			<path d="M952,477.3h-22.8v-35h22.5v5.2h-16.2v9.5h13v5.1h-13v9.8H952V477.3z"/>
			<path d="M979.7,477.3h-6.5v-35h22.1v5.4h-15.7v9.6H992v5.3h-12.3V477.3z"/>
			<path d="M1012,468.9l6.1-1.3c0.7,3.5,3.6,5.2,8.5,5.2c2.2,0,4-0.4,5.2-1.3s1.8-2,1.8-3.3c0-1-0.3-1.8-0.8-2.7
				c-0.5-0.8-1.7-1.5-3.5-1.9l-6.7-1.7c-2.3-0.6-4-1.3-5.1-2c-1.1-0.8-2-1.8-2.6-3.2c-0.7-1.4-1-2.9-1-4.4c0-3.1,1.2-5.6,3.5-7.5
				s5.3-2.8,8.9-2.8c3,0,5.7,0.7,8.1,2s3.9,3.2,4.5,5.6l-6,1.5c-0.9-2.7-3.1-4-6.5-4c-2,0-3.5,0.4-4.5,1.2c-1,0.8-1.6,1.9-1.6,3.1
				c0,2,1.6,3.4,4.9,4.2l6,1.5c3.6,0.9,6,2.2,7.3,4c1.2,1.8,1.8,3.7,1.8,5.9c0,3.4-1.3,6.1-3.9,8.1s-5.9,3-10.1,3
				c-3.5,0-6.5-0.7-9.1-2.2C1014.6,474.2,1012.9,472,1012,468.9z"/>
			<path d="M1083,477.3h-21.6v-35h6.6v29.3h14.9L1083,477.3L1083,477.3z"/>
		</g>
		<g>
			<path d="M883.6,492.3H882v-8.7h3.6c1,0,1.8,0.3,2.3,0.8s0.7,1.1,0.7,1.8c0,0.8-0.3,1.4-0.8,1.9s-1.2,0.7-2,0.7h-2.2V492.3z
				 M883.6,487.5h1.9c0.5,0,0.9-0.1,1.1-0.4s0.4-0.6,0.4-1s-0.1-0.7-0.4-0.9c-0.2-0.3-0.7-0.4-1.3-0.4h-1.7V487.5z"/>
			<path d="M893.3,492.3h-1.7v-3.7l-3-5h1.9l2.1,3.6l2-3.6h1.5l-2.8,5V492.3z"/>
			<path d="M903.5,492.3H902l-3.3-5.6c-0.1-0.1-0.1-0.2-0.2-0.4c-0.1-0.1-0.1-0.2-0.2-0.4v6.4H897v-8.7h1.7l3.1,5.1
				c0,0,0.2,0.4,0.6,0.9v-6.1h1.2L903.5,492.3L903.5,492.3z"/>
			<path d="M912.1,492.8v1.3c-0.5,0-0.8,0.1-0.9,0.1c-1.3,0-1.9-0.6-1.9-1.7c-0.3,0-0.5,0-0.6,0c-1.2,0-2.1-0.4-2.7-1.3
				c-0.6-0.9-0.9-1.9-0.9-3.2c0-1.3,0.3-2.4,1-3.2c0.6-0.9,1.6-1.3,2.7-1.3c0.9,0,1.5,0.2,2,0.6s0.9,0.9,1.2,1.6s0.5,1.4,0.5,2.3
				c0,1.9-0.6,3.2-1.9,4c-0.2,0.1-0.3,0.2-0.3,0.3c0,0.1,0.1,0.3,0.2,0.4c0.1,0.1,0.3,0.2,0.5,0.2s0.4,0,0.7,0
				C911.8,492.8,911.9,492.8,912.1,492.8z M908.7,491.2c1.4,0,2-1.1,2-3.2c0-1.1-0.2-2-0.5-2.5c-0.4-0.5-0.8-0.8-1.4-0.8
				c-1.4,0-2,1.1-2,3.3C906.7,490.1,907.3,491.2,908.7,491.2z"/>
			<path d="M916.1,488.4v1.2h-3.2v-1.2H916.1z"/>
			<path d="M922.7,492.3H917v-8.7h5.6v1.3h-4v2.4h3.2v1.3h-3.2v2.4h4.1L922.7,492.3L922.7,492.3z"/>
			<path d="M933.6,492.3h-1.5v-4c0-0.8-0.4-1.3-1.1-1.3c-0.4,0-0.8,0.2-1,0.5c-0.3,0.3-0.4,0.8-0.4,1.4v3.4H928v-4
				c0-0.8-0.3-1.3-1-1.3c-0.4,0-0.8,0.2-1.1,0.5s-0.4,0.8-0.4,1.4v3.4H924v-6.5h1.4v1.4c0.5-1,1.2-1.5,2.2-1.5
				c0.9,0,1.6,0.5,1.9,1.5c0.5-1,1.2-1.5,2.2-1.5c0.6,0,1.1,0.2,1.5,0.6s0.6,0.9,0.6,1.4v4.6H933.6z"/>
			<path d="M936,492.3h-0.7v-8.7h1.5v3.1c0.3-0.5,0.6-0.8,0.8-1c0.3-0.2,0.6-0.2,1-0.2c0.7,0,1.3,0.3,1.8,0.9s0.7,1.4,0.7,2.5
				c0,1-0.2,1.8-0.7,2.5s-1.1,1-2,1s-1.5-0.4-2-1.2L936,492.3z M936.8,489.6c0,0.6,0.1,1,0.4,1.3c0.2,0.3,0.6,0.4,1,0.4
				s0.7-0.2,1-0.5s0.4-0.9,0.4-1.9c0-0.7-0.1-1.2-0.4-1.6c-0.2-0.4-0.6-0.5-1-0.5s-0.7,0.2-1,0.5s-0.4,0.7-0.4,1.3V489.6z"/>
			<path d="M946.5,490.3l1.3,0.2c-0.2,0.6-0.5,1.1-1,1.4c-0.5,0.4-1.1,0.6-1.9,0.6c-0.9,0-1.6-0.3-2.2-0.9c-0.5-0.6-0.8-1.4-0.8-2.4
				s0.3-1.8,0.8-2.4s1.3-1,2.2-1s1.6,0.3,2.1,0.9s0.8,1.4,0.8,2.4v0.2h-4.4c0,0.4,0,0.8,0.1,1.1c0.1,0.3,0.2,0.5,0.5,0.7
				c0.2,0.2,0.6,0.3,0.9,0.3C945.8,491.3,946.2,491,946.5,490.3z M946.4,488.3c0-0.5-0.1-0.8-0.4-1.1c-0.3-0.3-0.6-0.4-1-0.4
				s-0.7,0.1-1,0.4s-0.4,0.7-0.5,1.2h2.9V488.3z"/>
			<path d="M954.6,492.3h-1.4V491c-0.4,1-1,1.4-1.9,1.4c-0.8,0-1.4-0.3-1.8-1c-0.4-0.7-0.6-1.5-0.6-2.5c0-0.9,0.2-1.7,0.7-2.4
				c0.4-0.7,1.1-1,1.9-1c0.8,0,1.4,0.4,1.7,1.1v-3.1h1.5v8.8H954.6z M953.1,488.5c0-0.5-0.1-0.9-0.4-1.2c-0.2-0.3-0.6-0.4-1-0.4
				s-0.8,0.2-1,0.6s-0.4,0.9-0.4,1.7c0,1.4,0.5,2.2,1.4,2.2c0.4,0,0.7-0.2,0.9-0.5c0.3-0.3,0.4-0.7,0.4-1.2L953.1,488.5L953.1,488.5
				z"/>
			<path d="M961.6,492.3h-1.4V491c-0.4,1-1,1.4-1.9,1.4c-0.8,0-1.4-0.3-1.8-1c-0.4-0.7-0.6-1.5-0.6-2.5c0-0.9,0.2-1.7,0.7-2.4
				c0.4-0.7,1.1-1,1.9-1c0.8,0,1.4,0.4,1.7,1.1v-3.1h1.5v8.8H961.6z M960.1,488.5c0-0.5-0.1-0.9-0.4-1.2c-0.2-0.3-0.6-0.4-1-0.4
				s-0.8,0.2-1,0.6s-0.4,0.9-0.4,1.7c0,1.4,0.5,2.2,1.4,2.2c0.4,0,0.7-0.2,0.9-0.5c0.3-0.3,0.4-0.7,0.4-1.2L960.1,488.5L960.1,488.5
				z"/>
			<path d="M967.4,490.3l1.3,0.2c-0.2,0.6-0.5,1.1-1,1.4c-0.5,0.4-1.1,0.6-1.9,0.6c-0.9,0-1.6-0.3-2.2-0.9c-0.5-0.6-0.8-1.4-0.8-2.4
				s0.3-1.8,0.8-2.4s1.3-1,2.2-1s1.6,0.3,2.1,0.9s0.8,1.4,0.8,2.4v0.2h-4.4c0,0.4,0,0.8,0.1,1.1c0.1,0.3,0.2,0.5,0.5,0.7
				c0.2,0.2,0.6,0.3,0.9,0.3C966.7,491.3,967.2,491,967.4,490.3z M967.4,488.3c0-0.5-0.1-0.8-0.4-1.1c-0.3-0.3-0.6-0.4-1-0.4
				s-0.7,0.1-1,0.4s-0.4,0.7-0.5,1.2h2.9V488.3z"/>
			<path d="M975.5,492.3h-1.4V491c-0.4,1-1,1.4-1.9,1.4c-0.8,0-1.4-0.3-1.8-1c-0.4-0.7-0.6-1.5-0.6-2.5c0-0.9,0.2-1.7,0.7-2.4
				c0.4-0.7,1.1-1,1.9-1c0.8,0,1.4,0.4,1.7,1.1v-3.1h1.5v8.8H975.5z M974.1,488.5c0-0.5-0.1-0.9-0.4-1.2c-0.2-0.3-0.6-0.4-1-0.4
				s-0.8,0.2-1,0.6s-0.4,0.9-0.4,1.7c0,1.4,0.5,2.2,1.4,2.2c0.4,0,0.7-0.2,0.9-0.5c0.3-0.3,0.4-0.7,0.4-1.2L974.1,488.5L974.1,488.5
				z"/>
			<path d="M982.2,492.3h-1.6v-8.7h5.5v1.3h-3.9v2.4h3.1v1.3h-3.1V492.3z"/>
			<path d="M991,490.3l1.3,0.2c-0.2,0.6-0.5,1.1-1,1.4c-0.5,0.4-1.1,0.6-1.9,0.6c-0.9,0-1.6-0.3-2.2-0.9c-0.5-0.6-0.8-1.4-0.8-2.4
				s0.3-1.8,0.8-2.4s1.3-1,2.2-1s1.6,0.3,2.1,0.9s0.8,1.4,0.8,2.4v0.2H988c0,0.4,0,0.8,0.1,1.1c0.1,0.3,0.2,0.5,0.5,0.7
				c0.2,0.2,0.6,0.3,0.9,0.3C990.3,491.3,990.8,491,991,490.3z M990.9,488.3c0-0.5-0.1-0.8-0.4-1.1c-0.3-0.3-0.6-0.4-1-0.4
				s-0.7,0.1-1,0.4s-0.4,0.7-0.5,1.2h2.9V488.3z"/>
			<path d="M1001.8,485.9l-1.9,6.5h-1.3l-1.2-4.5l-1.2,4.5h-1.3l-2-6.5h1.5l1.3,4.3l1.1-4.3h1.3l1.1,4.3l1.2-4.3H1001.8z"/>
			<path d="M1005.2,490.2l1.5-0.3c0.2,0.9,0.9,1.3,2.1,1.3c0.6,0,1-0.1,1.3-0.3c0.3-0.2,0.5-0.5,0.5-0.8c0-0.2-0.1-0.5-0.2-0.7
				c-0.1-0.2-0.4-0.4-0.9-0.5l-1.7-0.4c-0.6-0.1-1-0.3-1.3-0.5s-0.5-0.5-0.7-0.8s-0.2-0.7-0.2-1.1c0-0.8,0.3-1.4,0.9-1.9
				c0.6-0.5,1.3-0.7,2.2-0.7c0.7,0,1.4,0.2,2,0.5s1,0.8,1.1,1.4l-1.5,0.4c-0.2-0.7-0.8-1-1.6-1c-0.5,0-0.9,0.1-1.1,0.3
				c-0.3,0.2-0.4,0.5-0.4,0.8c0,0.5,0.4,0.8,1.2,1l1.5,0.4c0.9,0.2,1.5,0.6,1.8,1s0.5,0.9,0.5,1.5c0,0.9-0.3,1.5-1,2
				c-0.6,0.5-1.5,0.7-2.5,0.7c-0.9,0-1.6-0.2-2.3-0.5C1005.9,491.6,1005.4,491,1005.2,490.2z"/>
			<path d="M1018.9,492.3h-1.5v-4.2c0-0.5-0.1-0.8-0.3-1s-0.4-0.3-0.7-0.3c-0.4,0-0.8,0.2-1,0.5c-0.3,0.3-0.4,0.9-0.4,1.6v3.3h-1.5
				v-8.7h1.5v3.4c0.4-0.9,1-1.4,1.9-1.4c1.3,0,2,0.8,2,2.3V492.3z"/>
			<path d="M1023.1,492.5c-1,0-1.7-0.3-2.2-1s-0.8-1.5-0.8-2.4c0-1,0.3-1.7,0.8-2.4c0.6-0.6,1.3-1,2.2-1s1.6,0.3,2.1,0.9
				c0.6,0.6,0.8,1.4,0.8,2.4s-0.3,1.8-0.9,2.5C1024.8,492.2,1024,492.5,1023.1,492.5z M1023.2,491.3c1,0,1.5-0.7,1.5-2.2
				c0-0.7-0.1-1.2-0.4-1.6c-0.2-0.4-0.6-0.6-1.1-0.6s-0.9,0.2-1.1,0.6c-0.2,0.4-0.4,0.9-0.4,1.6s0.1,1.2,0.4,1.6
				C1022.4,491.1,1022.7,491.3,1023.2,491.3z"/>
			<path d="M1030.5,491.2v1.1c-0.4,0.1-0.8,0.1-1,0.1c-0.4,0-0.7-0.1-1-0.2c-0.3-0.2-0.5-0.4-0.6-0.6c-0.1-0.3-0.2-0.7-0.2-1.2V487
				h-0.8v-1.1h0.9l0.1-1.7l1.2-0.1v1.8h1.3v1.1h-1.3v3.1c0,0.4,0.1,0.7,0.2,0.8c0.1,0.1,0.4,0.2,0.8,0.2
				C1030.2,491.2,1030.3,491.2,1030.5,491.2z"/>
			<path d="M1040.4,492.3h-5.4v-8.7h1.7v7.3h3.7L1040.4,492.3L1040.4,492.3z"/>
			<path d="M1045.6,490.3l1.3,0.2c-0.2,0.6-0.5,1.1-1,1.4c-0.5,0.4-1.1,0.6-1.9,0.6c-0.9,0-1.6-0.3-2.2-0.9
				c-0.5-0.6-0.8-1.4-0.8-2.4s0.3-1.8,0.8-2.4s1.3-1,2.2-1c0.9,0,1.6,0.3,2.1,0.9s0.8,1.4,0.8,2.4v0.2h-4.4c0,0.4,0,0.8,0.1,1.1
				c0.1,0.3,0.2,0.5,0.5,0.7c0.2,0.2,0.6,0.3,0.9,0.3C1044.8,491.3,1045.3,491,1045.6,490.3z M1045.5,488.3c0-0.5-0.1-0.8-0.4-1.1
				c-0.3-0.3-0.6-0.4-1-0.4s-0.7,0.1-1,0.4s-0.4,0.7-0.5,1.2h2.9V488.3z"/>
			<path d="M1053.9,492.3h-1.4c-0.1-0.4-0.2-0.8-0.2-1.3c-0.4,1-1.1,1.4-2.2,1.4c-0.6,0-1.2-0.2-1.5-0.6c-0.4-0.4-0.6-0.8-0.6-1.4
				c0-1.5,1.3-2.2,3.9-2.2c0.1,0,0.2,0,0.4,0v-0.5c0-0.7-0.5-1-1.4-1s-1.4,0.3-1.5,1l-1.2-0.2c0.1-0.5,0.3-1,0.8-1.3
				s1.2-0.5,2.1-0.5c0.5,0,0.9,0,1.2,0.1c0.3,0.1,0.6,0.2,0.8,0.4c0.2,0.2,0.4,0.4,0.5,0.6s0.1,0.6,0.1,1.2v2.9
				C1053.7,491.5,1053.7,491.9,1053.9,492.3z M1052.2,489.1c-1.9,0-2.8,0.4-2.8,1.3c0,0.3,0.1,0.5,0.3,0.7c0.2,0.2,0.5,0.3,0.9,0.3
				c0.6,0,1-0.2,1.3-0.5s0.4-0.8,0.4-1.2v-0.6H1052.2z"/>
			<path d="M1056.9,492.3h-1.5v-6.5h1.3v1.5c0.2-0.6,0.4-1,0.8-1.3c0.3-0.3,0.7-0.4,1-0.4c0,0,0.1,0,0.2,0v1.6
				c-0.7,0-1.2,0.2-1.5,0.7c-0.2,0.5-0.4,0.9-0.4,1.4L1056.9,492.3L1056.9,492.3z"/>
			<path d="M1065.1,492.3h-1.5v-4c0-0.4-0.1-0.7-0.3-1c-0.2-0.2-0.4-0.3-0.7-0.3c-0.4,0-0.7,0.2-1,0.5s-0.4,0.8-0.4,1.5v3.3h-1.5
				v-6.5h1.3v1.5c0.5-1.1,1.1-1.6,2-1.6c0.6,0,1.1,0.2,1.5,0.5c0.4,0.4,0.6,1,0.6,1.9V492.3z"/>
			<path d="M1068.3,485.1h-1.5v-1.5h1.5V485.1z M1068.3,492.3h-1.5v-6.5h1.5V492.3z"/>
			<path d="M1075.4,492.3h-1.5v-4c0-0.4-0.1-0.7-0.3-1c-0.2-0.2-0.4-0.3-0.7-0.3c-0.4,0-0.7,0.2-1,0.5s-0.4,0.8-0.4,1.5v3.3h-1.5
				v-6.5h1.3v1.5c0.5-1.1,1.1-1.6,2-1.6c0.6,0,1.1,0.2,1.5,0.5c0.4,0.4,0.6,1,0.6,1.9V492.3z"/>
			<path d="M1083,484.6v1.1h-0.4c-0.2,0-0.4,0-0.5,0.1c-0.1,0-0.3,0.2-0.4,0.5c0.5,0.4,0.8,0.9,0.8,1.4c0,0.6-0.2,1-0.7,1.4
				s-1.1,0.6-1.9,0.6c-0.3,0-0.7-0.1-1.2-0.2c-0.3,0.1-0.4,0.3-0.4,0.6c0,0.2,0.1,0.3,0.2,0.4s0.4,0.2,0.7,0.2h1.9
				c0.7,0,1.2,0.2,1.5,0.5c0.4,0.3,0.6,0.8,0.6,1.3c0,0.6-0.3,1.1-0.8,1.5c-0.6,0.4-1.4,0.6-2.5,0.6c-2.1,0-3.1-0.6-3.1-1.7
				c0-0.6,0.3-1,0.9-1.3c-0.4-0.3-0.6-0.7-0.6-1.1c0-0.6,0.3-1,1-1.3c-0.6-0.4-0.9-0.9-0.9-1.5c0-0.5,0.2-1,0.7-1.4
				c0.4-0.4,1.1-0.6,2-0.6c0.4,0,0.8,0,1.2,0.1c0.2-0.8,0.7-1.2,1.6-1.2H1083z M1078.1,492c-0.2,0.2-0.3,0.4-0.3,0.6
				c0,0.3,0.2,0.6,0.5,0.8c0.3,0.2,0.9,0.3,1.7,0.3c1.1,0,1.7-0.3,1.7-0.9c0-0.2-0.1-0.4-0.3-0.5c-0.2-0.1-0.4-0.2-0.7-0.2h-1.5
				C1078.9,492.1,1078.5,492.1,1078.1,492z M1079.7,488.8c0.8,0,1.2-0.4,1.2-1.1c0-0.3-0.1-0.5-0.3-0.7c-0.2-0.2-0.5-0.3-0.9-0.3
				s-0.7,0.1-0.9,0.3c-0.2,0.2-0.3,0.5-0.3,0.8s0.1,0.6,0.3,0.8C1079,488.7,1079.3,488.8,1079.7,488.8z"/>
		</g>
	</g>
	<g>
		<path d="M1089.4,754h-5.2v-5.2c0-0.6-0.5-1.1-1.1-1.1s-1.1,0.5-1.1,1.1v5.2h-5.2c-0.6,0-1.1,0.5-1.1,1.1s0.5,1.1,1.1,1.1h5.2v5.2
			c0,0.6,0.5,1.1,1.1,1.1s1.1-0.5,1.1-1.1v-5.2h5.2c0.6,0,1.1-0.5,1.1-1.1S1090,754,1089.4,754z"/>
		<path d="M1045.9,753.8h-5.1v-5.1c0-0.6-0.5-1.1-1.1-1.1s-1.1,0.5-1.1,1.1v5.1h-5.1c-0.6,0-1.1,0.5-1.1,1.1s0.5,1.1,1.1,1.1h5.1
			v5.1c0,0.6,0.5,1.1,1.1,1.1s1.1-0.5,1.1-1.1V756h5.1c0.6,0,1.1-0.5,1.1-1.1S1046.5,753.8,1045.9,753.8z"/>
		<path d="M1024.6,748.3L1024.6,748.3L1024.6,748.3L1024.6,748.3c-0.1-0.1-0.2-0.2-0.3-0.2c-0.1,0-0.2,0-0.3-0.1h-0.1h-0.1
			c-0.1,0-0.2,0-0.3,0.1s-0.2,0.1-0.3,0.2l0,0l0,0l0,0l-4.1,4.1c-0.4,0.4-0.4,1.1,0,1.5c0.2,0.2,0.5,0.3,0.8,0.3s0.5-0.1,0.8-0.3
			l2.3-2.3v9.8c0,0.6,0.5,1.1,1.1,1.1s1.1-0.5,1.1-1.1v-9.8l2.3,2.3c0.2,0.2,0.5,0.3,0.8,0.3s0.5-0.1,0.8-0.3c0.4-0.4,0.4-1.1,0-1.5
			L1024.6,748.3z"/>
		<path d="M940.6,751.2c-0.5-0.3-1.2-0.1-1.4,0.4l-0.5,0.9c-1-2.9-3.7-4.9-6.9-4.9c-4.1,0-7.4,3.3-7.4,7.4c0,4.1,3.3,7.4,7.4,7.4
			c2.6,0,4.9-1.3,6.3-3.5c0.3-0.5,0.1-1.2-0.4-1.5s-1.2-0.1-1.5,0.4c-1,1.6-2.6,2.5-4.5,2.5c-2.9,0-5.2-2.4-5.2-5.2s2.4-5.2,5.2-5.2
			c2.3,0,4.2,1.5,4.9,3.5l-1-0.5c-0.5-0.3-1.2-0.1-1.4,0.4c-0.3,0.5-0.1,1.2,0.4,1.4l3.2,1.7c0.2,0.1,0.3,0.1,0.5,0.1
			c0.1,0,0.2,0,0.3,0c0.3-0.1,0.5-0.3,0.7-0.5l0,0l1.7-3.2C941.3,752.1,941.1,751.5,940.6,751.2z"/>
		<path d="M885.8,748.8c-0.5-0.3-1.2-0.2-1.5,0.3s-0.2,1.2,0.3,1.5c1.5,1,2.4,2.6,2.4,4.4c0,2.9-2.4,5.2-5.2,5.2s-5.2-2.4-5.2-5.2
			c0-1.8,0.9-3.5,2.4-4.4c0.5-0.3,0.6-1,0.3-1.5s-1-0.6-1.5-0.3c-2.1,1.4-3.4,3.7-3.4,6.2c0,4.1,3.3,7.4,7.4,7.4s7.4-3.3,7.4-7.4
			C889.2,752.5,888,750.2,885.8,748.8z"/>
		<path d="M881.9,756.1c0.6,0,1.1-0.5,1.1-1.1v-8c0-0.6-0.5-1.1-1.1-1.1s-1.1,0.5-1.1,1.1v8.1C880.8,755.6,881.3,756.1,881.9,756.1z
			"/>
		<path d="M988.1,754.1l-10.2-6.3c-0.3-0.2-0.7-0.2-1.1,0c-0.3,0.2-0.5,0.5-0.5,0.9v12.6c0,0.4,0.2,0.7,0.5,0.9
			c0.2,0.1,0.3,0.1,0.5,0.1s0.4-0.1,0.6-0.2l10.2-6.3c0.3-0.2,0.5-0.5,0.5-0.9S988.5,754.3,988.1,754.1z M978.5,759.4v-8.8l7.1,4.4
			L978.5,759.4z"/>
	</g>
	<path class="st0" d="M1254.9,503.4v16.4c-0.3,0,0,0.3,0,0h8.2c0.2,0,0.3,0.1,0.3,0.3v17c0,0.2-0.1,0.3-0.3,0.3h-8.2
		c0-0.3-0.3,0,0,0v16.4c-0.3,0,0,0.3,0,0h8.2c0.2,0,0.3,0.1,0.3,0.3v17c0,0.2-0.1,0.3-0.3,0.3h-8.2c0-0.3-0.3,0,0,0v16.4
		c-0.3,0,0,0.3,0,0h8.2c0.2,0,0.3,0.1,0.3,0.3v17c0,0.2-0.1,0.3-0.3,0.3h-8.2c0-0.3-0.3,0,0,0v34.9c-0.3,0,0,0.3,0,0h8.2
		c0.2,0,0.3,0.1,0.3,0.3v17c0,0.2-0.1,0.3-0.3,0.3h-8.2c0-0.3-0.3,0,0,0v16.4c-0.3,0,0,0.3,0,0h8.2c0.2,0,0.3,0.1,0.3,0.3v17
		c0,0.1-0.1,0.3-0.3,0.3h-8.2c0-0.3-0.3,0,0,0v16.4c-0.3,0,0,0.3,0,0h8.2c0.2,0,0.3,0.1,0.3,0.3v17c0,0.2-0.1,0.3-0.3,0.3h-8.2
		c0-0.3-0.3,0,0,0v16.4c-0.3,0,0,0.3,0,0h8.2c0.2,0,0.3,0.1,0.3,0.3v17c0,0.1,0,0.2-0.1,0.2c0,0.1-0.1,0.1-0.2,0.1h-8.2
		c0-0.1-0.1-0.1-0.1-0.1v0.1h0.1v17.4c0,8.8-2.3,17.4-6.7,25c-4.4,7.6-10.7,13.9-18.3,18.3c-7.6,4.4-16.2,6.7-24.9,6.7h-26.6
		c0-0.3-0.3,0,0,0v8.2c0,0.2-0.1,0.3-0.3,0.3h-17c-0.2,0-0.3-0.1-0.3-0.3v-8.2c0.3,0,0-0.3,0,0h-16.4c0-0.3-0.3,0,0,0v8.2
		c0,0.2-0.1,0.3-0.3,0.3h-17c-0.2,0-0.3-0.1-0.3-0.3v-8.2c0.3,0,0-0.3,0,0h-16.5c0-0.3-0.3,0,0,0v8.2c0,0.2-0.1,0.3-0.3,0.3h-17
		c-0.2,0-0.3-0.1-0.3-0.3v-8.2c0.3,0,0-0.3,0,0h-16.4c0-0.3-0.3,0,0,0v8.2c0,0.2-0.1,0.3-0.3,0.3h-17c-0.2,0-0.3-0.1-0.3-0.3v-8.2
		c0.3,0,0-0.3,0,0h-16.4c0-0.3-0.3,0,0,0v8.2c0,0.2-0.1,0.3-0.3,0.3h-17c-0.2,0-0.3-0.1-0.3-0.3v-8.2c0.3,0,0-0.3,0,0h-16.4
		c0-0.3-0.3,0,0,0v8.2c0,0.2-0.1,0.3-0.3,0.3h-17c-0.2,0-0.3-0.1-0.3-0.3v-8.2c0.3,0,0-0.3,0,0h-16.4c0-0.3-0.3,0,0,0v8.2
		c0,0.2-0.1,0.3-0.3,0.3h-17c-0.2,0-0.3-0.1-0.3-0.3v-8.2c0.3,0,0-0.3,0,0h-16.4c0-0.3-0.3,0,0,0v8.2c0,0.2-0.1,0.3-0.3,0.3h-17
		c-0.2,0-0.3-0.1-0.3-0.3v-8.2c0.3,0,0-0.3,0,0h-16.4c0-0.3-0.3,0,0,0v8.2c0,0.2-0.1,0.3-0.3,0.3h-17c-0.2,0-0.3-0.1-0.3-0.3v-8.2
		c0.3,0,0-0.3,0,0h-16.4c0-0.3-0.3,0,0,0v8.2c0,0.2-0.1,0.3-0.3,0.3h-17c-0.1,0-0.3-0.1-0.3-0.3v-8.2c0.3,0,0-0.3,0,0h-16.4
		c0-0.3-0.3,0,0,0v8.2c0,0.2-0.1,0.3-0.3,0.3h-17c-0.2,0-0.3-0.1-0.3-0.3v-8.2c0.3,0,0-0.3,0,0h-16.4c0-0.3-0.3,0,0,0v8.2
		c0,0.2-0.1,0.3-0.3,0.3h-17c-0.1,0-0.3-0.1-0.3-0.3v-8.2c0.3,0,0-0.3,0,0H760c-8.8,0-17.4-2.3-24.9-6.7
		c-7.6-4.4-13.9-10.7-18.3-18.3c-4.4-7.6-6.7-16.2-6.7-25v-17.4c0.3,0,0-0.3,0,0h-8.2c-0.1,0-0.3-0.1-0.3-0.3v-17
		c0-0.2,0.1-0.3,0.3-0.3h8.2c0,0.3,0.3,0,0,0v-16.4c0.3,0,0-0.3,0,0h-8.2c-0.1,0-0.3-0.1-0.3-0.3v-17c0-0.2,0.1-0.3,0.3-0.3h8.2
		c0,0.3,0.3,0,0,0v-16.4c0.3,0,0-0.3,0,0h-8.2c-0.1,0-0.3-0.1-0.3-0.3v-17c0-0.2,0.1-0.3,0.3-0.3h8.2c0,0.3,0.3,0,0,0v-16.4
		c0.3,0,0-0.3,0,0h-8.2c-0.1,0-0.3-0.1-0.3-0.3v-17c0-0.2,0.1-0.3,0.3-0.3h8.2c0,0.3,0.3,0,0,0v-34.9c0.3,0,0-0.3,0,0h-8.2
		c-0.1,0-0.3-0.1-0.3-0.3v-17c0-0.2,0.1-0.3,0.3-0.3h8.2c0,0.3,0.3,0,0,0v-16.4c0.3,0,0-0.3,0,0h-8.2c-0.1,0-0.3-0.1-0.3-0.3v-17
		c0-0.2,0.1-0.3,0.3-0.3h8.2c0,0.3,0.3,0,0,0v-16.4c0.3,0,0-0.3,0,0h-8.2c-0.1,0-0.3-0.1-0.3-0.3v-17c0-0.2,0.1-0.3,0.3-0.3h8.2
		c0,0.3,0.3,0,0,0v-16.4c0.3,0,0-0.3,0,0h-8.2c-0.1,0-0.3-0.1-0.3-0.3v-17c0-0.2,0.1-0.3,0.3-0.3h8.2c0,0.3,0.3,0,0,0v-17.4
		c0-8.8,2.3-17.4,6.7-25s10.7-13.9,18.3-18.3s16.2-6.7,24.9-6.7h26.6c0,0.3,0.3,0,0,0v-8.2c0-0.2,0.1-0.3,0.3-0.3h17
		c0.2,0,0.3,0.1,0.3,0.3v8.2c-0.3,0,0,0.3,0,0h16.4c0,0.3,0.3,0,0,0v-8.2c0-0.2,0.1-0.3,0.3-0.3h17c0.2,0,0.3,0.1,0.3,0.3v8.2
		c-0.3,0,0,0.3,0,0h16.4c0,0.3,0.3,0,0,0v-8.2c0-0.2,0.1-0.3,0.3-0.3h17c0.2,0,0.3,0.1,0.3,0.3v8.2c-0.3,0,0,0.3,0,0h16.4
		c0,0.3,0.3,0,0,0v-8.2c0-0.2,0.1-0.3,0.3-0.3h17c0.2,0,0.3,0.1,0.3,0.3v8.2c-0.3,0,0,0.3,0,0h16.4c0,0.3,0.3,0,0,0v-8.2
		c0-0.2,0.1-0.3,0.3-0.3h17c0.2,0,0.3,0.1,0.3,0.3v8.2c-0.3,0,0,0.3,0,0h16.4c0,0.3,0.3,0,0,0v-8.2c0-0.2,0.1-0.3,0.3-0.3h17
		c0.1,0,0.3,0.1,0.3,0.3v8.2c-0.3,0,0,0.3,0,0h16.4c0,0.3,0.3,0,0,0v-8.2c0-0.2,0.1-0.3,0.3-0.3h17c0.2,0,0.3,0.1,0.3,0.3v8.2
		c-0.3,0,0,0.3,0,0h16.4c0,0.3,0.3,0,0,0v-8.2c0-0.2,0.1-0.3,0.3-0.3h17c0.2,0,0.3,0.1,0.3,0.3v8.2c-0.3,0,0,0.3,0,0h16.4
		c0,0.3,0.3,0,0,0v-8.2c0-0.2,0.1-0.3,0.3-0.3h17c0.1,0,0.3,0.1,0.3,0.3v8.2c-0.3,0,0,0.3,0,0h16.4c0,0.3,0.3,0,0,0v-8.2
		c0-0.2,0.1-0.3,0.3-0.3h17c0.2,0,0.3,0.1,0.3,0.3v8.2c-0.3,0,0,0.3,0,0h16.5c0,0.3,0.3,0,0,0v-8.2c0-0.2,0.1-0.3,0.3-0.3h17
		c0.2,0,0.3,0.1,0.3,0.3v8.2c-0.3,0,0,0.3,0,0h16.4c0,0.3,0.3,0,0,0v-8.2c0-0.2,0.1-0.3,0.3-0.3h17c0.2,0,0.3,0.1,0.3,0.3v8.2
		c-0.3,0,0,0.3,0,0h26.6c8.8,0,17.4,2.3,24.9,6.7c7.6,4.4,13.9,10.7,18.3,18.3c4.4,7.6,6.7,16.2,6.7,25v17.4h-0.1l0,0c0,0,0,0,0,0.1
		c0,0,0.1,0,0.1-0.1h8.2c0.1,0,0.2,0,0.2,0.1s0.1,0.1,0.1,0.2v17c0,0.2-0.1,0.3-0.3,0.3L1254.9,503.4
		C1254.9,503.1,1254.6,503.4,1254.9,503.4z"/>
</g>
<g>
	<g>
		<path class="st0" d="M172.8,228.4v-51.2 M172.8,168.8V75 M172.8,66.4V15.2 M177,23.8v93.8 M177,126.1v93.8 M181.3,228.4v-51.2
			 M181.3,168.8V75 M181.3,66.4V15.2 M185.5,23.8v93.8 M185.5,126.1v93.8 M189.8,228.4v-51.2 M189.8,168.8V75 M189.8,66.4V15.2
			 M194,23.8v93.8 M194,126.1v93.8 M198.3,228.4v-51.2 M198.3,168.8V75 M198.3,66.4V15.2 M202.5,23.8v93.8 M202.5,126.1v93.8
			 M206.8,228.4v-51.2 M206.8,168.8V75 M206.8,66.4V15.2 M211,23.8v93.8 M211,126.1v93.8 M215.3,228.4v-51.2 M215.3,168.8V75
			 M215.3,66.4V15.2 M219.5,23.8v93.8 M219.5,126.1v93.8 M223.8,228.4v-51.2 M223.8,168.8V75 M223.8,66.4V15.2 M228.1,23.8v93.8
			 M228.1,126.1v93.8 M232.3,228.4v-51.2 M232.3,168.8V75 M232.3,66.4V15.2 M236.6,23.8v93.8 M236.6,126.1v93.8"/>
		<path class="st0" d="M692.5,228.4v-51.2 M692.5,168.8V75 M692.5,66.4V15.2 M696.7,23.8v93.8 M696.7,126.1v93.8 M701,228.4v-51.2
			 M701,168.8V75 M701,66.4V15.2 M705.2,23.8v93.8 M705.2,126.1v93.8 M709.5,228.4v-51.2 M709.5,168.8V75 M709.5,66.4V15.2
			 M713.7,23.8v93.8 M713.7,126.1v93.8 M718,228.4v-51.2 M718,168.8V75 M718,66.4V15.2 M722.2,23.8v93.8 M722.2,126.1v93.8
			 M726.5,228.4v-51.2 M726.5,168.8V75 M726.5,66.4V15.2 M730.7,23.8v93.8 M730.7,126.1v93.8 M735,228.4v-51.2 M735,168.8V75
			 M735,66.4V15.2 M739.2,23.8v93.8 M739.2,126.1v93.8 M743.5,228.4v-51.2 M743.5,168.8V75 M743.5,66.4V15.2 M747.7,23.8v93.8
			 M747.7,126.1v93.8 M752,228.4v-51.2 M752,168.8V75 M752,66.4V15.2 M756.2,23.8v93.8 M756.2,126.1v93.8"/>
		<path class="st0" d="M336.7,153.9v15.9c0,1.1-0.9,2-2,2h-38.6c-1.1,0-2-0.9-2-2v-15.9c0-1.1,0.9-2,2-2h38.6
			C335.8,151.9,336.7,152.8,336.7,153.9z"/>
	</g>
	<path class="st0" d="M460.3,73.9L460.3,73.9c-2,0-3.7,1.3-4.1,3.2l-8.4,34c-0.7,2.7,1.4,5.3,4.1,5.3l0,0c2,0,3.7-1.3,4.1-3.2
		l8.4-34C465,76.5,463,73.9,460.3,73.9z M442.7,73.9L442.7,73.9c-2,0-3.7,1.3-4.1,3.2l-8.4,34c-0.7,2.7,1.4,5.3,4.1,5.3l0,0
		c1.9,0,3.7-1.3,4.1-3.2l8.4-34C447.5,76.5,445.5,73.9,442.7,73.9z M425.2,73.9c-1.9,0-3.7,1.3-4.1,3.2l-8.4,34
		c-0.7,2.7,1.4,5.3,4.1,5.3l0,0c2,0,3.7-1.3,4.1-3.2l8.4-34c0.1-0.3,0.1-0.7,0.1-1C429.5,75.9,427.6,73.9,425.2,73.9z M407.7,73.9
		L407.7,73.9c-2,0-3.7,1.3-4.1,3.2l-8.4,34c-0.7,2.7,1.4,5.3,4.1,5.3l0,0c2,0,3.7-1.3,4.1-3.2l8.4-34
		C412.5,76.5,410.5,73.9,407.7,73.9z M390.2,73.9L390.2,73.9c-2,0-3.7,1.3-4.1,3.2l-8.4,34c-0.7,2.7,1.4,5.3,4.1,5.3l0,0
		c2,0,3.7-1.3,4.1-3.2l8.4-34C395,76.5,392.9,73.9,390.2,73.9z M372.7,73.9L372.7,73.9c-2,0-3.7,1.3-4.1,3.2l-8.4,34
		c-0.7,2.7,1.4,5.3,4.1,5.3l0,0c1.9,0,3.6-1.3,4.1-3.2l8.4-34C377.4,76.5,375.4,73.9,372.7,73.9z M355.1,73.9L355.1,73.9
		c-2,0-3.7,1.3-4.1,3.2l-8.4,34c-0.7,2.7,1.4,5.3,4.1,5.3l0,0c1.9,0,3.6-1.3,4.1-3.2l8.4-34C359.9,76.5,357.9,73.9,355.1,73.9z
		 M337.6,73.9c-1.9,0-3.7,1.3-4.1,3.2l-8.4,34c-0.1,0.3-0.1,0.7-0.1,1c0,2.3,1.9,4.2,4.3,4.2c1.9,0,3.6-1.3,4.1-3.2l8.4-34
		c0.1-0.3,0.1-0.7,0.1-1C341.9,75.9,340,73.9,337.6,73.9z M320.1,73.9L320.1,73.9c-2,0-3.7,1.3-4.1,3.2l-8.4,34
		c-0.7,2.7,1.4,5.3,4.1,5.3l0,0c1.9,0,3.6-1.3,4.1-3.2l8.4-34C324.9,76.5,322.9,73.9,320.1,73.9z M302.6,73.9L302.6,73.9
		c-2,0-3.7,1.3-4.1,3.2l-8.4,34c-0.7,2.7,1.4,5.3,4.1,5.3l0,0c1.9,0,3.7-1.3,4.1-3.2l8.4-34C307.4,76.5,305.3,73.9,302.6,73.9z"/>
	<path class="st0" d="M916.7,79.8c0.2-0.2,0.4-0.4,0.7-0.5s0.6-0.1,0.9,0c0.3,0.1,0.5,0.2,0.7,0.5l6.7,8c0.3,0.3,0.6,0.5,1,0.7
		c0.4,0.1,0.8,0.1,1.2-0.1c0.4-0.1,0.7-0.4,1-0.7c0.2-0.3,0.4-0.7,0.4-1.1V55.1c0-0.4-0.1-0.8-0.4-1.1c-0.2-0.3-0.6-0.6-1-0.7
		c-0.4-0.1-0.8-0.2-1.2-0.1c-0.4,0.1-0.7,0.3-1,0.7l-6.7,8c-0.2,0.2-0.4,0.4-0.7,0.5s-0.6,0.1-0.9,0c-0.3-0.1-0.5-0.3-0.7-0.5
		s-0.3-0.5-0.3-0.8V15.5c0-0.2-0.1-0.3-0.3-0.3h-17.7c-0.2,0-0.3,0.1-0.3,0.3v8.2h-16.4v-8.2c0-0.2-0.1-0.3-0.3-0.3h-17
		c-0.2,0-0.3,0.1-0.3,0.3v8.2h-16.4v-8.2c0-0.2-0.1-0.3-0.3-0.3h-17c-0.2,0-0.3,0.1-0.3,0.3v8.2h-16.4v-8.2c0-0.2-0.1-0.3-0.3-0.3
		h-17c-0.2,0-0.3,0.1-0.3,0.3v8.2h-16.4v-8.2c0-0.2-0.1-0.3-0.3-0.3H660.1c-0.2,0-0.3,0.1-0.3,0.3v8.2h-16.4v-8.2
		c0-0.2-0.1-0.3-0.3-0.3h-17c-0.2,0-0.3,0.1-0.3,0.3v8.2h-16.4v-8.2c0-0.2-0.1-0.3-0.3-0.3h-17c-0.2,0-0.3,0.1-0.3,0.3v8.2h-16.4
		v-8.2c0-0.1-0.1-0.3-0.3-0.3h-17c-0.2,0-0.3,0.1-0.3,0.3v8.2h-16.4v-8.2c0-0.2-0.1-0.3-0.3-0.3h-17c-0.2,0-0.3,0.1-0.3,0.3v8.2
		h-16.4v-8.2c0-0.2-0.1-0.3-0.3-0.3h-17c-0.2,0-0.3,0.1-0.3,0.3v8.2h-16.5v-8.2c0-0.2-0.1-0.3-0.3-0.3h-17c-0.2,0-0.3,0.1-0.3,0.3
		v8.2h-16.4v-8.2c0-0.2-0.1-0.3-0.3-0.3h-17c-0.2,0-0.3,0.1-0.3,0.3v8.2h-16.4v-8.2c0-0.2-0.1-0.3-0.3-0.3h-17
		c-0.2,0-0.3,0.1-0.3,0.3v8.2h-16.4v-8.2c0-0.2-0.1-0.3-0.3-0.3h-17c-0.2,0-0.3,0.1-0.3,0.3v8.2h-16.4v-8.2c0-0.2-0.1-0.3-0.3-0.3
		h-17c-0.2,0-0.3,0.1-0.3,0.3v8.2h-16.4v-8.2c0-0.2-0.1-0.3-0.3-0.3h-17c-0.1,0-0.3,0.1-0.3,0.3v8.2h-16.4v-8.2
		c0-0.2-0.1-0.3-0.3-0.3H149.6c-0.2,0-0.3,0.1-0.3,0.3v8.2h-16.4v-8.2c0-0.2-0.1-0.3-0.3-0.3h-17c-0.2,0-0.3,0.1-0.3,0.3v8.2H98.9
		v-8.2c0-0.2-0.1-0.3-0.3-0.3h-17c-0.1,0-0.3,0.1-0.3,0.3v8.2H64.9v-8.2c0-0.2-0.1-0.3-0.3-0.3h-17c-0.2,0-0.3,0.1-0.3,0.3v8.2H30.9
		v-8.2c0-0.2-0.1-0.3-0.3-0.3H12.9c-0.1,0-0.3,0.1-0.3,0.3V61c0,0.4,0.1,0.8,0.4,1.1c0.2,0.3,0.6,0.6,0.9,0.7c0.4,0.1,0.8,0.2,1.2,0
		c0.4-0.1,0.7-0.3,1-0.6l6.8-8c0.2-0.2,0.4-0.4,0.7-0.5c0.3-0.1,0.6-0.1,0.9,0s0.5,0.3,0.7,0.5s0.3,0.5,0.3,0.8v31.4
		c0,0.3-0.1,0.6-0.3,0.8c-0.2,0.2-0.4,0.4-0.7,0.5c-0.3,0.1-0.6,0.1-0.9,0s-0.5-0.2-0.7-0.5l-6.8-8c-0.3-0.3-0.6-0.5-1-0.6
		s-0.8-0.1-1.2,0.1c-0.4,0.1-0.7,0.4-0.9,0.7c-0.2,0.3-0.4,0.7-0.4,1.1V112c0,0.4,0.1,0.8,0.4,1.1c0.2,0.3,0.6,0.6,0.9,0.7
		c0.4,0.1,0.8,0.1,1.2,0s0.7-0.3,1-0.6l6.8-8.1c0.2-0.2,0.4-0.4,0.7-0.4c0.3-0.1,0.6-0.1,0.9,0s0.5,0.3,0.7,0.5s0.3,0.5,0.3,0.8
		v31.4c0,0.3-0.1,0.6-0.3,0.8c-0.2,0.2-0.4,0.4-0.7,0.5c-0.3,0.1-0.6,0.1-0.9,0s-0.5-0.2-0.7-0.5l-6.8-8c-0.3-0.3-0.6-0.5-1-0.6
		s-0.8-0.1-1.2,0.1c-0.4,0.1-0.7,0.4-0.9,0.7s-0.4,0.7-0.4,1.1V163c0,0.4,0.1,0.8,0.4,1.1c0.2,0.3,0.6,0.6,0.9,0.7
		c0.4,0.1,0.8,0.2,1.2,0.1c0.4-0.1,0.7-0.3,1-0.6l6.8-8c0.2-0.2,0.4-0.4,0.7-0.5c0.3-0.1,0.6-0.1,0.9,0s0.5,0.3,0.7,0.5
		s0.3,0.5,0.3,0.8v31.4c0,0.3-0.1,0.6-0.3,0.8c-0.2,0.2-0.4,0.4-0.7,0.5c-0.3,0.1-0.6,0.1-0.9,0s-0.5-0.2-0.7-0.5l-6.8-8
		c-0.3-0.3-0.6-0.5-1-0.6s-0.8-0.1-1.2,0.1c-0.4,0.1-0.7,0.4-0.9,0.7s-0.4,0.7-0.4,1.1V228c0,0.2,0.1,0.3,0.3,0.3h219.5h460.1h223.7
		c0.2,0,0.3-0.1,0.3-0.3v-45.5c0-0.3,0.1-0.6,0.3-0.8s0.4-0.4,0.7-0.5s0.6-0.1,0.9,0c0.3,0.1,0.5,0.2,0.7,0.5l6.7,8
		c0.3,0.3,0.6,0.5,1,0.6s0.8,0.1,1.2-0.1c0.4-0.1,0.7-0.4,1-0.7c0.2-0.3,0.4-0.7,0.4-1.1V157c0-0.4-0.1-0.8-0.4-1.1
		c-0.2-0.3-0.6-0.6-1-0.7c-0.4-0.1-0.8-0.2-1.2-0.1c-0.4,0.1-0.7,0.3-1,0.6l-6.7,8c-0.2,0.2-0.4,0.4-0.7,0.5s-0.6,0.1-0.9,0
		c-0.3-0.1-0.5-0.3-0.7-0.5s-0.3-0.5-0.3-0.8v-31.4c0-0.3,0.1-0.6,0.3-0.8s0.4-0.4,0.7-0.5s0.6-0.1,0.9,0c0.3,0.1,0.5,0.2,0.7,0.5
		l6.7,8c0.3,0.3,0.6,0.5,1,0.6s0.8,0.1,1.2,0s0.7-0.4,1-0.7c0.2-0.3,0.4-0.7,0.4-1.1v-31.4c0-0.4-0.1-0.8-0.4-1.1
		c-0.2-0.3-0.6-0.6-1-0.7s-0.8-0.2-1.2-0.1s-0.7,0.3-1,0.6l-6.7,8c-0.2,0.2-0.4,0.4-0.7,0.5s-0.6,0.1-0.9,0
		c-0.3-0.1-0.5-0.3-0.7-0.5s-0.3-0.5-0.3-0.8V80.6C916.4,80.4,916.5,80.1,916.7,79.8z"/>
</g>
<g>
	<g>
		<path class="st0" d="M306.9,301l-8.4,34c-0.5,1.9-2.2,3.2-4.1,3.2l0,0c-2.8,0-4.8-2.6-4.1-5.3l8.4-34c0.5-1.9,2.2-3.2,4.1-3.2l0,0
			C305.5,295.7,307.6,298.3,306.9,301z"/>
		<path class="st0" d="M324.4,301l-8.4,34c-0.5,1.9-2.2,3.2-4.1,3.2l0,0c-2.8,0-4.8-2.6-4.1-5.3l8.4-34c0.5-1.9,2.2-3.2,4.1-3.2l0,0
			C323.1,295.7,325.1,298.3,324.4,301z"/>
		<path class="st0" d="M394.5,301l-8.4,34c-0.5,1.9-2.2,3.2-4.1,3.2l0,0c-2.8,0-4.8-2.6-4.1-5.3l8.4-34c0.5-1.9,2.2-3.2,4.1-3.2l0,0
			C393.1,295.7,395.2,298.3,394.5,301z"/>
		<path class="st0" d="M412,301l-8.4,34c-0.5,1.9-2.2,3.2-4.1,3.2l0,0c-2.8,0-4.8-2.6-4.1-5.3l8.4-34c0.5-1.9,2.2-3.2,4.1-3.2l0,0
			C410.7,295.7,412.7,298.3,412,301z"/>
		<path class="st0" d="M429.7,300c0,0.3-0.1,0.7-0.1,1l-8.4,34c-0.5,1.9-2.2,3.2-4.1,3.2l0,0c-2.8,0-4.8-2.6-4.1-5.3l8.4-34
			c0.5-1.9,2.2-3.2,4.1-3.2C427.8,295.7,429.7,297.7,429.7,300z"/>
		<path class="st0" d="M447.1,301l-8.4,34c-0.5,1.9-2.2,3.2-4.1,3.2l0,0c-2.8,0-4.8-2.6-4.1-5.3l8.4-34c0.5-1.9,2.2-3.2,4.1-3.2l0,0
			C445.7,295.7,447.7,298.3,447.1,301z"/>
		<path class="st0" d="M464.6,301l-8.4,34c-0.5,1.9-2.2,3.2-4.1,3.2l0,0c-2.8,0-4.8-2.6-4.1-5.3l8.4-34c0.5-1.9,2.2-3.2,4.1-3.2l0,0
			C463.2,295.7,465.2,298.3,464.6,301z"/>
		<path class="st0" d="M482.1,301l-8.4,34c-0.5,1.9-2.2,3.2-4.1,3.2c-2.4,0-4.2-2-4.2-4.2c0-0.3,0-0.7,0.1-1l8.4-34
			c0.5-1.9,2.2-3.2,4.1-3.2l0,0C480.7,295.7,482.8,298.3,482.1,301z"/>
		<path class="st0" d="M499.6,301l-8.4,34c-0.5,1.9-2.2,3.2-4.1,3.2l0,0c-2.8,0-4.8-2.6-4.1-5.3l8.4-34c0.5-1.9,2.2-3.2,4.1-3.2l0,0
			C498.2,295.7,500.3,298.3,499.6,301z"/>
		<path class="st0" d="M517.1,301l-8.4,34c-0.5,1.9-2.2,3.2-4.1,3.2c-2.4,0-4.2-2-4.2-4.2c0-0.3,0-0.7,0.1-1l8.4-34
			c0.5-1.9,2.2-3.2,4.1-3.2l0,0C515.8,295.7,517.8,298.3,517.1,301z"/>
		<path class="st0" d="M534.7,301l-8.4,34c-0.5,1.9-2.2,3.2-4.1,3.2l0,0c-2.8,0-4.8-2.6-4.1-5.3l8.4-34c0.5-1.9,2.2-3.2,4.1-3.2l0,0
			C533.3,295.7,535.3,298.3,534.7,301z"/>
		<path class="st0" d="M552.2,301l-8.4,34c-0.5,1.9-2.2,3.2-4.1,3.2l0,0c-2.8,0-4.8-2.6-4.1-5.3l8.4-34c0.5-1.9,2.2-3.2,4.1-3.2l0,0
			C550.8,295.7,552.8,298.3,552.2,301z"/>
		<path class="st0" d="M569.7,301l-8.4,34c-0.5,1.9-2.2,3.2-4.1,3.2l0,0c-2.8,0-4.8-2.6-4.1-5.3l8.4-34c0.5-1.9,2.2-3.2,4.1-3.2l0,0
			C568.3,295.7,570.3,298.3,569.7,301z"/>
		<path class="st0" d="M587.2,301l-8.4,34c-0.5,1.9-2.2,3.2-4.1,3.2l0,0c-2.8,0-4.8-2.6-4.1-5.3l8.4-34c0.5-1.9,2.2-3.2,4.1-3.2l0,0
			C585.8,295.7,587.9,298.3,587.2,301z"/>
		<path class="st0" d="M604.8,300c0,0.3,0,0.7-0.1,1l-8.4,34c-0.5,1.9-2.2,3.2-4.1,3.2l0,0c-2.8,0-4.8-2.6-4.1-5.3l8.4-34
			c0.5-1.9,2.2-3.2,4.1-3.2C603,295.7,604.8,297.7,604.8,300z"/>
		<path class="st0" d="M622.4,300c0,0.3,0,0.7-0.1,1l-8.4,34c-0.5,1.9-2.2,3.2-4.1,3.2l0,0c-2.8,0-4.8-2.6-4.1-5.3l8.4-34
			c0.5-1.9,2.2-3.2,4.1-3.2C620.5,295.7,622.4,297.7,622.4,300z"/>
		<path class="st0" d="M639.8,301l-8.4,34c-0.5,1.9-2.2,3.2-4.1,3.2l0,0c-2.8,0-4.8-2.6-4.1-5.3l8.4-34c0.5-1.9,2.2-3.2,4.1-3.2l0,0
			C638.4,295.7,640.4,298.3,639.8,301z"/>
		<path class="st0" d="M377.1,300c0,0.3,0,0.6-0.1,1l-8.4,34c-0.5,1.9-2.2,3.2-4.1,3.2h-35c-2.3,0-4.1-1.8-4.2-3.9
			c0-0.1,0-0.2,0-0.3v-0.1c0-0.3,0-0.7,0.1-1l8.4-34c0.4-1.5,1.5-2.6,2.8-3c0.2-0.1,0.4-0.1,0.6-0.1c0.2,0,0.5-0.1,0.7-0.1h35
			C375.3,295.7,377.1,297.7,377.1,300z"/>
	</g>
	<g>
		<g>
			<path class="st0" d="M237.2,441.7v-93.8 M237.2,339.4v-93.8 M232.9,288.2V237 M232.9,390.6v-93.8 M232.9,399.1v51.2l0,0
				 M228.7,441.7v-93.8 M228.7,339.4v-93.8 M224.4,288.2V237 M224.4,390.6v-93.8 M224.4,399.1v51.2l0,0 M220.2,441.7v-93.8
				 M220.2,339.4v-93.8 M215.9,288.2V237 M215.9,390.6v-93.8 M215.9,399.1v51.2l0,0 M211.7,441.7v-93.8 M211.7,339.4v-93.8
				 M207.4,288.2V237 M207.4,390.6v-93.8 M207.4,399.1v51.2l0,0 M203.2,441.7v-93.8 M203.2,339.4v-93.8 M198.9,288.2V237
				 M198.9,390.6v-93.8 M198.9,399.1v51.2l0,0 M194.7,441.7v-93.8 M194.7,339.4v-93.8 M190.4,288.2V237 M190.4,390.6v-93.8
				 M190.4,399.1v51.2l0,0 M186.2,441.7v-93.8 M186.2,339.4v-93.8 M181.9,288.2V237 M181.9,390.6v-93.8 M181.9,399.1v51.2l0,0
				 M177.7,441.7v-93.8 M177.7,339.4v-93.8 M173.4,288.2V237 M173.4,390.6v-93.8 M173.4,399.1v51.2l0,0"/>
			<path class="st0" d="M756.9,441.7v-93.8 M756.9,339.4v-93.8 M752.6,288.2V237 M752.6,390.6v-93.8 M752.6,399.1v51.2l0,0
				 M748.4,441.7v-93.8 M748.4,339.4v-93.8 M744.1,288.2V237 M744.1,390.6v-93.8 M744.1,399.1v51.2l0,0 M739.9,441.7v-93.8
				 M739.9,339.4v-93.8 M735.6,288.2V237 M735.6,390.6v-93.8 M735.6,399.1v51.2l0,0 M731.4,441.7v-93.8 M731.4,339.4v-93.8
				 M727.1,288.2V237 M727.1,390.6v-93.8 M727.1,399.1v51.2l0,0 M722.9,441.7v-93.8 M722.9,339.4v-93.8 M718.6,288.2V237
				 M718.6,390.6v-93.8 M718.6,399.1v51.2l0,0 M714.4,441.7v-93.8 M714.4,339.4v-93.8 M710.1,288.2V237 M710.1,390.6v-93.8
				 M710.1,399.1v51.2l0,0 M705.9,441.7v-93.8 M705.9,339.4v-93.8 M701.6,288.2V237 M701.6,390.6v-93.8 M701.6,399.1v51.2l0,0
				 M697.3,441.7v-93.8 M697.3,339.4v-93.8 M693.1,288.2V237 M693.1,390.6v-93.8 M693.1,399.1v51.2l0,0"/>
			<path class="st0" d="M366.8,430.4h-25.3c-3.2,0-5.8-2.6-5.8-5.8v-11.1c0-3.2,2.6-5.8,5.8-5.8h25.3c3.2,0,5.8,2.6,5.8,5.8v11.1
				C372.6,427.8,370,430.4,366.8,430.4z"/>
		</g>
		<path class="st0" d="M150,245.6h-16.4v-8.2c0-0.2-0.1-0.3-0.3-0.3h-17c-0.2,0-0.3,0.1-0.3,0.3v8.2H99.5v-8.2
			c0-0.2-0.1-0.3-0.3-0.3h-17c-0.2,0-0.3,0.1-0.3,0.3v8.2H65.5v-8.2c0-0.2-0.1-0.3-0.3-0.3h-17c-0.2,0-0.3,0.1-0.3,0.3v8.2H31.5
			v-8.2c0-0.2-0.1-0.3-0.3-0.3H13.5c-0.1,0-0.3,0.1-0.3,0.3v45.4c0,0.4,0.1,0.8,0.4,1.1c0.2,0.3,0.6,0.6,0.9,0.7
			c0.4,0.1,0.8,0.2,1.2,0c0.4-0.1,0.7-0.3,1-0.6l6.8-8c0.2-0.2,0.4-0.4,0.7-0.5c0.3-0.1,0.6-0.1,0.9,0s0.5,0.3,0.7,0.5
			s0.3,0.5,0.3,0.8v31.4c0,0.3-0.1,0.6-0.3,0.8c-0.2,0.2-0.4,0.4-0.7,0.5c-0.3,0.1-0.6,0.1-0.9,0s-0.5-0.2-0.7-0.5l-6.8-8
			c-0.3-0.3-0.6-0.5-1-0.6s-0.8-0.1-1.2,0.1c-0.4,0.1-0.7,0.4-0.9,0.7c-0.2,0.3-0.4,0.7-0.4,1.1v31.4c0,0.4,0.1,0.8,0.4,1.1
			c0.2,0.3,0.6,0.6,0.9,0.7c0.4,0.1,0.8,0.2,1.2,0.1s0.7-0.3,1-0.6l6.8-8.1c0.2-0.2,0.4-0.4,0.7-0.4c0.3-0.1,0.6-0.1,0.9,0
			s0.5,0.3,0.7,0.5s0.3,0.5,0.3,0.8v31.4c0,0.3-0.1,0.6-0.3,0.8c-0.2,0.2-0.4,0.4-0.7,0.5c-0.3,0.1-0.6,0.1-0.9,0s-0.5-0.2-0.7-0.5
			l-6.8-8c-0.3-0.3-0.6-0.5-1-0.6s-0.8-0.1-1.2,0s-0.7,0.4-0.9,0.7c-0.2,0.3-0.4,0.7-0.4,1.1v31.4c0,0.4,0.1,0.8,0.4,1.1
			c0.2,0.3,0.6,0.6,0.9,0.7c0.4,0.1,0.8,0.2,1.2,0.1s0.7-0.3,1-0.6l6.8-8c0.2-0.2,0.4-0.4,0.7-0.5c0.3-0.1,0.6-0.1,0.9,0
			s0.5,0.3,0.7,0.5s0.3,0.5,0.3,0.8v31.4c0,0.3-0.1,0.6-0.3,0.8c-0.2,0.2-0.4,0.4-0.7,0.5c-0.3,0.1-0.6,0.1-0.9,0s-0.5-0.2-0.7-0.5
			l-6.8-8.1c-0.3-0.3-0.6-0.5-1-0.6s-0.8-0.1-1.2,0s-0.7,0.4-0.9,0.7c-0.2,0.3-0.4,0.7-0.4,1.1v45.4c0,0.2,0.1,0.3,0.3,0.3H233"/>
		<line class="st0" x1="232.9" y1="450.2" x2="693.1" y2="450.2"/>
		<path class="st0" d="M693.1,450.2h223.7c0.1,0,0.3-0.1,0.3-0.3v-45.5c0-0.3,0.1-0.6,0.3-0.8c0.2-0.2,0.4-0.4,0.7-0.5
			s0.6-0.1,0.9,0c0.3,0.1,0.5,0.2,0.7,0.5l6.7,8c0.3,0.3,0.6,0.5,1,0.6s0.8,0.1,1.2,0s0.7-0.4,0.9-0.7c0.2-0.3,0.4-0.7,0.4-1.1V379
			c0-0.4-0.1-0.8-0.4-1.1c-0.2-0.3-0.6-0.6-0.9-0.7c-0.4-0.1-0.8-0.1-1.2,0s-0.7,0.3-1,0.6l-6.7,8c-0.2,0.2-0.4,0.4-0.7,0.5
			s-0.6,0.1-0.9,0c-0.3-0.1-0.5-0.3-0.7-0.5s-0.3-0.5-0.3-0.8v-31.4c0-0.3,0.1-0.6,0.3-0.8c0.2-0.2,0.4-0.4,0.7-0.5s0.6-0.1,0.9,0
			c0.3,0.1,0.5,0.2,0.7,0.5l6.7,8c0.3,0.3,0.6,0.5,1,0.6s0.8,0.1,1.2,0s0.7-0.4,0.9-0.7c0.2-0.3,0.4-0.7,0.4-1.1v-31.4
			c0-0.4-0.1-0.8-0.4-1.1c-0.2-0.3-0.6-0.6-0.9-0.7c-0.4-0.1-0.8-0.2-1.2,0c-0.4,0.1-0.7,0.3-1,0.6l-6.7,8c-0.2,0.2-0.4,0.4-0.7,0.5
			s-0.6,0.1-0.9,0c-0.3-0.1-0.5-0.3-0.7-0.5s-0.3-0.5-0.3-0.8v-31.4c0-0.3,0.1-0.6,0.3-0.8c0.2-0.2,0.4-0.4,0.7-0.5s0.6-0.1,0.9,0
			c0.3,0.1,0.5,0.2,0.7,0.5l6.7,8c0.3,0.3,0.6,0.5,1,0.6s0.8,0.1,1.2-0.1c0.4-0.1,0.7-0.4,0.9-0.7c0.2-0.3,0.4-0.7,0.4-1.1v-31.4
			c0-0.4-0.1-0.8-0.4-1.1c-0.2-0.3-0.6-0.6-0.9-0.7c-0.4-0.1-0.8-0.2-1.2-0.1s-0.7,0.3-1,0.6l-6.7,8c-0.2,0.2-0.4,0.4-0.7,0.5
			s-0.6,0.1-0.9,0c-0.3-0.1-0.5-0.3-0.7-0.5s-0.3-0.5-0.3-0.8v-45.5c0-0.2-0.1-0.3-0.3-0.3h-17.7c-0.2,0-0.3,0.1-0.3,0.3v8.2h-16.4
			v-8.2c0-0.2-0.1-0.3-0.3-0.3h-17c-0.2,0-0.3,0.1-0.3,0.3v8.2h-16.4v-8.2c0-0.2-0.1-0.3-0.3-0.3h-17c-0.2,0-0.3,0.1-0.3,0.3v8.2
			h-16.4v-8.2c0-0.2-0.1-0.3-0.3-0.3h-17c-0.2,0-0.3,0.1-0.3,0.3v8.2h-16.4v-8.2c0-0.2-0.1-0.3-0.3-0.3H660.8
			c-0.2,0-0.3,0.1-0.3,0.3v8.2H644v-8.2c0-0.2-0.1-0.3-0.3-0.3h-17c-0.2,0-0.3,0.1-0.3,0.3v8.2H610v-8.2c0-0.2-0.1-0.3-0.3-0.3h-17
			c-0.2,0-0.3,0.1-0.3,0.3v8.2H576v-8.2c0-0.2-0.1-0.3-0.3-0.3h-17c-0.2,0-0.3,0.1-0.3,0.3v8.2H542v-8.2c0-0.2-0.1-0.3-0.3-0.3h-17
			c-0.2,0-0.3,0.1-0.3,0.3v8.2H508v-8.2c0-0.2-0.1-0.3-0.3-0.3h-17c-0.2,0-0.3,0.1-0.3,0.3v8.2H474v-8.2c0-0.2-0.1-0.3-0.3-0.3h-17
			c-0.2,0-0.3,0.1-0.3,0.3v8.2H440v-8.2c0-0.2-0.1-0.3-0.3-0.3h-17c-0.2,0-0.3,0.1-0.3,0.3v8.2H406v-8.2c0-0.2-0.1-0.3-0.3-0.3h-17
			c-0.2,0-0.3,0.1-0.3,0.3v8.2H372v-8.2c0-0.2-0.1-0.3-0.3-0.3h-17c-0.2,0-0.3,0.1-0.3,0.3v8.2H338v-8.2c0-0.2-0.1-0.3-0.3-0.3h-17
			c-0.2,0-0.3,0.1-0.3,0.3v8.2H304v-8.2c0-0.2-0.1-0.3-0.3-0.3h-17c-0.2,0-0.3,0.1-0.3,0.3v8.2H270v-8.2c0-0.2-0.1-0.3-0.3-0.3
			H150.4c-0.2,0-0.3,0.1-0.3,0.3v8.2"/>
	</g>
</g>
</svg>
